<svg xmlns="http://www.w3.org/2000/svg" xmlns:xlink="http://www.w3.org/1999/xlink" width="100" height="112" viewBox="0 0 100 112"><defs><path id="l2s3a" d="M154.47 130.72v7.31h-6.83v-7.3c-7.27-.96-11.84-5.19-12.1-11.45h7.78c.38 3.11 3.52 5.11 8.05 5.11 4.2 0 7.15-2.02 7.15-4.93 0-2.45-1.92-3.86-6.64-4.88l-5.01-1.06c-7.01-1.47-10.45-5.12-10.45-10.99 0-6.24 4.35-10.63 11.22-11.73v-7.37h6.83v7.36c6.67 1.08 11.18 5.4 11.38 11.32h-7.57c-.37-3.04-3.2-5.07-7.09-5.07-4.03 0-6.7 1.87-6.7 4.8 0 2.37 1.85 3.73 6.35 4.7l4.64.98c7.73 1.63 11.06 4.96 11.06 10.93 0 6.76-4.52 11.23-12.07 12.27z"/><path id="l2s3c" d="M117.3 160.48c0-5.25-10.11-9.51-22.6-9.51-12.47 0-22.59 4.26-22.59 9.5v7c0 5.26 10.12 9.52 22.6 9.52 12.48 0 22.6-4.26 22.6-9.51v-7z"/><path id="l2s3e" d="M72.11 160.48c0-5.25 10.12-9.51 22.6-9.51 12.48 0 22.6 4.26 22.6 9.51s-10.12 9.51-22.6 9.51c-12.48 0-22.6-4.26-22.6-9.51z"/><path id="l2s3g" d="M117.3 151.48c0-5.25-10.11-9.51-22.6-9.51-12.47 0-22.59 4.26-22.59 9.5v7c0 5.26 10.12 9.52 22.6 9.52 12.48 0 22.6-4.26 22.6-9.51v-7z"/><path id="l2s3i" d="M72.11 151.48c0-5.25 10.12-9.51 22.6-9.51 12.48 0 22.6 4.26 22.6 9.51s-10.12 9.51-22.6 9.51c-12.48 0-22.6-4.26-22.6-9.51z"/><path id="l2s3k" d="M112.3 142.48c0-5.25-10.11-9.51-22.6-9.51-12.47 0-22.59 4.26-22.59 9.5v7c0 5.26 10.12 9.52 22.6 9.52 12.48 0 22.6-4.26 22.6-9.51v-7z"/><path id="l2s3m" d="M67.11 142.48c0-5.25 10.12-9.51 22.6-9.51 12.48 0 22.6 4.26 22.6 9.51s-10.12 9.51-22.6 9.51c-12.48 0-22.6-4.26-22.6-9.51z"/><path id="l2s3o" d="M116.3 133.48c0-5.25-10.11-9.51-22.6-9.51-12.47 0-22.59 4.26-22.59 9.5v7c0 5.26 10.12 9.52 22.6 9.52 12.48 0 22.6-4.26 22.6-9.51v-7z"/><path id="l2s3q" d="M71.11 133.48c0-5.25 10.12-9.51 22.6-9.51 12.48 0 22.6 4.26 22.6 9.51s-10.12 9.51-22.6 9.51c-12.48 0-22.6-4.26-22.6-9.51z"/><path id="l2s3s" d="M149.98 178.48c0-5.25-10.12-9.51-22.6-9.51-12.48 0-22.6 4.26-22.6 9.5v7c0 5.26 10.12 9.52 22.6 9.52 12.48 0 22.6-4.26 22.6-9.51v-7z"/><path id="l2s3u" d="M104.78 178.48c0-5.25 10.12-9.51 22.6-9.51 12.48 0 22.6 4.26 22.6 9.51s-10.12 9.51-22.6 9.51c-12.48 0-22.6-4.26-22.6-9.51z"/><path id="l2s3w" d="M149.98 169.48c0-5.25-10.12-9.51-22.6-9.51-12.48 0-22.6 4.26-22.6 9.5v7c0 5.26 10.12 9.52 22.6 9.52 12.48 0 22.6-4.26 22.6-9.51v-7z"/><path id="l2s3y" d="M104.78 169.48c0-5.25 10.12-9.51 22.6-9.51 12.48 0 22.6 4.26 22.6 9.51s-10.12 9.51-22.6 9.51c-12.48 0-22.6-4.26-22.6-9.51z"/><linearGradient id="l2s3b" x1="151.04" x2="151.04" y1="137.94" y2="83.76" gradientUnits="userSpaceOnUse"><stop offset="0" stop-color="#edecf5"/><stop offset="1" stop-color="#bcb8da"/></linearGradient><linearGradient id="l2s3d" x1="86.32" x2="126.69" y1="164.08" y2="163.58" gradientUnits="userSpaceOnUse"><stop offset="0" stop-color="#16c2e0"/><stop offset="1" stop-color="#2e5fef"/></linearGradient><linearGradient id="l2s3f" x1="94.71" x2="94.71" y1="151.36" y2="170.1" gradientUnits="userSpaceOnUse"><stop offset="0" stop-color="#16c2e0"/><stop offset="1" stop-color="#2e5fef"/></linearGradient><linearGradient id="l2s3h" x1="86.32" x2="126.69" y1="155.08" y2="154.58" gradientUnits="userSpaceOnUse"><stop offset="0" stop-color="#16c2e0"/><stop offset="1" stop-color="#2e5fef"/></linearGradient><linearGradient id="l2s3j" x1="94.71" x2="94.71" y1="142.36" y2="161.1" gradientUnits="userSpaceOnUse"><stop offset="0" stop-color="#16c2e0"/><stop offset="1" stop-color="#2e5fef"/></linearGradient><linearGradient id="l2s3l" x1="81.32" x2="121.69" y1="146.08" y2="145.58" gradientUnits="userSpaceOnUse"><stop offset="0" stop-color="#16c2e0"/><stop offset="1" stop-color="#2e5fef"/></linearGradient><linearGradient id="l2s3n" x1="89.71" x2="89.71" y1="133.36" y2="152.1" gradientUnits="userSpaceOnUse"><stop offset="0" stop-color="#16c2e0"/><stop offset="1" stop-color="#2e5fef"/></linearGradient><linearGradient id="l2s3p" x1="85.32" x2="125.69" y1="137.08" y2="136.58" gradientUnits="userSpaceOnUse"><stop offset="0" stop-color="#16c2e0"/><stop offset="1" stop-color="#2e5fef"/></linearGradient><linearGradient id="l2s3r" x1="93.71" x2="93.71" y1="124.36" y2="143.1" gradientUnits="userSpaceOnUse"><stop offset="0" stop-color="#16c2e0"/><stop offset="1" stop-color="#2e5fef"/></linearGradient><linearGradient id="l2s3t" x1="118.98" x2="159.35" y1="182.08" y2="181.58" gradientUnits="userSpaceOnUse"><stop offset="0" stop-color="#16c2e0"/><stop offset="1" stop-color="#2e5fef"/></linearGradient><linearGradient id="l2s3v" x1="127.38" x2="127.38" y1="169.36" y2="188.1" gradientUnits="userSpaceOnUse"><stop offset="0" stop-color="#16c2e0"/><stop offset="1" stop-color="#2e5fef"/></linearGradient><linearGradient id="l2s3x" x1="118.98" x2="159.35" y1="173.08" y2="172.58" gradientUnits="userSpaceOnUse"><stop offset="0" stop-color="#16c2e0"/><stop offset="1" stop-color="#2e5fef"/></linearGradient><linearGradient id="l2s3z" x1="127.38" x2="127.38" y1="160.36" y2="179.1" gradientUnits="userSpaceOnUse"><stop offset="0" stop-color="#16c2e0"/><stop offset="1" stop-color="#2e5fef"/></linearGradient></defs><g><g transform="translate(-67 -83)"><g><use fill="url(#l2s3b)" xlink:href="#l2s3a"/></g><g><g><g><use fill="url(#l2s3d)" xlink:href="#l2s3c"/></g><g><use fill="url(#l2s3f)" xlink:href="#l2s3e"/></g></g><g><g><use fill="url(#l2s3h)" xlink:href="#l2s3g"/></g><g><use fill="url(#l2s3j)" xlink:href="#l2s3i"/></g></g><g><g><use fill="url(#l2s3l)" xlink:href="#l2s3k"/></g><g><use fill="url(#l2s3n)" xlink:href="#l2s3m"/></g></g><g><g><use fill="url(#l2s3p)" xlink:href="#l2s3o"/></g><g><use fill="url(#l2s3r)" xlink:href="#l2s3q"/></g></g></g><g><g><g><use fill="url(#l2s3t)" xlink:href="#l2s3s"/></g><g><use fill="url(#l2s3v)" xlink:href="#l2s3u"/></g></g><g><g><use fill="url(#l2s3x)" xlink:href="#l2s3w"/></g><g><use fill="url(#l2s3z)" xlink:href="#l2s3y"/></g></g></g></g></g></svg>