<svg xmlns="http://www.w3.org/2000/svg" xmlns:xlink="http://www.w3.org/1999/xlink" width="100" height="115" viewBox="0 0 100 115"><defs><path id="yl66a" d="M303.3 162.48c0-5.25-10.11-9.51-22.6-9.51-12.47 0-22.59 4.26-22.59 9.5v7c0 5.26 10.12 9.52 22.6 9.52 12.48 0 22.6-4.26 22.6-9.51v-7z"/><path id="yl66c" d="M258.11 162.48c0-5.25 10.12-9.51 22.6-9.51 12.48 0 22.6 4.26 22.6 9.51s-10.12 9.51-22.6 9.51c-12.48 0-22.6-4.26-22.6-9.51z"/><path id="yl66e" d="M303.3 153.48c0-5.25-10.11-9.51-22.6-9.51-12.47 0-22.59 4.26-22.59 9.5v7c0 5.26 10.12 9.52 22.6 9.52 12.48 0 22.6-4.26 22.6-9.51v-7z"/><path id="yl66g" d="M258.11 153.48c0-5.25 10.12-9.51 22.6-9.51 12.48 0 22.6 4.26 22.6 9.51s-10.12 9.51-22.6 9.51c-12.48 0-22.6-4.26-22.6-9.51z"/><path id="yl66i" d="M298.3 144.48c0-5.25-10.11-9.51-22.6-9.51-12.47 0-22.59 4.26-22.59 9.5v7c0 5.26 10.12 9.52 22.6 9.52 12.48 0 22.6-4.26 22.6-9.51v-7z"/><path id="yl66k" d="M253.11 144.48c0-5.25 10.12-9.51 22.6-9.51 12.48 0 22.6 4.26 22.6 9.51s-10.12 9.51-22.6 9.51c-12.48 0-22.6-4.26-22.6-9.51z"/><path id="yl66m" d="M302.3 135.48c0-5.25-10.11-9.51-22.6-9.51-12.47 0-22.59 4.26-22.59 9.5v7c0 5.26 10.12 9.52 22.6 9.52 12.48 0 22.6-4.26 22.6-9.51v-7z"/><path id="yl66o" d="M257.11 135.48c0-5.25 10.12-9.51 22.6-9.51 12.48 0 22.6 4.26 22.6 9.51s-10.12 9.51-22.6 9.51c-12.48 0-22.6-4.26-22.6-9.51z"/><path id="yl66q" d="M335.98 180.48c0-5.25-10.12-9.51-22.6-9.51-12.48 0-22.6 4.26-22.6 9.5v7c0 5.26 10.12 9.52 22.6 9.52 12.48 0 22.6-4.26 22.6-9.51v-7z"/><path id="yl66s" d="M290.78 180.48c0-5.25 10.12-9.51 22.6-9.51 12.48 0 22.6 4.26 22.6 9.51s-10.12 9.51-22.6 9.51c-12.48 0-22.6-4.26-22.6-9.51z"/><path id="yl66u" d="M335.98 171.48c0-5.25-10.12-9.51-22.6-9.51-12.48 0-22.6 4.26-22.6 9.5v7c0 5.26 10.12 9.52 22.6 9.52 12.48 0 22.6-4.26 22.6-9.51v-7z"/><path id="yl66w" d="M290.78 171.48c0-5.25 10.12-9.51 22.6-9.51 12.48 0 22.6 4.26 22.6 9.51s-10.12 9.51-22.6 9.51c-12.48 0-22.6-4.26-22.6-9.51z"/><path id="yl66y" d="M318.94 113.93l16.8 9.87 16.7-9.87-16.7 23.71zm16.8-31.24l-16.8 27.9 16.8 9.98 16.7-9.98z"/><path id="yl66A" d="M352.33 113.97l-16.59 23.67v-13.8zm-16.59 6.54V82.69l16.65 27.82z"/><path id="yl66B" d="M335.74 103.08l-16.8 7.51 16.8 9.98 16.7-9.98z"/><linearGradient id="yl66b" x1="272.32" x2="312.69" y1="166.08" y2="165.58" gradientUnits="userSpaceOnUse"><stop offset="0" stop-color="#16c2e0"/><stop offset="1" stop-color="#2e5fef"/></linearGradient><linearGradient id="yl66d" x1="280.71" x2="280.71" y1="153.36" y2="172.1" gradientUnits="userSpaceOnUse"><stop offset="0" stop-color="#16c2e0"/><stop offset="1" stop-color="#2e5fef"/></linearGradient><linearGradient id="yl66f" x1="272.32" x2="312.69" y1="157.08" y2="156.58" gradientUnits="userSpaceOnUse"><stop offset="0" stop-color="#16c2e0"/><stop offset="1" stop-color="#2e5fef"/></linearGradient><linearGradient id="yl66h" x1="280.71" x2="280.71" y1="144.36" y2="163.1" gradientUnits="userSpaceOnUse"><stop offset="0" stop-color="#16c2e0"/><stop offset="1" stop-color="#2e5fef"/></linearGradient><linearGradient id="yl66j" x1="267.32" x2="307.69" y1="148.08" y2="147.58" gradientUnits="userSpaceOnUse"><stop offset="0" stop-color="#16c2e0"/><stop offset="1" stop-color="#2e5fef"/></linearGradient><linearGradient id="yl66l" x1="275.71" x2="275.71" y1="135.36" y2="154.1" gradientUnits="userSpaceOnUse"><stop offset="0" stop-color="#16c2e0"/><stop offset="1" stop-color="#2e5fef"/></linearGradient><linearGradient id="yl66n" x1="271.32" x2="311.69" y1="139.08" y2="138.58" gradientUnits="userSpaceOnUse"><stop offset="0" stop-color="#16c2e0"/><stop offset="1" stop-color="#2e5fef"/></linearGradient><linearGradient id="yl66p" x1="279.71" x2="279.71" y1="126.36" y2="145.1" gradientUnits="userSpaceOnUse"><stop offset="0" stop-color="#16c2e0"/><stop offset="1" stop-color="#2e5fef"/></linearGradient><linearGradient id="yl66r" x1="304.98" x2="345.35" y1="184.08" y2="183.58" gradientUnits="userSpaceOnUse"><stop offset="0" stop-color="#16c2e0"/><stop offset="1" stop-color="#2e5fef"/></linearGradient><linearGradient id="yl66t" x1="313.38" x2="313.38" y1="171.36" y2="190.1" gradientUnits="userSpaceOnUse"><stop offset="0" stop-color="#16c2e0"/><stop offset="1" stop-color="#2e5fef"/></linearGradient><linearGradient id="yl66v" x1="304.98" x2="345.35" y1="175.08" y2="174.58" gradientUnits="userSpaceOnUse"><stop offset="0" stop-color="#16c2e0"/><stop offset="1" stop-color="#2e5fef"/></linearGradient><linearGradient id="yl66x" x1="313.38" x2="313.38" y1="162.36" y2="181.1" gradientUnits="userSpaceOnUse"><stop offset="0" stop-color="#16c2e0"/><stop offset="1" stop-color="#2e5fef"/></linearGradient><linearGradient id="yl66z" x1="335.87" x2="335.46" y1="136.61" y2="82.47" gradientUnits="userSpaceOnUse"><stop offset="0" stop-color="#edecf5"/><stop offset="1" stop-color="#bcb8da"/></linearGradient></defs><g><g transform="translate(-253 -82)"><g><g><g><use fill="url(#yl66b)" xlink:href="#yl66a"/></g><g><use fill="url(#yl66d)" xlink:href="#yl66c"/></g></g><g><g><use fill="url(#yl66f)" xlink:href="#yl66e"/></g><g><use fill="url(#yl66h)" xlink:href="#yl66g"/></g></g><g><g><use fill="url(#yl66j)" xlink:href="#yl66i"/></g><g><use fill="url(#yl66l)" xlink:href="#yl66k"/></g></g><g><g><use fill="url(#yl66n)" xlink:href="#yl66m"/></g><g><use fill="url(#yl66p)" xlink:href="#yl66o"/></g></g></g><g><g><g><use fill="url(#yl66r)" xlink:href="#yl66q"/></g><g><use fill="url(#yl66t)" xlink:href="#yl66s"/></g></g><g><g><use fill="url(#yl66v)" xlink:href="#yl66u"/></g><g><use fill="url(#yl66x)" xlink:href="#yl66w"/></g></g></g><g><g><g><use fill="url(#yl66z)" xlink:href="#yl66y"/></g><g opacity=".6"><use fill="#fff" xlink:href="#yl66A"/></g><g opacity=".42"><use fill="#fff" xlink:href="#yl66B"/></g></g></g></g></g></svg>