<svg xmlns="http://www.w3.org/2000/svg" xmlns:xlink="http://www.w3.org/1999/xlink" width="101" height="106" viewBox="0 0 101 106"><defs><path id="i35ra" d="M490.04 158.48c0-5.25-10.12-9.51-22.6-9.51-12.48 0-22.6 4.26-22.6 9.5v7c0 5.26 10.12 9.52 22.6 9.52 12.48 0 22.6-4.26 22.6-9.51v-7z"/><path id="i35rc" d="M444.84 158.48c0-5.25 10.12-9.51 22.6-9.51 12.48 0 22.6 4.26 22.6 9.51s-10.12 9.51-22.6 9.51c-12.48 0-22.6-4.26-22.6-9.51z"/><path id="i35re" d="M490.04 149.48c0-5.25-10.12-9.51-22.6-9.51-12.48 0-22.6 4.26-22.6 9.5v7c0 5.26 10.12 9.52 22.6 9.52 12.48 0 22.6-4.26 22.6-9.51v-7z"/><path id="i35rg" d="M444.84 149.48c0-5.25 10.12-9.51 22.6-9.51 12.48 0 22.6 4.26 22.6 9.51s-10.12 9.51-22.6 9.51c-12.48 0-22.6-4.26-22.6-9.51z"/><path id="i35ri" d="M485.04 140.48c0-5.25-10.12-9.51-22.6-9.51-12.48 0-22.6 4.26-22.6 9.5v7c0 5.26 10.12 9.52 22.6 9.52 12.48 0 22.6-4.26 22.6-9.51v-7z"/><path id="i35rk" d="M439.84 140.48c0-5.25 10.12-9.51 22.6-9.51 12.48 0 22.6 4.26 22.6 9.51s-10.12 9.51-22.6 9.51c-12.48 0-22.6-4.26-22.6-9.51z"/><path id="i35rm" d="M489.04 131.48c0-5.25-10.12-9.51-22.6-9.51-12.48 0-22.6 4.26-22.6 9.5v7c0 5.26 10.12 9.52 22.6 9.52 12.48 0 22.6-4.26 22.6-9.51v-7z"/><path id="i35ro" d="M443.84 131.48c0-5.25 10.12-9.51 22.6-9.51 12.48 0 22.6 4.26 22.6 9.51s-10.12 9.51-22.6 9.51c-12.48 0-22.6-4.26-22.6-9.51z"/><path id="i35rq" d="M522.7 176.48c0-5.25-10.11-9.51-22.6-9.51-12.47 0-22.59 4.26-22.59 9.5v7c0 5.26 10.12 9.52 22.6 9.52 12.48 0 22.6-4.26 22.6-9.51v-7z"/><path id="i35rs" d="M477.51 176.48c0-5.25 10.12-9.51 22.6-9.51 12.48 0 22.6 4.26 22.6 9.51s-10.12 9.51-22.6 9.51c-12.48 0-22.6-4.26-22.6-9.51z"/><path id="i35ru" d="M522.7 167.48c0-5.25-10.11-9.51-22.6-9.51-12.47 0-22.59 4.26-22.59 9.5v7c0 5.26 10.12 9.52 22.6 9.52 12.48 0 22.6-4.26 22.6-9.51v-7z"/><path id="i35rw" d="M477.51 167.48c0-5.25 10.12-9.51 22.6-9.51 12.48 0 22.6 4.26 22.6 9.51s-10.12 9.51-22.6 9.51c-12.48 0-22.6-4.26-22.6-9.51z"/><path id="i35ry" d="M529 94.41c3.99 0 7.05 1.05 10.4 2.46v-7.53a27.94 27.94 0 0 0-10.4-1.88c-9.6 0-17.12 5.75-19.4 15.04h-6.15v6.44h5.46v.56c0 1.2.06 2.4.19 3.48h-5.65v6.44h7.04c3.03 7.58 9.99 12.13 18.52 12.13 3.62 0 7.34-.61 10.4-1.88v-7.53c-3.36 1.42-6.42 2.46-10.4 2.46-4.68 0-7.9-1.9-9.8-5.18h8.36l2.37-6.44h-12.5c-.19-1.07-.25-2.21-.25-3.48v-.56h14.24l2.37-6.44h-15.79c1.52-4.93 5.06-8.09 11-8.09z"/><linearGradient id="i35rb" x1="459.05" x2="499.42" y1="162.08" y2="161.58" gradientUnits="userSpaceOnUse"><stop offset="0" stop-color="#16c2e0"/><stop offset="1" stop-color="#2e5fef"/></linearGradient><linearGradient id="i35rd" x1="467.44" x2="467.44" y1="149.36" y2="168.1" gradientUnits="userSpaceOnUse"><stop offset="0" stop-color="#16c2e0"/><stop offset="1" stop-color="#2e5fef"/></linearGradient><linearGradient id="i35rf" x1="459.05" x2="499.42" y1="153.08" y2="152.58" gradientUnits="userSpaceOnUse"><stop offset="0" stop-color="#16c2e0"/><stop offset="1" stop-color="#2e5fef"/></linearGradient><linearGradient id="i35rh" x1="467.44" x2="467.44" y1="140.36" y2="159.1" gradientUnits="userSpaceOnUse"><stop offset="0" stop-color="#16c2e0"/><stop offset="1" stop-color="#2e5fef"/></linearGradient><linearGradient id="i35rj" x1="454.05" x2="494.42" y1="144.08" y2="143.58" gradientUnits="userSpaceOnUse"><stop offset="0" stop-color="#16c2e0"/><stop offset="1" stop-color="#2e5fef"/></linearGradient><linearGradient id="i35rl" x1="462.44" x2="462.44" y1="131.36" y2="150.1" gradientUnits="userSpaceOnUse"><stop offset="0" stop-color="#16c2e0"/><stop offset="1" stop-color="#2e5fef"/></linearGradient><linearGradient id="i35rn" x1="458.05" x2="498.42" y1="135.08" y2="134.58" gradientUnits="userSpaceOnUse"><stop offset="0" stop-color="#16c2e0"/><stop offset="1" stop-color="#2e5fef"/></linearGradient><linearGradient id="i35rp" x1="466.44" x2="466.44" y1="122.36" y2="141.1" gradientUnits="userSpaceOnUse"><stop offset="0" stop-color="#16c2e0"/><stop offset="1" stop-color="#2e5fef"/></linearGradient><linearGradient id="i35rr" x1="491.71" x2="532.08" y1="180.08" y2="179.58" gradientUnits="userSpaceOnUse"><stop offset="0" stop-color="#16c2e0"/><stop offset="1" stop-color="#2e5fef"/></linearGradient><linearGradient id="i35rt" x1="500.11" x2="500.11" y1="167.36" y2="186.1" gradientUnits="userSpaceOnUse"><stop offset="0" stop-color="#16c2e0"/><stop offset="1" stop-color="#2e5fef"/></linearGradient><linearGradient id="i35rv" x1="491.71" x2="532.08" y1="171.08" y2="170.58" gradientUnits="userSpaceOnUse"><stop offset="0" stop-color="#16c2e0"/><stop offset="1" stop-color="#2e5fef"/></linearGradient><linearGradient id="i35rx" x1="500.11" x2="500.11" y1="158.36" y2="177.1" gradientUnits="userSpaceOnUse"><stop offset="0" stop-color="#16c2e0"/><stop offset="1" stop-color="#2e5fef"/></linearGradient><linearGradient id="i35rz" x1="521.39" x2="521.5" y1="131.41" y2="87.46" gradientUnits="userSpaceOnUse"><stop offset="0" stop-color="#edecf5"/><stop offset="1" stop-color="#bcb8da"/></linearGradient></defs><g><g transform="translate(-439 -87)"><g><g><g><use fill="url(#i35rb)" xlink:href="#i35ra"/></g><g><use fill="url(#i35rd)" xlink:href="#i35rc"/></g></g><g><g><use fill="url(#i35rf)" xlink:href="#i35re"/></g><g><use fill="url(#i35rh)" xlink:href="#i35rg"/></g></g><g><g><use fill="url(#i35rj)" xlink:href="#i35ri"/></g><g><use fill="url(#i35rl)" xlink:href="#i35rk"/></g></g><g><g><use fill="url(#i35rn)" xlink:href="#i35rm"/></g><g><use fill="url(#i35rp)" xlink:href="#i35ro"/></g></g></g><g><g><g><use fill="url(#i35rr)" xlink:href="#i35rq"/></g><g><use fill="url(#i35rt)" xlink:href="#i35rs"/></g></g><g><g><use fill="url(#i35rv)" xlink:href="#i35ru"/></g><g><use fill="url(#i35rx)" xlink:href="#i35rw"/></g></g></g><g><use fill="url(#i35rz)" xlink:href="#i35ry"/></g></g></g></svg>