<svg xmlns="http://www.w3.org/2000/svg" xmlns:xlink="http://www.w3.org/1999/xlink" width="108" height="109" viewBox="0 0 108 109"><defs><path id="6kzga" d="M676.97 158.9c0-5.25-10.12-9.51-22.6-9.51-12.48 0-22.6 4.26-22.6 9.5v7c0 5.26 10.12 9.52 22.6 9.52 12.48 0 22.6-4.26 22.6-9.51v-7z"/><path id="6kzgc" d="M631.77 158.9c0-5.25 10.12-9.51 22.6-9.51 12.48 0 22.6 4.26 22.6 9.51s-10.12 9.51-22.6 9.51c-12.48 0-22.6-4.26-22.6-9.51z"/><path id="6kzge" d="M676.97 149.9c0-5.25-10.12-9.51-22.6-9.51-12.48 0-22.6 4.26-22.6 9.5v7c0 5.26 10.12 9.52 22.6 9.52 12.48 0 22.6-4.26 22.6-9.51v-7z"/><path id="6kzgg" d="M631.77 149.9c0-5.25 10.12-9.51 22.6-9.51 12.48 0 22.6 4.26 22.6 9.51s-10.12 9.51-22.6 9.51c-12.48 0-22.6-4.26-22.6-9.51z"/><path id="6kzgi" d="M671.97 140.9c0-5.25-10.12-9.51-22.6-9.51-12.48 0-22.6 4.26-22.6 9.5v7c0 5.26 10.12 9.52 22.6 9.52 12.48 0 22.6-4.26 22.6-9.51v-7z"/><path id="6kzgk" d="M626.77 140.9c0-5.25 10.12-9.51 22.6-9.51 12.48 0 22.6 4.26 22.6 9.51s-10.12 9.51-22.6 9.51c-12.48 0-22.6-4.26-22.6-9.51z"/><path id="6kzgm" d="M675.97 131.9c0-5.25-10.12-9.51-22.6-9.51-12.48 0-22.6 4.26-22.6 9.5v7c0 5.26 10.12 9.52 22.6 9.52 12.48 0 22.6-4.26 22.6-9.51v-7z"/><path id="6kzgo" d="M630.77 131.9c0-5.25 10.12-9.51 22.6-9.51 12.48 0 22.6 4.26 22.6 9.51s-10.12 9.51-22.6 9.51c-12.48 0-22.6-4.26-22.6-9.51z"/><path id="6kzgq" d="M709.63 176.9c0-5.25-10.12-9.51-22.6-9.51-12.48 0-22.6 4.26-22.6 9.5v7c0 5.26 10.12 9.52 22.6 9.52 12.48 0 22.6-4.26 22.6-9.51v-7z"/><path id="6kzgs" d="M664.43 176.9c0-5.25 10.12-9.51 22.6-9.51 12.48 0 22.6 4.26 22.6 9.51s-10.12 9.51-22.6 9.51c-12.48 0-22.6-4.26-22.6-9.51z"/><path id="6kzgu" d="M709.63 167.9c0-5.25-10.12-9.51-22.6-9.51-12.48 0-22.6 4.26-22.6 9.5v7c0 5.26 10.12 9.52 22.6 9.52 12.48 0 22.6-4.26 22.6-9.51v-7z"/><path id="6kzgw" d="M664.43 167.9c0-5.25 10.12-9.51 22.6-9.51 12.48 0 22.6 4.26 22.6 9.51s-10.12 9.51-22.6 9.51c-12.48 0-22.6-4.26-22.6-9.51z"/><path id="6kzgy" d="M726.98 109.15c0 9.24-7.52 16.76-16.76 16.76a16.78 16.78 0 0 1-16.76-16.76c0-9.24 7.52-16.76 16.76-16.76 9.24 0 16.76 7.52 16.76 16.76zm7 0a23.79 23.79 0 0 0-23.76-23.76 23.79 23.79 0 0 0-23.76 23.76 23.79 23.79 0 0 0 23.76 23.76 23.79 23.79 0 0 0 23.76-23.76z"/><linearGradient id="6kzgb" x1="645.97" x2="686.34" y1="162.5" y2="162" gradientUnits="userSpaceOnUse"><stop offset="0" stop-color="#16c2e0"/><stop offset="1" stop-color="#2e5fef"/></linearGradient><linearGradient id="6kzgd" x1="654.37" x2="654.37" y1="149.78" y2="168.52" gradientUnits="userSpaceOnUse"><stop offset="0" stop-color="#16c2e0"/><stop offset="1" stop-color="#2e5fef"/></linearGradient><linearGradient id="6kzgf" x1="645.97" x2="686.34" y1="153.5" y2="153" gradientUnits="userSpaceOnUse"><stop offset="0" stop-color="#16c2e0"/><stop offset="1" stop-color="#2e5fef"/></linearGradient><linearGradient id="6kzgh" x1="654.37" x2="654.37" y1="140.78" y2="159.52" gradientUnits="userSpaceOnUse"><stop offset="0" stop-color="#16c2e0"/><stop offset="1" stop-color="#2e5fef"/></linearGradient><linearGradient id="6kzgj" x1="640.97" x2="681.34" y1="144.5" y2="144" gradientUnits="userSpaceOnUse"><stop offset="0" stop-color="#16c2e0"/><stop offset="1" stop-color="#2e5fef"/></linearGradient><linearGradient id="6kzgl" x1="649.37" x2="649.37" y1="131.78" y2="150.52" gradientUnits="userSpaceOnUse"><stop offset="0" stop-color="#16c2e0"/><stop offset="1" stop-color="#2e5fef"/></linearGradient><linearGradient id="6kzgn" x1="644.97" x2="685.34" y1="135.5" y2="135" gradientUnits="userSpaceOnUse"><stop offset="0" stop-color="#16c2e0"/><stop offset="1" stop-color="#2e5fef"/></linearGradient><linearGradient id="6kzgp" x1="653.37" x2="653.37" y1="122.78" y2="141.52" gradientUnits="userSpaceOnUse"><stop offset="0" stop-color="#16c2e0"/><stop offset="1" stop-color="#2e5fef"/></linearGradient><linearGradient id="6kzgr" x1="678.64" x2="719.01" y1="180.5" y2="180" gradientUnits="userSpaceOnUse"><stop offset="0" stop-color="#16c2e0"/><stop offset="1" stop-color="#2e5fef"/></linearGradient><linearGradient id="6kzgt" x1="687.03" x2="687.03" y1="167.78" y2="186.52" gradientUnits="userSpaceOnUse"><stop offset="0" stop-color="#16c2e0"/><stop offset="1" stop-color="#2e5fef"/></linearGradient><linearGradient id="6kzgv" x1="678.64" x2="719.01" y1="171.5" y2="171" gradientUnits="userSpaceOnUse"><stop offset="0" stop-color="#16c2e0"/><stop offset="1" stop-color="#2e5fef"/></linearGradient><linearGradient id="6kzgx" x1="687.03" x2="687.03" y1="158.78" y2="177.52" gradientUnits="userSpaceOnUse"><stop offset="0" stop-color="#16c2e0"/><stop offset="1" stop-color="#2e5fef"/></linearGradient><linearGradient id="6kzgz" x1="710.1" x2="710.35" y1="132.25" y2="85.25" gradientUnits="userSpaceOnUse"><stop offset="0" stop-color="#edecf5"/><stop offset="1" stop-color="#bcb8da"/></linearGradient></defs><g><g transform="translate(-626 -85)"><g><g><g><use fill="url(#6kzgb)" xlink:href="#6kzga"/></g><g><use fill="url(#6kzgd)" xlink:href="#6kzgc"/></g></g><g><g><use fill="url(#6kzgf)" xlink:href="#6kzge"/></g><g><use fill="url(#6kzgh)" xlink:href="#6kzgg"/></g></g><g><g><use fill="url(#6kzgj)" xlink:href="#6kzgi"/></g><g><use fill="url(#6kzgl)" xlink:href="#6kzgk"/></g></g><g><g><use fill="url(#6kzgn)" xlink:href="#6kzgm"/></g><g><use fill="url(#6kzgp)" xlink:href="#6kzgo"/></g></g></g><g><g><g><use fill="url(#6kzgr)" xlink:href="#6kzgq"/></g><g><use fill="url(#6kzgt)" xlink:href="#6kzgs"/></g></g><g><g><use fill="url(#6kzgv)" xlink:href="#6kzgu"/></g><g><use fill="url(#6kzgx)" xlink:href="#6kzgw"/></g></g></g><g><use fill="url(#6kzgz)" xlink:href="#6kzgy"/></g></g></g></svg>