<svg xmlns="http://www.w3.org/2000/svg" xmlns:xlink="http://www.w3.org/1999/xlink" width="109" height="115" viewBox="0 0 109 115"><defs><path id="d91ka" d="M874.9 146.1L833 163.6c-2 .8-4.2-.6-4.2-2.8v-43.2a6 6 0 0 1 3.7-5.5l41.9-17.4c2-.8 4.2.6 4.2 2.8v43.2c0 2.4-1.5 4.5-3.7 5.4zm-55.3-29.7v56.1c0 1.8 1.1 3.1 2.4 4 3.3 2.3 5.3 4.2 6.6 3.7l47.9-24.3c5.2-2.1 8.6-7.2 8.6-12.8l2.7-56.8-4.7-3.1c-1.2-.8-2.8-1-4.3-.4l-50.7 20.8c-5.2 2.2-8.5 7.2-8.5 12.8z"/><path id="d91kc" d="M825.1 120v56.1c0 3.3 3.3 5.5 6.3 4.2l50.6-20.9c5.2-2.1 8.6-7.2 8.6-12.8V90.5c0-3.3-3.3-5.5-6.3-4.2l-50.6 20.9c-5.2 2.1-8.6 7.2-8.6 12.8z"/><path id="d91ke" d="M858 127.6l-6.2 5.7-1.2-7.1 8.5-7.7 6.2-2.8v32l-7.3 3.2z"/><path id="d91kg" d="M897.8 146.5s1.2-1.3 2.5-.7c1.3.6 5.6 5.3 8.1 7.7 2.5 2.4 4.8 8 7.5 11.4 2.7 3.4 10.6 13.2 10.6 13.2l-19.6 17.8c-1.5-1.2-6.2-2.5-7.7-2.5s-14.7-4-17.5-4.7c-2.8-.7-7.2-5.3-8.1-6.6-.9-1.3-3.4-3-4.2-4.3-.8-1.3-1.2-3.3-2.6-5.3-1.4-2-2.1-3.6-.3-5s5.2-.5 6.4.4c1.2.9 8 6.4 8 6.4l3.3 5.2-1.8-3.7s-2.4-9.8-4.4-13.4c-1.9-3.7-5.3-8.4-5.3-8.4l-1.1-1.1s-6.4-7.4-8.5-10.4c-2.1-3-4.3-6.1-2.8-10.1s4.7-.7 6.8 2.1c2.1 2.8 10.9 10.5 10.9 10.5l10.5 7.4-11.2-9.4s3.3-4 5.5-2.8c2.2 1.2 9 6.4 11.7 8.3 2.7 1.9 5.8 2.5 8 6.3l-14.9-12s3.6-1 4.8 0c1.2 1 3.2 2.7 7.7 6.4z"/><path id="d91ki" d="M879.9 173.4l2.4 1.8 2.5 5.3c-.1.4-3.5-4.8-3.5-4.8z"/><path id="d91kj" d="M927.6 180.2c.2 3.8-4.6 9.8-10.5 13.5-6 3.7-10.9 3.7-11.1-.1-.2-3.8 4.6-9.8 10.5-13.5 6-3.7 10.9-3.6 11.1.1z"/><path id="d91kk" d="M897.4 146.9s.7-.8 1-.9c.5 1.1 2.2 3.5 2.2 3.5z"/><path id="d91kl" d="M887.1 143c.1 0 0-.2 1.5-.5 2.4 1.7 8.3 7.2 8.3 7.2s-1.1-.2-1.8-.8c-.8-.7-8-5.9-8-5.9z"/><path id="d91km" d="M876.6 143.6s.6-.5.9-.9c.6.6 11.8 9.7 11.8 9.8 0 .1-9.3-5.4-12.7-8.9z"/><linearGradient id="d91kb" x1="870.44" x2="830.99" y1="75.08" y2="194.07" gradientUnits="userSpaceOnUse"><stop offset="0" stop-color="#00c6e4"/><stop offset="1" stop-color="#0084f1"/></linearGradient><linearGradient id="d91kd" x1="844.7" x2="893.97" y1="110.46" y2="195.67" gradientUnits="userSpaceOnUse"><stop offset="0" stop-color="#00c6e4"/><stop offset="1" stop-color="#0084f1"/></linearGradient><linearGradient id="d91kf" x1="884.05" x2="860.17" y1="215.09" y2="130.34" gradientUnits="userSpaceOnUse"><stop offset="0" stop-color="#00c6e4"/><stop offset="1" stop-color="#0084f1"/></linearGradient><linearGradient id="d91kh" x1="863.54" x2="921.03" y1="141.3" y2="196.8" gradientUnits="userSpaceOnUse"><stop offset="0" stop-color="#ebeaf5"/><stop offset="1" stop-color="#beb9de"/></linearGradient></defs><g><g transform="translate(-819 -82)"><g><use fill="url(#d91kb)" xlink:href="#d91ka"/></g><g><use fill="url(#d91kd)" xlink:href="#d91kc"/></g><g><use fill="url(#d91kf)" xlink:href="#d91ke"/></g><g><use fill="url(#d91kh)" xlink:href="#d91kg"/></g><g><use fill="#b1accf" xlink:href="#d91ki"/></g><g><use fill="#b1accf" xlink:href="#d91kj"/></g><g><use fill="#b1accf" xlink:href="#d91kk"/></g><g><use fill="#b1accf" xlink:href="#d91kl"/></g><g><use fill="#b1accf" xlink:href="#d91km"/></g></g></g></svg>