<svg xmlns="http://www.w3.org/2000/svg" xmlns:xlink="http://www.w3.org/1999/xlink" width="105" height="110" viewBox="0 0 105 110"><defs><path id="putia" d="M1065.8 144.4l-38.9 16.2c-1.9.7-3.9-.7-3.9-2.7v-40.1c0-2.2 1.3-4.3 3.4-5.1l38.9-16.2c1.9-.8 3.9.6 3.9 2.6v40.1c0 2.3-1.4 4.3-3.4 5.2zm-51.4-27.6v52.1c0 1.7 1 2.9 2.2 3.7 3.1 2.2 4.9 3.9 6.2 3.4l44.5-22.6c4.8-2 8-6.7 8-11.9l2.5-52.7s-3.3-2.1-4.4-2.9c-1.1-.7-2.6-1-4-.4l-47 19.4c-4.9 2-8 6.7-8 11.9z"/><path id="putic" d="M1019.6 120.1v52.1c0 3 3.1 5.1 5.9 3.9l47-19.4c4.8-2 8-6.7 8-11.9v-52c0-3-3.1-5.1-5.9-3.9l-47 19.4c-4.9 1.9-8 6.6-8 11.8z"/><path id="putie" d="M1039.8 150.7v-4.4l4-5.3c6.8-8.8 10.1-13.7 10.2-17.4 0-2.5-1.5-3.9-5.1-2.5-2.7 1.1-5 3.4-6.7 5.3l-2.1-4.4c2.4-2.7 6-5.6 10.2-7.3 7.1-2.8 10.9-.3 10.9 5.4 0 5.2-3.8 10.9-8.3 16.8l-2.9 3.6v.1l12-4.8v6z"/><path id="putig" d="M1052.4 134.8v52.1c0 1.7 1 2.9 2.2 3.7 3.1 2.2 4.9 3.9 6.2 3.4l44.5-22.6c4.8-2 8-6.7 8-11.9l2.5-52.7s-3.3-2.1-4.4-2.9c-1.1-.7-2.6-1-4-.4l-47 19.4c-4.9 2-8 6.7-8 11.9z"/><path id="putii" d="M1057.6 138.1v52.1c0 3 3.1 5.1 5.9 3.9l47-19.4c4.8-2 8-6.7 8-11.9v-52c0-3-3.1-5.1-5.9-3.9l-47 19.4c-4.9 1.9-8 6.6-8 11.8z"/><path id="putik" d="M1088.1 145.1l-5.8 5.3-1.1-6.6 7.9-7.2 5.8-2.6v29.7l-6.7 3v-21.6z"/><linearGradient id="putib" x1="1061.61" x2="1024.98" y1="78.42" y2="188.87" gradientUnits="userSpaceOnUse"><stop offset="0" stop-color="#00c6e4"/><stop offset="1" stop-color="#0084f1"/></linearGradient><linearGradient id="putid" x1="1037.71" x2="1083.45" y1="111.26" y2="190.35" gradientUnits="userSpaceOnUse"><stop offset="0" stop-color="#00c6e4"/><stop offset="1" stop-color="#0084f1"/></linearGradient><linearGradient id="putif" x1="1050.9" x2="1050.9" y1="212.06" y2="118.64" gradientUnits="userSpaceOnUse"><stop offset="0" stop-color="#00c6e4"/><stop offset="1" stop-color="#0084f1"/></linearGradient><linearGradient id="putih" x1="1025.67" x2="1131.17" y1="84.85" y2="198.35" gradientUnits="userSpaceOnUse"><stop offset="0" stop-color="#ffc036"/><stop offset="1" stop-color="#ff8d00"/></linearGradient><linearGradient id="putij" x1="1075.71" x2="1121.45" y1="129.27" y2="208.35" gradientUnits="userSpaceOnUse"><stop offset="0" stop-color="#ffc036"/><stop offset="1" stop-color="#ff8d00"/></linearGradient></defs><g><g transform="translate(-1014 -85)"><g><use fill="url(#putib)" xlink:href="#putia"/></g><g><use fill="url(#putid)" xlink:href="#putic"/></g><g><use fill="url(#putif)" xlink:href="#putie"/></g><g><use fill="url(#putih)" xlink:href="#putig"/></g><g><use fill="url(#putij)" xlink:href="#putii"/></g><g><use fill="#e47600" xlink:href="#putik"/></g></g></g></svg>