<svg xmlns="http://www.w3.org/2000/svg" xmlns:xlink="http://www.w3.org/1999/xlink" width="117" height="116" viewBox="0 0 117 116"><defs><path id="e45ba" d="M1283.5 89.5l-6.2 2.9-1.3-5.6 8.5-3.9h6.2v32h-7.2z"/><path id="e45bc" d="M1305.1 98.9c0 7.3 1.7 10.8 4.6 10.8 2.9 0 4.5-3.6 4.5-10.9 0-7.1-1.5-10.8-4.5-10.8-2.8 0-4.7 3.5-4.6 10.9zm16.6-.2c0 9.9-4 16.7-12.2 16.7-8.3 0-11.9-7.4-12-16.5 0-9.3 3.9-16.6 12.2-16.6 8.6 0 12 7.6 12 16.4z"/><path id="e45be" d="M1250.1 197.2l20.6-32.1h-41.2z"/><path id="e45bg" d="M1270.7 165.1l23.4-9.5-44 41.6z"/><path id="e45bi" d="M1270.7 165.1l-16.4-21.8 18.9-7.7 20.9 20z"/><path id="e45bk" d="M1273.2 135.6v-3.2l20.9 9.3v13.9z"/><path id="e45bm" d="M1226.7 135.6l-.3-3.3-21.1 9.8v13.6z"/><path id="e45bo" d="M1229.5 165.1l-24.2-9.4 44.8 41.5z"/><path id="e45bq" d="M1205.3 155.7l21.4-20.1 18.3 7.7-15.5 21.8"/><path id="e45bs" d="M1273.2 132.4l-18.2-7.9 16 5.1 23.1 12.1z"/><path id="e45bu" d="M1226.4 132.3l18.7-7.8-16.3 5.1-23.5 12.5z"/><path id="e45bw" d="M1226.7 135.6l18.3 7.7h9.3l18.9-7.7v-3.2l-18.2-7.9h-9.9l-18.7 7.8z"/><path id="e45by" d="M1229.5 165.1h41.2l-16.4-21.8h-9.3z"/><path id="e45bA" d="M1254.9 109.3h-6.2l14.3-16.9h6.2z"/><path id="e45bC" d="M1263 109.3h6.2l-14.3-16.9h-6.2z"/><linearGradient id="e45bb" x1="1257.74" x2="1323.58" y1="111.81" y2="83.27" gradientUnits="userSpaceOnUse"><stop offset="0" stop-color="#ebeaf5"/><stop offset="1" stop-color="#beb9de"/></linearGradient><linearGradient id="e45bd" x1="1261.23" x2="1327.07" y1="119.86" y2="91.32" gradientUnits="userSpaceOnUse"><stop offset="0" stop-color="#ebeaf5"/><stop offset="1" stop-color="#beb9de"/></linearGradient><linearGradient id="e45bf" x1="1246.45" x2="1277.87" y1="158.51" y2="215.86" gradientUnits="userSpaceOnUse"><stop offset="0" stop-color="#00c6e4"/><stop offset="1" stop-color="#0084f1"/></linearGradient><linearGradient id="e45bh" x1="1271.88" x2="1272.05" y1="151.15" y2="169.15" gradientUnits="userSpaceOnUse"><stop offset="0" stop-color="#00c6e4"/><stop offset="1" stop-color="#0084f1"/></linearGradient><linearGradient id="e45bj" x1="1264.01" x2="1321.94" y1="146.52" y2="174.62" gradientUnits="userSpaceOnUse"><stop offset="0" stop-color="#00c6e4"/><stop offset="1" stop-color="#0084f1"/></linearGradient><linearGradient id="e45bl" x1="1274.91" x2="1290.19" y1="120.31" y2="152.36" gradientUnits="userSpaceOnUse"><stop offset="0" stop-color="#00c6e4"/><stop offset="1" stop-color="#0084f1"/></linearGradient><linearGradient id="e45bn" x1="1209.15" x2="1234.22" y1="137.73" y2="161.29" gradientUnits="userSpaceOnUse"><stop offset="0" stop-color="#00c6e4"/><stop offset="1" stop-color="#0084f1"/></linearGradient><linearGradient id="e45bp" x1="1205.25" x2="1250.09" y1="176.41" y2="176.41" gradientUnits="userSpaceOnUse"><stop offset="0" stop-color="#00c6e4"/><stop offset="1" stop-color="#0084f1"/></linearGradient><linearGradient id="e45br" x1="1221.24" x2="1292.64" y1="150.8" y2="146.19" gradientUnits="userSpaceOnUse"><stop offset="0" stop-color="#00c6e4"/><stop offset="1" stop-color="#0084f1"/></linearGradient><linearGradient id="e45bt" x1="1255.02" x2="1294.15" y1="133.11" y2="133.11" gradientUnits="userSpaceOnUse"><stop offset="0" stop-color="#00c6e4"/><stop offset="1" stop-color="#0084f1"/></linearGradient><linearGradient id="e45bv" x1="1205.25" x2="1245.12" y1="133.3" y2="133.3" gradientUnits="userSpaceOnUse"><stop offset="0" stop-color="#00c6e4"/><stop offset="1" stop-color="#0084f1"/></linearGradient><linearGradient id="e45bx" x1="1333.4" x2="1236.56" y1="121.12" y2="135.92" gradientUnits="userSpaceOnUse"><stop offset="0" stop-color="#00c6e4"/><stop offset="1" stop-color="#0084f1"/></linearGradient><linearGradient id="e45bz" x1="1215.78" x2="1258.12" y1="120.79" y2="174.96" gradientUnits="userSpaceOnUse"><stop offset="0" stop-color="#00c6e4"/><stop offset="1" stop-color="#0084f1"/></linearGradient><linearGradient id="e45bB" x1="1253.93" x2="1319.77" y1="103.03" y2="74.49" gradientUnits="userSpaceOnUse"><stop offset="0" stop-color="#ebeaf5"/><stop offset="1" stop-color="#beb9de"/></linearGradient><linearGradient id="e45bD" x1="1253.93" x2="1319.77" y1="103.03" y2="74.49" gradientUnits="userSpaceOnUse"><stop offset="0" stop-color="#ebeaf5"/><stop offset="1" stop-color="#beb9de"/></linearGradient></defs><g><g transform="translate(-1205 -82)"><g><g><use fill="url(#e45bb)" xlink:href="#e45ba"/></g><g><use fill="url(#e45bd)" xlink:href="#e45bc"/></g></g><g><g><use fill="url(#e45bf)" xlink:href="#e45be"/></g><g><use fill="url(#e45bh)" xlink:href="#e45bg"/></g><g><use fill="url(#e45bj)" xlink:href="#e45bi"/></g><g><use fill="url(#e45bl)" xlink:href="#e45bk"/></g><g><use fill="url(#e45bn)" xlink:href="#e45bm"/></g><g><use fill="url(#e45bp)" xlink:href="#e45bo"/></g><g><use fill="url(#e45br)" xlink:href="#e45bq"/></g><g><use fill="url(#e45bt)" xlink:href="#e45bs"/></g><g><use fill="url(#e45bv)" xlink:href="#e45bu"/></g><g><use fill="url(#e45bx)" xlink:href="#e45bw"/></g><g><use fill="url(#e45bz)" xlink:href="#e45by"/></g></g><g><use fill="url(#e45bB)" xlink:href="#e45bA"/></g><g><use fill="url(#e45bD)" xlink:href="#e45bC"/></g></g></g></svg>