<svg xmlns="http://www.w3.org/2000/svg" xmlns:xlink="http://www.w3.org/1999/xlink" width="101" height="112" viewBox="0 0 101 112"><defs><path id="o61oa" d="M155.22 356.82v7.31h-6.83v-7.3c-7.27-.96-11.84-5.19-12.1-11.45h7.78c.38 3.11 3.52 5.11 8.05 5.11 4.2 0 7.15-2.02 7.15-4.93 0-2.45-1.92-3.86-6.64-4.88l-5.01-1.06c-7.01-1.47-10.45-5.12-10.45-10.99 0-6.24 4.35-10.63 11.22-11.73v-7.37h6.83v7.36c6.67 1.08 11.18 5.4 11.38 11.32h-7.57c-.37-3.04-3.2-5.07-7.09-5.07-4.03 0-6.7 1.87-6.7 4.8 0 2.37 1.85 3.73 6.35 4.7l4.64.98c7.73 1.63 11.06 4.96 11.06 10.93 0 6.76-4.52 11.23-12.07 12.27z"/><path id="o61oc" d="M118.06 386.58c0-5.25-10.12-9.51-22.6-9.51-12.48 0-22.6 4.26-22.6 9.5v7c0 5.26 10.12 9.52 22.6 9.52 12.48 0 22.6-4.26 22.6-9.51v-7z"/><path id="o61oe" d="M72.86 386.58c0-5.25 10.12-9.51 22.6-9.51 12.48 0 22.6 4.26 22.6 9.51s-10.12 9.51-22.6 9.51c-12.48 0-22.6-4.26-22.6-9.51z"/><path id="o61og" d="M118.06 377.58c0-5.25-10.12-9.51-22.6-9.51-12.48 0-22.6 4.26-22.6 9.5v7c0 5.26 10.12 9.52 22.6 9.52 12.48 0 22.6-4.26 22.6-9.51v-7z"/><path id="o61oi" d="M72.86 377.58c0-5.25 10.12-9.51 22.6-9.51 12.48 0 22.6 4.26 22.6 9.51s-10.12 9.51-22.6 9.51c-12.48 0-22.6-4.26-22.6-9.51z"/><path id="o61ok" d="M113.06 368.58c0-5.25-10.12-9.51-22.6-9.51-12.48 0-22.6 4.26-22.6 9.5v7c0 5.26 10.12 9.52 22.6 9.52 12.48 0 22.6-4.26 22.6-9.51v-7z"/><path id="o61om" d="M67.86 368.58c0-5.25 10.12-9.51 22.6-9.51 12.48 0 22.6 4.26 22.6 9.51s-10.12 9.51-22.6 9.51c-12.48 0-22.6-4.26-22.6-9.51z"/><path id="o61oo" d="M117.06 359.58c0-5.25-10.12-9.51-22.6-9.51-12.48 0-22.6 4.26-22.6 9.5v7c0 5.26 10.12 9.52 22.6 9.52 12.48 0 22.6-4.26 22.6-9.51v-7z"/><path id="o61oq" d="M71.86 359.58c0-5.25 10.12-9.51 22.6-9.51 12.48 0 22.6 4.26 22.6 9.51s-10.12 9.51-22.6 9.51c-12.48 0-22.6-4.26-22.6-9.51z"/><path id="o61os" d="M150.73 404.58c0-5.25-10.12-9.51-22.6-9.51-12.48 0-22.6 4.26-22.6 9.5v7c0 5.26 10.12 9.52 22.6 9.52 12.48 0 22.6-4.26 22.6-9.51v-7z"/><path id="o61ou" d="M105.53 404.58c0-5.25 10.12-9.51 22.6-9.51 12.48 0 22.6 4.26 22.6 9.51s-10.12 9.51-22.6 9.51c-12.48 0-22.6-4.26-22.6-9.51z"/><path id="o61ow" d="M150.73 395.58c0-5.25-10.12-9.51-22.6-9.51-12.48 0-22.6 4.26-22.6 9.5v7c0 5.26 10.12 9.52 22.6 9.52 12.48 0 22.6-4.26 22.6-9.51v-7z"/><path id="o61oy" d="M105.53 395.58c0-5.25 10.12-9.51 22.6-9.51 12.48 0 22.6 4.26 22.6 9.51s-10.12 9.51-22.6 9.51c-12.48 0-22.6-4.26-22.6-9.51z"/><linearGradient id="o61ob" x1="151.8" x2="151.8" y1="364.04" y2="309.86" gradientUnits="userSpaceOnUse"><stop offset="0" stop-color="#edecf5"/><stop offset="1" stop-color="#bcb8da"/></linearGradient><linearGradient id="o61od" x1="87.07" x2="127.44" y1="390.18" y2="389.68" gradientUnits="userSpaceOnUse"><stop offset="0" stop-color="#f8c354"/><stop offset="1" stop-color="#ff7f00"/></linearGradient><linearGradient id="o61of" x1="95.46" x2="95.46" y1="377.46" y2="396.2" gradientUnits="userSpaceOnUse"><stop offset="0" stop-color="#ffa900"/><stop offset="1" stop-color="#ff7f00"/></linearGradient><linearGradient id="o61oh" x1="87.07" x2="127.44" y1="381.18" y2="380.68" gradientUnits="userSpaceOnUse"><stop offset="0" stop-color="#f8c354"/><stop offset="1" stop-color="#ff7f00"/></linearGradient><linearGradient id="o61oj" x1="95.46" x2="95.46" y1="368.46" y2="387.2" gradientUnits="userSpaceOnUse"><stop offset="0" stop-color="#ffa900"/><stop offset="1" stop-color="#ff7f00"/></linearGradient><linearGradient id="o61ol" x1="82.07" x2="122.44" y1="372.18" y2="371.68" gradientUnits="userSpaceOnUse"><stop offset="0" stop-color="#f8c354"/><stop offset="1" stop-color="#ff7f00"/></linearGradient><linearGradient id="o61on" x1="90.46" x2="90.46" y1="359.46" y2="378.2" gradientUnits="userSpaceOnUse"><stop offset="0" stop-color="#ffa900"/><stop offset="1" stop-color="#ff7f00"/></linearGradient><linearGradient id="o61op" x1="86.07" x2="126.44" y1="363.18" y2="362.68" gradientUnits="userSpaceOnUse"><stop offset="0" stop-color="#f8c354"/><stop offset="1" stop-color="#ff7f00"/></linearGradient><linearGradient id="o61or" x1="94.46" x2="94.46" y1="350.46" y2="369.2" gradientUnits="userSpaceOnUse"><stop offset="0" stop-color="#ffa900"/><stop offset="1" stop-color="#ff7f00"/></linearGradient><linearGradient id="o61ot" x1="119.74" x2="160.11" y1="408.18" y2="407.68" gradientUnits="userSpaceOnUse"><stop offset="0" stop-color="#f8c354"/><stop offset="1" stop-color="#ff7f00"/></linearGradient><linearGradient id="o61ov" x1="128.13" x2="128.13" y1="395.46" y2="414.2" gradientUnits="userSpaceOnUse"><stop offset="0" stop-color="#ffa900"/><stop offset="1" stop-color="#ff7f00"/></linearGradient><linearGradient id="o61ox" x1="119.74" x2="160.11" y1="399.18" y2="398.68" gradientUnits="userSpaceOnUse"><stop offset="0" stop-color="#f8c354"/><stop offset="1" stop-color="#ff7f00"/></linearGradient><linearGradient id="o61oz" x1="128.13" x2="128.13" y1="386.46" y2="405.2" gradientUnits="userSpaceOnUse"><stop offset="0" stop-color="#ffa900"/><stop offset="1" stop-color="#ff7f00"/></linearGradient></defs><g><g transform="translate(-67 -309)"><g><use fill="url(#o61ob)" xlink:href="#o61oa"/></g><g><g><g><g><use fill="url(#o61od)" xlink:href="#o61oc"/></g><g><use fill="url(#o61of)" xlink:href="#o61oe"/></g></g><g><g><use fill="url(#o61oh)" xlink:href="#o61og"/></g><g><use fill="url(#o61oj)" xlink:href="#o61oi"/></g></g><g><g><use fill="url(#o61ol)" xlink:href="#o61ok"/></g><g><use fill="url(#o61on)" xlink:href="#o61om"/></g></g><g><g><use fill="url(#o61op)" xlink:href="#o61oo"/></g><g><use fill="url(#o61or)" xlink:href="#o61oq"/></g></g></g><g><g><g><use fill="url(#o61ot)" xlink:href="#o61os"/></g><g><use fill="url(#o61ov)" xlink:href="#o61ou"/></g></g><g><g><use fill="url(#o61ox)" xlink:href="#o61ow"/></g><g><use fill="url(#o61oz)" xlink:href="#o61oy"/></g></g></g></g></g></g></svg>