<svg xmlns="http://www.w3.org/2000/svg" xmlns:xlink="http://www.w3.org/1999/xlink" width="100" height="115" viewBox="0 0 100 115"><defs><path id="79qia" d="M318.94 340.02l16.8 9.88 16.7-9.88-16.7 23.72zm16.8-31.23l-16.8 27.9 16.8 9.99 16.7-9.98z"/><path id="79qic" d="M352.33 340.06l-16.59 23.68v-13.8zm-16.59 6.55V308.8l16.65 27.83z"/><path id="79qid" d="M335.74 329.18l-16.8 7.51 16.8 9.98 16.7-9.98z"/><path id="79qie" d="M303.3 388.58c0-5.25-10.11-9.51-22.6-9.51-12.47 0-22.59 4.26-22.59 9.5v7c0 5.26 10.12 9.52 22.6 9.52 12.48 0 22.6-4.26 22.6-9.51v-7z"/><path id="79qig" d="M258.11 388.58c0-5.25 10.12-9.51 22.6-9.51 12.48 0 22.6 4.26 22.6 9.51s-10.12 9.51-22.6 9.51c-12.48 0-22.6-4.26-22.6-9.51z"/><path id="79qii" d="M303.3 379.58c0-5.25-10.11-9.51-22.6-9.51-12.47 0-22.59 4.26-22.59 9.5v7c0 5.26 10.12 9.52 22.6 9.52 12.48 0 22.6-4.26 22.6-9.51v-7z"/><path id="79qik" d="M258.11 379.58c0-5.25 10.12-9.51 22.6-9.51 12.48 0 22.6 4.26 22.6 9.51s-10.12 9.51-22.6 9.51c-12.48 0-22.6-4.26-22.6-9.51z"/><path id="79qim" d="M298.3 370.58c0-5.25-10.11-9.51-22.6-9.51-12.47 0-22.59 4.26-22.59 9.5v7c0 5.26 10.12 9.52 22.6 9.52 12.48 0 22.6-4.26 22.6-9.51v-7z"/><path id="79qio" d="M253.11 370.58c0-5.25 10.12-9.51 22.6-9.51 12.48 0 22.6 4.26 22.6 9.51s-10.12 9.51-22.6 9.51c-12.48 0-22.6-4.26-22.6-9.51z"/><path id="79qiq" d="M302.3 361.58c0-5.25-10.11-9.51-22.6-9.51-12.47 0-22.59 4.26-22.59 9.5v7c0 5.26 10.12 9.52 22.6 9.52 12.48 0 22.6-4.26 22.6-9.51v-7z"/><path id="79qis" d="M257.11 361.58c0-5.25 10.12-9.51 22.6-9.51 12.48 0 22.6 4.26 22.6 9.51s-10.12 9.51-22.6 9.51c-12.48 0-22.6-4.26-22.6-9.51z"/><path id="79qiu" d="M335.98 406.58c0-5.25-10.12-9.51-22.6-9.51-12.48 0-22.6 4.26-22.6 9.5v7c0 5.26 10.12 9.52 22.6 9.52 12.48 0 22.6-4.26 22.6-9.51v-7z"/><path id="79qiw" d="M290.78 406.58c0-5.25 10.12-9.51 22.6-9.51 12.48 0 22.6 4.26 22.6 9.51s-10.12 9.51-22.6 9.51c-12.48 0-22.6-4.26-22.6-9.51z"/><path id="79qiy" d="M335.98 397.58c0-5.25-10.12-9.51-22.6-9.51-12.48 0-22.6 4.26-22.6 9.5v7c0 5.26 10.12 9.52 22.6 9.52 12.48 0 22.6-4.26 22.6-9.51v-7z"/><path id="79qiA" d="M290.78 397.58c0-5.25 10.12-9.51 22.6-9.51 12.48 0 22.6 4.26 22.6 9.51s-10.12 9.51-22.6 9.51c-12.48 0-22.6-4.26-22.6-9.51z"/><linearGradient id="79qib" x1="335.87" x2="335.46" y1="362.7" y2="308.57" gradientUnits="userSpaceOnUse"><stop offset="0" stop-color="#edecf5"/><stop offset="1" stop-color="#bcb8da"/></linearGradient><linearGradient id="79qif" x1="272.32" x2="312.69" y1="392.18" y2="391.68" gradientUnits="userSpaceOnUse"><stop offset="0" stop-color="#f8c354"/><stop offset="1" stop-color="#ff7f00"/></linearGradient><linearGradient id="79qih" x1="280.71" x2="280.71" y1="379.46" y2="398.2" gradientUnits="userSpaceOnUse"><stop offset="0" stop-color="#ffa900"/><stop offset="1" stop-color="#ff7f00"/></linearGradient><linearGradient id="79qij" x1="272.32" x2="312.69" y1="383.18" y2="382.68" gradientUnits="userSpaceOnUse"><stop offset="0" stop-color="#f8c354"/><stop offset="1" stop-color="#ff7f00"/></linearGradient><linearGradient id="79qil" x1="280.71" x2="280.71" y1="370.46" y2="389.2" gradientUnits="userSpaceOnUse"><stop offset="0" stop-color="#ffa900"/><stop offset="1" stop-color="#ff7f00"/></linearGradient><linearGradient id="79qin" x1="267.32" x2="307.69" y1="374.18" y2="373.68" gradientUnits="userSpaceOnUse"><stop offset="0" stop-color="#f8c354"/><stop offset="1" stop-color="#ff7f00"/></linearGradient><linearGradient id="79qip" x1="275.71" x2="275.71" y1="361.46" y2="380.2" gradientUnits="userSpaceOnUse"><stop offset="0" stop-color="#ffa900"/><stop offset="1" stop-color="#ff7f00"/></linearGradient><linearGradient id="79qir" x1="271.32" x2="311.69" y1="365.18" y2="364.68" gradientUnits="userSpaceOnUse"><stop offset="0" stop-color="#f8c354"/><stop offset="1" stop-color="#ff7f00"/></linearGradient><linearGradient id="79qit" x1="279.71" x2="279.71" y1="352.46" y2="371.2" gradientUnits="userSpaceOnUse"><stop offset="0" stop-color="#ffa900"/><stop offset="1" stop-color="#ff7f00"/></linearGradient><linearGradient id="79qiv" x1="304.98" x2="345.35" y1="410.18" y2="409.68" gradientUnits="userSpaceOnUse"><stop offset="0" stop-color="#f8c354"/><stop offset="1" stop-color="#ff7f00"/></linearGradient><linearGradient id="79qix" x1="313.38" x2="313.38" y1="397.46" y2="416.2" gradientUnits="userSpaceOnUse"><stop offset="0" stop-color="#ffa900"/><stop offset="1" stop-color="#ff7f00"/></linearGradient><linearGradient id="79qiz" x1="304.98" x2="345.35" y1="401.18" y2="400.68" gradientUnits="userSpaceOnUse"><stop offset="0" stop-color="#f8c354"/><stop offset="1" stop-color="#ff7f00"/></linearGradient><linearGradient id="79qiB" x1="313.38" x2="313.38" y1="388.46" y2="407.2" gradientUnits="userSpaceOnUse"><stop offset="0" stop-color="#ffa900"/><stop offset="1" stop-color="#ff7f00"/></linearGradient></defs><g><g transform="translate(-253 -308)"><g><g><g><use fill="url(#79qib)" xlink:href="#79qia"/></g><g opacity=".6"><use fill="#fff" xlink:href="#79qic"/></g><g opacity=".42"><use fill="#fff" xlink:href="#79qid"/></g></g></g><g><g><g><g><use fill="url(#79qif)" xlink:href="#79qie"/></g><g><use fill="url(#79qih)" xlink:href="#79qig"/></g></g><g><g><use fill="url(#79qij)" xlink:href="#79qii"/></g><g><use fill="url(#79qil)" xlink:href="#79qik"/></g></g><g><g><use fill="url(#79qin)" xlink:href="#79qim"/></g><g><use fill="url(#79qip)" xlink:href="#79qio"/></g></g><g><g><use fill="url(#79qir)" xlink:href="#79qiq"/></g><g><use fill="url(#79qit)" xlink:href="#79qis"/></g></g></g><g><g><g><use fill="url(#79qiv)" xlink:href="#79qiu"/></g><g><use fill="url(#79qix)" xlink:href="#79qiw"/></g></g><g><g><use fill="url(#79qiz)" xlink:href="#79qiy"/></g><g><use fill="url(#79qiB)" xlink:href="#79qiA"/></g></g></g></g></g></g></svg>