<svg xmlns="http://www.w3.org/2000/svg" xmlns:xlink="http://www.w3.org/1999/xlink" width="101" height="106" viewBox="0 0 101 106"><defs><path id="coaca" d="M491.04 383.58c0-5.25-10.12-9.51-22.6-9.51-12.48 0-22.6 4.26-22.6 9.5v7c0 5.26 10.12 9.52 22.6 9.52 12.48 0 22.6-4.26 22.6-9.51v-7z"/><path id="coacc" d="M445.84 383.58c0-5.25 10.12-9.51 22.6-9.51 12.48 0 22.6 4.26 22.6 9.51s-10.12 9.51-22.6 9.51c-12.48 0-22.6-4.26-22.6-9.51z"/><path id="coace" d="M491.04 374.58c0-5.25-10.12-9.51-22.6-9.51-12.48 0-22.6 4.26-22.6 9.5v7c0 5.26 10.12 9.52 22.6 9.52 12.48 0 22.6-4.26 22.6-9.51v-7z"/><path id="coacg" d="M445.84 374.58c0-5.25 10.12-9.51 22.6-9.51 12.48 0 22.6 4.26 22.6 9.51s-10.12 9.51-22.6 9.51c-12.48 0-22.6-4.26-22.6-9.51z"/><path id="coaci" d="M486.04 365.58c0-5.25-10.12-9.51-22.6-9.51-12.48 0-22.6 4.26-22.6 9.5v7c0 5.26 10.12 9.52 22.6 9.52 12.48 0 22.6-4.26 22.6-9.51v-7z"/><path id="coack" d="M440.84 365.58c0-5.25 10.12-9.51 22.6-9.51 12.48 0 22.6 4.26 22.6 9.51s-10.12 9.51-22.6 9.51c-12.48 0-22.6-4.26-22.6-9.51z"/><path id="coacm" d="M490.04 356.58c0-5.25-10.12-9.51-22.6-9.51-12.48 0-22.6 4.26-22.6 9.5v7c0 5.26 10.12 9.52 22.6 9.52 12.48 0 22.6-4.26 22.6-9.51v-7z"/><path id="coaco" d="M444.84 356.58c0-5.25 10.12-9.51 22.6-9.51 12.48 0 22.6 4.26 22.6 9.51s-10.12 9.51-22.6 9.51c-12.48 0-22.6-4.26-22.6-9.51z"/><path id="coacq" d="M523.7 401.58c0-5.25-10.11-9.51-22.6-9.51-12.47 0-22.59 4.26-22.59 9.5v7c0 5.26 10.12 9.52 22.6 9.52 12.48 0 22.6-4.26 22.6-9.51v-7z"/><path id="coacs" d="M478.51 401.58c0-5.25 10.12-9.51 22.6-9.51 12.48 0 22.6 4.26 22.6 9.51s-10.12 9.51-22.6 9.51c-12.48 0-22.6-4.26-22.6-9.51z"/><path id="coacu" d="M523.7 392.58c0-5.25-10.11-9.51-22.6-9.51-12.47 0-22.59 4.26-22.59 9.5v7c0 5.26 10.12 9.52 22.6 9.52 12.48 0 22.6-4.26 22.6-9.51v-7z"/><path id="coacw" d="M478.51 392.58c0-5.25 10.12-9.51 22.6-9.51 12.48 0 22.6 4.26 22.6 9.51s-10.12 9.51-22.6 9.51c-12.48 0-22.6-4.26-22.6-9.51z"/><path id="coacy" d="M530 319.51c3.99 0 7.05 1.05 10.4 2.46v-7.53a27.94 27.94 0 0 0-10.4-1.88c-9.6 0-17.12 5.75-19.4 15.04h-6.15v6.44h5.46v.56c0 1.2.06 2.4.19 3.48h-5.65v6.44h7.04c3.03 7.58 9.99 12.13 18.52 12.13 3.62 0 7.34-.61 10.4-1.88v-7.53c-3.36 1.42-6.42 2.46-10.4 2.46-4.68 0-7.9-1.9-9.8-5.18h8.36l2.37-6.44h-12.5c-.19-1.07-.25-2.21-.25-3.48v-.56h14.24l2.37-6.44h-15.79c1.52-4.93 5.06-8.09 11-8.09z"/><linearGradient id="coacb" x1="460.05" x2="500.42" y1="387.18" y2="386.68" gradientUnits="userSpaceOnUse"><stop offset="0" stop-color="#f8c354"/><stop offset="1" stop-color="#ff7f00"/></linearGradient><linearGradient id="coacd" x1="468.44" x2="468.44" y1="374.46" y2="393.2" gradientUnits="userSpaceOnUse"><stop offset="0" stop-color="#ffa900"/><stop offset="1" stop-color="#ff7f00"/></linearGradient><linearGradient id="coacf" x1="460.05" x2="500.42" y1="378.18" y2="377.68" gradientUnits="userSpaceOnUse"><stop offset="0" stop-color="#f8c354"/><stop offset="1" stop-color="#ff7f00"/></linearGradient><linearGradient id="coach" x1="468.44" x2="468.44" y1="365.46" y2="384.2" gradientUnits="userSpaceOnUse"><stop offset="0" stop-color="#ffa900"/><stop offset="1" stop-color="#ff7f00"/></linearGradient><linearGradient id="coacj" x1="455.05" x2="495.42" y1="369.18" y2="368.68" gradientUnits="userSpaceOnUse"><stop offset="0" stop-color="#f8c354"/><stop offset="1" stop-color="#ff7f00"/></linearGradient><linearGradient id="coacl" x1="463.44" x2="463.44" y1="356.46" y2="375.2" gradientUnits="userSpaceOnUse"><stop offset="0" stop-color="#ffa900"/><stop offset="1" stop-color="#ff7f00"/></linearGradient><linearGradient id="coacn" x1="459.05" x2="499.42" y1="360.18" y2="359.68" gradientUnits="userSpaceOnUse"><stop offset="0" stop-color="#f8c354"/><stop offset="1" stop-color="#ff7f00"/></linearGradient><linearGradient id="coacp" x1="467.44" x2="467.44" y1="347.46" y2="366.2" gradientUnits="userSpaceOnUse"><stop offset="0" stop-color="#ffa900"/><stop offset="1" stop-color="#ff7f00"/></linearGradient><linearGradient id="coacr" x1="492.71" x2="533.08" y1="405.18" y2="404.68" gradientUnits="userSpaceOnUse"><stop offset="0" stop-color="#f8c354"/><stop offset="1" stop-color="#ff7f00"/></linearGradient><linearGradient id="coact" x1="501.11" x2="501.11" y1="392.46" y2="411.2" gradientUnits="userSpaceOnUse"><stop offset="0" stop-color="#ffa900"/><stop offset="1" stop-color="#ff7f00"/></linearGradient><linearGradient id="coacv" x1="492.71" x2="533.08" y1="396.18" y2="395.68" gradientUnits="userSpaceOnUse"><stop offset="0" stop-color="#f8c354"/><stop offset="1" stop-color="#ff7f00"/></linearGradient><linearGradient id="coacx" x1="501.11" x2="501.11" y1="383.46" y2="402.2" gradientUnits="userSpaceOnUse"><stop offset="0" stop-color="#ffa900"/><stop offset="1" stop-color="#ff7f00"/></linearGradient><linearGradient id="coacz" x1="522.39" x2="522.5" y1="356.51" y2="312.56" gradientUnits="userSpaceOnUse"><stop offset="0" stop-color="#edecf5"/><stop offset="1" stop-color="#bcb8da"/></linearGradient></defs><g><g transform="translate(-440 -312)"><g><g><g><g><use fill="url(#coacb)" xlink:href="#coaca"/></g><g><use fill="url(#coacd)" xlink:href="#coacc"/></g></g><g><g><use fill="url(#coacf)" xlink:href="#coace"/></g><g><use fill="url(#coach)" xlink:href="#coacg"/></g></g><g><g><use fill="url(#coacj)" xlink:href="#coaci"/></g><g><use fill="url(#coacl)" xlink:href="#coack"/></g></g><g><g><use fill="url(#coacn)" xlink:href="#coacm"/></g><g><use fill="url(#coacp)" xlink:href="#coaco"/></g></g></g><g><g><g><use fill="url(#coacr)" xlink:href="#coacq"/></g><g><use fill="url(#coact)" xlink:href="#coacs"/></g></g><g><g><use fill="url(#coacv)" xlink:href="#coacu"/></g><g><use fill="url(#coacx)" xlink:href="#coacw"/></g></g></g></g><g><use fill="url(#coacz)" xlink:href="#coacy"/></g></g></g></svg>