<svg xmlns="http://www.w3.org/2000/svg" xmlns:xlink="http://www.w3.org/1999/xlink" width="96" height="104" viewBox="0 0 96 104"><defs><path id="xmipa" d="M695.5 342.7c.8 19.3-11.2 38.4-26.9 42.6-15.7 4.2-29-8.1-29.8-27.4-.8-19.3 11.2-38.4 26.9-42.6 15.7-4.2 29 8.1 29.8 27.4z"/><path id="xmipc" d="M684.6 327.8l-5.5-2.2v-9.7l5.5 2.2z"/><path id="xmipe" d="M661.4 387.4l-5.5-2.2v-9.8l5.5 2.2z"/><path id="xmipg" d="M702.9 345.5c.9 19.4-11.2 38.5-26.8 42.7-15.6 4.2-29-8.1-29.8-27.4-.8-19.3 11.2-38.4 26.9-42.6 15.7-4.2 28.9 8 29.7 27.3z"/><path id="xmipi" d="M695.3 347.6c.5 14.1-8.3 28-19.8 31.1-11.5 3.1-21.1-6-21.7-20.1-.6-14.1 8.3-28 19.8-31.1 11.5-3.1 21.2 5.9 21.7 20.1z"/><path id="xmipk" d="M695 347.5c-.4-8.9-4.4-15.7-10.1-18.8 4.2 3.6 7 9.5 7.3 16.9.6 14.1-8.2 28.1-19.6 31.1-4.2 1.1-8.3.6-11.7-1.2 3.9 3.3 9 4.6 14.5 3.1 11.4-3.1 20.2-17 19.6-31.1z"/><path id="xmipl" d="M725.9 371.6c.8 19.3-11.2 38.4-26.9 42.6-15.7 4.2-29-8.1-29.8-27.4-.8-19.3 11.2-38.4 26.9-42.6 15.7-4.2 29 8 29.8 27.4z"/><path id="xmipn" d="M715 356.6l-5.5-2.2v-9.7l5.5 2.2z"/><path id="xmipp" d="M691.8 416.2l-5.5-2.2v-9.8l5.5 2.2z"/><path id="xmipr" d="M733.3 374.4c.8 19.3-11.2 38.4-26.9 42.6-15.7 4.2-29-8.1-29.8-27.4-.7-19.3 11.3-38.4 26.9-42.6 15.6-4.2 29 8 29.8 27.4z"/><path id="xmipt" d="M725.7 376.4c.5 14.1-8.3 28-19.8 31.1-11.5 3.1-21.1-6-21.7-20.1-.6-14.1 8.3-28 19.8-31.1 11.5-3.1 21.2 6 21.7 20.1z"/><path id="xmipv" d="M725.4 376.3c-.4-8.9-4.4-15.7-10.1-18.8 4.2 3.6 7 9.5 7.3 16.9.6 14.1-8.2 28.1-19.6 31.1-4.2 1.1-8.3.6-11.7-1.2 3.9 3.3 9 4.6 14.5 3.1 11.4-3 20.2-17 19.6-31.1z"/><linearGradient id="xmipb" x1="690.48" x2="647.77" y1="329.53" y2="367.78" gradientUnits="userSpaceOnUse"><stop offset="0" stop-color="#ffc036"/><stop offset="1" stop-color="#ff8d00"/></linearGradient><linearGradient id="xmipd" x1="684.97" x2="679.27" y1="319.05" y2="324.16" gradientUnits="userSpaceOnUse"><stop offset="0" stop-color="#ffc036"/><stop offset="1" stop-color="#ff8d00"/></linearGradient><linearGradient id="xmipf" x1="661.74" x2="656.04" y1="378.59" y2="383.7" gradientUnits="userSpaceOnUse"><stop offset="0" stop-color="#ffc036"/><stop offset="1" stop-color="#ff8d00"/></linearGradient><linearGradient id="xmiph" x1="646.25" x2="702.99" y1="353.16" y2="353.16" gradientUnits="userSpaceOnUse"><stop offset="0" stop-color="#ffc036"/><stop offset="1" stop-color="#ff8d00"/></linearGradient><linearGradient id="xmipj" x1="661.51" x2="708.76" y1="344.24" y2="376.08" gradientUnits="userSpaceOnUse"><stop offset="0" stop-color="#ffc036"/><stop offset="1" stop-color="#ff8d00"/></linearGradient><linearGradient id="xmipm" x1="720.87" x2="678.16" y1="358.35" y2="396.6" gradientUnits="userSpaceOnUse"><stop offset="0" stop-color="#ffc036"/><stop offset="1" stop-color="#ff8d00"/></linearGradient><linearGradient id="xmipo" x1="715.36" x2="709.67" y1="347.87" y2="352.98" gradientUnits="userSpaceOnUse"><stop offset="0" stop-color="#ffc036"/><stop offset="1" stop-color="#ff8d00"/></linearGradient><linearGradient id="xmipq" x1="692.13" x2="686.44" y1="407.41" y2="412.52" gradientUnits="userSpaceOnUse"><stop offset="0" stop-color="#ffc036"/><stop offset="1" stop-color="#ff8d00"/></linearGradient><linearGradient id="xmips" x1="676.65" x2="733.38" y1="381.98" y2="381.98" gradientUnits="userSpaceOnUse"><stop offset="0" stop-color="#ffc036"/><stop offset="1" stop-color="#ff8d00"/></linearGradient><linearGradient id="xmipu" x1="690.54" x2="721.19" y1="358.93" y2="407.67" gradientUnits="userSpaceOnUse"><stop offset="0" stop-color="#ffc036"/><stop offset="1" stop-color="#ff8d00"/></linearGradient></defs><g><g transform="translate(-638 -314)"><g><g><use fill="url(#xmipb)" xlink:href="#xmipa"/></g><g><use fill="url(#xmipd)" xlink:href="#xmipc"/></g><g><use fill="url(#xmipf)" xlink:href="#xmipe"/></g><g><use fill="url(#xmiph)" xlink:href="#xmipg"/></g><g><use fill="url(#xmipj)" xlink:href="#xmipi"/></g><g><use fill="#ff8400" xlink:href="#xmipk"/></g></g><g><g><use fill="url(#xmipm)" xlink:href="#xmipl"/></g><g><use fill="url(#xmipo)" xlink:href="#xmipn"/></g><g><use fill="url(#xmipq)" xlink:href="#xmipp"/></g><g><use fill="url(#xmips)" xlink:href="#xmipr"/></g><g><use fill="url(#xmipu)" xlink:href="#xmipt"/></g><g><use fill="#ff8400" xlink:href="#xmipv"/></g></g></g></g></svg>