<svg xmlns="http://www.w3.org/2000/svg" xmlns:xlink="http://www.w3.org/1999/xlink" width="90" height="99" viewBox="0 0 90 99"><defs><path id="wscfa" d="M832.5 350.9v46.6l42 16.7 41.8-16.8v-46.5z"/><path id="wscfc" d="M898.5 404.5v-45.7l-6.1 2.9v45.4z"/><path id="wscfd" d="M849.8 404.3v-45.7l6.1 2.8v45.5z"/><path id="wscfe" d="M918.6 341.7v9.3l-44.1 18.2-44.6-18.2v-9.3"/><path id="wscfg" d="M901.6 358v-9.2l-6.2 2.5v9.3z"/><path id="wscfh" d="M847.3 358v-9.2l6.1 2.5v9.3z"/><path id="wscfi" d="M829.9 341.7l44.6 18.2 44.1-18.2-44.2-18.5z"/><path id="wscfk" d="M901.6 348.8l-6.2 2.5-43.9-18.2 6.1-2.6z"/><path id="wscfl" d="M847.4 348.8l6.1 2.6 43.9-18.6-6.2-2.5z"/><path id="wscfm" d="M866.9 342.1s-2.6-9.7-6.8-15.9c-1.8-2.7-4.4-4.7-6.4-5.2-6.7-1.6-4.5 7.8-1.5 11.5 4.3 5.2 14.7 9.6 14.7 9.6z"/><path id="wscfo" d="M877.4 337.4s-6.5-19-13.2-20.6c-6.7-1.6-3.8 8-1.5 11s14.7 9.6 14.7 9.6z"/><path id="wscfp" d="M851.2 320.9l10.4-4.1 15.8 20.6-10.5 4.6-5-11.3c-.1.1-3.4-9.9-10.7-9.8z"/><path id="wscfq" d="M878.1 335.9c2.4-1.1 9.3-3.9 11.1-4.8 1.8-.9 4-1.3 6.4-.4 6.7 2.3 8.6 12 4 14.5-.8.4-9.7 5-9.7 5s4-4.9 2.6-5.5c-.1-2.1-4.7-7.4-14.4-8.8z"/><path id="wscfr" d="M867.7 343.2s10.5-10.8 18.4-8.1c7.9 2.7 9.1 16.5 1 15.8-6.7-.5-19.4-7.7-19.4-7.7z"/><path id="wscft" d="M873.5 343s6.7-5.7 11-4.3c4.4 1.5 5 9.1.6 8.7-3.7-.2-11.6-4.4-11.6-4.4z"/><path id="wscfu" d="M862.8 337.2s-3.5-10.5-7.2-11.4c-3.7-.9-2.4 4.2-.7 6.2 2.3 2.8 7.9 5.2 7.9 5.2z"/><linearGradient id="wscfb" x1="832.71" x2="910.71" y1="405.94" y2="346.44" gradientUnits="userSpaceOnUse"><stop offset="0" stop-color="#ffc036"/><stop offset="1" stop-color="#ff8d00"/></linearGradient><linearGradient id="wscff" x1="842.04" x2="937.04" y1="347.83" y2="361.08" gradientUnits="userSpaceOnUse"><stop offset="0" stop-color="#ffc036"/><stop offset="1" stop-color="#ff8d00"/></linearGradient><linearGradient id="wscfj" x1="829.87" x2="918.65" y1="341.57" y2="341.57" gradientUnits="userSpaceOnUse"><stop offset="0" stop-color="#ffc036"/><stop offset="1" stop-color="#ff8d00"/></linearGradient><linearGradient id="wscfn" x1="849.26" x2="866.86" y1="331.43" y2="331.43" gradientUnits="userSpaceOnUse"><stop offset="0" stop-color="#ffc036"/><stop offset="1" stop-color="#ff8d00"/></linearGradient><linearGradient id="wscfs" x1="890.91" x2="860.34" y1="341.23" y2="349.7" gradientUnits="userSpaceOnUse"><stop offset="0" stop-color="#ffc036"/><stop offset="1" stop-color="#ff8d00"/></linearGradient></defs><g><g transform="translate(-829 -316)"><g><use fill="url(#wscfb)" xlink:href="#wscfa"/></g><g><use fill="#ee7b00" xlink:href="#wscfc"/></g><g><use fill="#ee7b00" xlink:href="#wscfd"/></g><g><use fill="url(#wscff)" xlink:href="#wscfe"/></g><g><use fill="#ee7b00" xlink:href="#wscfg"/></g><g><use fill="#ee7b00" xlink:href="#wscfh"/></g><g><use fill="url(#wscfj)" xlink:href="#wscfi"/></g><g><use fill="#ff8400" xlink:href="#wscfk"/></g><g><use fill="#ee7b00" xlink:href="#wscfl"/></g><g><use fill="url(#wscfn)" xlink:href="#wscfm"/></g><g><use fill="#ee7b00" xlink:href="#wscfo"/></g><g><use fill="#ee7b00" xlink:href="#wscfp"/></g><g><use fill="#ee7b00" xlink:href="#wscfq"/></g><g><use fill="url(#wscfs)" xlink:href="#wscfr"/></g><g><use fill="#ee7b00" xlink:href="#wscft"/></g><g><use fill="#ee7b00" xlink:href="#wscfu"/></g></g></g></svg>