<svg xmlns="http://www.w3.org/2000/svg" xmlns:xlink="http://www.w3.org/1999/xlink" width="59" height="95" viewBox="0 0 59 95"><defs><path id="jwwya" d="M1038.9 397.8c0-8.28 12.94-15 28.9-15 15.96 0 28.9 6.72 28.9 15 0 8.28-12.94 15-28.9 15-15.96 0-28.9-6.72-28.9-15z"/><path id="jwwyc" d="M1038.9 397.8V394h57.8v3.8z"/><path id="jwwye" d="M1038.9 394c0-8.28 12.94-15 28.9-15 15.96 0 28.9 6.72 28.9 15 0 8.28-12.94 15-28.9 15-15.96 0-28.9-6.72-28.9-15z"/><path id="jwwyg" d="M1081.7 375.6s-2.8-4.9-10.4-7.3c-.5-.1-.8-.6-.8-1.1 0-.5.3-.9.8-1 2.1-.7 8.2-3 10.5-7.8 2.8-5.9 4.6-10.8 4.6-10.8h-37s1.8 4.9 4.6 10.8c2.3 4.8 8.4 7.1 10.5 7.8.5.1.8.6.8 1 0 .5-.3.9-.8 1.1-7.6 2.4-10.4 7.3-10.4 7.3s-8.6 15-8.6 18.4c-.6 9.9 22.4 10 22.4 10s23-.2 22.4-10c-.1-3.4-8.6-18.4-8.6-18.4z"/><path id="jwwyi" d="M1038.9 336.4c0-7.84 12.94-14.2 28.9-14.2 15.96 0 28.9 6.36 28.9 14.2 0 7.84-12.94 14.2-28.9 14.2-15.96 0-28.9-6.36-28.9-14.2z"/><path id="jwwyk" d="M1038.9 336.4v-3.6h57.8v3.6z"/><path id="jwwym" d="M1038.9 332.8c0-7.84 12.94-14.2 28.9-14.2 15.96 0 28.9 6.36 28.9 14.2 0 7.84-12.94 14.2-28.9 14.2-15.96 0-28.9-6.36-28.9-14.2z"/><path id="jwwyo" d="M1081.7 393.5c0 3.2-6.2 5.7-13.8 5.7-7.6 0-13.9-2.5-13.9-5.7 0-2.3 6.5-6.5 11.1-9.8a4.5 4.5 0 0 1 5.4 0c4.8 3.5 11.2 7.6 11.2 9.8z"/><path id="jwwyq" d="M1065.6 377.9a2.2 2.2 0 1 1 4.4 0 2.2 2.2 0 0 1-4.4 0z"/><path id="jwwys" d="M1066.5 371.8a1.3 1.3 0 1 1 2.6 0 1.3 1.3 0 0 1-2.6 0z"/><linearGradient id="jwwyb" x1="1108.02" x2="989.29" y1="391.71" y2="409.84" gradientUnits="userSpaceOnUse"><stop offset="0" stop-color="#ffc036"/><stop offset="1" stop-color="#ff8d00"/></linearGradient><linearGradient id="jwwyd" x1="1108.3" x2="988.75" y1="389.75" y2="408.01" gradientUnits="userSpaceOnUse"><stop offset="0" stop-color="#ffc036"/><stop offset="1" stop-color="#ff8d00"/></linearGradient><linearGradient id="jwwyf" x1="1038.93" x2="1096.73" y1="394.01" y2="394.01" gradientUnits="userSpaceOnUse"><stop offset="0" stop-color="#ffc036"/><stop offset="1" stop-color="#ff8d00"/></linearGradient><linearGradient id="jwwyh" x1="1067.88" x2="1067.88" y1="344.21" y2="421" gradientUnits="userSpaceOnUse"><stop offset="0" stop-color="#00c6e4"/><stop offset="1" stop-color="#0084f1"/></linearGradient><linearGradient id="jwwyj" x1="1114.09" x2="1039.07" y1="325.5" y2="343.25" gradientUnits="userSpaceOnUse"><stop offset="0" stop-color="#ffc036"/><stop offset="1" stop-color="#ff8d00"/></linearGradient><linearGradient id="jwwyl" x1="1114.46" x2="1038.84" y1="323.61" y2="341.5" gradientUnits="userSpaceOnUse"><stop offset="0" stop-color="#ffc036"/><stop offset="1" stop-color="#ff8d00"/></linearGradient><linearGradient id="jwwyn" x1="1055.4" x2="1203.92" y1="332.04" y2="341.59" gradientUnits="userSpaceOnUse"><stop offset="0" stop-color="#ffc036"/><stop offset="1" stop-color="#ff8d00"/></linearGradient><linearGradient id="jwwyp" x1="1059.01" x2="1100.26" y1="374.49" y2="463.99" gradientUnits="userSpaceOnUse"><stop offset="0" stop-color="#ffc036"/><stop offset="1" stop-color="#ff8d00"/></linearGradient><linearGradient id="jwwyr" x1="1065" x2="1106.25" y1="371.73" y2="461.23" gradientUnits="userSpaceOnUse"><stop offset="0" stop-color="#ffc036"/><stop offset="1" stop-color="#ff8d00"/></linearGradient><linearGradient id="jwwyt" x1="1067.31" x2="1108.56" y1="370.67" y2="460.17" gradientUnits="userSpaceOnUse"><stop offset="0" stop-color="#ffc036"/><stop offset="1" stop-color="#ff8d00"/></linearGradient></defs><g><g transform="translate(-1038 -318)"><g><use fill="url(#jwwyb)" xlink:href="#jwwya"/></g><g><use fill="url(#jwwyd)" xlink:href="#jwwyc"/></g><g><use fill="url(#jwwyf)" xlink:href="#jwwye"/></g><g><use fill="url(#jwwyh)" xlink:href="#jwwyg"/></g><g><use fill="url(#jwwyj)" xlink:href="#jwwyi"/></g><g><use fill="url(#jwwyl)" xlink:href="#jwwyk"/></g><g><use fill="url(#jwwyn)" xlink:href="#jwwym"/></g><g><use fill="url(#jwwyp)" xlink:href="#jwwyo"/></g><g><use fill="url(#jwwyr)" xlink:href="#jwwyq"/></g><g><use fill="url(#jwwyt)" xlink:href="#jwwys"/></g></g></g></svg>