<svg xmlns="http://www.w3.org/2000/svg" xmlns:xlink="http://www.w3.org/1999/xlink" width="83" height="116" viewBox="0 0 83 116"><defs><path id="hab4a" d="M1253 336.6l27.8.9-22.6-26.5c-1.6-1.9-3.9-3-6.4-3.1l-22.5-.8z"/><path id="hab4c" d="M1252.7 336.6l-23 33.1 22.9 1.2c2.4.1 4.6-1 6-2.9l22.1-30.5z"/><path id="hab4e" d="M1255.97 323.1c-1.72-.99-2.78-2.37-2.37-3.09.42-.72 2.15-.5 3.87.5 1.72 1 2.78 2.38 2.37 3.1-.42.72-2.15.5-3.87-.5z"/><path id="hab4f" d="M1257.4 346.8c-1.3 1.5-3.3 2.7-4.5 2.7-1.2 0-1.1-1.2.2-2.7 1.3-1.5 3.3-2.7 4.5-2.7 1.2-.1 1.1 1.2-.2 2.7z"/><path id="hab4g" d="M1259.3 354.5c-1.3 1.5-3.3 2.7-4.4 2.7-1.2 0-1.1-1.2.2-2.7 1.3-1.5 3.3-2.7 4.5-2.7 1.1-.1 1 1.2-.3 2.7z"/><path id="hab4h" d="M1260.3 362.6c-1.3 1.5-3.3 2.7-4.5 2.7-1.2 0-1.1-1.3.2-2.8 1.3-1.5 3.3-2.7 4.5-2.7 1.2 0 1.1 1.3-.2 2.8z"/><path id="hab4i" d="M1231.7 368.7l20.4-27.8c1.9-2.6 1.8-6.2-.3-8.7L1231 308c-1.1-1.3-3-1.2-4 .2l-20.4 27.7c-1.9 2.6-1.8 6.2.3 8.7l20.8 24.3c1.1 1.2 3.1 1.1 4-.2z"/><path id="hab4k" d="M1236.7 337.7c0-1.93 1.3-3.5 2.9-3.5 1.6 0 2.9 1.57 2.9 3.5s-1.3 3.5-2.9 3.5c-1.6 0-2.9-1.57-2.9-3.5z"/><path id="hab4m" d="M1214.2 339.1c0-1.93 1.3-3.5 2.9-3.5 1.6 0 2.9 1.57 2.9 3.5s-1.3 3.5-2.9 3.5c-1.6 0-2.9-1.57-2.9-3.5z"/><path id="hab4o" d="M1276.4 360.4s2.9 3.8.7 6.8 3.1-2.7 3.1-2.7z"/><path id="hab4p" d="M1287.8 402.2v-33.9l-30.5 18.2V423l28.2-16.8c1.4-.9 2.3-2.4 2.3-4z"/><path id="hab4r" d="M1226.6 402.1v-33.8l30.7 18.2V423l-28.4-16.9a4.7 4.7 0 0 1-2.3-4z"/><path id="hab4t" d="M1286.5 365.9l-26.4-16.6a5.79 5.79 0 0 0-6.2 0l-26 16.2c-1.8 1.1-1.8 3.7.1 4.8l26.8 15.9c1.8 1.1 4.1 1.1 6 0l25.7-15.5a2.8 2.8 0 0 0 0-4.8z"/><path id="hab4v" d="M1251.7 357.2c0-1 1.48-1.8 3.3-1.8 1.82 0 3.3.8 3.3 1.8s-1.48 1.8-3.3 1.8c-1.82 0-3.3-.8-3.3-1.8z"/><path id="hab4x" d="M1260.8 362.3c0-1 1.48-1.8 3.3-1.8 1.82 0 3.3.8 3.3 1.8s-1.48 1.8-3.3 1.8c-1.82 0-3.3-.8-3.3-1.8z"/><path id="hab4z" d="M1270.3 367.7c0-1 1.48-1.8 3.3-1.8 1.82 0 3.3.8 3.3 1.8s-1.48 1.8-3.3 1.8c-1.82 0-3.3-.8-3.3-1.8z"/><path id="hab4B" d="M1239.3 365.2c0-1 1.48-1.8 3.3-1.8 1.82 0 3.3.8 3.3 1.8s-1.48 1.8-3.3 1.8c-1.82 0-3.3-.8-3.3-1.8z"/><path id="hab4D" d="M1247.2 370.8c0-1 1.48-1.8 3.3-1.8 1.82 0 3.3.8 3.3 1.8s-1.48 1.8-3.3 1.8c-1.82 0-3.3-.8-3.3-1.8z"/><path id="hab4F" d="M1256.8 376.3c0-1 1.48-1.8 3.3-1.8 1.82 0 3.3.8 3.3 1.8s-1.48 1.8-3.3 1.8c-1.82 0-3.3-.8-3.3-1.8z"/><path id="hab4H" d="M1269.1 390.5c-.4 1.7-1.9 3.4-3.2 3.6-1.3.3-2.1-.9-1.7-2.7.4-1.7 1.9-3.4 3.2-3.6 1.4-.2 2.1 1 1.7 2.7z"/><path id="hab4J" d="M1276.4 394.9c-.4 1.7-1.9 3.4-3.2 3.6-1.3.3-2.1-.9-1.7-2.7.4-1.7 1.9-3.4 3.2-3.6 1.4-.2 2.2 1 1.7 2.7z"/><path id="hab4L" d="M1283.3 399.6c-.4 1.7-1.9 3.4-3.2 3.6-1.3.3-2.1-.9-1.7-2.7.4-1.7 1.9-3.4 3.2-3.6 1.4-.3 2.1.9 1.7 2.7z"/><path id="hab4N" d="M1244.8 391.1c.4 1.7 1.9 3.4 3.2 3.6 1.3.3 2.1-.9 1.7-2.7-.4-1.7-1.9-3.4-3.2-3.6-1.4-.3-2.2.9-1.7 2.7z"/><path id="hab4P" d="M1233 383.6c.4 1.7 1.9 3.4 3.2 3.6 1.3.3 2.1-.9 1.7-2.7-.4-1.8-1.9-3.4-3.2-3.6-1.3-.3-2.1.9-1.7 2.7z"/><path id="hab4R" d="M1244.8 406.6c.4 1.7 1.9 3.4 3.2 3.6 1.3.3 2.1-.9 1.7-2.7-.4-1.7-1.9-3.4-3.2-3.6-1.4-.3-2.2.9-1.7 2.7z"/><path id="hab4T" d="M1233 398.2c.4 1.7 1.9 3.4 3.2 3.6 1.3.3 2.1-.9 1.7-2.7-.4-1.8-1.9-3.4-3.2-3.6-1.3-.3-2.1.9-1.7 2.7z"/><linearGradient id="hab4b" x1="1237.14" x2="1296.28" y1="307.51" y2="359.58" gradientUnits="userSpaceOnUse"><stop offset="0" stop-color="#00c6e4"/><stop offset="1" stop-color="#0084f1"/></linearGradient><linearGradient id="hab4d" x1="1259.26" x2="1251.96" y1="304.74" y2="394.78" gradientUnits="userSpaceOnUse"><stop offset="0" stop-color="#00c6e4"/><stop offset="1" stop-color="#0084f1"/></linearGradient><linearGradient id="hab4j" x1="1227.96" x2="1236.17" y1="320.11" y2="427.47" gradientUnits="userSpaceOnUse"><stop offset="0" stop-color="#00c6e4"/><stop offset="1" stop-color="#0084f1"/></linearGradient><linearGradient id="hab4l" x1="1305.71" x2="1203.91" y1="309.42" y2="353.03" gradientUnits="userSpaceOnUse"><stop offset="0" stop-color="#00c6e4"/><stop offset="1" stop-color="#0084f1"/></linearGradient><linearGradient id="hab4n" x1="1302.71" x2="1200.91" y1="302.42" y2="346.02" gradientUnits="userSpaceOnUse"><stop offset="0" stop-color="#00c6e4"/><stop offset="1" stop-color="#0084f1"/></linearGradient><linearGradient id="hab4q" x1="1284.81" x2="1251.82" y1="423.2" y2="349.01" gradientUnits="userSpaceOnUse"><stop offset="0" stop-color="#00c6e4"/><stop offset="1" stop-color="#0084f1"/></linearGradient><linearGradient id="hab4s" x1="1238.67" x2="1261.26" y1="404.13" y2="345.71" gradientUnits="userSpaceOnUse"><stop offset="0" stop-color="#00c6e4"/><stop offset="1" stop-color="#0084f1"/></linearGradient><linearGradient id="hab4u" x1="1225.63" x2="1345.65" y1="354.22" y2="405.27" gradientUnits="userSpaceOnUse"><stop offset="0" stop-color="#00c6e4"/><stop offset="1" stop-color="#0084f1"/></linearGradient><linearGradient id="hab4w" x1="1322.81" x2="1218.32" y1="328.15" y2="372.91" gradientUnits="userSpaceOnUse"><stop offset="0" stop-color="#00c6e4"/><stop offset="1" stop-color="#0084f1"/></linearGradient><linearGradient id="hab4y" x1="1331.94" x2="1227.45" y1="333.2" y2="377.96" gradientUnits="userSpaceOnUse"><stop offset="0" stop-color="#00c6e4"/><stop offset="1" stop-color="#0084f1"/></linearGradient><linearGradient id="hab4A" x1="1341.48" x2="1236.99" y1="338.66" y2="383.42" gradientUnits="userSpaceOnUse"><stop offset="0" stop-color="#00c6e4"/><stop offset="1" stop-color="#0084f1"/></linearGradient><linearGradient id="hab4C" x1="1310.45" x2="1205.95" y1="336.13" y2="380.89" gradientUnits="userSpaceOnUse"><stop offset="0" stop-color="#00c6e4"/><stop offset="1" stop-color="#0084f1"/></linearGradient><linearGradient id="hab4E" x1="1318.38" x2="1213.88" y1="341.75" y2="386.51" gradientUnits="userSpaceOnUse"><stop offset="0" stop-color="#00c6e4"/><stop offset="1" stop-color="#0084f1"/></linearGradient><linearGradient id="hab4G" x1="1327.92" x2="1223.43" y1="347.21" y2="391.97" gradientUnits="userSpaceOnUse"><stop offset="0" stop-color="#00c6e4"/><stop offset="1" stop-color="#0084f1"/></linearGradient><linearGradient id="hab4I" x1="1327.81" x2="1233.61" y1="353.22" y2="411.38" gradientUnits="userSpaceOnUse"><stop offset="0" stop-color="#00c6e4"/><stop offset="1" stop-color="#0084f1"/></linearGradient><linearGradient id="hab4K" x1="1335.17" x2="1240.94" y1="357.64" y2="415.79" gradientUnits="userSpaceOnUse"><stop offset="0" stop-color="#00c6e4"/><stop offset="1" stop-color="#0084f1"/></linearGradient><linearGradient id="hab4M" x1="1341.98" x2="1247.78" y1="362.25" y2="420.46" gradientUnits="userSpaceOnUse"><stop offset="0" stop-color="#00c6e4"/><stop offset="1" stop-color="#0084f1"/></linearGradient><linearGradient id="hab4O" x1="1186.04" x2="1280.27" y1="353.75" y2="411.96" gradientUnits="userSpaceOnUse"><stop offset="0" stop-color="#00c6e4"/><stop offset="1" stop-color="#0084f1"/></linearGradient><linearGradient id="hab4Q" x1="1174.36" x2="1268.52" y1="346.24" y2="404.45" gradientUnits="userSpaceOnUse"><stop offset="0" stop-color="#00c6e4"/><stop offset="1" stop-color="#0084f1"/></linearGradient><linearGradient id="hab4S" x1="1186.04" x2="1280.27" y1="369.25" y2="427.46" gradientUnits="userSpaceOnUse"><stop offset="0" stop-color="#00c6e4"/><stop offset="1" stop-color="#0084f1"/></linearGradient><linearGradient id="hab4U" x1="1174.36" x2="1268.52" y1="360.82" y2="419.03" gradientUnits="userSpaceOnUse"><stop offset="0" stop-color="#00c6e4"/><stop offset="1" stop-color="#0084f1"/></linearGradient></defs><g><g transform="translate(-1205 -307)"><g><use fill="url(#hab4b)" xlink:href="#hab4a"/></g><g><use fill="url(#hab4d)" xlink:href="#hab4c"/></g><g><use fill="#0095ee" xlink:href="#hab4e"/></g><g><use fill="#0084f1" xlink:href="#hab4f"/></g><g><use fill="#0084f1" xlink:href="#hab4g"/></g><g><use fill="#0084f1" xlink:href="#hab4h"/></g><g><use fill="url(#hab4j)" xlink:href="#hab4i"/></g><g><use fill="url(#hab4l)" xlink:href="#hab4k"/></g><g><use fill="url(#hab4n)" xlink:href="#hab4m"/></g><g><use fill="#1a1a41" xlink:href="#hab4o"/></g><g><g><use fill="url(#hab4q)" xlink:href="#hab4p"/></g><g><use fill="url(#hab4s)" xlink:href="#hab4r"/></g><g><use fill="url(#hab4u)" xlink:href="#hab4t"/></g><g><use fill="url(#hab4w)" xlink:href="#hab4v"/></g><g><use fill="url(#hab4y)" xlink:href="#hab4x"/></g><g><use fill="url(#hab4A)" xlink:href="#hab4z"/></g><g><use fill="url(#hab4C)" xlink:href="#hab4B"/></g><g><use fill="url(#hab4E)" xlink:href="#hab4D"/></g><g><use fill="url(#hab4G)" xlink:href="#hab4F"/></g><g><use fill="url(#hab4I)" xlink:href="#hab4H"/></g><g><use fill="url(#hab4K)" xlink:href="#hab4J"/></g><g><use fill="url(#hab4M)" xlink:href="#hab4L"/></g><g><use fill="url(#hab4O)" xlink:href="#hab4N"/></g><g><use fill="url(#hab4Q)" xlink:href="#hab4P"/></g><g><use fill="url(#hab4S)" xlink:href="#hab4R"/></g><g><use fill="url(#hab4U)" xlink:href="#hab4T"/></g></g></g></g></svg>