<svg xmlns="http://www.w3.org/2000/svg" xmlns:xlink="http://www.w3.org/1999/xlink" width="114" height="102" viewBox="0 0 114 102"><defs><path id="6bcba" d="M128.6 533.6c0-4.3 3.4-9.2 7.7-11.1v-15.7c0-3.9-3.9-6.5-7.5-5l-65.5 26.9c-2.9 1.2-4.8 4-4.8 7.1v16.5c4.3-1.9 7.7.1 7.7 4.3 0 4.3-3.4 9.2-7.7 11.1v12.1c0 3.9 3.9 6.5 7.5 5l65.5-26.9c2.9-1.2 4.8-4 4.8-7.1l-1.8-11.5c-4.3 1.9-5.9-1.5-5.9-5.7z"/><path id="6bcbc" d="M140 510.9l-7.1-2.8v-6.3l7.1 2.8z"/><path id="6bcbe" d="M65.6 555.2l-7.1-2.8v-6.3l7.1 2.8z"/><path id="6bcbg" d="M68.8 587.6l-7.1-2.8v-6.3l7.1 2.8z"/><path id="6bcbi" d="M143.2 546.8l-10-3.9v-6.3l10 3.9z"/><path id="6bcbk" d="M135.5 536.3c0-4.3 3.4-9.2 7.7-11.1v-15.6c0-3.9-3.9-6.5-7.5-5l-65.5 26.9c-2.9 1.2-4.8 4-4.8 7.1v16.5c4.3-1.9 7.7.1 7.7 4.3 0 4.3-3.4 9.2-7.7 11.1v12.1c0 3.9 3.9 6.5 7.5 5l65.5-26.9c2.9-1.2 4.8-4 4.8-7.1v-13c-4.2 1.9-7.7 0-7.7-4.3z"/><path id="6bcbm" d="M132.9 536.9c0-3.5 1.6-9.5 6.7-12.6v-12c0-2-2.1-3.4-3.9-2.6l-63.4 25.8c-1.4.6-2.4 2-2.4 3.6v11.5c4.1 0 7.5 2.7 7.5 7.8 0 7.1-3.9 11.9-7.5 13.4v8c0 2 2.1 3.4 3.9 2.6l63.3-26.2c1.4-.6 2.4-2 2.4-3.6v-7.9c-5-.8-6.6-4.3-6.6-7.8z"/><path id="6bcbn" d="M156.5 547.9c0-4.3 3.4-9.2 7.7-11.1v-15.7c0-3.9-3.9-6.5-7.5-5L91.2 543c-2.9 1.2-4.8 4-4.8 7.1v16.5c4.3-1.9 7.7.1 7.7 4.3 0 4.3-3.4 9.2-7.7 11.1v12.1c0 3.9 3.9 6.5 7.5 5l65.5-26.9c2.9-1.2 4.8-4 4.8-7.1l-1.8-11.5c-4.2 1.9-5.9-1.5-5.9-5.7z"/><path id="6bcbp" d="M167.9 525.2l-7.1-2.8v-6.3l7.1 2.8z"/><path id="6bcbr" d="M93.5 569.5l-7-2.8v-6.3l7 2.8z"/><path id="6bcbt" d="M96.7 601.9l-7-2.8v-6.3l7 2.8z"/><path id="6bcbv" d="M171.2 561.1l-10.1-3.9v-6.3l10.1 3.9z"/><path id="6bcbx" d="M163.4 550.6c0-4.3 3.4-9.2 7.7-11.1v-15.6c0-3.9-3.9-6.5-7.5-5l-65.4 26.9c-2.9 1.2-4.8 4-4.8 7.1v16.5c4.3-1.9 7.7.1 7.7 4.3 0 4.3-3.4 9.2-7.7 11.1v12.1c0 3.9 3.9 6.5 7.5 5l65.5-26.9c2.9-1.2 4.8-4 4.8-7.1v-13c-4.3 1.9-7.8 0-7.8-4.3z"/><path id="6bcbz" d="M160.8 551.2c0-3.5 1.6-9.5 6.7-12.6v-12c0-2-2.1-3.4-3.9-2.6l-63.3 25.8c-1.4.6-2.4 2-2.4 3.6v11.5c4.1 0 7.5 2.7 7.5 7.8 0 7.1-3.9 11.9-7.5 13.4v8c0 2 2.1 3.4 3.9 2.6l63.3-26.2c1.4-.6 2.4-2 2.4-3.6V559c-5.1-.8-6.7-4.3-6.7-7.8z"/><path id="6bcbA" d="M115.2 563.4l-2.8 2.5-.6-2.4 3.8-3.4 2.8-1.1.2 14.9-3.3 1.3z"/><path id="6bcbB" d="M137.9 561c0-1.4-.7-2.3-2.2-1.7-.9.4-1.7 1.3-2 2.1-.1.2-.1.5-.1.9.1 1.6.8 2.7 2.4 2.1 1.2-.4 1.9-1.9 1.9-3.4zm1.8-8.2c-.4.1-.8.3-1.3.6-3 1.5-4.3 3.6-4.7 5.5h.1c.7-1 1.7-1.9 3.1-2.4 2.4-1 4.5 0 4.5 3.1 0 3-2.1 6.3-5.3 7.6-3.9 1.6-5.8-.6-5.8-4.2 0-2.8.9-5.6 2.5-7.7 1.4-1.9 3.3-3.4 5.6-4.5.6-.3 1-.5 1.4-.6z"/><path id="6bcbC" d="M145.9 552.7c0 1.3.7 2.1 2.1 1.6.9-.4 1.6-1.1 1.9-1.7.1-.3.2-.5.2-.9 0-1.6-.6-2.9-2.2-2.3-1.2.3-2 1.7-2 3.3zM144 561c.4-.1.8-.3 1.5-.6a8.26 8.26 0 0 0 4.6-5.6h-.1c-.6 1-1.6 1.7-2.9 2.3-2.5 1-4.5.1-4.6-2.8 0-2.9 2.2-6.3 5.4-7.6 3.7-1.5 5.5.7 5.6 4.2 0 3.1-.9 5.8-2.4 7.9-1.4 1.8-3.2 3.3-5.5 4.3-.6.3-1.2.5-1.5.6z"/><path id="6bcbD" d="M126.8 562.3v3.3l-4.6 1.9v-3.3z"/><linearGradient id="6bcbb" x1="193.84" x2="7.91" y1="456.9" y2="623.55" gradientUnits="userSpaceOnUse"><stop offset="0" stop-color="#ffc036"/><stop offset="1" stop-color="#ff8d00"/></linearGradient><linearGradient id="6bcbd" x1="192.85" x2="6.92" y1="455.8" y2="622.45" gradientUnits="userSpaceOnUse"><stop offset="0" stop-color="#ffc036"/><stop offset="1" stop-color="#ff8d00"/></linearGradient><linearGradient id="6bcbf" x1="181.72" x2="-4.21" y1="443.38" y2="610.03" gradientUnits="userSpaceOnUse"><stop offset="0" stop-color="#ffc036"/><stop offset="1" stop-color="#ff8d00"/></linearGradient><linearGradient id="6bcbh" x1="199.26" x2="13.33" y1="462.95" y2="629.6" gradientUnits="userSpaceOnUse"><stop offset="0" stop-color="#ffc036"/><stop offset="1" stop-color="#ff8d00"/></linearGradient><linearGradient id="6bcbj" x1="297.26" x2="76.55" y1="399.14" y2="596.97" gradientUnits="userSpaceOnUse"><stop offset="0" stop-color="#ffc036"/><stop offset="1" stop-color="#ff8d00"/></linearGradient><linearGradient id="6bcbl" x1="83.83" x2="161.57" y1="546.08" y2="546.08" gradientUnits="userSpaceOnUse"><stop offset="0" stop-color="#ffc036"/><stop offset="1" stop-color="#ff8d00"/></linearGradient><linearGradient id="6bcbo" x1="221.78" x2="35.85" y1="471.2" y2="637.84" gradientUnits="userSpaceOnUse"><stop offset="0" stop-color="#ffc036"/><stop offset="1" stop-color="#ff8d00"/></linearGradient><linearGradient id="6bcbq" x1="197.78" x2="11.85" y1="490.72" y2="657.37" gradientUnits="userSpaceOnUse"><stop offset="0" stop-color="#ffc036"/><stop offset="1" stop-color="#ff8d00"/></linearGradient><linearGradient id="6bcbs" x1="209.66" x2="23.73" y1="457.67" y2="624.32" gradientUnits="userSpaceOnUse"><stop offset="0" stop-color="#ffc036"/><stop offset="1" stop-color="#ff8d00"/></linearGradient><linearGradient id="6bcbu" x1="227.2" x2="41.27" y1="477.24" y2="643.89" gradientUnits="userSpaceOnUse"><stop offset="0" stop-color="#ffc036"/><stop offset="1" stop-color="#ff8d00"/></linearGradient><linearGradient id="6bcbw" x1="325.2" x2="104.49" y1="413.44" y2="611.27" gradientUnits="userSpaceOnUse"><stop offset="0" stop-color="#ffc036"/><stop offset="1" stop-color="#ff8d00"/></linearGradient><linearGradient id="6bcby" x1="111.77" x2="189.51" y1="560.37" y2="560.37" gradientUnits="userSpaceOnUse"><stop offset="0" stop-color="#ffc036"/><stop offset="1" stop-color="#ff8d00"/></linearGradient></defs><g><g transform="translate(-58 -501)"><g><g><g><g><use fill="url(#6bcbb)" xlink:href="#6bcba"/></g><g><use fill="url(#6bcbd)" xlink:href="#6bcbc"/></g><g><use fill="url(#6bcbf)" xlink:href="#6bcbe"/></g><g><use fill="url(#6bcbh)" xlink:href="#6bcbg"/></g><g><use fill="url(#6bcbj)" xlink:href="#6bcbi"/></g></g><g><use fill="url(#6bcbl)" xlink:href="#6bcbk"/></g><g><use fill="#fff" fill-opacity="0" stroke="#e47600" stroke-miterlimit="50" xlink:href="#6bcbm"/></g></g><g><g><g><use fill="url(#6bcbo)" xlink:href="#6bcbn"/></g><g><use fill="url(#6bcbq)" xlink:href="#6bcbp"/></g><g><use fill="url(#6bcbs)" xlink:href="#6bcbr"/></g><g><use fill="url(#6bcbu)" xlink:href="#6bcbt"/></g><g><use fill="url(#6bcbw)" xlink:href="#6bcbv"/></g></g><g><use fill="url(#6bcby)" xlink:href="#6bcbx"/></g><g><use fill="#fff" fill-opacity="0" stroke="#e47600" stroke-miterlimit="50" xlink:href="#6bcbz"/></g></g></g><g><g><g><use fill="#e47600" xlink:href="#6bcbA"/></g><g><use fill="#e47600" xlink:href="#6bcbB"/></g><g><use fill="#e47600" xlink:href="#6bcbC"/></g><g><use fill="#e47600" xlink:href="#6bcbD"/></g></g></g></g></g></svg>