<svg xmlns="http://www.w3.org/2000/svg" xmlns:xlink="http://www.w3.org/1999/xlink" width="114" height="102" viewBox="0 0 114 102"><defs><path id="w84fa" d="M309.6 533.6c0-4.3 3.4-9.2 7.7-11.1v-15.7c0-3.9-3.9-6.5-7.5-5l-65.5 26.9c-2.9 1.2-4.8 4-4.8 7.1v16.5c4.3-1.9 7.7.1 7.7 4.3 0 4.3-3.4 9.2-7.7 11.1v12.1c0 3.9 3.9 6.5 7.5 5l65.5-26.9c2.9-1.2 4.8-4 4.8-7.1l-1.8-11.5c-4.3 1.9-5.9-1.5-5.9-5.7z"/><path id="w84fc" d="M321 510.9l-7.1-2.8v-6.3l7.1 2.8z"/><path id="w84fe" d="M246.6 555.2l-7.1-2.8v-6.3l7.1 2.8z"/><path id="w84fg" d="M249.8 587.6l-7.1-2.8v-6.3l7.1 2.8z"/><path id="w84fi" d="M324.2 546.8l-10-3.9v-6.3l10 3.9z"/><path id="w84fk" d="M316.5 536.3c0-4.3 3.4-9.2 7.7-11.1v-15.6c0-3.9-3.9-6.5-7.5-5l-65.5 26.9c-2.9 1.2-4.8 4-4.8 7.1v16.5c4.3-1.9 7.7.1 7.7 4.3 0 4.3-3.4 9.2-7.7 11.1v12.1c0 3.9 3.9 6.5 7.5 5l65.5-26.9c2.9-1.2 4.8-4 4.8-7.1v-13c-4.2 1.9-7.7 0-7.7-4.3z"/><path id="w84fm" d="M313.9 536.9c0-3.5 1.6-9.5 6.7-12.6v-12c0-2-2.1-3.4-3.9-2.6l-63.4 25.8c-1.4.6-2.4 2-2.4 3.6v11.5c4.1 0 7.5 2.7 7.5 7.8 0 7.1-3.9 11.9-7.5 13.4v8c0 2 2.1 3.4 3.9 2.6l63.3-26.2c1.4-.6 2.4-2 2.4-3.6v-7.9c-5-.8-6.6-4.3-6.6-7.8z"/><path id="w84fn" d="M337.5 547.9c0-4.3 3.4-9.2 7.7-11.1v-15.7c0-3.9-3.9-6.5-7.5-5L272.2 543c-2.9 1.2-4.8 4-4.8 7.1v16.5c4.3-1.9 7.7.1 7.7 4.3 0 4.3-3.4 9.2-7.7 11.1v12.1c0 3.9 3.9 6.5 7.5 5l65.5-26.9c2.9-1.2 4.8-4 4.8-7.1l-1.8-11.5c-4.2 1.9-5.9-1.5-5.9-5.7z"/><path id="w84fp" d="M348.9 525.2l-7.1-2.8v-6.3l7.1 2.8z"/><path id="w84fr" d="M274.5 569.5l-7-2.8v-6.3l7 2.8z"/><path id="w84ft" d="M277.7 601.9l-7-2.8v-6.3l7 2.8z"/><path id="w84fv" d="M352.2 561.1l-10.1-3.9v-6.3l10.1 3.9z"/><path id="w84fx" d="M344.4 550.6c0-4.3 3.4-9.2 7.7-11.1v-15.6c0-3.9-3.9-6.5-7.5-5l-65.4 26.9c-2.9 1.2-4.8 4-4.8 7.1v16.5c4.3-1.9 7.7.1 7.7 4.3 0 4.3-3.4 9.2-7.7 11.1v12.1c0 3.9 3.9 6.5 7.5 5l65.5-26.9c2.9-1.2 4.8-4 4.8-7.1v-13c-4.3 1.9-7.8 0-7.8-4.3z"/><path id="w84fz" d="M341.8 551.2c0-3.5 1.6-9.5 6.7-12.6v-12c0-2-2.1-3.4-3.9-2.6l-63.3 25.8c-1.4.6-2.4 2-2.4 3.6v11.5c4.1 0 7.5 2.7 7.5 7.8 0 7.1-3.9 11.9-7.5 13.4v8c0 2 2.1 3.4 3.9 2.6l63.3-26.2c1.4-.6 2.4-2 2.4-3.6V559c-5.1-.8-6.7-4.3-6.7-7.8z"/><path id="w84fA" d="M296.2 563.4l-2.8 2.5-.6-2.4 3.8-3.4 2.8-1.1.2 14.9-3.3 1.3z"/><path id="w84fB" d="M308.6 562v3.3l-4.6 1.9v-3.3z"/><path id="w84fC" d="M311.6 569v-2.1l1.8-2.5c3.1-4.2 4.6-6.5 4.7-8.3 0-1.2-.7-1.9-2.4-1.2a9.5 9.5 0 0 0-3.1 2.5l-1-2.1c1.1-1.3 2.8-2.7 4.7-3.5 3.3-1.3 5.1-.1 5.1 2.6 0 2.5-1.7 5.2-3.8 8l-1.3 1.7 5.5-2.2v2.9z"/><path id="w84fD" d="M331.3 556c0-1.4-.7-2.3-2.2-1.7-.9.4-1.7 1.3-2 2.1-.1.3-.1.6-.1 1 .1 1.6.8 2.7 2.4 2.1 1.2-.5 1.9-2 1.9-3.5zm1.7-8.2c-.4.1-.8.3-1.3.6-3 1.5-4.3 3.6-4.7 5.5h.1c.7-1 1.7-1.9 3.1-2.4 2.4-1 4.5-.1 4.5 3.1 0 3-2.1 6.3-5.3 7.6-3.9 1.6-5.8-.6-5.8-4.2 0-2.8.9-5.6 2.5-7.7 1.4-1.9 3.3-3.4 5.6-4.5.6-.3 1-.5 1.4-.6z"/><linearGradient id="w84fb" x1="374.84" x2="188.91" y1="456.9" y2="623.55" gradientUnits="userSpaceOnUse"><stop offset="0" stop-color="#ffc036"/><stop offset="1" stop-color="#ff8d00"/></linearGradient><linearGradient id="w84fd" x1="373.85" x2="187.92" y1="455.8" y2="622.45" gradientUnits="userSpaceOnUse"><stop offset="0" stop-color="#ffc036"/><stop offset="1" stop-color="#ff8d00"/></linearGradient><linearGradient id="w84ff" x1="362.72" x2="176.79" y1="443.38" y2="610.03" gradientUnits="userSpaceOnUse"><stop offset="0" stop-color="#ffc036"/><stop offset="1" stop-color="#ff8d00"/></linearGradient><linearGradient id="w84fh" x1="380.26" x2="194.33" y1="462.95" y2="629.6" gradientUnits="userSpaceOnUse"><stop offset="0" stop-color="#ffc036"/><stop offset="1" stop-color="#ff8d00"/></linearGradient><linearGradient id="w84fj" x1="478.26" x2="257.55" y1="399.14" y2="596.97" gradientUnits="userSpaceOnUse"><stop offset="0" stop-color="#ffc036"/><stop offset="1" stop-color="#ff8d00"/></linearGradient><linearGradient id="w84fl" x1="264.83" x2="342.57" y1="546.08" y2="546.08" gradientUnits="userSpaceOnUse"><stop offset="0" stop-color="#ffc036"/><stop offset="1" stop-color="#ff8d00"/></linearGradient><linearGradient id="w84fo" x1="402.78" x2="216.85" y1="471.2" y2="637.84" gradientUnits="userSpaceOnUse"><stop offset="0" stop-color="#ffc036"/><stop offset="1" stop-color="#ff8d00"/></linearGradient><linearGradient id="w84fq" x1="378.78" x2="192.85" y1="490.72" y2="657.37" gradientUnits="userSpaceOnUse"><stop offset="0" stop-color="#ffc036"/><stop offset="1" stop-color="#ff8d00"/></linearGradient><linearGradient id="w84fs" x1="390.66" x2="204.73" y1="457.67" y2="624.32" gradientUnits="userSpaceOnUse"><stop offset="0" stop-color="#ffc036"/><stop offset="1" stop-color="#ff8d00"/></linearGradient><linearGradient id="w84fu" x1="408.2" x2="222.27" y1="477.24" y2="643.89" gradientUnits="userSpaceOnUse"><stop offset="0" stop-color="#ffc036"/><stop offset="1" stop-color="#ff8d00"/></linearGradient><linearGradient id="w84fw" x1="506.2" x2="285.49" y1="413.44" y2="611.27" gradientUnits="userSpaceOnUse"><stop offset="0" stop-color="#ffc036"/><stop offset="1" stop-color="#ff8d00"/></linearGradient><linearGradient id="w84fy" x1="292.77" x2="370.51" y1="560.37" y2="560.37" gradientUnits="userSpaceOnUse"><stop offset="0" stop-color="#ffc036"/><stop offset="1" stop-color="#ff8d00"/></linearGradient></defs><g><g transform="translate(-239 -501)"><g><g><g><g><use fill="url(#w84fb)" xlink:href="#w84fa"/></g><g><use fill="url(#w84fd)" xlink:href="#w84fc"/></g><g><use fill="url(#w84ff)" xlink:href="#w84fe"/></g><g><use fill="url(#w84fh)" xlink:href="#w84fg"/></g><g><use fill="url(#w84fj)" xlink:href="#w84fi"/></g></g><g><use fill="url(#w84fl)" xlink:href="#w84fk"/></g><g><use fill="#fff" fill-opacity="0" stroke="#e47600" stroke-miterlimit="50" xlink:href="#w84fm"/></g></g><g><g><g><use fill="url(#w84fo)" xlink:href="#w84fn"/></g><g><use fill="url(#w84fq)" xlink:href="#w84fp"/></g><g><use fill="url(#w84fs)" xlink:href="#w84fr"/></g><g><use fill="url(#w84fu)" xlink:href="#w84ft"/></g><g><use fill="url(#w84fw)" xlink:href="#w84fv"/></g></g><g><use fill="url(#w84fy)" xlink:href="#w84fx"/></g><g><use fill="#fff" fill-opacity="0" stroke="#e47600" stroke-miterlimit="50" xlink:href="#w84fz"/></g></g></g><g><g><g><use fill="#e47600" xlink:href="#w84fA"/></g><g><use fill="#e47600" xlink:href="#w84fB"/></g><g><use fill="#e47600" xlink:href="#w84fC"/></g><g><use fill="#e47600" xlink:href="#w84fD"/></g></g></g></g></g></svg>