<svg xmlns="http://www.w3.org/2000/svg" xmlns:xlink="http://www.w3.org/1999/xlink" width="108" height="99" viewBox="0 0 108 99"><defs><path id="qlhpa" d="M493.9 531.6c0-3.8 3.1-8.3 6.9-10v-14c0-3.5-3.5-5.8-6.7-4.5l-58.9 24.2a6.96 6.96 0 0 0-4.3 6.4v14.8c3.8-1.7 6.9 0 6.9 3.9 0 3.8-3.1 8.3-6.9 10v10.9c0 3.5 3.5 5.8 6.7 4.5l58.8-24.2c2.6-1.1 4.3-3.6 4.3-6.4l-1.6-10.3c-3.7 1.6-5.2-1.5-5.2-5.3z"/><path id="qlhpc" d="M504.1 511.2l-6.3-2.5v-5.6l6.3 2.5z"/><path id="qlhpe" d="M437.3 551l-6.3-2.5v-5.7l6.3 2.5z"/><path id="qlhpg" d="M440.2 580.1l-6.4-2.5v-5.7l6.4 2.6z"/><path id="qlhpi" d="M507 543.5l-9-3.5v-5.7l9 3.5z"/><path id="qlhpk" d="M500.1 534c0-3.8 3.1-8.3 6.9-10v-14c0-3.5-3.5-5.8-6.7-4.5l-58.8 24.2a6.96 6.96 0 0 0-4.3 6.4v14.8c3.8-1.7 6.9 0 6.9 3.9 0 3.8-3.1 8.3-6.9 10v10.9c0 3.5 3.5 5.8 6.7 4.5l58.8-24.2c2.6-1.1 4.3-3.6 4.3-6.4v-11.7c-3.8 1.7-6.9 0-6.9-3.9z"/><path id="qlhpm" d="M497.8 534.6c0-3.2 1.4-8.5 6-11.3v-10.8c0-1.8-1.9-3.1-3.5-2.4l-56.9 23.3c-1.3.5-2.1 1.8-2.1 3.2V547c3.7 0 6.7 2.4 6.7 7 0 6.4-3.5 10.7-6.7 12.1v7.2c0 1.8 1.9 3.1 3.5 2.4l56.8-23.7c1.3-.5 2.1-1.8 2.1-3.2v-7.1c-4.5-.9-5.9-4-5.9-7.1z"/><path id="qlhpn" d="M474.3 533.6l2.2 3.8 4.7-.8c.8-.1 1.3.8.8 1.4l-3.7 4.7 1 5.3c.1.6-.4 1.2-1.1 1l-4.8-1-4.4 3.7c-.6.5-1.6 0-1.4-.8l.8-5-3.7-2.5c-.6-.4-.5-1.3.1-1.5l5.5-2.5 2.4-5.7c.3-.7 1.2-.7 1.6-.1z"/><path id="qlhpo" d="M525.8 551.3c0-3.8 3.1-8.3 6.9-10v-14c0-3.5-3.5-5.8-6.7-4.5L467.2 547a6.96 6.96 0 0 0-4.3 6.4v14.8c3.8-1.7 6.9 0 6.9 3.9 0 3.8-3.1 8.3-6.9 10V593c0 3.5 3.5 5.8 6.7 4.5l58.8-24.2c2.6-1.1 4.3-3.6 4.3-6.4l-1.6-10.3c-3.8 1.6-5.3-1.5-5.3-5.3z"/><path id="qlhpq" d="M536 531l-6.3-2.5v-5.7l6.3 2.5z"/><path id="qlhps" d="M469.2 570.7l-6.3-2.5v-5.6l6.3 2.5z"/><path id="qlhpu" d="M472.1 599.9l-6.3-2.6v-5.6l6.3 2.5z"/><path id="qlhpw" d="M539 563.2l-9-3.5V554l9 3.6z"/><path id="qlhpy" d="M532.1 553.8c0-3.8 3.1-8.3 6.9-10v-14c0-3.5-3.5-5.8-6.7-4.5l-58.9 24.1a6.96 6.96 0 0 0-4.3 6.4v14.8c3.8-1.7 6.9 0 6.9 3.9 0 3.8-3.1 8.3-6.9 10v10.9c0 3.5 3.5 5.8 6.7 4.5l58.8-24.2c2.6-1.1 4.3-3.6 4.3-6.4v-11.7c-3.8 1.7-6.8 0-6.8-3.8z"/><path id="qlhpA" d="M529.7 554.3c0-3.2 1.4-8.5 6-11.3v-10.8c0-1.8-1.9-3.1-3.5-2.4l-56.9 23.3c-1.3.5-2.1 1.8-2.1 3.2v10.4c3.7 0 6.7 2.4 6.7 7 0 6.4-3.5 10.7-6.7 12.1v7.2c0 1.8 1.9 3.1 3.5 2.4l56.9-23.6c1.3-.5 2.1-1.8 2.1-3.2v-7.1c-4.5-.9-6-4-6-7.2z"/><path id="qlhpB" d="M506.2 553.3l2.2 3.8 4.7-.8c.8-.1 1.3.8.8 1.4l-3.7 4.7 1 5.3c.1.6-.4 1.2-1.1 1l-4.9-1.1-4.4 3.7c-.6.5-1.6 0-1.4-.8l.8-5-3.7-2.5c-.6-.4-.5-1.3.1-1.5l5.5-2.5 2.4-5.7c.4-.6 1.4-.6 1.7 0z"/><linearGradient id="qlhpb" x1="552.51" x2="385.48" y1="462.71" y2="612.43" gradientUnits="userSpaceOnUse"><stop offset="0" stop-color="#ffc036"/><stop offset="1" stop-color="#ff8d00"/></linearGradient><linearGradient id="qlhpd" x1="551.62" x2="384.59" y1="461.73" y2="611.44" gradientUnits="userSpaceOnUse"><stop offset="0" stop-color="#ffc036"/><stop offset="1" stop-color="#ff8d00"/></linearGradient><linearGradient id="qlhpf" x1="541.62" x2="374.59" y1="450.57" y2="600.28" gradientUnits="userSpaceOnUse"><stop offset="0" stop-color="#ffc036"/><stop offset="1" stop-color="#ff8d00"/></linearGradient><linearGradient id="qlhph" x1="557.38" x2="390.35" y1="468.15" y2="617.86" gradientUnits="userSpaceOnUse"><stop offset="0" stop-color="#ffc036"/><stop offset="1" stop-color="#ff8d00"/></linearGradient><linearGradient id="qlhpj" x1="645.42" x2="447.14" y1="410.83" y2="588.55" gradientUnits="userSpaceOnUse"><stop offset="0" stop-color="#ffc036"/><stop offset="1" stop-color="#ff8d00"/></linearGradient><linearGradient id="qlhpl" x1="437.19" x2="507.03" y1="542.83" y2="542.83" gradientUnits="userSpaceOnUse"><stop offset="0" stop-color="#ffc036"/><stop offset="1" stop-color="#ff8d00"/></linearGradient><linearGradient id="qlhpp" x1="584.45" x2="417.42" y1="482.44" y2="632.16" gradientUnits="userSpaceOnUse"><stop offset="0" stop-color="#ffc036"/><stop offset="1" stop-color="#ff8d00"/></linearGradient><linearGradient id="qlhpr" x1="583.56" x2="416.54" y1="481.45" y2="631.16" gradientUnits="userSpaceOnUse"><stop offset="0" stop-color="#ffc036"/><stop offset="1" stop-color="#ff8d00"/></linearGradient><linearGradient id="qlhpt" x1="573.56" x2="406.54" y1="470.3" y2="620.01" gradientUnits="userSpaceOnUse"><stop offset="0" stop-color="#ffc036"/><stop offset="1" stop-color="#ff8d00"/></linearGradient><linearGradient id="qlhpv" x1="589.32" x2="422.29" y1="487.88" y2="637.59" gradientUnits="userSpaceOnUse"><stop offset="0" stop-color="#ffc036"/><stop offset="1" stop-color="#ff8d00"/></linearGradient><linearGradient id="qlhpx" x1="677.36" x2="479.08" y1="430.56" y2="608.28" gradientUnits="userSpaceOnUse"><stop offset="0" stop-color="#ffc036"/><stop offset="1" stop-color="#ff8d00"/></linearGradient><linearGradient id="qlhpz" x1="469.13" x2="538.97" y1="562.56" y2="562.56" gradientUnits="userSpaceOnUse"><stop offset="0" stop-color="#ffc036"/><stop offset="1" stop-color="#ff8d00"/></linearGradient></defs><g><g transform="translate(-431 -502)"><g><g><g><use fill="url(#qlhpb)" xlink:href="#qlhpa"/></g><g><use fill="url(#qlhpd)" xlink:href="#qlhpc"/></g><g><use fill="url(#qlhpf)" xlink:href="#qlhpe"/></g><g><use fill="url(#qlhph)" xlink:href="#qlhpg"/></g><g><use fill="url(#qlhpj)" xlink:href="#qlhpi"/></g></g><g><use fill="url(#qlhpl)" xlink:href="#qlhpk"/></g><g><use fill="#fff" fill-opacity="0" stroke="#e47600" stroke-miterlimit="50" xlink:href="#qlhpm"/></g><g><use fill="#e47600" xlink:href="#qlhpn"/></g></g><g><g><g><use fill="url(#qlhpp)" xlink:href="#qlhpo"/></g><g><use fill="url(#qlhpr)" xlink:href="#qlhpq"/></g><g><use fill="url(#qlhpt)" xlink:href="#qlhps"/></g><g><use fill="url(#qlhpv)" xlink:href="#qlhpu"/></g><g><use fill="url(#qlhpx)" xlink:href="#qlhpw"/></g></g><g><use fill="url(#qlhpz)" xlink:href="#qlhpy"/></g><g><use fill="#fff" fill-opacity="0" stroke="#e47600" stroke-miterlimit="50" xlink:href="#qlhpA"/></g><g><use fill="#e47600" xlink:href="#qlhpB"/></g></g></g></g></svg>