<svg xmlns="http://www.w3.org/2000/svg" xmlns:xlink="http://www.w3.org/1999/xlink" width="117" height="97" viewBox="0 0 117 97"><defs><path id="djcta" d="M836.6 573.3L811.4 563v-39.7l49-6.1 25.9-3.6v39.7z"/><path id="djctc" d="M811.4 526v1.2l25.2 10.3 49.7-20.1v-1.1l-49.7 20z"/><path id="djctd" d="M811.4 529.6v1.1l25.2 10.3 49.7-20v-1.2l-49.7 20.1z"/><path id="djcte" d="M811.4 533.3v1.2l25.2 10.3 49.7-20v-1.2l-49.7 20z"/><path id="djctf" d="M811.4 537.1v1.1l25.2 10.3 49.7-20v-1.2l-49.7 20.1z"/><path id="djctg" d="M811.4 540.8v1.2l25.2 10.3 49.7-20v-1.2l-49.7 20z"/><path id="djcth" d="M811.4 544.6v1.1l25.2 10.3 49.7-20v-1.2l-49.7 20.1z"/><path id="djcti" d="M811.4 548.3v1.2l25.2 10.3 49.7-20v-1.2l-49.7 20z"/><path id="djctj" d="M811.4 552.1v1.1l25.2 10.3 49.7-20v-1.2l-49.7 20.1z"/><path id="djctk" d="M811.4 555.8v1.2l25.2 10.3 49.7-20v-1.2l-49.7 20z"/><path id="djctl" d="M811.4 559.6v1.1l25.2 10.3 49.7-20v-1.2l-49.7 20.1z"/><path id="djctm" d="M836.6 533.5l-25.2-10.3 49-19.8 25.9 10z"/><path id="djcto" d="M869 560.7l-11.6 4.6V525l11.6-4.6z"/><path id="djctq" d="M836.5 518.2c0-3.1 5.95-5.6 13.3-5.6 7.35 0 13.3 2.5 13.3 5.6 0 3.1-5.95 5.6-13.3 5.6-7.35 0-13.3-2.5-13.3-5.6z"/><path id="djctr" d="M862.5 511.3c0-.66 1.25-1.2 2.8-1.2 1.55 0 2.8.54 2.8 1.2 0 .66-1.25 1.2-2.8 1.2-1.55 0-2.8-.54-2.8-1.2z"/><path id="djcts" d="M830.1 525.3c0-.66 1.25-1.2 2.8-1.2 1.55 0 2.8.54 2.8 1.2 0 .66-1.25 1.2-2.8 1.2-1.55 0-2.8-.54-2.8-1.2z"/><path id="djctt" d="M857.6 525.1l-25.2-10.3 10.7-4.4 25.9 10.1z"/><path id="djctv" d="M868.4 560.1c0-6.68 13.03-12.1 29.1-12.1s29.1 5.42 29.1 12.1-13.03 12.1-29.1 12.1-29.1-5.42-29.1-12.1z"/><path id="djctx" d="M868.4 560.4v-7.6h58.3v7.6z"/><path id="djctz" d="M868.4 552.8c0-6.68 13.03-12.1 29.1-12.1s29.1 5.42 29.1 12.1-13.03 12.1-29.1 12.1-29.1-5.42-29.1-12.1z"/><path id="djctB" d="M875.4 552.8c0-5.08 9.9-9.2 22.1-9.2 12.2 0 22.1 4.12 22.1 9.2 0 5.08-9.9 9.2-22.1 9.2-12.2 0-22.1-4.12-22.1-9.2z"/><path id="djctD" d="M877.8 553.4c0-4.9 9.5-8.8 21.1-8.8 9.2 0 17.1 2.5 20 5.9-2.5-4-11.1-6.9-21.4-6.9-12.2 0-22.1 4.1-22.1 9.2 0 4.3 7 7.9 16.6 8.9-8.3-1.2-14.2-4.5-14.2-8.3z"/><path id="djctF" d="M869.7 550.5c0-6.68 13.03-12.1 29.1-12.1s29.1 5.42 29.1 12.1-13.03 12.1-29.1 12.1-29.1-5.42-29.1-12.1z"/><path id="djctH" d="M869.7 550.8v-7.6H928v7.6z"/><path id="djctJ" d="M869.7 543.2c0-6.68 13.03-12.1 29.1-12.1s29.1 5.42 29.1 12.1-13.03 12.1-29.1 12.1-29.1-5.42-29.1-12.1z"/><path id="djctL" d="M876.7 543.2c0-5.08 9.9-9.2 22.1-9.2 12.2 0 22.1 4.12 22.1 9.2 0 5.08-9.9 9.2-22.1 9.2-12.2 0-22.1-4.12-22.1-9.2z"/><path id="djctN" d="M879.1 543.8c0-4.9 9.5-8.8 21.1-8.8 9.2 0 17.1 2.5 20 5.9-2.5-4-11.1-6.9-21.4-6.9-12.2 0-22.1 4.1-22.1 9.2 0 4.3 7 7.9 16.6 8.9-8.3-1.2-14.2-4.5-14.2-8.3z"/><path id="djctP" d="M867.3 540.3c0-6.68 13.03-12.1 29.1-12.1s29.1 5.42 29.1 12.1-13.03 12.1-29.1 12.1-29.1-5.42-29.1-12.1z"/><path id="djctR" d="M867.2 540.5v-7.6h58.3v7.6z"/><path id="djctT" d="M867.3 532.9c0-6.68 13.03-12.1 29.1-12.1s29.1 5.42 29.1 12.1-13.03 12.1-29.1 12.1-29.1-5.42-29.1-12.1z"/><path id="djctV" d="M874.3 532.9c0-5.08 9.9-9.2 22.1-9.2 12.2 0 22.1 4.12 22.1 9.2 0 5.08-9.9 9.2-22.1 9.2-12.2 0-22.1-4.12-22.1-9.2z"/><path id="djctX" d="M876.7 533.5c0-4.9 9.5-8.8 21.1-8.8 9.2 0 17.1 2.5 20 5.9-2.5-4-11.1-6.9-21.4-6.9-12.2 0-22.1 4.1-22.1 9.2 0 4.3 7 7.9 16.6 8.9-8.3-1.2-14.2-4.5-14.2-8.3z"/><path id="djctZ" d="M868 526.5c0-6.68 13.03-12.1 29.1-12.1s29.1 5.42 29.1 12.1-13.03 12.1-29.1 12.1-29.1-5.42-29.1-12.1z"/><path id="djctab" d="M868 526.7v-7.6h58.3v7.6z"/><path id="djctad" d="M868 519.1c0-6.68 13.03-12.1 29.1-12.1s29.1 5.42 29.1 12.1-13.03 12.1-29.1 12.1-29.1-5.42-29.1-12.1z"/><path id="djctaf" d="M875 519.1c0-5.08 9.9-9.2 22.1-9.2 12.2 0 22.1 4.12 22.1 9.2 0 5.08-9.9 9.2-22.1 9.2-12.2 0-22.1-4.12-22.1-9.2z"/><path id="djctah" d="M877.4 519.7c0-4.9 9.5-8.8 21.1-8.8 9.2 0 17.1 2.5 20 5.9-2.5-4-11.1-6.9-21.4-6.9-12.2 0-22.1 4.1-22.1 9.2 0 4.3 7 7.9 16.6 8.9-8.3-1.2-14.2-4.5-14.2-8.3z"/><path id="djctaj" d="M883.4 591.9l20.5-1.8-7.1-19.2z"/><path id="djctal" d="M883.4 591.9l-9-16.8 3.4-5.8 19 1.6z"/><path id="djctan" d="M896.8 570.9l1-17.8 6.1 37z"/><path id="djctap" d="M867.8 599.8l15.6-7.9 20.5-1.8z"/><path id="djctar" d="M877.8 569.3l.9-13.6 19.1-2.6-1 17.8z"/><path id="djctat" d="M878.7 555.7l-2.9-1.9 9.5-8.4 12.5 7.7z"/><path id="djctav" d="M875.9 553.8l-11.6 6 5.7-6.9 15.3-7.5z"/><path id="djctax" d="M862 580.8l5.8 19 15.6-7.9-9-16.8z"/><path id="djctaz" d="M855.5 591.7l12.3 8.1-5.8-19-2.2-1.2z"/><path id="djctaB" d="M859.8 579.6l.4-13.8-4.1 8.7-.6 17.2z"/><path id="djctaD" d="M864.3 559.8l-4.1 6s-.5 13.7-.4 13.8c.1.1 2.3 1.3 2.3 1.3l12.4-5.8 3.3-5.8.9-13.5-2.8-1.9z"/><linearGradient id="djctb" x1="827.93" x2="895.95" y1="558.35" y2="493.1" gradientUnits="userSpaceOnUse"><stop offset="0" stop-color="#00e0b5"/><stop offset="1" stop-color="#00d5df"/></linearGradient><linearGradient id="djctn" x1="811.42" x2="886.29" y1="518.43" y2="518.43" gradientUnits="userSpaceOnUse"><stop offset="0" stop-color="#00e0b5"/><stop offset="1" stop-color="#00d5df"/></linearGradient><linearGradient id="djctp" x1="850.46" x2="927.35" y1="535.3" y2="580.73" gradientUnits="userSpaceOnUse"><stop offset="0" stop-color="#ebeaf5"/><stop offset="1" stop-color="#beb9de"/></linearGradient><linearGradient id="djctu" x1="835.06" x2="929.24" y1="508.38" y2="564.03" gradientUnits="userSpaceOnUse"><stop offset="0" stop-color="#ebeaf5"/><stop offset="1" stop-color="#beb9de"/></linearGradient><linearGradient id="djctw" x1="897.06" x2="899.11" y1="565.15" y2="542.62" gradientUnits="userSpaceOnUse"><stop offset="0" stop-color="#ffc036"/><stop offset="1" stop-color="#ff8d00"/></linearGradient><linearGradient id="djcty" x1="896.58" x2="899.21" y1="566.73" y2="537.89" gradientUnits="userSpaceOnUse"><stop offset="0" stop-color="#ffc036"/><stop offset="1" stop-color="#ff8d00"/></linearGradient><linearGradient id="djctA" x1="898.43" x2="897.22" y1="526.4" y2="561.06" gradientUnits="userSpaceOnUse"><stop offset="0" stop-color="#ffc036"/><stop offset="1" stop-color="#ff8d00"/></linearGradient><linearGradient id="djctC" x1="884.96" x2="926.86" y1="536.7" y2="590.36" gradientUnits="userSpaceOnUse"><stop offset="0" stop-color="#a19eb5"/><stop offset="1" stop-color="#4a4571"/></linearGradient><linearGradient id="djctE" x1="896.28" x2="851.92" y1="551.65" y2="511.15" gradientUnits="userSpaceOnUse"><stop offset="0" stop-color="#a19eb5"/><stop offset=".04" stop-color="#9895ae"/><stop offset=".19" stop-color="#7c7898"/><stop offset=".36" stop-color="#666187"/><stop offset=".53" stop-color="#56517a"/><stop offset=".73" stop-color="#4d4873"/><stop offset="1" stop-color="#4a4571"/></linearGradient><linearGradient id="djctG" x1="898.35" x2="900.4" y1="555.56" y2="533.03" gradientUnits="userSpaceOnUse"><stop offset="0" stop-color="#ffc036"/><stop offset="1" stop-color="#ff8d00"/></linearGradient><linearGradient id="djctI" x1="897.87" x2="900.5" y1="557.14" y2="528.3" gradientUnits="userSpaceOnUse"><stop offset="0" stop-color="#ffc036"/><stop offset="1" stop-color="#ff8d00"/></linearGradient><linearGradient id="djctK" x1="871.22" x2="954.62" y1="535.02" y2="559.72" gradientUnits="userSpaceOnUse"><stop offset="0" stop-color="#ffc036"/><stop offset="1" stop-color="#ff8d00"/></linearGradient><linearGradient id="djctM" x1="883.97" x2="923.67" y1="533.38" y2="559.64" gradientUnits="userSpaceOnUse"><stop offset="0" stop-color="#ffc036"/><stop offset="1" stop-color="#ff8d00"/></linearGradient><linearGradient id="djctO" x1="925.1" x2="880.75" y1="567.21" y2="526.7" gradientUnits="userSpaceOnUse"><stop offset="0" stop-color="#ffc036"/><stop offset="1" stop-color="#ff8d00"/></linearGradient><linearGradient id="djctQ" x1="895.93" x2="897.98" y1="545.27" y2="522.74" gradientUnits="userSpaceOnUse"><stop offset="0" stop-color="#ffc036"/><stop offset="1" stop-color="#ff8d00"/></linearGradient><linearGradient id="djctS" x1="895.45" x2="898.08" y1="546.85" y2="518.01" gradientUnits="userSpaceOnUse"><stop offset="0" stop-color="#ffc036"/><stop offset="1" stop-color="#ff8d00"/></linearGradient><linearGradient id="djctU" x1="868.8" x2="952.2" y1="524.74" y2="549.43" gradientUnits="userSpaceOnUse"><stop offset="0" stop-color="#ffc036"/><stop offset="1" stop-color="#ff8d00"/></linearGradient><linearGradient id="djctW" x1="881.55" x2="921.25" y1="523.09" y2="549.35" gradientUnits="userSpaceOnUse"><stop offset="0" stop-color="#ffc036"/><stop offset="1" stop-color="#ff8d00"/></linearGradient><linearGradient id="djctY" x1="922.68" x2="878.33" y1="556.92" y2="516.41" gradientUnits="userSpaceOnUse"><stop offset="0" stop-color="#ffc036"/><stop offset="1" stop-color="#ff8d00"/></linearGradient><linearGradient id="djctaa" x1="896.65" x2="898.71" y1="531.47" y2="508.94" gradientUnits="userSpaceOnUse"><stop offset="0" stop-color="#ffc036"/><stop offset="1" stop-color="#ff8d00"/></linearGradient><linearGradient id="djctac" x1="896.18" x2="898.81" y1="533.06" y2="504.21" gradientUnits="userSpaceOnUse"><stop offset="0" stop-color="#ffc036"/><stop offset="1" stop-color="#ff8d00"/></linearGradient><linearGradient id="djctae" x1="869.53" x2="952.93" y1="510.94" y2="535.63" gradientUnits="userSpaceOnUse"><stop offset="0" stop-color="#ffc036"/><stop offset="1" stop-color="#ff8d00"/></linearGradient><linearGradient id="djctag" x1="882.27" x2="921.98" y1="509.29" y2="535.55" gradientUnits="userSpaceOnUse"><stop offset="0" stop-color="#ffc036"/><stop offset="1" stop-color="#ff8d00"/></linearGradient><linearGradient id="djctai" x1="923.41" x2="879.05" y1="543.12" y2="502.61" gradientUnits="userSpaceOnUse"><stop offset="0" stop-color="#ffc036"/><stop offset="1" stop-color="#ff8d00"/></linearGradient><linearGradient id="djctak" x1="883.38" x2="903.91" y1="581.38" y2="581.38" gradientUnits="userSpaceOnUse"><stop offset="0" stop-color="#00c6e4"/><stop offset="1" stop-color="#0084f1"/></linearGradient><linearGradient id="djctam" x1="855.84" x2="893" y1="552.19" y2="583.86" gradientUnits="userSpaceOnUse"><stop offset="0" stop-color="#00c6e4"/><stop offset="1" stop-color="#0084f1"/></linearGradient><linearGradient id="djctao" x1="896.82" x2="903.91" y1="571.58" y2="571.58" gradientUnits="userSpaceOnUse"><stop offset="0" stop-color="#00c6e4"/><stop offset="1" stop-color="#0084f1"/></linearGradient><linearGradient id="djctaq" x1="867.77" x2="903.91" y1="594.92" y2="594.92" gradientUnits="userSpaceOnUse"><stop offset="0" stop-color="#00c6e4"/><stop offset="1" stop-color="#0084f1"/></linearGradient><linearGradient id="djctas" x1="854.03" x2="937.34" y1="535.73" y2="598.62" gradientUnits="userSpaceOnUse"><stop offset="0" stop-color="#00c6e4"/><stop offset="1" stop-color="#0084f1"/></linearGradient><linearGradient id="djctau" x1="886.27" x2="890.85" y1="555.53" y2="536.62" gradientUnits="userSpaceOnUse"><stop offset="0" stop-color="#00c6e4"/><stop offset="1" stop-color="#0084f1"/></linearGradient><linearGradient id="djctaw" x1="880.54" x2="872.82" y1="538.29" y2="557.53" gradientUnits="userSpaceOnUse"><stop offset="0" stop-color="#00c6e4"/><stop offset="1" stop-color="#0084f1"/></linearGradient><linearGradient id="djctay" x1="872.6" x2="881.6" y1="585.55" y2="653.61" gradientUnits="userSpaceOnUse"><stop offset="0" stop-color="#00c6e4"/><stop offset="1" stop-color="#0084f1"/></linearGradient><linearGradient id="djctaA" x1="867.42" x2="852.85" y1="581.22" y2="614.89" gradientUnits="userSpaceOnUse"><stop offset="0" stop-color="#00c6e4"/><stop offset="1" stop-color="#0084f1"/></linearGradient><linearGradient id="djctaC" x1="847.7" x2="859.68" y1="554.26" y2="583.18" gradientUnits="userSpaceOnUse"><stop offset="0" stop-color="#00c6e4"/><stop offset="1" stop-color="#0084f1"/></linearGradient><linearGradient id="djctaE" x1="852.62" x2="908.09" y1="594.05" y2="504.81" gradientUnits="userSpaceOnUse"><stop offset="0" stop-color="#00c6e4"/><stop offset="1" stop-color="#0084f1"/></linearGradient></defs><g><g transform="translate(-811 -503)"><g><g><use fill="url(#djctb)" xlink:href="#djcta"/></g><g><use fill="#00afb5" xlink:href="#djctc"/></g><g><use fill="#00afb5" xlink:href="#djctd"/></g><g><use fill="#00afb5" xlink:href="#djcte"/></g><g><use fill="#00afb5" xlink:href="#djctf"/></g><g><use fill="#00afb5" xlink:href="#djctg"/></g><g><use fill="#00afb5" xlink:href="#djcth"/></g><g><use fill="#00afb5" xlink:href="#djcti"/></g><g><use fill="#00afb5" xlink:href="#djctj"/></g><g><use fill="#00afb5" xlink:href="#djctk"/></g><g><use fill="#00afb5" xlink:href="#djctl"/></g><g><use fill="url(#djctn)" xlink:href="#djctm"/></g><g><use fill="url(#djctp)" xlink:href="#djcto"/></g><g><use fill="#00afb5" xlink:href="#djctq"/></g><g><use fill="#00afb5" xlink:href="#djctr"/></g><g><use fill="#00afb5" xlink:href="#djcts"/></g><g><use fill="url(#djctu)" xlink:href="#djctt"/></g></g><g><g><use fill="url(#djctw)" xlink:href="#djctv"/></g><g><use fill="url(#djcty)" xlink:href="#djctx"/></g><g><use fill="url(#djctA)" xlink:href="#djctz"/></g><g><use fill="url(#djctC)" xlink:href="#djctB"/></g><g><use fill="url(#djctE)" xlink:href="#djctD"/></g></g><g><g><use fill="url(#djctG)" xlink:href="#djctF"/></g><g><use fill="url(#djctI)" xlink:href="#djctH"/></g><g><use fill="url(#djctK)" xlink:href="#djctJ"/></g><g><use fill="url(#djctM)" xlink:href="#djctL"/></g><g><use fill="url(#djctO)" xlink:href="#djctN"/></g></g><g><g><use fill="url(#djctQ)" xlink:href="#djctP"/></g><g><use fill="url(#djctS)" xlink:href="#djctR"/></g><g><use fill="url(#djctU)" xlink:href="#djctT"/></g><g><use fill="url(#djctW)" xlink:href="#djctV"/></g><g><use fill="url(#djctY)" xlink:href="#djctX"/></g></g><g><g><use fill="url(#djctaa)" xlink:href="#djctZ"/></g><g><use fill="url(#djctac)" xlink:href="#djctab"/></g><g><use fill="url(#djctae)" xlink:href="#djctad"/></g><g><use fill="url(#djctag)" xlink:href="#djctaf"/></g><g><use fill="url(#djctai)" xlink:href="#djctah"/></g></g><g><use fill="url(#djctak)" xlink:href="#djctaj"/></g><g><use fill="url(#djctam)" xlink:href="#djctal"/></g><g><use fill="url(#djctao)" xlink:href="#djctan"/></g><g><use fill="url(#djctaq)" xlink:href="#djctap"/></g><g><use fill="url(#djctas)" xlink:href="#djctar"/></g><g><use fill="url(#djctau)" xlink:href="#djctat"/></g><g><use fill="url(#djctaw)" xlink:href="#djctav"/></g><g><use fill="url(#djctay)" xlink:href="#djctax"/></g><g><use fill="url(#djctaA)" xlink:href="#djctaz"/></g><g><use fill="url(#djctaC)" xlink:href="#djctaB"/></g><g><use fill="url(#djctaE)" xlink:href="#djctaD"/></g></g></g></svg>