<svg xmlns="http://www.w3.org/2000/svg" xmlns:xlink="http://www.w3.org/1999/xlink" width="101" height="86" viewBox="0 0 101 86"><defs><path id="qnpea" d="M1008.6 538.7a29.5 29.5 0 1 1 59 0 29.5 29.5 0 0 1-59 0z"/><path id="qnpec" d="M1023.8 527.7c0-7.95 6.98-14.4 15.6-14.4s15.6 6.45 15.6 14.4-6.98 14.4-15.6 14.4-15.6-6.45-15.6-14.4z"/><path id="qnpee" d="M1043.4 567.5c-12.7-7.6-23.9-6.1-23.9-6.1s4.4 4.5 11.4 5.9c7 1.5 12.5.2 12.5.2z"/><path id="qnpeg" d="M1010.1 547.4s4.8-9 1.1-20c0 0-2.1 3.4-2.5 9.6-.4 6.2 1.4 10.4 1.4 10.4z"/><path id="qnpei" d="M1031.8 530.4l1.5-2.5s4.8 3.6 6.4 1.3c1.6-2.3-3.7-3.5-3.7-3.5l1.2-2.7s3.8 1.7 4.2-.2c.5-2-3.9-2-4.9-1.9v-2.8s9.8-.9 8.9 5.3c-.4 3.1-3.7 2.6-3.7 2.6s3.4 2 2 4.9c-1.1 2.9-6.5 3.8-11.9-.5z"/><path id="qnpek" d="M1044.8 567.5s1.2-24.7 22.8-28.7c-12.6 8.3-17 16.2-17.5 26.9a29.8 29.8 0 0 1-5.3 1.8z"/><path id="qnpel" d="M1050 565.4a29.4 29.4 0 1 1 58.8 0 29.4 29.4 0 0 1-58.8 0z"/><path id="qnpen" d="M1074.4 561.8c0-9 6.5-16.3 14.5-16.3s14.5 7.3 14.5 16.3-6.5 16.3-14.5 16.3-14.5-7.3-14.5-16.3z"/><path id="qnpep" d="M1087.9 563.3l.7-6.5 2.2 5.4zm9.4-.3l-1.2-2.9s-1 .3-1.8.7c-1.1-3-2.4-6.4-3.5-8.1-2.3.9-5.3 1.8-5.3 1.8s-.8 8.7-1 10.6c.5 1.6 1 3 1 3l6.2-2.8s.5 1.3.9 3.1c1.7-.7 3.7-1.6 3.7-1.6s-.4-1.2-.9-3z"/><path id="qnpeq" d="M1058.3 545s14.8-1.8 22.6-9c0 0-5.5-.4-11.3 1.7-5.8 2-9.9 5.5-11.3 7.3z"/><path id="qnpes" d="M1069.8 593.1s13.9-6.9 27.6-4.4c0 0-5.3 4.3-14.5 5.8-6.7 1.1-13.1-1.4-13.1-1.4z"/><path id="qnpeu" d="M1058.8 586.3c-.5-20-7.3-30.1-7.3-30.1s-3 7.9-.4 16.9c2.6 9 7.7 13.2 7.7 13.2z"/><linearGradient id="qnpeb" x1="1017.75" x2="1069.08" y1="515" y2="574.83" gradientUnits="userSpaceOnUse"><stop offset="0" stop-color="#00c6e4"/><stop offset="1" stop-color="#0084f1"/></linearGradient><linearGradient id="qnped" x1="1039.42" x2="1042.92" y1="527.85" y2="601.02" gradientUnits="userSpaceOnUse"><stop offset="0" stop-color="#ebeaf5"/><stop offset="1" stop-color="#beb9de"/></linearGradient><linearGradient id="qnpef" x1="1029.77" x2="1033.27" y1="528.33" y2="601.47" gradientUnits="userSpaceOnUse"><stop offset="0" stop-color="#ebeaf5"/><stop offset="1" stop-color="#beb9de"/></linearGradient><linearGradient id="qnpeh" x1="1010.22" x2="1013.72" y1="529.25" y2="602.42" gradientUnits="userSpaceOnUse"><stop offset="0" stop-color="#ebeaf5"/><stop offset="1" stop-color="#beb9de"/></linearGradient><linearGradient id="qnpej" x1="1041.36" x2="1033.03" y1="518.06" y2="548.07" gradientUnits="userSpaceOnUse"><stop offset="0" stop-color="#00c6e4"/><stop offset="1" stop-color="#0084f1"/></linearGradient><linearGradient id="qnpem" x1="1072.36" x2="1085.36" y1="536.82" y2="589.16" gradientUnits="userSpaceOnUse"><stop offset="0" stop-color="#ffc036"/><stop offset="1" stop-color="#ff8d00"/></linearGradient><linearGradient id="qnpeo" x1="1105.99" x2="1237.49" y1="581.78" y2="736.03" gradientUnits="userSpaceOnUse"><stop offset="0" stop-color="#ebeaf5"/><stop offset="1" stop-color="#beb9de"/></linearGradient><linearGradient id="qnper" x1="1105.31" x2="1236.81" y1="582.35" y2="736.59" gradientUnits="userSpaceOnUse"><stop offset="0" stop-color="#ebeaf5"/><stop offset="1" stop-color="#beb9de"/></linearGradient><linearGradient id="qnpet" x1="1088.51" x2="1220.01" y1="596.68" y2="751.03" gradientUnits="userSpaceOnUse"><stop offset="0" stop-color="#ebeaf5"/><stop offset="1" stop-color="#beb9de"/></linearGradient><linearGradient id="qnpev" x1="1081.71" x2="1213.2" y1="602.47" y2="756.72" gradientUnits="userSpaceOnUse"><stop offset="0" stop-color="#ebeaf5"/><stop offset="1" stop-color="#beb9de"/></linearGradient></defs><g><g transform="translate(-1008 -509)"><g><use fill="url(#qnpeb)" xlink:href="#qnpea"/></g><g><use fill="url(#qnped)" xlink:href="#qnpec"/></g><g><use fill="url(#qnpef)" xlink:href="#qnpee"/></g><g><use fill="url(#qnpeh)" xlink:href="#qnpeg"/></g><g><use fill="url(#qnpej)" xlink:href="#qnpei"/></g><g><use fill="#008cef" xlink:href="#qnpek"/></g><g><use fill="url(#qnpem)" xlink:href="#qnpel"/></g><g><use fill="url(#qnpeo)" xlink:href="#qnpen"/></g><g><use fill="#ee7b00" xlink:href="#qnpep"/></g><g><use fill="url(#qnper)" xlink:href="#qnpeq"/></g><g><use fill="url(#qnpet)" xlink:href="#qnpes"/></g><g><use fill="url(#qnpev)" xlink:href="#qnpeu"/></g></g></g></svg>