<svg xmlns="http://www.w3.org/2000/svg" xmlns:xlink="http://www.w3.org/1999/xlink" width="108" height="99" viewBox="0 0 108 99"><defs><path id="rpgma" d="M491.9 706.6c0-3.8 3.1-8.3 6.9-10v-14c0-3.5-3.5-5.8-6.7-4.5l-58.9 24.2a6.96 6.96 0 0 0-4.3 6.4v14.8c3.8-1.7 6.9 0 6.9 3.9 0 3.8-3.1 8.3-6.9 10v10.9c0 3.5 3.5 5.8 6.7 4.5l58.8-24.2c2.6-1.1 4.3-3.6 4.3-6.4l-1.6-10.3c-3.7 1.6-5.2-1.5-5.2-5.3z"/><path id="rpgmc" d="M502.1 686.2l-6.3-2.5v-5.6l6.3 2.5z"/><path id="rpgme" d="M435.3 726l-6.3-2.5v-5.7l6.3 2.5z"/><path id="rpgmg" d="M438.2 755.1l-6.4-2.5v-5.7l6.4 2.6z"/><path id="rpgmi" d="M505 718.5l-9-3.5v-5.7l9 3.5z"/><path id="rpgmk" d="M498.1 709c0-3.8 3.1-8.3 6.9-10v-14c0-3.5-3.5-5.8-6.7-4.5l-58.8 24.2a6.96 6.96 0 0 0-4.3 6.4v14.8c3.8-1.7 6.9 0 6.9 3.9 0 3.8-3.1 8.3-6.9 10v10.9c0 3.5 3.5 5.8 6.7 4.5l58.8-24.2c2.6-1.1 4.3-3.6 4.3-6.4v-11.7c-3.8 1.7-6.9 0-6.9-3.9z"/><path id="rpgmm" d="M495.8 709.6c0-3.2 1.4-8.5 6-11.3v-10.8c0-1.8-1.9-3.1-3.5-2.4l-56.9 23.3c-1.3.5-2.1 1.8-2.1 3.2V722c3.7 0 6.7 2.4 6.7 7 0 6.4-3.5 10.7-6.7 12.1v7.2c0 1.8 1.9 3.1 3.5 2.4l56.8-23.7c1.3-.5 2.1-1.8 2.1-3.2v-7.1c-4.5-.9-5.9-4-5.9-7.1z"/><path id="rpgmn" d="M472.3 708.6l2.2 3.8 4.7-.8c.8-.1 1.3.8.8 1.4l-3.7 4.7 1 5.3c.1.6-.4 1.2-1.1 1l-4.8-1-4.4 3.7c-.6.5-1.6 0-1.4-.8l.8-5-3.7-2.5c-.6-.4-.5-1.3.1-1.5l5.5-2.5 2.4-5.7c.3-.7 1.2-.7 1.6-.1z"/><path id="rpgmo" d="M523.8 726.3c0-3.8 3.1-8.3 6.9-10v-14c0-3.5-3.5-5.8-6.7-4.5L465.2 722a6.96 6.96 0 0 0-4.3 6.4v14.8c3.8-1.7 6.9 0 6.9 3.9 0 3.8-3.1 8.3-6.9 10V768c0 3.5 3.5 5.8 6.7 4.5l58.8-24.2c2.6-1.1 4.3-3.6 4.3-6.4l-1.6-10.3c-3.8 1.6-5.3-1.5-5.3-5.3z"/><path id="rpgmq" d="M534 706l-6.3-2.5v-5.7l6.3 2.5z"/><path id="rpgms" d="M467.2 745.7l-6.3-2.5v-5.6l6.3 2.5z"/><path id="rpgmu" d="M470.1 774.9l-6.3-2.6v-5.6l6.3 2.5z"/><path id="rpgmw" d="M537 738.2l-9-3.5V729l9 3.6z"/><path id="rpgmy" d="M530.1 728.8c0-3.8 3.1-8.3 6.9-10v-14c0-3.5-3.5-5.8-6.7-4.5l-58.9 24.1a6.96 6.96 0 0 0-4.3 6.4v14.8c3.8-1.7 6.9 0 6.9 3.9 0 3.8-3.1 8.3-6.9 10v10.9c0 3.5 3.5 5.8 6.7 4.5l58.8-24.2c2.6-1.1 4.3-3.6 4.3-6.4v-11.7c-3.8 1.7-6.8 0-6.8-3.8z"/><path id="rpgmA" d="M527.7 729.3c0-3.2 1.4-8.5 6-11.3v-10.8c0-1.8-1.9-3.1-3.5-2.4l-56.9 23.3c-1.3.5-2.1 1.8-2.1 3.2v10.4c3.7 0 6.7 2.4 6.7 7 0 6.4-3.5 10.7-6.7 12.1v7.2c0 1.8 1.9 3.1 3.5 2.4l56.9-23.6c1.3-.5 2.1-1.8 2.1-3.2v-7.1c-4.5-.9-6-4-6-7.2z"/><path id="rpgmB" d="M504.2 728.3l2.2 3.8 4.7-.8c.8-.1 1.3.8.8 1.4l-3.7 4.7 1 5.3c.1.6-.4 1.2-1.1 1l-4.9-1.1-4.4 3.7c-.6.5-1.6 0-1.4-.8l.8-5-3.7-2.5c-.6-.4-.5-1.3.1-1.5l5.5-2.5 2.4-5.7c.4-.6 1.4-.6 1.7 0z"/><linearGradient id="rpgmb" x1="550.51" x2="383.48" y1="637.71" y2="787.43" gradientUnits="userSpaceOnUse"><stop offset="0" stop-color="#ffc036"/><stop offset="1" stop-color="#ff8d00"/></linearGradient><linearGradient id="rpgmd" x1="549.62" x2="382.59" y1="636.73" y2="786.44" gradientUnits="userSpaceOnUse"><stop offset="0" stop-color="#ffc036"/><stop offset="1" stop-color="#ff8d00"/></linearGradient><linearGradient id="rpgmf" x1="539.62" x2="372.59" y1="625.57" y2="775.28" gradientUnits="userSpaceOnUse"><stop offset="0" stop-color="#ffc036"/><stop offset="1" stop-color="#ff8d00"/></linearGradient><linearGradient id="rpgmh" x1="555.38" x2="388.35" y1="643.15" y2="792.86" gradientUnits="userSpaceOnUse"><stop offset="0" stop-color="#ffc036"/><stop offset="1" stop-color="#ff8d00"/></linearGradient><linearGradient id="rpgmj" x1="643.42" x2="445.14" y1="585.83" y2="763.55" gradientUnits="userSpaceOnUse"><stop offset="0" stop-color="#ffc036"/><stop offset="1" stop-color="#ff8d00"/></linearGradient><linearGradient id="rpgml" x1="435.19" x2="505.03" y1="717.83" y2="717.83" gradientUnits="userSpaceOnUse"><stop offset="0" stop-color="#ffc036"/><stop offset="1" stop-color="#ff8d00"/></linearGradient><linearGradient id="rpgmp" x1="403.07" x2="518.87" y1="640.31" y2="746.02" gradientUnits="userSpaceOnUse"><stop offset="0" stop-color="#00c6e4"/><stop offset="1" stop-color="#0084f1"/></linearGradient><linearGradient id="rpgmr" x1="530.85" x2="527.7" y1="697.8" y2="701.33" gradientUnits="userSpaceOnUse"><stop offset="0" stop-color="#008fef"/><stop offset="1" stop-color="#008ef0"/></linearGradient><linearGradient id="rpgmt" x1="460.9" x2="467.2" y1="737.6" y2="745.7" gradientUnits="userSpaceOnUse"><stop offset="0" stop-color="#0099ed"/><stop offset="1" stop-color="#0096ed"/></linearGradient><linearGradient id="rpgmv" x1="466.95" x2="464.06" y1="768" y2="772.48" gradientUnits="userSpaceOnUse"><stop offset="0" stop-color="#008eef"/><stop offset="1" stop-color="#008def"/></linearGradient><linearGradient id="rpgmx" x1="536.67" x2="530.57" y1="732.44" y2="733.19" gradientUnits="userSpaceOnUse"><stop offset="0" stop-color="#00a7ea"/><stop offset="1" stop-color="#00a8ea"/></linearGradient><linearGradient id="rpgmz" x1="384.03" x2="675.2" y1="626.39" y2="892.61" gradientUnits="userSpaceOnUse"><stop offset="0" stop-color="#00c6e4"/><stop offset="1" stop-color="#0084f1"/></linearGradient></defs><g><g transform="translate(-429 -677)"><g><g><g><use fill="url(#rpgmb)" xlink:href="#rpgma"/></g><g><use fill="url(#rpgmd)" xlink:href="#rpgmc"/></g><g><use fill="url(#rpgmf)" xlink:href="#rpgme"/></g><g><use fill="url(#rpgmh)" xlink:href="#rpgmg"/></g><g><use fill="url(#rpgmj)" xlink:href="#rpgmi"/></g></g><g><use fill="url(#rpgml)" xlink:href="#rpgmk"/></g><g><use fill="#fff" fill-opacity="0" stroke="#e47600" stroke-miterlimit="50" xlink:href="#rpgmm"/></g><g><use fill="#e47600" xlink:href="#rpgmn"/></g></g><g><g><g><use fill="url(#rpgmp)" xlink:href="#rpgmo"/></g><g><use fill="url(#rpgmr)" xlink:href="#rpgmq"/></g><g><use fill="url(#rpgmt)" xlink:href="#rpgms"/></g><g><use fill="url(#rpgmv)" xlink:href="#rpgmu"/></g><g><use fill="url(#rpgmx)" xlink:href="#rpgmw"/></g></g><g><use fill="url(#rpgmz)" xlink:href="#rpgmy"/></g><g><use fill="#fff" fill-opacity="0" stroke="#0070b7" stroke-miterlimit="50" xlink:href="#rpgmA"/></g><g><use fill="#0070b7" xlink:href="#rpgmB"/></g></g></g></g></svg>