<svg xmlns="http://www.w3.org/2000/svg" xmlns:xlink="http://www.w3.org/1999/xlink" width="15" height="12" viewBox="0 0 15 12">
    <defs>
        <path id="gunpa" d="M608.33 24.27a.84.84 0 0 0-.25.62c0 .25.09.45.25.62l3.18 3.17h-9.86a.85.85 0 0 0-.63.25.85.85 0 0 0-.25.63c0 .24.08.44.25.62.16.17.37.26.63.26h9.91l-3.23 3.2a.92.92 0 0 0-.25.63c0 .24.09.45.25.63.1.08.2.14.3.18.11.05.22.07.33.07.11 0 .22-.02.33-.07.11-.04.21-.1.3-.18l5.18-5.31-5.18-5.32a.87.87 0 0 0-1.26 0z"/>
    </defs>
    <g>
        <g transform="translate(-600 -24)">
            <use fill="#fff" xlink:href="#gunpa"/>
        </g>
    </g>
</svg>
