<?xml version="1.0" encoding="UTF-8"?>
<svg width="16px" height="16px" viewBox="0 0 16 16" version="1.1" xmlns="http://www.w3.org/2000/svg" xmlns:xlink="http://www.w3.org/1999/xlink">
    <!-- Generator: Sketch 48.1 (47250) - http://www.bohemiancoding.com/sketch -->
    <title>Icons/24x24/checkmark</title>
    <desc>Created with Sketch.</desc>
    <defs></defs>
    <g id="02_dao_casino_1440_game" stroke="none" stroke-width="1" fill="none" fill-rule="evenodd" transform="translate(-457.000000, -245.000000)">
        <g id="ticket-copy" transform="translate(434.000000, 214.000000)" fill="#737594" fill-rule="nonzero">
            <g id="Icons/24x24/checkmark" transform="translate(19.000000, 27.000000)">
                <path d="M12.000016,4 C14.1368933,4 16.1458292,4.83213088 17.6568492,6.34315084 C19.1678371,7.8541388 20,9.86313868 20,12.000016 C20,14.1368613 19.1678371,16.1458612 17.6568492,17.6568172 C16.1458612,19.1678051 14.1368933,19.999968 12.000016,19.999968 C9.86313868,19.999968 7.8541388,19.1678051 6.34315084,17.6568172 C4.83216287,16.1458612 4,14.1368933 4,12.000016 C4,9.86313868 4.83216287,7.85417079 6.34315084,6.34315084 C7.85417079,4.83216287 9.86313868,4 12.000016,4 Z M16.0949079,8.7828134 C15.6526087,8.33164294 14.9357803,8.33164294 14.4934811,8.7828134 L10.4897691,12.8663808 L9.48869972,11.8453512 C9.04640047,11.3941808 8.32957214,11.3941808 7.88727289,11.8453512 C7.44497363,12.2965217 7.44497363,13.027773 7.88727289,13.478668 L9.68891069,15.3163415 C10.1312099,15.7675119 10.8480383,15.7675119 11.2903375,15.3163415 L16.0948934,10.4164056 C16.5372217,9.96523515 16.5372217,9.23398387 16.0949079,8.7828134 Z" id="Shape"></path>
            </g>
        </g>
    </g>
</svg>