<svg xmlns="http://www.w3.org/2000/svg" xmlns:xlink="http://www.w3.org/1999/xlink" width="64" height="57" viewBox="0 0 64 57"><defs><path id="4lkma" d="M327.63 589.22c0-2.4 1.91-5.14 4.33-6.2v-8.78a3.02 3.02 0 0 0-4.21-2.79l-36.78 15.03a4.31 4.31 0 0 0-2.69 3.97v9.22c2.41-1.06 4.32.06 4.32 2.4 0 2.4-1.9 5.15-4.32 6.2v6.77a3.02 3.02 0 0 0 4.21 2.8l36.77-15.04a4.31 4.31 0 0 0 2.7-3.97l-1.01-6.42c-2.42 1.06-3.32-.84-3.32-3.19z"/><path id="4lkmc" d="M334.04 576.54l-3.99-1.57v-3.52l3.99 1.56z"/><path id="4lkme" d="M292.27 601.29l-3.99-1.57v-3.52l3.99 1.56z"/><path id="4lkmg" d="M294.07 619.4l-3.99-1.57v-3.52l3.99 1.56z"/><path id="4lkmi" d="M335.83 596.59l-5.61-2.18v-3.52l5.61 2.18z"/><path id="4lkmk" d="M331.5 590.73c0-2.4 1.91-5.15 4.33-6.2v-8.73a3.02 3.02 0 0 0-4.21-2.79l-36.78 15.03a4.31 4.31 0 0 0-2.69 3.97v9.22c2.41-1.06 4.32.06 4.32 2.4 0 2.4-1.9 5.15-4.32 6.2v6.77a3.02 3.02 0 0 0 4.21 2.8l36.77-15.04a4.31 4.31 0 0 0 2.7-3.97v-7.26c-2.36 1.06-4.33 0-4.33-2.4z"/><path id="4lkmm" d="M330.05 591.06c0-1.96.9-5.31 3.76-7.04v-6.7c0-1.13-1.18-1.9-2.19-1.46l-35.6 14.42a2.2 2.2 0 0 0-1.34 2v6.43c2.3 0 4.21 1.51 4.21 4.36 0 3.97-2.19 6.65-4.21 7.5v4.46c0 1.12 1.18 1.9 2.19 1.45l35.54-14.64a2.2 2.2 0 0 0 1.34-2v-4.42c-2.8-.45-3.7-2.4-3.7-4.36z"/><path id="4lkmn" d="M343.3 597.21c0-2.4 1.9-5.14 4.32-6.2v-8.78a3.02 3.02 0 0 0-4.21-2.79l-36.78 15.03a4.31 4.31 0 0 0-2.69 3.97v9.22c2.41-1.06 4.32.06 4.32 2.4 0 2.4-1.9 5.15-4.32 6.2v6.77a3.02 3.02 0 0 0 4.21 2.8l36.77-15.04a4.31 4.31 0 0 0 2.7-3.97l-1.01-6.42c-2.36 1.06-3.32-.84-3.32-3.19z"/><path id="4lkmp" d="M349.7 584.53l-3.99-1.57v-3.52l3.99 1.56z"/><path id="4lkmr" d="M307.93 609.28L304 607.7v-3.52l3.93 1.56z"/><path id="4lkmt" d="M309.73 627.39l-3.93-1.57v-3.52l3.93 1.56z"/><path id="4lkmv" d="M351.55 604.59l-5.67-2.18v-3.52l5.67 2.18z"/><path id="4lkmx" d="M347.17 598.72c0-2.4 1.9-5.15 4.32-6.2v-8.73a3.02 3.02 0 0 0-4.2-2.79l-36.73 15.03a4.31 4.31 0 0 0-2.69 3.97v9.22c2.41-1.06 4.32.06 4.32 2.4 0 2.4-1.9 5.15-4.32 6.2v6.77a3.02 3.02 0 0 0 4.21 2.8l36.77-15.04a4.31 4.31 0 0 0 2.7-3.97v-7.26c-2.42 1.06-4.38 0-4.38-2.4z"/><path id="4lkmz" d="M345.71 599.06c0-1.96.9-5.31 3.76-7.04v-6.7c0-1.13-1.18-1.9-2.19-1.46l-35.53 14.42a2.2 2.2 0 0 0-1.35 2v6.43c2.3 0 4.21 1.51 4.21 4.36 0 3.97-2.19 6.65-4.21 7.5v4.46c0 1.12 1.18 1.9 2.19 1.45l35.54-14.64a2.2 2.2 0 0 0 1.34-2v-4.42c-2.86-.45-3.76-2.4-3.76-4.36z"/><path id="4lkmA" d="M320.1 605.87l-1.56 1.4-.34-1.35 2.13-1.9 1.58-.61.1 8.33-1.85.72z"/><path id="4lkmB" d="M332.87 604.53c0-.79-.4-1.29-1.24-.95-.51.22-.96.72-1.13 1.17-.06.11-.06.28-.06.5.06.9.45 1.51 1.36 1.18.67-.23 1.07-1.07 1.07-1.9zm1-4.59c-.23.06-.45.17-.73.34-1.69.84-2.42 2.01-2.64 3.07h.05c.4-.56.96-1.06 1.75-1.34 1.34-.56 2.52 0 2.52 1.73a4.82 4.82 0 0 1-2.97 4.25c-2.2.9-3.26-.34-3.26-2.35 0-1.56.5-3.13 1.4-4.3a8.25 8.25 0 0 1 3.15-2.51c.33-.17.56-.28.78-.34z"/><path id="4lkmC" d="M337.35 599.89c0 .73.4 1.17 1.18.9.5-.23.9-.62 1.06-.96.06-.16.12-.28.12-.5 0-.9-.34-1.62-1.24-1.28-.67.16-1.12.95-1.12 1.84zm-1.07 4.64c.23-.06.45-.17.84-.34a4.64 4.64 0 0 0 2.59-3.13h-.06c-.34.56-.9.95-1.63 1.29-1.4.56-2.52.05-2.58-1.57a4.94 4.94 0 0 1 3.03-4.24c2.08-.84 3.09.39 3.15 2.34a7.5 7.5 0 0 1-1.35 4.42c-.79 1-1.8 1.84-3.09 2.4-.34.17-.67.28-.84.34z"/><path id="4lkmD" d="M326.62 605.26v1.84l-2.58 1.07v-1.85z"/><linearGradient id="4lkmb" x1="364.26" x2="259.88" y1="546.36" y2="639.48" gradientUnits="userSpaceOnUse"><stop offset="0" stop-color="#ffc036"/><stop offset="1" stop-color="#ff8d00"/></linearGradient><linearGradient id="4lkmd" x1="363.74" x2="259.26" y1="545.72" y2="638.93" gradientUnits="userSpaceOnUse"><stop offset="0" stop-color="#ffc036"/><stop offset="1" stop-color="#ff8d00"/></linearGradient><linearGradient id="4lkmf" x1="357.53" x2="253.04" y1="538.74" y2="631.96" gradientUnits="userSpaceOnUse"><stop offset="0" stop-color="#ffc036"/><stop offset="1" stop-color="#ff8d00"/></linearGradient><linearGradient id="4lkmh" x1="367.39" x2="262.9" y1="549.68" y2="642.89" gradientUnits="userSpaceOnUse"><stop offset="0" stop-color="#ffc036"/><stop offset="1" stop-color="#ff8d00"/></linearGradient><linearGradient id="4lkmj" x1="422.26" x2="298.44" y1="514.07" y2="624.63" gradientUnits="userSpaceOnUse"><stop offset="0" stop-color="#ffc036"/><stop offset="1" stop-color="#ff8d00"/></linearGradient><linearGradient id="4lkml" x1="302.5" x2="346.15" y1="596.19" y2="596.19" gradientUnits="userSpaceOnUse"><stop offset="0" stop-color="#ffc036"/><stop offset="1" stop-color="#ff8d00"/></linearGradient><linearGradient id="4lkmo" x1="379.95" x2="275.56" y1="554.35" y2="647.47" gradientUnits="userSpaceOnUse"><stop offset="0" stop-color="#ffc036"/><stop offset="1" stop-color="#ff8d00"/></linearGradient><linearGradient id="4lkmq" x1="366.49" x2="262.01" y1="565.24" y2="658.46" gradientUnits="userSpaceOnUse"><stop offset="0" stop-color="#ffc036"/><stop offset="1" stop-color="#ff8d00"/></linearGradient><linearGradient id="4lkms" x1="373.14" x2="268.76" y1="546.73" y2="639.95" gradientUnits="userSpaceOnUse"><stop offset="0" stop-color="#ffc036"/><stop offset="1" stop-color="#ff8d00"/></linearGradient><linearGradient id="4lkmu" x1="383" x2="278.61" y1="557.66" y2="650.88" gradientUnits="userSpaceOnUse"><stop offset="0" stop-color="#ffc036"/><stop offset="1" stop-color="#ff8d00"/></linearGradient><linearGradient id="4lkmw" x1="438" x2="314.1" y1="522.07" y2="632.62" gradientUnits="userSpaceOnUse"><stop offset="0" stop-color="#ffc036"/><stop offset="1" stop-color="#ff8d00"/></linearGradient><linearGradient id="4lkmy" x1="318.18" x2="361.83" y1="604.18" y2="604.18" gradientUnits="userSpaceOnUse"><stop offset="0" stop-color="#ffc036"/><stop offset="1" stop-color="#ff8d00"/></linearGradient></defs><g><g transform="translate(-288 -571)"><g><g><g><g><g><use fill="url(#4lkmb)" xlink:href="#4lkma"/></g><g><use fill="url(#4lkmd)" xlink:href="#4lkmc"/></g><g><use fill="url(#4lkmf)" xlink:href="#4lkme"/></g><g><use fill="url(#4lkmh)" xlink:href="#4lkmg"/></g><g><use fill="url(#4lkmj)" xlink:href="#4lkmi"/></g></g><g><use fill="url(#4lkml)" xlink:href="#4lkmk"/></g><g><use fill="#fff" fill-opacity="0" stroke="#ff8400" stroke-miterlimit="50" stroke-width=".56" xlink:href="#4lkmm"/></g></g><g><g><g><use fill="url(#4lkmo)" xlink:href="#4lkmn"/></g><g><use fill="url(#4lkmq)" xlink:href="#4lkmp"/></g><g><use fill="url(#4lkms)" xlink:href="#4lkmr"/></g><g><use fill="url(#4lkmu)" xlink:href="#4lkmt"/></g><g><use fill="url(#4lkmw)" xlink:href="#4lkmv"/></g></g><g><use fill="url(#4lkmy)" xlink:href="#4lkmx"/></g><g><use fill="#fff" fill-opacity="0" stroke="#ff8400" stroke-miterlimit="50" stroke-width=".56" xlink:href="#4lkmz"/></g></g></g><g><g><g><use fill="#e47600" xlink:href="#4lkmA"/></g><g><use fill="#e47600" xlink:href="#4lkmB"/></g><g><use fill="#e47600" xlink:href="#4lkmC"/></g><g><use fill="#e47600" xlink:href="#4lkmD"/></g></g></g></g></g></g></svg>