<svg xmlns="http://www.w3.org/2000/svg" xmlns:xlink="http://www.w3.org/1999/xlink" width="61" height="64" viewBox="0 0 61 64"><defs><path id="9n5na" d="M1121.29 602.67l-23.45 9.74a1.7 1.7 0 0 1-2.35-1.56v-24.04c0-1.33.84-2.56 2.07-3.06l23.45-9.68a1.7 1.7 0 0 1 2.35 1.56v24.04c0 1.33-.84 2.5-2.07 3zm-30.95-16.53v31.22c0 1 .62 1.73 1.34 2.23 1.85 1.28 2.97 2.34 3.7 2.06l26.8-13.52A7.7 7.7 0 0 0 1127 601l1.5-31.6-2.62-1.73a2.6 2.6 0 0 0-2.41-.23l-28.37 11.58a7.7 7.7 0 0 0-4.76 7.12z"/><path id="9n5nc" d="M1093.41 588.15v31.22a2.52 2.52 0 0 0 3.53 2.33l28.31-11.63a7.7 7.7 0 0 0 4.82-7.12v-31.22a2.52 2.52 0 0 0-3.53-2.34l-28.32 11.63a7.7 7.7 0 0 0-4.81 7.13z"/><path id="9n5ne" d="M1111.82 592.37l-3.47 3.17-.67-3.95 4.76-4.28 3.47-1.56v17.8l-4.09 1.79z"/><path id="9n5ng" d="M1134.1 602.9s.67-.72 1.4-.39c.73.33 3.14 2.95 4.53 4.29 1.4 1.33 2.7 4.45 4.2 6.34 1.51 1.9 5.93 7.35 5.93 7.35l-10.96 9.9c-.84-.67-3.47-1.39-4.31-1.39-.84 0-8.23-2.23-9.8-2.62-1.56-.38-4.03-2.94-4.53-3.67-.5-.72-1.9-1.67-2.35-2.4-.45-.71-.67-1.83-1.46-2.94-.78-1.11-1.17-2-.16-2.78 1-.78 2.9-.28 3.58.22.67.5 4.47 3.56 4.47 3.56l1.85 2.9-1-2.06s-1.35-5.46-2.47-7.46c-1.06-2.06-2.96-4.68-2.96-4.68l-.62-.6s-3.58-4.13-4.76-5.8c-1.17-1.67-2.4-3.4-1.56-5.62.84-2.22 2.63-.39 3.8 1.17 1.18 1.56 6.1 5.84 6.1 5.84l5.88 4.12-6.27-5.23s1.85-2.22 3.08-1.56c1.23.67 5.03 3.57 6.55 4.62 1.5 1.06 3.24 1.4 4.47 3.5l-8.34-6.67s2.02-.56 2.7 0c.66.56 1.78 1.5 4.3 3.56z"/><path id="9n5ni" d="M1124.08 617.87l1.34 1 1.4 2.95c-.05.22-1.96-2.67-1.96-2.67z"/><path id="9n5nj" d="M1150.77 621.65c.11 2.12-2.57 5.46-5.87 7.52-3.36 2.05-6.1 2.05-6.22-.06-.1-2.11 2.58-5.45 5.88-7.51 3.36-2.06 6.1-2 6.21.05z"/><path id="9n5nk" d="M1133.88 603.12s.4-.44.56-.5c.28.61 1.23 1.95 1.23 1.95z"/><path id="9n5nl" d="M1128.11 600.95c.06 0 0-.11.84-.28 1.34.95 4.64 4 4.64 4s-.61-.1-1-.44c-.45-.39-4.48-3.28-4.48-3.28z"/><path id="9n5nm" d="M1122.23 601.28s.34-.28.5-.5c.34.33 6.6 5.4 6.6 5.45 0 .06-5.2-3-7.1-4.95z"/><linearGradient id="9n5nb" x1="1118.79" x2="1096.71" y1="563.15" y2="629.36" gradientUnits="userSpaceOnUse"><stop offset="0" stop-color="#00c6e4"/><stop offset="1" stop-color="#0084f1"/></linearGradient><linearGradient id="9n5nd" x1="1104.38" x2="1131.96" y1="582.84" y2="630.26" gradientUnits="userSpaceOnUse"><stop offset="0" stop-color="#00c6e4"/><stop offset="1" stop-color="#0084f1"/></linearGradient><linearGradient id="9n5nf" x1="1126.41" x2="1113.04" y1="641.06" y2="593.9" gradientUnits="userSpaceOnUse"><stop offset="0" stop-color="#00c6e4"/><stop offset="1" stop-color="#0084f1"/></linearGradient><linearGradient id="9n5nh" x1="1114.93" x2="1147.1" y1="600.01" y2="630.89" gradientUnits="userSpaceOnUse"><stop offset="0" stop-color="#ebeaf5"/><stop offset="1" stop-color="#beb9de"/></linearGradient></defs><g><g transform="translate(-1090 -567)"><g><g><use fill="url(#9n5nb)" xlink:href="#9n5na"/></g><g><use fill="url(#9n5nd)" xlink:href="#9n5nc"/></g><g><use fill="url(#9n5nf)" xlink:href="#9n5ne"/></g><g><use fill="url(#9n5nh)" xlink:href="#9n5ng"/></g><g><use fill="#b1accf" xlink:href="#9n5ni"/></g><g><use fill="#b1accf" xlink:href="#9n5nj"/></g><g><use fill="#b1accf" xlink:href="#9n5nk"/></g><g><use fill="#b1accf" xlink:href="#9n5nl"/></g><g><use fill="#b1accf" xlink:href="#9n5nm"/></g></g></g></g></svg>