<svg xmlns="http://www.w3.org/2000/svg" xmlns:xlink="http://www.w3.org/1999/xlink" width="63" height="62" viewBox="0 0 63 62"><defs><path id="ftaya" d="M1130.27 356l-3.34 1.56-.7-3 4.58-2.08h3.34v17.1h-3.88z"/><path id="ftayc" d="M1141.9 361.03c0 3.9.92 5.76 2.48 5.76s2.42-1.92 2.42-5.82c0-3.79-.8-5.76-2.42-5.76-1.5 0-2.53 1.87-2.48 5.82zm8.94-.1c0 5.29-2.15 8.92-6.57 8.92-4.47 0-6.4-3.95-6.46-8.82 0-4.97 2.1-8.87 6.57-8.87 4.63 0 6.46 4.06 6.46 8.77z"/><path id="ftaye" d="M1112.28 413.58l11.1-17.16h-22.19z"/><path id="ftayg" d="M1123.37 396.42l12.6-5.08-23.69 22.23z"/><path id="ftayi" d="M1123.38 396.42l-8.83-11.65 10.18-4.12 11.25 10.69z"/><path id="ftayk" d="M1124.72 380.65v-1.71l11.25 4.97v7.43z"/><path id="ftaym" d="M1099.68 380.64l-.16-1.76-11.36 5.24v7.27z"/><path id="ftayo" d="M1101.2 396.41l-13.04-5.02 24.12 22.18z"/><path id="ftayq" d="M1088.16 391.4l11.52-10.75 9.86 4.12-8.35 11.65"/><path id="ftays" d="M1124.72 378.94l-9.8-4.22 8.62 2.73 12.43 6.46z"/><path id="ftayu" d="M1099.52 378.89l10.07-4.17-8.78 2.73-12.65 6.68z"/><path id="ftayw" d="M1099.68 380.65l9.86 4.12h5l10.18-4.12v-1.7l-9.8-4.23h-5.33l-10.07 4.17z"/><path id="ftayy" d="M1101.19 396.41h22.18l-8.83-11.65h-5z"/><path id="ftayA" d="M1114.87 366.6h-3.34l7.7-9.04h3.34z"/><path id="ftayC" d="M1119.23 366.6h3.34l-7.7-9.04h-3.34z"/><linearGradient id="ftayb" x1="1116.39" x2="1151.86" y1="367.93" y2="352.68" gradientUnits="userSpaceOnUse"><stop offset="0" stop-color="#ebeaf5"/><stop offset="1" stop-color="#beb9de"/></linearGradient><linearGradient id="ftayd" x1="1118.28" x2="1153.73" y1="372.23" y2="356.98" gradientUnits="userSpaceOnUse"><stop offset="0" stop-color="#ebeaf5"/><stop offset="1" stop-color="#beb9de"/></linearGradient><linearGradient id="ftayf" x1="1110.32" x2="1127.23" y1="392.9" y2="423.56" gradientUnits="userSpaceOnUse"><stop offset="0" stop-color="#00c6e4"/><stop offset="1" stop-color="#0084f1"/></linearGradient><linearGradient id="ftayh" x1="1124.01" x2="1124.1" y1="388.96" y2="398.58" gradientUnits="userSpaceOnUse"><stop offset="0" stop-color="#00c6e4"/><stop offset="1" stop-color="#0084f1"/></linearGradient><linearGradient id="ftayj" x1="1119.78" x2="1150.97" y1="386.49" y2="401.51" gradientUnits="userSpaceOnUse"><stop offset="0" stop-color="#00c6e4"/><stop offset="1" stop-color="#0084f1"/></linearGradient><linearGradient id="ftayl" x1="1125.64" x2="1133.87" y1="372.48" y2="389.61" gradientUnits="userSpaceOnUse"><stop offset="0" stop-color="#00c6e4"/><stop offset="1" stop-color="#0084f1"/></linearGradient><linearGradient id="ftayn" x1="1090.23" x2="1103.73" y1="381.78" y2="394.38" gradientUnits="userSpaceOnUse"><stop offset="0" stop-color="#00c6e4"/><stop offset="1" stop-color="#0084f1"/></linearGradient><linearGradient id="ftayp" x1="1088.14" x2="1112.27" y1="402.46" y2="402.46" gradientUnits="userSpaceOnUse"><stop offset="0" stop-color="#00c6e4"/><stop offset="1" stop-color="#0084f1"/></linearGradient><linearGradient id="ftayr" x1="1096.74" x2="1135.2" y1="388.77" y2="386.31" gradientUnits="userSpaceOnUse"><stop offset="0" stop-color="#00c6e4"/><stop offset="1" stop-color="#0084f1"/></linearGradient><linearGradient id="ftayt" x1="1114.93" x2="1135.99" y1="379.32" y2="379.32" gradientUnits="userSpaceOnUse"><stop offset="0" stop-color="#00c6e4"/><stop offset="1" stop-color="#0084f1"/></linearGradient><linearGradient id="ftayv" x1="1088.14" x2="1109.6" y1="379.42" y2="379.42" gradientUnits="userSpaceOnUse"><stop offset="0" stop-color="#00c6e4"/><stop offset="1" stop-color="#0084f1"/></linearGradient><linearGradient id="ftayx" x1="1157.13" x2="1104.99" y1="372.91" y2="380.82" gradientUnits="userSpaceOnUse"><stop offset="0" stop-color="#00c6e4"/><stop offset="1" stop-color="#0084f1"/></linearGradient><linearGradient id="ftayz" x1="1093.81" x2="1116.6" y1="372.73" y2="401.68" gradientUnits="userSpaceOnUse"><stop offset="0" stop-color="#00c6e4"/><stop offset="1" stop-color="#0084f1"/></linearGradient><linearGradient id="ftayB" x1="1114.35" x2="1149.81" y1="363.24" y2="347.99" gradientUnits="userSpaceOnUse"><stop offset="0" stop-color="#ebeaf5"/><stop offset="1" stop-color="#beb9de"/></linearGradient><linearGradient id="ftayD" x1="1114.35" x2="1149.81" y1="363.24" y2="347.99" gradientUnits="userSpaceOnUse"><stop offset="0" stop-color="#ebeaf5"/><stop offset="1" stop-color="#beb9de"/></linearGradient></defs><g><g transform="translate(-1088 -352)"><g><g><g><g><use fill="url(#ftayb)" xlink:href="#ftaya"/></g><g><use fill="url(#ftayd)" xlink:href="#ftayc"/></g></g><g><g><use fill="url(#ftayf)" xlink:href="#ftaye"/></g><g><use fill="url(#ftayh)" xlink:href="#ftayg"/></g><g><use fill="url(#ftayj)" xlink:href="#ftayi"/></g><g><use fill="url(#ftayl)" xlink:href="#ftayk"/></g><g><use fill="url(#ftayn)" xlink:href="#ftaym"/></g><g><use fill="url(#ftayp)" xlink:href="#ftayo"/></g><g><use fill="url(#ftayr)" xlink:href="#ftayq"/></g><g><use fill="url(#ftayt)" xlink:href="#ftays"/></g><g><use fill="url(#ftayv)" xlink:href="#ftayu"/></g><g><use fill="url(#ftayx)" xlink:href="#ftayw"/></g><g><use fill="url(#ftayz)" xlink:href="#ftayy"/></g></g><g><use fill="url(#ftayB)" xlink:href="#ftayA"/></g><g><use fill="url(#ftayD)" xlink:href="#ftayC"/></g></g></g></g></g></svg>