<svg xmlns="http://www.w3.org/2000/svg" xmlns:xlink="http://www.w3.org/1999/xlink" width="16" height="21" viewBox="0 0 16 21"><defs><path id="xilca" d="M1237.32 2312.6a.68.68 0 0 1 .63.69c-.05 1.7-.12 3.03-.22 3.97-.12 1.3-.24 1.62-.32 1.76-.29.43-.5.71-.66.86-.21.2-.29.26-.33.28a.5.5 0 0 1-.17.07.73.73 0 0 1-.5-.05.63.63 0 0 1-.24-.22.67.67 0 0 1-.08-.5.64.64 0 0 1 .28-.42l.03-.02.1-.1c.08-.08.23-.28.44-.58 0-.04.04-.2.08-.62a106.9 106.9 0 0 0 .2-2.8l.07-1.67a.7.7 0 0 1 .2-.46c.14-.13.3-.2.49-.2m3.17 6.47a.6.6 0 0 1 .28.4c.04.17 0 .34-.1.5a.48.48 0 0 1-.24.22.72.72 0 0 1-.49.05.51.51 0 0 1-.17-.08c-.03-.01-.11-.06-.32-.27a5.36 5.36 0 0 1-.66-.86c-.13-.22-.24-.8-.33-1.76a63.5 63.5 0 0 1-.21-3.97.59.59 0 0 1 .17-.48.7.7 0 0 1 .45-.21c.18 0 .34.06.47.19.14.13.21.28.21.46l.08 1.66a64.74 64.74 0 0 0 .2 2.8c.04.42.08.59.1.65.23.36.35.5.41.56l.15.14m-10.11-9.19a9.69 9.69 0 0 1-.09-4.98c.15-.53.38-.99.68-1.36a5.05 5.05 0 0 1-.09-1.69 3.3 3.3 0 0 1 .51-1.55.6.6 0 0 1 .25-.22c.1-.05.2-.07.33-.07.73.03 1.36.17 1.87.43.48.25.93.5 1.33.77a10.58 10.58 0 0 1 3.64-.32c.17 0 .34.02.5.05l.46.1.4.09.3.03c.01 0 .1-.03.22-.1l.32-.22.32-.2.35-.19a4.68 4.68 0 0 1 1.98-.44c.09 0 .18.01.27.05a.6.6 0 0 1 .34.3l.06.13a5.5 5.5 0 0 1 .31 2.81c.31.35.57.8.75 1.31.2.54.33 1.11.4 1.71a10.05 10.05 0 0 1-.24 3.58 5.6 5.6 0 0 1-1.82 2.13c-.7.5-1.53.86-2.46 1.06l.16.31c.09.18.14.4.17.67.04.28.06.6.05.92a45.95 45.95 0 0 1-.07 2.07c0 .35.04.61.13.77l.06.08.14.11a1.53 1.53 0 0 1 .54.5c.09.17.12.33.08.5a.65.65 0 0 1-.28.42l-.17.08a.58.58 0 0 1-.51-.05.73.73 0 0 1-.24-.22l-.07-.07a3.29 3.29 0 0 1-.41-.32 1.5 1.5 0 0 1-.32-.42 2.7 2.7 0 0 1-.26-1.18c0-.44 0-.9.03-1.37l.03-.88c0-.27 0-.54-.03-.78a1.23 1.23 0 0 0-.12-.42c-.06-.1-.14-.22-.24-.33a2.85 2.85 0 0 1-.4-.6 1.03 1.03 0 0 1-.06-.33c0-.11.03-.22.1-.32a.57.57 0 0 1 .51-.3 5.95 5.95 0 0 0 2.58-.78 4.2 4.2 0 0 0 1.63-1.7 7.8 7.8 0 0 0-.2-4.53 2.4 2.4 0 0 0-.61-.92.64.64 0 0 1-.2-.72c.11-.33.14-.73.08-1.19a5.13 5.13 0 0 0-.14-.73 2.82 2.82 0 0 0-1.21.4c-.08.06-.17.11-.27.16-.16.12-.35.23-.53.34-.2.1-.42.18-.65.2-.18.02-.37.01-.55-.02l-.54-.11-.39-.08a4.58 4.58 0 0 0-.36-.06 9.3 9.3 0 0 0-3.5.37.69.69 0 0 1-.28 0 .73.73 0 0 1-.26-.1l-.14-.1c-.36-.22-.72-.44-1.08-.64-.33-.18-.71-.3-1.15-.36a3.66 3.66 0 0 0 0 2.11c.06.12.07.26.03.4a.8.8 0 0 1-.2.34c-.23.2-.42.5-.54.9-.14.42-.22.9-.26 1.41a8.85 8.85 0 0 0 .32 3.07c.33.6.86 1.12 1.59 1.52.76.43 1.7.72 2.8.87.13.02.25.07.35.16.1.09.18.2.2.33.04.13.03.26-.02.39a.72.72 0 0 1-.2.3c-.02.01-.09.08-.23.44-.1.26-.23.76-.38 1.46l-.04.16a.68.68 0 0 1-.07.2v.32l.03.64c.02.37.02.74.01 1.08 0 .36-.07.68-.2.95-.08.2-.2.35-.34.46a3.32 3.32 0 0 1-.43.28.63.63 0 0 1-.62.5l-.1-.01a.66.66 0 0 1-.45-.27.61.61 0 0 1-.1-.49c.05-.27.16-.49.33-.63a3.17 3.17 0 0 1 .53-.4c.04-.08.09-.24.09-.57a18.9 18.9 0 0 0-.06-1.37c-.57.08-1.15.1-1.72.05a1.93 1.93 0 0 1-1.54-1.04 1.98 1.98 0 0 1-.2-.37l-.13-.33-.14-.33c-.04-.09-.09-.17-.15-.24a.65.65 0 0 1 .1-.92.6.6 0 0 1 .48-.15c.18.02.32.1.43.23.14.16.25.33.32.5a15.24 15.24 0 0 0 .4.95c.17.27.45.4.85.42.36 0 .87-.04 1.5-.15a19.3 19.3 0 0 1 .38-1.41 8.1 8.1 0 0 1-2.71-1.08 5.02 5.02 0 0 1-1.78-1.93.64.64 0 0 1-.07-.23"/></defs><g><g transform="translate(-1230 -2300)"><use fill="#fff" xlink:href="#xilca"/></g></g></svg>