<svg xmlns="http://www.w3.org/2000/svg" xmlns:xlink="http://www.w3.org/1999/xlink" width="50" height="41" viewBox="0 0 50 41"><defs><path id="kaypa" d="M745.85 1380.71l-10.68-4.35v-16.78l20.76-2.58 10.98-1.52v16.78z"/><path id="kaypc" d="M735.17 1360.72v.5l10.68 4.36 21.06-8.5v-.46l-21.06 8.45z"/><path id="kaypd" d="M735.17 1362.24v.47l10.68 4.35 21.06-8.45v-.51l-21.06 8.5z"/><path id="kaype" d="M735.17 1363.81v.5l10.68 4.36 21.06-8.45v-.51l-21.06 8.45z"/><path id="kaypf" d="M735.17 1365.41v.47l10.68 4.35 21.06-8.45v-.51l-21.06 8.5z"/><path id="kaypg" d="M735.17 1366.98v.5l10.68 4.36 21.06-8.45v-.51l-21.06 8.45z"/><path id="kayph" d="M735.17 1368.58v.47l10.68 4.35 21.06-8.45v-.51l-21.06 8.5z"/><path id="kaypi" d="M735.17 1370.15v.5l10.68 4.36 21.06-8.45v-.51l-21.06 8.45z"/><path id="kaypj" d="M735.17 1371.75v.47l10.68 4.35 21.06-8.45v-.51l-21.06 8.5z"/><path id="kaypk" d="M735.17 1373.32v.5l10.68 4.36 21.06-8.45v-.51l-21.06 8.45z"/><path id="kaypl" d="M735.17 1374.92v.47l10.68 4.35 21.06-8.45v-.51l-21.06 8.5z"/><path id="kaypm" d="M745.85 1363.9l-10.68-4.36 20.76-8.37 10.98 4.23z"/><path id="kaypo" d="M759.58 1375.38l-4.92 1.95v-17.04l4.92-1.94z"/><path id="kaypq" d="M745.81 1357.42c0-1.3 2.52-2.36 5.63-2.36 3.12 0 5.64 1.06 5.64 2.37 0 1.3-2.52 2.36-5.64 2.36-3.1 0-5.63-1.06-5.63-2.37z"/><path id="kaypr" d="M756.82 1354.5c0-.27.53-.5 1.19-.5.65 0 1.18.23 1.18.5 0 .28-.53.51-1.19.51-.65 0-1.18-.23-1.18-.5z"/><path id="kayps" d="M743.09 1360.42c0-.27.53-.5 1.18-.5.66 0 1.19.23 1.19.5 0 .28-.53.51-1.19.51-.65 0-1.18-.23-1.18-.5z"/><path id="kaypt" d="M754.75 1360.34l-10.68-4.35 4.53-1.86 10.98 4.27z"/><path id="kaypv" d="M759.32 1375.13c0-2.82 5.52-5.11 12.33-5.11 6.81 0 12.33 2.29 12.33 5.12 0 2.82-5.52 5.11-12.33 5.11-6.81 0-12.33-2.29-12.33-5.12z"/><path id="kaypx" d="M759.32 1375.26v-3.21h24.7v3.21z"/><path id="kaypz" d="M759.32 1372.06c0-2.83 5.52-5.12 12.33-5.12 6.81 0 12.33 2.29 12.33 5.12 0 2.82-5.52 5.11-12.33 5.11-6.81 0-12.33-2.29-12.33-5.12z"/><path id="kaypB" d="M762.29 1372.05c0-2.15 4.2-3.89 9.37-3.89 5.17 0 9.36 1.74 9.36 3.89 0 2.15-4.2 3.89-9.37 3.89-5.17 0-9.36-1.74-9.36-3.89z"/><path id="kaypD" d="M763.3 1372.3c0-2.07 4.03-3.72 8.95-3.72 3.9 0 7.24 1.06 8.47 2.5-1.06-1.7-4.7-2.92-9.07-2.92-5.17 0-9.36 1.73-9.36 3.89 0 1.82 2.97 3.34 7.03 3.76-3.51-.5-6.01-1.9-6.01-3.5z"/><path id="kaypF" d="M759.87 1371.08c0-2.83 5.52-5.12 12.33-5.12 6.81 0 12.33 2.29 12.33 5.12 0 2.82-5.52 5.11-12.33 5.11-6.81 0-12.33-2.29-12.33-5.12z"/><path id="kaypH" d="M759.87 1371.2v-3.21h24.7v3.21z"/><path id="kaypJ" d="M759.87 1368c0-2.83 5.52-5.12 12.33-5.12 6.81 0 12.33 2.29 12.33 5.11 0 2.83-5.52 5.12-12.33 5.12-6.81 0-12.33-2.29-12.33-5.12z"/><path id="kaypL" d="M762.84 1367.99c0-2.15 4.2-3.89 9.37-3.89 5.17 0 9.36 1.74 9.36 3.89 0 2.15-4.2 3.89-9.37 3.89-5.17 0-9.36-1.74-9.36-3.89z"/><path id="kaypN" d="M763.86 1368.24c0-2.07 4.02-3.72 8.94-3.72 3.9 0 7.24 1.06 8.47 2.5-1.06-1.7-4.7-2.92-9.07-2.92-5.17 0-9.36 1.73-9.36 3.89 0 1.82 2.97 3.34 7.03 3.76-3.51-.5-6.01-1.9-6.01-3.5z"/><path id="kaypP" d="M758.86 1366.77c0-2.83 5.52-5.12 12.33-5.12 6.81 0 12.33 2.29 12.33 5.12 0 2.82-5.52 5.11-12.33 5.11-6.81 0-12.33-2.29-12.33-5.12z"/><path id="kaypR" d="M758.81 1366.85v-3.21h24.7v3.21z"/><path id="kaypT" d="M758.86 1363.63c0-2.82 5.52-5.11 12.33-5.11 6.81 0 12.33 2.29 12.33 5.12 0 2.82-5.52 5.11-12.33 5.11-6.81 0-12.33-2.29-12.33-5.12z"/><path id="kaypV" d="M761.82 1363.64c0-2.15 4.2-3.89 9.37-3.89 5.17 0 9.36 1.74 9.36 3.89 0 2.15-4.2 3.89-9.36 3.89-5.18 0-9.37-1.74-9.37-3.89z"/><path id="kaypX" d="M762.84 1363.9c0-2.08 4.02-3.73 8.94-3.73 3.9 0 7.24 1.06 8.47 2.5-1.06-1.7-4.7-2.92-9.07-2.92-5.17 0-9.36 1.73-9.36 3.89 0 1.82 2.97 3.34 7.03 3.76-3.51-.5-6.01-1.9-6.01-3.5z"/><path id="kaypZ" d="M759.15 1360.93c0-2.82 5.52-5.11 12.33-5.11 6.81 0 12.33 2.29 12.33 5.12 0 2.82-5.52 5.11-12.33 5.11-6.81 0-12.33-2.29-12.33-5.12z"/><path id="kaypab" d="M759.15 1361.02v-3.21h24.7v3.21z"/><path id="kaypad" d="M759.15 1357.8c0-2.82 5.52-5.11 12.33-5.11 6.81 0 12.33 2.29 12.33 5.12 0 2.82-5.52 5.11-12.33 5.11-6.81 0-12.33-2.29-12.33-5.12z"/><path id="kaypaf" d="M762.12 1357.81c0-2.15 4.2-3.89 9.37-3.89 5.17 0 9.36 1.74 9.36 3.89 0 2.15-4.2 3.89-9.37 3.89-5.17 0-9.36-1.74-9.36-3.89z"/><path id="kaypah" d="M763.14 1358.06c0-2.07 4.02-3.72 8.94-3.72 3.9 0 7.24 1.06 8.47 2.5-1.06-1.7-4.7-2.92-9.07-2.92-5.17 0-9.36 1.73-9.36 3.89 0 1.82 2.97 3.34 7.03 3.76-3.51-.5-6.01-1.9-6.01-3.5z"/><path id="kaypaj" d="M765.68 1388.58l8.69-.76-3.01-8.12z"/><path id="kaypal" d="M765.67 1388.57l-3.81-7.1 1.44-2.45 8.05.68z"/><path id="kaypan" d="M771.36 1379.7l.42-7.52 2.59 15.64z"/><path id="kaypap" d="M759.07 1391.92l6.61-3.34 8.69-.76z"/><path id="kaypar" d="M763.31 1379.03l.38-5.75 8.1-1.1-.43 7.52z"/><path id="kaypat" d="M763.69 1373.27l-1.23-.8 4.03-3.55 5.3 3.25z"/><path id="kaypav" d="M762.5 1372.47l-4.92 2.54 2.42-2.92 6.48-3.17z"/><path id="kaypax" d="M756.61 1383.89l2.46 8.03 6.6-3.34-3.8-7.1z"/><path id="kaypaz" d="M753.86 1388.5l5.21 3.42-2.46-8.03-.93-.51z"/><path id="kaypaB" d="M755.68 1383.37l.17-5.83-1.74 3.68-.25 7.27z"/><path id="kaypaD" d="M757.58 1375l-1.73 2.54s-.22 5.8-.17 5.83c.04.05.97.55.97.55l5.25-2.45 1.4-2.45.38-5.7-1.18-.81z"/><linearGradient id="kaypb" x1="742.17" x2="771" y1="1374.39" y2="1346.82" gradientUnits="userSpaceOnUse"><stop offset="0" stop-color="#00e0b5"/><stop offset="1" stop-color="#00d5df"/></linearGradient><linearGradient id="kaypn" x1="735.18" x2="766.91" y1="1357.52" y2="1357.52" gradientUnits="userSpaceOnUse"><stop offset="0" stop-color="#00e0b5"/><stop offset="1" stop-color="#00d5df"/></linearGradient><linearGradient id="kaypp" x1="751.72" x2="784.33" y1="1364.65" y2="1383.85" gradientUnits="userSpaceOnUse"><stop offset="0" stop-color="#ebeaf5"/><stop offset="1" stop-color="#beb9de"/></linearGradient><linearGradient id="kaypu" x1="745.2" x2="785.11" y1="1353.28" y2="1376.78" gradientUnits="userSpaceOnUse"><stop offset="0" stop-color="#ebeaf5"/><stop offset="1" stop-color="#beb9de"/></linearGradient><linearGradient id="kaypw" x1="771.46" x2="772.33" y1="1377.27" y2="1367.74" gradientUnits="userSpaceOnUse"><stop offset="0" stop-color="#ffc036"/><stop offset="1" stop-color="#ff8d00"/></linearGradient><linearGradient id="kaypy" x1="771.26" x2="772.38" y1="1377.93" y2="1365.75" gradientUnits="userSpaceOnUse"><stop offset="0" stop-color="#ffc036"/><stop offset="1" stop-color="#ff8d00"/></linearGradient><linearGradient id="kaypA" x1="772.05" x2="771.53" y1="1360.9" y2="1375.54" gradientUnits="userSpaceOnUse"><stop offset="0" stop-color="#ffc036"/><stop offset="1" stop-color="#ff8d00"/></linearGradient><linearGradient id="kaypC" x1="766.34" x2="784.1" y1="1365.24" y2="1387.93" gradientUnits="userSpaceOnUse"><stop offset="0" stop-color="#a19eb5"/><stop offset="1" stop-color="#4a4571"/></linearGradient><linearGradient id="kaypE" x1="771.14" x2="752.34" y1="1371.56" y2="1354.44" gradientUnits="userSpaceOnUse"><stop offset="0" stop-color="#a19eb5"/><stop offset=".04" stop-color="#9895ae"/><stop offset=".19" stop-color="#7c7898"/><stop offset=".36" stop-color="#666187"/><stop offset=".53" stop-color="#56517a"/><stop offset=".73" stop-color="#4d4873"/><stop offset="1" stop-color="#4a4571"/></linearGradient><linearGradient id="kaypG" x1="772.01" x2="772.88" y1="1373.21" y2="1363.69" gradientUnits="userSpaceOnUse"><stop offset="0" stop-color="#ffc036"/><stop offset="1" stop-color="#ff8d00"/></linearGradient><linearGradient id="kaypI" x1="771.81" x2="772.93" y1="1373.88" y2="1361.7" gradientUnits="userSpaceOnUse"><stop offset="0" stop-color="#ffc036"/><stop offset="1" stop-color="#ff8d00"/></linearGradient><linearGradient id="kaypK" x1="760.52" x2="795.85" y1="1364.54" y2="1374.98" gradientUnits="userSpaceOnUse"><stop offset="0" stop-color="#ffc036"/><stop offset="1" stop-color="#ff8d00"/></linearGradient><linearGradient id="kaypM" x1="765.92" x2="782.74" y1="1363.84" y2="1374.94" gradientUnits="userSpaceOnUse"><stop offset="0" stop-color="#ffc036"/><stop offset="1" stop-color="#ff8d00"/></linearGradient><linearGradient id="kaypO" x1="783.35" x2="764.55" y1="1378.13" y2="1361.02" gradientUnits="userSpaceOnUse"><stop offset="0" stop-color="#ffc036"/><stop offset="1" stop-color="#ff8d00"/></linearGradient><linearGradient id="kaypQ" x1="770.99" x2="771.86" y1="1368.87" y2="1359.34" gradientUnits="userSpaceOnUse"><stop offset="0" stop-color="#ffc036"/><stop offset="1" stop-color="#ff8d00"/></linearGradient><linearGradient id="kaypS" x1="770.78" x2="771.9" y1="1369.53" y2="1357.35" gradientUnits="userSpaceOnUse"><stop offset="0" stop-color="#ffc036"/><stop offset="1" stop-color="#ff8d00"/></linearGradient><linearGradient id="kaypU" x1="759.5" x2="794.83" y1="1360.18" y2="1370.62" gradientUnits="userSpaceOnUse"><stop offset="0" stop-color="#ffc036"/><stop offset="1" stop-color="#ff8d00"/></linearGradient><linearGradient id="kaypW" x1="764.89" x2="781.72" y1="1359.49" y2="1370.6" gradientUnits="userSpaceOnUse"><stop offset="0" stop-color="#ffc036"/><stop offset="1" stop-color="#ff8d00"/></linearGradient><linearGradient id="kaypY" x1="782.32" x2="763.53" y1="1373.79" y2="1356.67" gradientUnits="userSpaceOnUse"><stop offset="0" stop-color="#ffc036"/><stop offset="1" stop-color="#ff8d00"/></linearGradient><linearGradient id="kaypaa" x1="771.29" x2="772.16" y1="1363.04" y2="1353.51" gradientUnits="userSpaceOnUse"><stop offset="0" stop-color="#ffc036"/><stop offset="1" stop-color="#ff8d00"/></linearGradient><linearGradient id="kaypac" x1="771.09" x2="772.21" y1="1363.7" y2="1351.52" gradientUnits="userSpaceOnUse"><stop offset="0" stop-color="#ffc036"/><stop offset="1" stop-color="#ff8d00"/></linearGradient><linearGradient id="kaypae" x1="759.8" x2="795.13" y1="1354.35" y2="1364.79" gradientUnits="userSpaceOnUse"><stop offset="0" stop-color="#ffc036"/><stop offset="1" stop-color="#ff8d00"/></linearGradient><linearGradient id="kaypag" x1="765.2" x2="782.03" y1="1353.66" y2="1364.75" gradientUnits="userSpaceOnUse"><stop offset="0" stop-color="#ffc036"/><stop offset="1" stop-color="#ff8d00"/></linearGradient><linearGradient id="kaypai" x1="782.63" x2="763.84" y1="1367.96" y2="1350.84" gradientUnits="userSpaceOnUse"><stop offset="0" stop-color="#ffc036"/><stop offset="1" stop-color="#ff8d00"/></linearGradient><linearGradient id="kaypak" x1="765.67" x2="774.36" y1="1384.13" y2="1384.13" gradientUnits="userSpaceOnUse"><stop offset="0" stop-color="#00c6e4"/><stop offset="1" stop-color="#0084f1"/></linearGradient><linearGradient id="kaypam" x1="753.99" x2="769.75" y1="1371.78" y2="1385.18" gradientUnits="userSpaceOnUse"><stop offset="0" stop-color="#00c6e4"/><stop offset="1" stop-color="#0084f1"/></linearGradient><linearGradient id="kaypao" x1="771.37" x2="774.36" y1="1379.99" y2="1379.99" gradientUnits="userSpaceOnUse"><stop offset="0" stop-color="#00c6e4"/><stop offset="1" stop-color="#0084f1"/></linearGradient><linearGradient id="kaypaq" x1="759.06" x2="774.36" y1="1389.86" y2="1389.86" gradientUnits="userSpaceOnUse"><stop offset="0" stop-color="#00c6e4"/><stop offset="1" stop-color="#0084f1"/></linearGradient><linearGradient id="kaypas" x1="753.24" x2="788.53" y1="1364.84" y2="1391.41" gradientUnits="userSpaceOnUse"><stop offset="0" stop-color="#00c6e4"/><stop offset="1" stop-color="#0084f1"/></linearGradient><linearGradient id="kaypau" x1="766.9" x2="768.84" y1="1373.21" y2="1365.2" gradientUnits="userSpaceOnUse"><stop offset="0" stop-color="#00c6e4"/><stop offset="1" stop-color="#0084f1"/></linearGradient><linearGradient id="kaypaw" x1="764.46" x2="761.19" y1="1365.91" y2="1374.05" gradientUnits="userSpaceOnUse"><stop offset="0" stop-color="#00c6e4"/><stop offset="1" stop-color="#0084f1"/></linearGradient><linearGradient id="kaypay" x1="761.1" x2="764.92" y1="1385.9" y2="1414.66" gradientUnits="userSpaceOnUse"><stop offset="0" stop-color="#00c6e4"/><stop offset="1" stop-color="#0084f1"/></linearGradient><linearGradient id="kaypaA" x1="758.91" x2="752.74" y1="1384.06" y2="1398.3" gradientUnits="userSpaceOnUse"><stop offset="0" stop-color="#00c6e4"/><stop offset="1" stop-color="#0084f1"/></linearGradient><linearGradient id="kaypaC" x1="750.56" x2="755.63" y1="1372.66" y2="1384.89" gradientUnits="userSpaceOnUse"><stop offset="0" stop-color="#00c6e4"/><stop offset="1" stop-color="#0084f1"/></linearGradient><linearGradient id="kaypaE" x1="752.63" x2="776.16" y1="1389.49" y2="1351.75" gradientUnits="userSpaceOnUse"><stop offset="0" stop-color="#00c6e4"/><stop offset="1" stop-color="#0084f1"/></linearGradient></defs><g><g transform="translate(-735 -1351)"><g><g><use fill="url(#kaypb)" xlink:href="#kaypa"/></g><g><use fill="#00afb5" xlink:href="#kaypc"/></g><g><use fill="#00afb5" xlink:href="#kaypd"/></g><g><use fill="#00afb5" xlink:href="#kaype"/></g><g><use fill="#00afb5" xlink:href="#kaypf"/></g><g><use fill="#00afb5" xlink:href="#kaypg"/></g><g><use fill="#00afb5" xlink:href="#kayph"/></g><g><use fill="#00afb5" xlink:href="#kaypi"/></g><g><use fill="#00afb5" xlink:href="#kaypj"/></g><g><use fill="#00afb5" xlink:href="#kaypk"/></g><g><use fill="#00afb5" xlink:href="#kaypl"/></g><g><use fill="url(#kaypn)" xlink:href="#kaypm"/></g><g><use fill="url(#kaypp)" xlink:href="#kaypo"/></g><g><use fill="#00afb5" xlink:href="#kaypq"/></g><g><use fill="#00afb5" xlink:href="#kaypr"/></g><g><use fill="#00afb5" xlink:href="#kayps"/></g><g><use fill="url(#kaypu)" xlink:href="#kaypt"/></g></g><g><g><use fill="url(#kaypw)" xlink:href="#kaypv"/></g><g><use fill="url(#kaypy)" xlink:href="#kaypx"/></g><g><use fill="url(#kaypA)" xlink:href="#kaypz"/></g><g><use fill="url(#kaypC)" xlink:href="#kaypB"/></g><g><use fill="url(#kaypE)" xlink:href="#kaypD"/></g></g><g><g><use fill="url(#kaypG)" xlink:href="#kaypF"/></g><g><use fill="url(#kaypI)" xlink:href="#kaypH"/></g><g><use fill="url(#kaypK)" xlink:href="#kaypJ"/></g><g><use fill="url(#kaypM)" xlink:href="#kaypL"/></g><g><use fill="url(#kaypO)" xlink:href="#kaypN"/></g></g><g><g><use fill="url(#kaypQ)" xlink:href="#kaypP"/></g><g><use fill="url(#kaypS)" xlink:href="#kaypR"/></g><g><use fill="url(#kaypU)" xlink:href="#kaypT"/></g><g><use fill="url(#kaypW)" xlink:href="#kaypV"/></g><g><use fill="url(#kaypY)" xlink:href="#kaypX"/></g></g><g><g><use fill="url(#kaypaa)" xlink:href="#kaypZ"/></g><g><use fill="url(#kaypac)" xlink:href="#kaypab"/></g><g><use fill="url(#kaypae)" xlink:href="#kaypad"/></g><g><use fill="url(#kaypag)" xlink:href="#kaypaf"/></g><g><use fill="url(#kaypai)" xlink:href="#kaypah"/></g></g><g><use fill="url(#kaypak)" xlink:href="#kaypaj"/></g><g><use fill="url(#kaypam)" xlink:href="#kaypal"/></g><g><use fill="url(#kaypao)" xlink:href="#kaypan"/></g><g><use fill="url(#kaypaq)" xlink:href="#kaypap"/></g><g><use fill="url(#kaypas)" xlink:href="#kaypar"/></g><g><use fill="url(#kaypau)" xlink:href="#kaypat"/></g><g><use fill="url(#kaypaw)" xlink:href="#kaypav"/></g><g><use fill="url(#kaypay)" xlink:href="#kaypax"/></g><g><use fill="url(#kaypaA)" xlink:href="#kaypaz"/></g><g><use fill="url(#kaypaC)" xlink:href="#kaypaB"/></g><g><use fill="url(#kaypaE)" xlink:href="#kaypaD"/></g></g></g></svg>