<svg xmlns="http://www.w3.org/2000/svg" xmlns:xlink="http://www.w3.org/1999/xlink" width="50" height="45" viewBox="0 0 50 45"><defs><path id="wl93a" d="M164.97 1363.38c0-1.9 1.49-4.06 3.37-4.9v-6.92a2.37 2.37 0 0 0-3.29-2.21l-28.72 11.87a3.4 3.4 0 0 0-2.11 3.13v7.28c1.89-.84 3.38.04 3.38 1.9 0 1.9-1.5 4.06-3.38 4.9v5.33a2.37 2.37 0 0 0 3.29 2.2l28.73-11.86a3.4 3.4 0 0 0 2.1-3.13l-.79-5.08c-1.88.84-2.58-.66-2.58-2.51z"/><path id="wl93c" d="M169.96 1353.36l-3.11-1.23v-2.78l3.11 1.24z"/><path id="wl93e" d="M137.33 1372.91l-3.11-1.23v-2.78l3.11 1.24z"/><path id="wl93g" d="M138.73 1387.2l-3.11-1.23v-2.78l3.11 1.24z"/><path id="wl93i" d="M171.37 1369.21l-4.39-1.72v-2.78l4.39 1.72z"/><path id="wl93k" d="M168 1364.58c0-1.9 1.49-4.06 3.37-4.9v-6.88a2.37 2.37 0 0 0-3.29-2.21l-28.72 11.87a3.4 3.4 0 0 0-2.11 3.13v7.28c1.89-.84 3.38.04 3.38 1.9 0 1.9-1.5 4.06-3.38 4.9v5.33a2.37 2.37 0 0 0 3.29 2.2l28.73-11.86a3.4 3.4 0 0 0 2.1-3.13v-5.74c-1.84.84-3.37 0-3.37-1.9z"/><path id="wl93m" d="M166.85 1364.84c0-1.54.7-4.19 2.94-5.56v-5.3c0-.87-.92-1.5-1.71-1.14l-27.8 11.38c-.62.27-1.06.89-1.06 1.6v5.07c1.8 0 3.29 1.19 3.29 3.44 0 3.13-1.71 5.25-3.29 5.9v3.54c0 .88.92 1.5 1.71 1.14l27.76-11.55a1.74 1.74 0 0 0 1.06-1.6v-3.48c-2.2-.35-2.9-1.9-2.9-3.44z"/><path id="wl93n" d="M177.2 1369.69c0-1.9 1.5-4.06 3.38-4.9v-6.92a2.37 2.37 0 0 0-3.29-2.21l-28.72 11.87a3.4 3.4 0 0 0-2.11 3.13v7.28c1.89-.84 3.38.04 3.38 1.9 0 1.9-1.5 4.06-3.38 4.9v5.33a2.37 2.37 0 0 0 3.29 2.2l28.73-11.86a3.4 3.4 0 0 0 2.1-3.13l-.79-5.08c-1.84.84-2.58-.66-2.58-2.51z"/><path id="wl93p" d="M182.2 1359.67l-3.11-1.23v-2.78l3.11 1.24z"/><path id="wl93r" d="M149.57 1379.22l-3.07-1.23v-2.78l3.07 1.24z"/><path id="wl93t" d="M150.97 1393.51l-3.07-1.23v-2.78l3.07 1.24z"/><path id="wl93v" d="M183.65 1375.51l-4.43-1.72V1371l4.43 1.72z"/><path id="wl93x" d="M180.23 1370.89c0-1.9 1.5-4.06 3.38-4.9v-6.88a2.37 2.37 0 0 0-3.3-2.21l-28.67 11.87a3.4 3.4 0 0 0-2.11 3.13v7.28c1.89-.84 3.38.04 3.38 1.9 0 1.9-1.5 4.06-3.38 4.9v5.33a2.37 2.37 0 0 0 3.29 2.2l28.73-11.86a3.4 3.4 0 0 0 2.1-3.13v-5.74c-1.88.84-3.42 0-3.42-1.9z"/><path id="wl93z" d="M179.09 1371.15c0-1.54.7-4.19 2.94-5.56v-5.3c0-.87-.92-1.5-1.71-1.14l-27.77 11.38c-.61.27-1.05.89-1.05 1.6v5.07c1.8 0 3.29 1.19 3.29 3.44 0 3.13-1.71 5.25-3.29 5.9v3.54c0 .88.92 1.5 1.71 1.14l27.76-11.55a1.74 1.74 0 0 0 1.06-1.6v-3.48c-2.24-.35-2.94-1.9-2.94-3.44z"/><path id="wl93A" d="M159.1 1376.53l-1.24 1.1-.26-1.05 1.67-1.5 1.22-.49.1 6.57-1.45.58z"/><path id="wl93B" d="M169.03 1375.47c0-.61-.3-1.01-.96-.75-.39.18-.74.58-.87.93-.04.09-.04.22-.04.4.04.7.35 1.19 1.04.92.53-.17.83-.83.83-1.5zm.8-3.61c-.17.04-.35.13-.57.26-1.31.66-1.88 1.59-2.06 2.43h.05c.3-.44.74-.84 1.35-1.06 1.06-.44 1.98 0 1.98 1.37a3.8 3.8 0 0 1-2.33 3.35c-1.7.7-2.54-.26-2.54-1.85 0-1.24.4-2.47 1.1-3.4a6.46 6.46 0 0 1 3.07-2.25z"/><path id="wl93C" d="M172.55 1371.8c0 .58.31.93.92.71.4-.17.7-.48.83-.75.05-.13.09-.22.09-.4 0-.7-.26-1.27-.96-1-.53.12-.88.74-.88 1.45zm-.83 3.67c.17-.04.35-.13.66-.26a3.62 3.62 0 0 0 2.01-2.48h-.04c-.26.45-.7.75-1.27 1.02-1.1.44-1.98.04-2.02-1.24a3.9 3.9 0 0 1 2.37-3.35c1.62-.66 2.41.31 2.45 1.85 0 1.37-.39 2.56-1.05 3.49a6.12 6.12 0 0 1-3.07 2.16z"/><path id="wl93D" d="M164.18 1376.04v1.46l-2.02.83v-1.45z"/><linearGradient id="wl93b" x1="193.57" x2="112.03" y1="1329.54" y2="1403.07" gradientUnits="userSpaceOnUse"><stop offset="0" stop-color="#ffc036"/><stop offset="1" stop-color="#ff8d00"/></linearGradient><linearGradient id="wl93d" x1="193.11" x2="111.67" y1="1329.03" y2="1402.65" gradientUnits="userSpaceOnUse"><stop offset="0" stop-color="#ffc036"/><stop offset="1" stop-color="#ff8d00"/></linearGradient><linearGradient id="wl93f" x1="188.19" x2="106.75" y1="1323.63" y2="1397.07" gradientUnits="userSpaceOnUse"><stop offset="0" stop-color="#ffc036"/><stop offset="1" stop-color="#ff8d00"/></linearGradient><linearGradient id="wl93h" x1="196.07" x2="114.37" y1="1332.14" y2="1405.76" gradientUnits="userSpaceOnUse"><stop offset="0" stop-color="#ffc036"/><stop offset="1" stop-color="#ff8d00"/></linearGradient><linearGradient id="wl93j" x1="239" x2="142.11" y1="1304.07" y2="1391.34" gradientUnits="userSpaceOnUse"><stop offset="0" stop-color="#ffc036"/><stop offset="1" stop-color="#ff8d00"/></linearGradient><linearGradient id="wl93l" x1="145.33" x2="179.43" y1="1368.89" y2="1368.89" gradientUnits="userSpaceOnUse"><stop offset="0" stop-color="#ffc036"/><stop offset="1" stop-color="#ff8d00"/></linearGradient><linearGradient id="wl93o" x1="205.83" x2="124.29" y1="1335.85" y2="1409.37" gradientUnits="userSpaceOnUse"><stop offset="0" stop-color="#ffc036"/><stop offset="1" stop-color="#ff8d00"/></linearGradient><linearGradient id="wl93q" x1="195.29" x2="113.85" y1="1344.45" y2="1418.07" gradientUnits="userSpaceOnUse"><stop offset="0" stop-color="#ffc036"/><stop offset="1" stop-color="#ff8d00"/></linearGradient><linearGradient id="wl93s" x1="200.51" x2="118.97" y1="1329.94" y2="1403.38" gradientUnits="userSpaceOnUse"><stop offset="0" stop-color="#ffc036"/><stop offset="1" stop-color="#ff8d00"/></linearGradient><linearGradient id="wl93u" x1="208.2" x2="126.66" y1="1338.58" y2="1412.02" gradientUnits="userSpaceOnUse"><stop offset="0" stop-color="#ffc036"/><stop offset="1" stop-color="#ff8d00"/></linearGradient><linearGradient id="wl93w" x1="251.2" x2="154.39" y1="1310.36" y2="1397.64" gradientUnits="userSpaceOnUse"><stop offset="0" stop-color="#ffc036"/><stop offset="1" stop-color="#ff8d00"/></linearGradient><linearGradient id="wl93y" x1="157.59" x2="191.68" y1="1375.19" y2="1375.19" gradientUnits="userSpaceOnUse"><stop offset="0" stop-color="#ffc036"/><stop offset="1" stop-color="#ff8d00"/></linearGradient></defs><g><g transform="translate(-134 -1349)"><g><g><g><g><use fill="url(#wl93b)" xlink:href="#wl93a"/></g><g><use fill="url(#wl93d)" xlink:href="#wl93c"/></g><g><use fill="url(#wl93f)" xlink:href="#wl93e"/></g><g><use fill="url(#wl93h)" xlink:href="#wl93g"/></g><g><use fill="url(#wl93j)" xlink:href="#wl93i"/></g></g><g><use fill="url(#wl93l)" xlink:href="#wl93k"/></g><g><use fill="#fff" fill-opacity="0" stroke="#ff8400" stroke-miterlimit="50" stroke-width=".5" xlink:href="#wl93m"/></g></g><g><g><g><use fill="url(#wl93o)" xlink:href="#wl93n"/></g><g><use fill="url(#wl93q)" xlink:href="#wl93p"/></g><g><use fill="url(#wl93s)" xlink:href="#wl93r"/></g><g><use fill="url(#wl93u)" xlink:href="#wl93t"/></g><g><use fill="url(#wl93w)" xlink:href="#wl93v"/></g></g><g><use fill="url(#wl93y)" xlink:href="#wl93x"/></g><g><use fill="#fff" fill-opacity="0" stroke="#ff8400" stroke-miterlimit="50" stroke-width=".5" xlink:href="#wl93z"/></g></g></g><g><g><g><use fill="#ee7b00" xlink:href="#wl93A"/></g><g><use fill="#ee7b00" xlink:href="#wl93B"/></g><g><use fill="#ee7b00" xlink:href="#wl93C"/></g><g><use fill="#ee7b00" xlink:href="#wl93D"/></g></g></g></g></g></svg>