<svg xmlns="http://www.w3.org/2000/svg" xmlns:xlink="http://www.w3.org/1999/xlink" width="10" height="10" viewBox="0 0 10 10"><defs><path id="c6lba" d="M1678.71 652.3a1 1 0 0 1 0 1.41c-.2.2-.45.3-.7.3-.27 0-.52-.1-.72-.3l-3.29-3.29-3.29 3.3c-.2.18-.45.28-.7.28-.27 0-.52-.1-.72-.29a1 1 0 0 1 0-1.42l3.3-3.29-3.3-3.29a1 1 0 0 1 0-1.42 1 1 0 0 1 1.42 0l3.3 3.3 3.28-3.3a1 1 0 0 1 1.42 0 1 1 0 0 1 0 1.42l-3.3 3.3z"/></defs><g><g transform="translate(-1669 -644)"><use fill="#737596" xlink:href="#c6lba"/></g></g></svg>