<svg xmlns:xlink="http://www.w3.org/1999/xlink" width="10" height="20" viewBox="0 0 10 20">
  <defs>
    <path id="a" d="M1135.39 2300l.07.01.08.01h1.6c.34 0 .63.12.87.36s.37.54.37.89v1.87c0 .34-.13.64-.38.88a1.2 1.2 0 0 1-.88.37h-1.24v1.24h1.9c.2 0 .39.04.57.12.17.09.32.21.44.38.11.16.19.33.23.52.04.19.03.38-.04.58l-.43 1.87c-.08.26-.23.48-.45.65-.22.17-.47.25-.76.25h-1.46v8.1c0 .36-.13.65-.38.9-.24.24-.54.36-.88.36h-1.87a1.2 1.2 0 0 1-.89-.37 1.2 1.2 0 0 1-.36-.88V2310h-1.25a1.2 1.2 0 0 1-.88-.37 1.2 1.2 0 0 1-.37-.88v-1.88a1.29 1.29 0 0 1 1.25-1.25h1.25v-1.66c0-.96.19-1.7.57-2.23a3.67 3.67 0 0 1 2.38-1.62c.4-.07.72-.11.94-.11zm0 1.25c-.26 0-.77.13-1.52.4s-1.12 1.04-1.12 2.31v2.91h-2.5v1.88h2.5v9.37h1.88v-9.37h2.71l.45-1.88h-3.16v-2.96l.1-.38c.07-.26.33-.39.77-.39h1.63v-1.87h-1.63l-.03-.01a.3.3 0 0 0-.08-.01z"/>
  </defs>
  <use fill="#fff" transform="translate(-1129 -2300)" xlink:href="#a"/>
</svg>
