<svg xmlns="http://www.w3.org/2000/svg" xmlns:xlink="http://www.w3.org/1999/xlink" viewBox="0 0 43 34">
  <defs>
    <path id="b" d="M239.68 755.16c0-2.76 5.42-5 12.1-5 6.67 0 12.09 2.24 12.09 5s-5.42 5-12.1 5c-6.67 0-12.09-2.24-12.09-5z"/>
    <path id="d" d="M239.68 755.24v-3.12h24.19v3.12z"/>
    <path id="f" d="M239.68 752.12c0-2.76 5.42-5 12.1-5 6.67 0 12.09 2.24 12.09 5s-5.42 5-12.1 5c-6.67 0-12.09-2.24-12.09-5z"/>
    <path id="h" d="M242.62 752.12c0-2.1 4.1-3.8 9.16-3.8 5.07 0 9.17 1.7 9.17 3.8 0 2.1-4.1 3.8-9.16 3.8-5.07 0-9.17-1.7-9.17-3.8z"/>
    <path id="j" d="M243.62 752.36c0-2 3.94-3.64 8.77-3.64 3.81 0 7.07 1 8.27 2.44-1-1.64-4.62-2.84-8.88-2.84-5.06 0-9.16 1.72-9.16 3.8 0 1.76 2.93 3.24 6.87 3.68-3.41-.48-5.87-1.84-5.87-3.44z"/>
    <path id="l" d="M240.97 751.16c0-2.76 5.42-5 12.1-5 6.67 0 12.09 2.24 12.09 5s-5.42 5-12.1 5c-6.67 0-12.09-2.24-12.09-5z"/>
    <path id="n" d="M240.97 751.24v-3.12h24.19v3.12z"/>
    <path id="p" d="M240.97 748.12c0-2.76 5.42-5 12.1-5 6.67 0 12.09 2.24 12.09 5s-5.42 5-12.1 5c-6.67 0-12.09-2.24-12.09-5z"/>
    <path id="r" d="M243.9 748.12c0-2.1 4.1-3.8 9.16-3.8 5.07 0 9.17 1.7 9.17 3.8 0 2.1-4.1 3.8-9.16 3.8-5.07 0-9.17-1.7-9.17-3.8z"/>
    <path id="t" d="M244.86 748.36c0-2 3.94-3.64 8.77-3.64 3.81 0 7.07 1 8.27 2.44-1-1.64-4.62-2.84-8.88-2.84-5.06 0-9.16 1.72-9.16 3.8 0 1.76 2.93 3.24 6.87 3.68-3.41-.48-5.87-1.84-5.87-3.44z"/>
    <path id="v" d="M239.2 746.92c0-2.76 5.42-5 12.1-5 6.67 0 12.09 2.24 12.09 5s-5.42 5-12.1 5c-6.67 0-12.09-2.24-12.09-5z"/>
    <path id="x" d="M239.2 747v-3.12h24.19V747z"/>
    <path id="z" d="M239.2 743.92c0-2.76 5.42-5 12.1-5 6.67 0 12.09 2.24 12.09 5s-5.42 5-12.1 5c-6.67 0-12.09-2.24-12.09-5z"/>
    <path id="B" d="M242.13 743.92c0-2.1 4.1-3.8 9.16-3.8 5.07 0 9.17 1.7 9.17 3.8 0 2.1-4.1 3.8-9.16 3.8-5.07 0-9.17-1.7-9.17-3.8z"/>
    <path id="D" d="M243.13 744.16c0-2 3.94-3.64 8.77-3.64 3.81 0 7.07 1 8.27 2.44-1-1.64-4.62-2.84-8.88-2.84-5.06 0-9.16 1.72-9.16 3.8 0 1.76 2.93 3.24 6.87 3.68-3.41-.52-5.87-1.88-5.87-3.44z"/>
    <path id="F" d="M241.73 743.16c0-2.76 5.42-5 12.1-5 6.67 0 12.09 2.24 12.09 5s-5.42 5-12.1 5c-6.67 0-12.09-2.24-12.09-5z"/>
    <path id="H" d="M241.73 743.24v-3.12h24.19v3.12z"/>
    <path id="J" d="M241.73 740.12c0-2.76 5.42-5 12.1-5 6.67 0 12.09 2.24 12.09 5s-5.42 5-12.1 5c-6.67 0-12.09-2.24-12.09-5z"/>
    <path id="L" d="M244.67 740.12c0-2.1 4.1-3.8 9.16-3.8 5.07 0 9.17 1.7 9.17 3.8 0 2.1-4.1 3.8-9.16 3.8-5.07 0-9.17-1.7-9.17-3.8z"/>
    <path id="N" d="M245.63 740.36c0-2 3.94-3.64 8.77-3.64 3.81 0 7.07 1 8.27 2.44-1-1.64-4.62-2.84-8.88-2.84-5.06 0-9.16 1.72-9.16 3.8 0 1.76 2.93 3.24 6.87 3.68-3.37-.48-5.87-1.84-5.87-3.44z"/>
    <path id="P" d="M240.25 739.16c0-2.76 5.42-5 12.1-5 6.67 0 12.09 2.24 12.09 5s-5.42 5-12.1 5c-6.67 0-12.09-2.24-12.09-5z"/>
    <path id="R" d="M240.25 739.2v-3.12h24.19v3.12z"/>
    <path id="T" d="M240.25 736.12c0-2.76 5.42-5 12.1-5 6.67 0 12.09 2.24 12.09 5s-5.42 5-12.1 5c-6.67 0-12.09-2.24-12.09-5z"/>
    <path id="V" d="M243.18 736.12c0-2.1 4.1-3.8 9.16-3.8 5.07 0 9.17 1.7 9.17 3.8 0 2.1-4.1 3.8-9.16 3.8-5.07 0-9.17-1.7-9.17-3.8z"/>
    <path id="X" d="M244.18 736.36c0-2 3.94-3.64 8.77-3.64 3.81 0 7.07 1 8.27 2.44-1-1.64-4.62-2.84-8.88-2.84-5.06 0-9.16 1.72-9.16 3.8 0 1.76 2.93 3.24 6.87 3.68-3.41-.52-5.87-1.88-5.87-3.44z"/>
    <path id="Z" d="M257 759.72c0-2.76 5.42-5 12.1-5 6.67 0 12.09 2.24 12.09 5s-5.42 5-12.1 5c-6.67 0-12.09-2.24-12.09-5z"/>
    <path id="ab" d="M257 759.8v-3.12h24.19v3.12z"/>
    <path id="ad" d="M257 756.68c0-2.76 5.42-5 12.1-5 6.67 0 12.09 2.24 12.09 5s-5.42 5-12.1 5c-6.67 0-12.09-2.24-12.09-5z"/>
    <path id="af" d="M259.94 756.68c0-2.1 4.1-3.8 9.16-3.8 5.07 0 9.17 1.7 9.17 3.8 0 2.1-4.1 3.8-9.16 3.8-5.07 0-9.17-1.7-9.17-3.8z"/>
    <path id="ah" d="M260.9 756.92c0-2 3.94-3.64 8.77-3.64 3.81 0 7.07 1 8.27 2.44-1-1.64-4.62-2.84-8.88-2.84-5.06 0-9.16 1.72-9.16 3.8 0 1.76 2.93 3.24 6.87 3.68-3.41-.52-5.87-1.84-5.87-3.44z"/>
    <path id="aj" d="M257.53 755.76c0-2.76 5.42-5 12.1-5 6.67 0 12.09 2.24 12.09 5s-5.42 5-12.1 5c-6.67 0-12.09-2.24-12.09-5z"/>
    <path id="al" d="M257.53 755.84v-3.12h24.19v3.12z"/>
    <path id="an" d="M257.53 752.72c0-2.76 5.42-5 12.1-5 6.67 0 12.09 2.24 12.09 5s-5.42 5-12.1 5c-6.67 0-12.09-2.24-12.09-5z"/>
    <path id="ap" d="M260.46 752.72c0-2.1 4.1-3.8 9.16-3.8 5.07 0 9.17 1.7 9.17 3.8 0 2.1-4.1 3.8-9.16 3.8-5.07 0-9.17-1.7-9.17-3.8z"/>
    <path id="ar" d="M261.42 752.96c0-2 3.94-3.64 8.77-3.64 3.81 0 7.07 1 8.27 2.44-1-1.64-4.62-2.84-8.88-2.84-5.06 0-9.16 1.72-9.16 3.8 0 1.76 2.93 3.24 6.87 3.68-3.37-.52-5.87-1.84-5.87-3.44z"/>
    <linearGradient id="a" x1="251.61" x2="252.46" y1="757.24" y2="747.93" gradientUnits="userSpaceOnUse">
      <stop offset="0" stop-color="#a19eb5"/>
      <stop offset="1" stop-color="#4a4571"/>
    </linearGradient>
    <linearGradient id="c" x1="251.41" x2="252.5" y1="757.89" y2="745.98" gradientUnits="userSpaceOnUse">
      <stop offset="0" stop-color="#a19eb5"/>
      <stop offset="1" stop-color="#4a4571"/>
    </linearGradient>
    <linearGradient id="e" x1="251.85" x2="251.74" y1="743.89" y2="760.52" gradientUnits="userSpaceOnUse">
      <stop offset="0" stop-color="#a19eb5"/>
      <stop offset="1" stop-color="#4a4571"/>
    </linearGradient>
    <linearGradient id="g" x1="246.59" x2="263.97" y1="745.49" y2="767.65" gradientUnits="userSpaceOnUse">
      <stop offset="0" stop-color="#a19eb5"/>
      <stop offset="1" stop-color="#4a4571"/>
    </linearGradient>
    <linearGradient id="i" x1="251.29" x2="232.88" y1="751.66" y2="734.93" gradientUnits="userSpaceOnUse">
      <stop offset="0" stop-color="#a19eb5"/>
      <stop offset=".04" stop-color="#9895ae"/>
      <stop offset=".19" stop-color="#7c7898"/>
      <stop offset=".36" stop-color="#666187"/>
      <stop offset=".53" stop-color="#56517a"/>
      <stop offset=".73" stop-color="#4d4873"/>
      <stop offset="1" stop-color="#4a4571"/>
    </linearGradient>
    <linearGradient id="k" x1="252.86" x2="253.71" y1="753.24" y2="743.93" gradientUnits="userSpaceOnUse">
      <stop offset="0" stop-color="#a19eb5"/>
      <stop offset="1" stop-color="#4a4571"/>
    </linearGradient>
    <linearGradient id="m" x1="252.66" x2="253.75" y1="753.89" y2="741.98" gradientUnits="userSpaceOnUse">
      <stop offset="0" stop-color="#a19eb5"/>
      <stop offset="1" stop-color="#4a4571"/>
    </linearGradient>
    <linearGradient id="o" x1="253.04" x2="253.04" y1="735.39" y2="752.94" gradientUnits="userSpaceOnUse">
      <stop offset="0" stop-color="#a19eb5"/>
      <stop offset="1" stop-color="#4a4571"/>
    </linearGradient>
    <linearGradient id="q" x1="247.83" x2="265.23" y1="741.49" y2="763.65" gradientUnits="userSpaceOnUse">
      <stop offset="0" stop-color="#a19eb5"/>
      <stop offset="1" stop-color="#4a4571"/>
    </linearGradient>
    <linearGradient id="s" x1="251.98" x2="243.21" y1="747.86" y2="745.65" gradientUnits="userSpaceOnUse">
      <stop offset="0" stop-color="#a19eb5"/>
      <stop offset=".04" stop-color="#9895ae"/>
      <stop offset=".19" stop-color="#7c7898"/>
      <stop offset=".36" stop-color="#666187"/>
      <stop offset=".53" stop-color="#56517a"/>
      <stop offset=".73" stop-color="#4d4873"/>
      <stop offset="1" stop-color="#4a4571"/>
    </linearGradient>
    <linearGradient id="u" x1="251.11" x2="251.96" y1="749.01" y2="739.7" gradientUnits="userSpaceOnUse">
      <stop offset="0" stop-color="#a19eb5"/>
      <stop offset="1" stop-color="#4a4571"/>
    </linearGradient>
    <linearGradient id="w" x1="250.91" x2="252" y1="749.66" y2="737.75" gradientUnits="userSpaceOnUse">
      <stop offset="0" stop-color="#a19eb5"/>
      <stop offset="1" stop-color="#4a4571"/>
    </linearGradient>
    <linearGradient id="y" x1="251.3" x2="251.3" y1="731.16" y2="748.72" gradientUnits="userSpaceOnUse">
      <stop offset="0" stop-color="#a19eb5"/>
      <stop offset="1" stop-color="#4a4571"/>
    </linearGradient>
    <linearGradient id="A" x1="246.09" x2="263.48" y1="737.26" y2="759.42" gradientUnits="userSpaceOnUse">
      <stop offset="0" stop-color="#a19eb5"/>
      <stop offset="1" stop-color="#4a4571"/>
    </linearGradient>
    <linearGradient id="C" x1="250.23" x2="241.46" y1="743.63" y2="741.43" gradientUnits="userSpaceOnUse">
      <stop offset="0" stop-color="#a19eb5"/>
      <stop offset=".04" stop-color="#9895ae"/>
      <stop offset=".19" stop-color="#7c7898"/>
      <stop offset=".36" stop-color="#666187"/>
      <stop offset=".53" stop-color="#56517a"/>
      <stop offset=".73" stop-color="#4d4873"/>
      <stop offset="1" stop-color="#4a4571"/>
    </linearGradient>
    <linearGradient id="E" x1="253.63" x2="254.49" y1="745.24" y2="735.93" gradientUnits="userSpaceOnUse">
      <stop offset="0" stop-color="#a19eb5"/>
      <stop offset="1" stop-color="#4a4571"/>
    </linearGradient>
    <linearGradient id="G" x1="253.44" x2="254.53" y1="745.89" y2="733.98" gradientUnits="userSpaceOnUse">
      <stop offset="0" stop-color="#a19eb5"/>
      <stop offset="1" stop-color="#4a4571"/>
    </linearGradient>
    <linearGradient id="I" x1="254.21" x2="253.7" y1="729.23" y2="743.55" gradientUnits="userSpaceOnUse">
      <stop offset="0" stop-color="#a19eb5"/>
      <stop offset="1" stop-color="#4a4571"/>
    </linearGradient>
    <linearGradient id="K" x1="248.62" x2="266" y1="733.49" y2="755.65" gradientUnits="userSpaceOnUse">
      <stop offset="0" stop-color="#a19eb5"/>
      <stop offset="1" stop-color="#4a4571"/>
    </linearGradient>
    <linearGradient id="M" x1="253.31" x2="234.91" y1="739.67" y2="722.93" gradientUnits="userSpaceOnUse">
      <stop offset="0" stop-color="#a19eb5"/>
      <stop offset=".04" stop-color="#9895ae"/>
      <stop offset=".19" stop-color="#7c7898"/>
      <stop offset=".36" stop-color="#666187"/>
      <stop offset=".53" stop-color="#56517a"/>
      <stop offset=".73" stop-color="#4d4873"/>
      <stop offset="1" stop-color="#4a4571"/>
    </linearGradient>
    <linearGradient id="O" x1="252.16" x2="253.02" y1="741.21" y2="731.91" gradientUnits="userSpaceOnUse">
      <stop offset="0" stop-color="#a19eb5"/>
      <stop offset="1" stop-color="#4a4571"/>
    </linearGradient>
    <linearGradient id="Q" x1="251.97" x2="253.06" y1="741.87" y2="729.95" gradientUnits="userSpaceOnUse">
      <stop offset="0" stop-color="#a19eb5"/>
      <stop offset="1" stop-color="#4a4571"/>
    </linearGradient>
    <linearGradient id="S" x1="267.81" x2="228.98" y1="737.97" y2="733.28" gradientUnits="userSpaceOnUse">
      <stop offset="0" stop-color="#a19eb5"/>
      <stop offset="1" stop-color="#4a4571"/>
    </linearGradient>
    <linearGradient id="U" x1="266.32" x2="239.18" y1="738.84" y2="733.53" gradientUnits="userSpaceOnUse">
      <stop offset="0" stop-color="#a19eb5"/>
      <stop offset="1" stop-color="#4a4571"/>
    </linearGradient>
    <linearGradient id="W" x1="263.26" x2="244.86" y1="746.02" y2="729.29" gradientUnits="userSpaceOnUse">
      <stop offset="0" stop-color="#a19eb5"/>
      <stop offset=".04" stop-color="#9895ae"/>
      <stop offset=".19" stop-color="#7c7898"/>
      <stop offset=".36" stop-color="#666187"/>
      <stop offset=".53" stop-color="#56517a"/>
      <stop offset=".73" stop-color="#4d4873"/>
      <stop offset="1" stop-color="#4a4571"/>
    </linearGradient>
    <linearGradient id="Y" x1="268.89" x2="269.74" y1="761.78" y2="752.47" gradientUnits="userSpaceOnUse">
      <stop offset="0" stop-color="#a19eb5"/>
      <stop offset="1" stop-color="#4a4571"/>
    </linearGradient>
    <linearGradient id="aa" x1="268.69" x2="269.79" y1="762.44" y2="750.52" gradientUnits="userSpaceOnUse">
      <stop offset="0" stop-color="#a19eb5"/>
      <stop offset="1" stop-color="#4a4571"/>
    </linearGradient>
    <linearGradient id="ac" x1="269.46" x2="268.96" y1="745.78" y2="760.1" gradientUnits="userSpaceOnUse">
      <stop offset="0" stop-color="#a19eb5"/>
      <stop offset="1" stop-color="#4a4571"/>
    </linearGradient>
    <linearGradient id="ae" x1="263.87" x2="281.26" y1="750.03" y2="772.19" gradientUnits="userSpaceOnUse">
      <stop offset="0" stop-color="#a19eb5"/>
      <stop offset="1" stop-color="#4a4571"/>
    </linearGradient>
    <linearGradient id="ag" x1="268.57" x2="250.17" y1="756.21" y2="739.48" gradientUnits="userSpaceOnUse">
      <stop offset="0" stop-color="#a19eb5"/>
      <stop offset=".04" stop-color="#9895ae"/>
      <stop offset=".19" stop-color="#7c7898"/>
      <stop offset=".36" stop-color="#666187"/>
      <stop offset=".53" stop-color="#56517a"/>
      <stop offset=".73" stop-color="#4d4873"/>
      <stop offset="1" stop-color="#4a4571"/>
    </linearGradient>
    <linearGradient id="ai" x1="269.43" x2="270.28" y1="757.82" y2="748.51" gradientUnits="userSpaceOnUse">
      <stop offset="0" stop-color="#a19eb5"/>
      <stop offset="1" stop-color="#4a4571"/>
    </linearGradient>
    <linearGradient id="ak" x1="269.23" x2="270.32" y1="758.48" y2="746.56" gradientUnits="userSpaceOnUse">
      <stop offset="0" stop-color="#a19eb5"/>
      <stop offset="1" stop-color="#4a4571"/>
    </linearGradient>
    <linearGradient id="am" x1="285.07" x2="246.25" y1="754.58" y2="749.89" gradientUnits="userSpaceOnUse">
      <stop offset="0" stop-color="#a19eb5"/>
      <stop offset="1" stop-color="#4a4571"/>
    </linearGradient>
    <linearGradient id="ao" x1="283.6" x2="256.45" y1="755.45" y2="750.14" gradientUnits="userSpaceOnUse">
      <stop offset="0" stop-color="#a19eb5"/>
      <stop offset="1" stop-color="#4a4571"/>
    </linearGradient>
    <linearGradient id="aq" x1="280.53" x2="262.12" y1="762.63" y2="745.9" gradientUnits="userSpaceOnUse">
      <stop offset="0" stop-color="#a19eb5"/>
      <stop offset=".04" stop-color="#9895ae"/>
      <stop offset=".19" stop-color="#7c7898"/>
      <stop offset=".36" stop-color="#666187"/>
      <stop offset=".53" stop-color="#56517a"/>
      <stop offset=".73" stop-color="#4d4873"/>
      <stop offset="1" stop-color="#4a4571"/>
    </linearGradient>
  </defs>
  <use fill="url(#a)" transform="translate(-239 -731)" xlink:href="#b"/>
  <use fill="url(#c)" transform="translate(-239 -731)" xlink:href="#d"/>
  <use fill="url(#e)" transform="translate(-239 -731)" xlink:href="#f"/>
  <use fill="url(#g)" transform="translate(-239 -731)" xlink:href="#h"/>
  <use fill="url(#i)" transform="translate(-239 -731)" xlink:href="#j"/>
  <use fill="url(#k)" transform="translate(-239 -731)" xlink:href="#l"/>
  <use fill="url(#m)" transform="translate(-239 -731)" xlink:href="#n"/>
  <use fill="url(#o)" transform="translate(-239 -731)" xlink:href="#p"/>
  <use fill="url(#q)" transform="translate(-239 -731)" xlink:href="#r"/>
  <use fill="url(#s)" transform="translate(-239 -731)" xlink:href="#t"/>
  <g>
    <use fill="url(#u)" transform="translate(-239 -731)" xlink:href="#v"/>
    <use fill="url(#w)" transform="translate(-239 -731)" xlink:href="#x"/>
    <use fill="url(#y)" transform="translate(-239 -731)" xlink:href="#z"/>
    <use fill="url(#A)" transform="translate(-239 -731)" xlink:href="#B"/>
    <use fill="url(#C)" transform="translate(-239 -731)" xlink:href="#D"/>
  </g>
  <g>
    <use fill="url(#E)" transform="translate(-239 -731)" xlink:href="#F"/>
    <use fill="url(#G)" transform="translate(-239 -731)" xlink:href="#H"/>
    <use fill="url(#I)" transform="translate(-239 -731)" xlink:href="#J"/>
    <use fill="url(#K)" transform="translate(-239 -731)" xlink:href="#L"/>
    <use fill="url(#M)" transform="translate(-239 -731)" xlink:href="#N"/>
  </g>
  <g>
    <use fill="url(#O)" transform="translate(-239 -731)" xlink:href="#P"/>
    <use fill="url(#Q)" transform="translate(-239 -731)" xlink:href="#R"/>
    <use fill="url(#S)" transform="translate(-239 -731)" xlink:href="#T"/>
    <use fill="url(#U)" transform="translate(-239 -731)" xlink:href="#V"/>
    <use fill="url(#W)" transform="translate(-239 -731)" xlink:href="#X"/>
  </g>
  <g>
    <use fill="url(#Y)" transform="translate(-239 -731)" xlink:href="#Z"/>
    <use fill="url(#aa)" transform="translate(-239 -731)" xlink:href="#ab"/>
    <use fill="url(#ac)" transform="translate(-239 -731)" xlink:href="#ad"/>
    <use fill="url(#ae)" transform="translate(-239 -731)" xlink:href="#af"/>
    <use fill="url(#ag)" transform="translate(-239 -731)" xlink:href="#ah"/>
  </g>
  <g>
    <use fill="url(#ai)" transform="translate(-239 -731)" xlink:href="#aj"/>
    <use fill="url(#ak)" transform="translate(-239 -731)" xlink:href="#al"/>
    <use fill="url(#am)" transform="translate(-239 -731)" xlink:href="#an"/>
    <use fill="url(#ao)" transform="translate(-239 -731)" xlink:href="#ap"/>
    <use fill="url(#aq)" transform="translate(-239 -731)" xlink:href="#ar"/>
  </g>
</svg>