<svg xmlns="http://www.w3.org/2000/svg" xmlns:xlink="http://www.w3.org/1999/xlink" width="16" height="16" viewBox="0 0 16 16"><defs><path id="wk3ha" d="M1182.63 182.4c0 .2-.08.37-.22.5a.67.67 0 0 1-.5.22.7.7 0 0 1-.52-.21.71.71 0 0 1-.21-.52c0-.2.07-.37.22-.51a.72.72 0 0 1 1.23.51m2.51-5.52c-.03.4-.14.8-.35 1.15-.2.35-.58.78-1.14 1.3-.8.75-.9 1.05-.91 1.14a.81.81 0 0 1-.82.72h-.06a.9.9 0 0 1-.58-.28.75.75 0 0 1-.19-.6c.04-.36.19-.72.43-1.05.23-.3.55-.65.98-1.04.3-.29.55-.54.7-.74.22-.28.26-.38.26-.4.02-.07.03-.16.03-.28.01-.33-.1-.61-.35-.86-.31-.3-.68-.46-1.14-.46-.42 0-.77.14-1.07.42-.3.27-.44.59-.44.96 0 .21-.08.4-.24.56-.32.29-.84.29-1.16 0a.79.79 0 0 1-.24-.56c0-.8.3-1.5.93-2.08.6-.56 1.34-.85 2.2-.86.92 0 1.72.3 2.34.92.59.58.86 1.26.82 2.04m3.8-1.88A7.9 7.9 0 0 1 1190 179a7.9 7.9 0 0 1-3.99 6.93A7.9 7.9 0 0 1 1182 187a7.9 7.9 0 0 1-6.93-3.99A7.9 7.9 0 0 1 1174 179a7.9 7.9 0 0 1 3.99-6.93A7.9 7.9 0 0 1 1182 171a7.9 7.9 0 0 1 6.93 3.99m-.88 6.55a6.6 6.6 0 0 0-3.5-8.58 6.61 6.61 0 0 0-8.6 3.5 6.6 6.6 0 0 0 3.51 8.58 6.56 6.56 0 0 0 8.6-3.5"/></defs><g><g transform="translate(-1174 -171)"><use fill="#737596" xlink:href="#wk3ha"/></g></g></svg>