<svg xmlns="http://www.w3.org/2000/svg" xmlns:xlink="http://www.w3.org/1999/xlink" width="26" height="26" viewBox="0 0 26 26"><defs><path id="p97ya" d="M693 236v-26h26v26zm13-4a9 9 0 1 0 0-18 9 9 0 0 0 0 18z"/><path id="p97yb" d="M697 223a9 9 0 1 1 18 0 9 9 0 0 1-18 0z"/><path id="p97yd" d="M710.71 226.3a1 1 0 0 1 0 1.41c-.2.2-.45.3-.7.3-.27 0-.52-.1-.72-.3l-3.29-3.29-3.29 3.3c-.2.18-.45.28-.7.28-.27 0-.52-.1-.72-.29a1 1 0 0 1 0-1.42l3.3-3.29-3.3-3.29a1 1 0 0 1 0-1.42 1 1 0 0 1 1.42 0l3.3 3.3 3.28-3.3a1 1 0 0 1 1.42 0 1 1 0 0 1 0 1.42l-3.3 3.3z"/><clipPath id="p97yc"><use fill="#fff" xlink:href="#p97ya"/></clipPath></defs><g><g transform="translate(-693 -210)"><use fill="#2b2b4c" xlink:href="#p97yb"/><use fill="#fff" fill-opacity="0" stroke="#0e0e30" stroke-miterlimit="50" stroke-width="8" clip-path="url(&quot;#p97yc&quot;)" xlink:href="#p97yb"/></g><g transform="translate(-693 -210)"><use fill="#737596" xlink:href="#p97yd"/></g></g></svg>