<svg xmlns="http://www.w3.org/2000/svg" xmlns:xlink="http://www.w3.org/1999/xlink" width="25" height="29" viewBox="0 0 25 29"><defs><path id="nd50a" d="M58.16 55.65c.8-.97 1-1.72 1.1-2.39.12-.77-.06-1.41-.52-1.64.48-.37.5-1.03.5-1.03.14-2.24.02-2.85-.33-3.7-.95-2.3-2.73-2.1-5.5-3.04-2.33-.79-3.25-1.33-3.72-1.86-.12-.14-.3-.11-.38.05-.46.8-.24 2.14-.24 2.14s-1.74.23-3.1 1.92c-1.05 1.3-.3 4.18-.3 4.18s1.95-2.04 5.04-2.48c0 0-.58 1.04-.49 2.36.01.23.28.36.46.23a3.44 3.44 0 0 1 2.06-.63c1.67 0 2.09.49 3.3.49.97 0 2.23-.7 3.16 0"/><path id="nd50b" d="M46.76 55.8c-.8-.98-1-1.73-1.1-2.4-.12-.77.06-1.41.52-1.64-.49-.37-.5-1.48-.5-1.48"/><path id="nd50c" d="M46.76 55.79c.15.51.64 3.13 1.48 4.6.68 1.4-.16 2.33-1.03 2.68-1.5.6-4.62.86-5.96 2.61-1.35 1.76 1.53 2.07 3.27 2.35 1.25.21 4.83.38 8.01.36"/><path id="nd50d" d="M48.24 60.4a5 5 0 0 0 4.3 2.3"/><path id="nd50e" d="M57.54 58.68a9.6 9.6 0 0 1-.72 1.72c-.68 1.39.16 2.33 1.02 2.67 1.52.6 4.63.86 5.97 2.62 1.34 1.76-1.53 2.06-3.27 2.35-.81.13-2.6.25-4.61.31"/><path id="nd50f" d="M56.83 60.4a4.5 4.5 0 0 1-1.51 1.5"/></defs><g><g transform="translate(-40 -41)"><g><use fill="#fff" fill-opacity="0" stroke="#737596" stroke-linecap="round" stroke-linejoin="round" stroke-miterlimit="50" stroke-width="1.8" xlink:href="#nd50a"/></g><g><use fill="#fff" fill-opacity="0" stroke="#737596" stroke-linecap="round" stroke-linejoin="round" stroke-miterlimit="50" stroke-width="1.8" xlink:href="#nd50b"/></g><g><use fill="#fff" fill-opacity="0" stroke="#737596" stroke-linecap="round" stroke-linejoin="round" stroke-miterlimit="50" stroke-width="1.8" xlink:href="#nd50c"/></g><g><use fill="#fff" fill-opacity="0" stroke="#737596" stroke-linecap="round" stroke-linejoin="round" stroke-miterlimit="50" stroke-width="1.8" xlink:href="#nd50d"/></g><g><use fill="#fff" fill-opacity="0" stroke="#ffa800" stroke-linecap="round" stroke-linejoin="round" stroke-miterlimit="50" stroke-width="1.8" xlink:href="#nd50e"/></g><g><use fill="#fff" fill-opacity="0" stroke="#ffa800" stroke-linecap="round" stroke-linejoin="round" stroke-miterlimit="50" stroke-width="1.8" xlink:href="#nd50f"/></g></g></g></svg>