<svg xmlns="http://www.w3.org/2000/svg" xmlns:xlink="http://www.w3.org/1999/xlink" width="16" height="16" viewBox="0 0 16 16"><defs><path id="8vkza" d="M646.13 246.72c0 .46-.18.89-.5 1.22l-4.7 4.7a4.45 4.45 0 0 1-.97 4.79l-3.27 3.27a1.42 1.42 0 0 1-2.02 0l-4.25-4.25a1.42 1.42 0 0 1 0-2.02l3.2-3.21a4.53 4.53 0 0 1 4.85-1.01l4.7-4.72a1.78 1.78 0 0 1 2.46 0c.32.33.5.77.5 1.23zm-1.43.3a.42.42 0 0 0 0-.61.43.43 0 0 0-.62 0l-4.45 4.46.2.16c.15.15.3.3.43.46zm-6.07 9.9l-4.44-4.43-2.87 2.86a.15.15 0 0 0-.04.1c0 .04.01.08.04.1l.23.23 1.38-1.38a.66.66 0 0 1 .92 0 .64.64 0 0 1 0 .9l-1.4 1.4.54.52 1.38-1.38a.65.65 0 0 1 .91 0 .6.6 0 0 1 .19.45c0 .17-.06.34-.19.46l-1.38 1.38.52.53 1.39-1.4a.65.65 0 0 1 .9 0c.26.26.26.67 0 .92l-1.37 1.39.22.23c.06.05.15.05.2 0zm.84-.96c.78-1.22.6-2.85-.43-3.9l-.08-.07a3.22 3.22 0 0 0-3.78-.34z"/></defs><g><g transform="translate(-630 -245)"><use fill="#737596" xlink:href="#8vkza"/></g></g></svg>