<svg xmlns="http://www.w3.org/2000/svg" xmlns:xlink="http://www.w3.org/1999/xlink" width="21" height="19" viewBox="0 0 21 19"><defs><path id="o2cpa" d="M237.69 510.14h7.83"/><path id="o2cpb" d="M242.79 507.25l2.97 2.9-2.97 2.9"/><path id="o2cpc" d="M242 515.63a8.76 8.76 0 0 1-6.62 2.99c-4.8 0-8.69-3.8-8.69-8.47a8.58 8.58 0 0 1 8.69-8.47 8.75 8.75 0 0 1 6.81 3.22"/><path id="o2cpd" d="M230.38 508.59a5.22 5.22 0 0 1 4.98-3.55c1.67 0 3.15.76 4.11 1.94"/><path id="o2cpe" d="M239.36 513.45a5.28 5.28 0 0 1-3.99 1.8 5.22 5.22 0 0 1-5.04-3.73"/></defs><g><g transform="translate(-226 -501)"><g><g><use fill="#fff" fill-opacity="0" stroke="#ffa800" stroke-linecap="round" stroke-linejoin="round" stroke-miterlimit="50" stroke-width="1.2" xlink:href="#o2cpa"/></g><g><use fill="#fff" fill-opacity="0" stroke="#ffa800" stroke-linecap="round" stroke-linejoin="round" stroke-miterlimit="50" stroke-width="1.2" xlink:href="#o2cpb"/></g><g><use fill="#fff" fill-opacity="0" stroke="#737596" stroke-linecap="round" stroke-linejoin="round" stroke-miterlimit="50" stroke-width="1.2" xlink:href="#o2cpc"/></g><g><use fill="#fff" fill-opacity="0" stroke="#737596" stroke-linecap="round" stroke-linejoin="round" stroke-miterlimit="50" stroke-width="1.2" xlink:href="#o2cpd"/></g><g><use fill="#fff" fill-opacity="0" stroke="#737596" stroke-linecap="round" stroke-linejoin="round" stroke-miterlimit="50" stroke-width="1.2" xlink:href="#o2cpe"/></g></g></g></g></svg>