<svg xmlns="http://www.w3.org/2000/svg" xmlns:xlink="http://www.w3.org/1999/xlink" width="40" height="32" viewBox="0 0 40 32"><defs><path id="t0v6a" d="M342.64 275.74c0-2.6 5.04-4.71 11.25-4.71s11.25 2.1 11.25 4.7-5.04 4.71-11.25 4.71-11.25-2.1-11.25-4.7z"/><path id="t0v6c" d="M342.64 275.82v-2.94h22.5v2.94z"/><path id="t0v6e" d="M342.64 272.88c0-2.6 5.04-4.71 11.25-4.71s11.25 2.1 11.25 4.7-5.04 4.71-11.25 4.71-11.25-2.1-11.25-4.7z"/><path id="t0v6g" d="M345.36 272.88c0-1.98 3.82-3.58 8.53-3.58 4.7 0 8.52 1.6 8.52 3.58 0 1.97-3.82 3.57-8.53 3.57-4.7 0-8.52-1.6-8.52-3.58z"/><path id="t0v6i" d="M346.3 273.1c0-1.88 3.66-3.42 8.14-3.42 3.56 0 6.58.94 7.7 2.3-.93-1.55-4.3-2.68-8.26-2.68-4.7 0-8.52 1.62-8.52 3.58 0 1.65 2.73 3.05 6.4 3.46-3.19-.45-5.47-1.73-5.47-3.24z"/><path id="t0v6k" d="M343.83 271.98c0-2.6 5.04-4.71 11.25-4.71s11.25 2.1 11.25 4.7-5.04 4.71-11.25 4.71-11.25-2.1-11.25-4.7z"/><path id="t0v6m" d="M343.83 272.05v-2.94h22.5v2.94z"/><path id="t0v6o" d="M343.83 269.12c0-2.6 5.04-4.71 11.25-4.71s11.25 2.1 11.25 4.7-5.04 4.71-11.25 4.71-11.25-2.1-11.25-4.7z"/><path id="t0v6q" d="M346.56 269.12c0-1.98 3.82-3.58 8.53-3.58 4.7 0 8.52 1.6 8.52 3.58 0 1.97-3.82 3.57-8.53 3.57-4.7 0-8.52-1.6-8.52-3.58z"/><path id="t0v6s" d="M347.45 269.34c0-1.88 3.67-3.42 8.15-3.42 3.56 0 6.58.94 7.7 2.3-.93-1.55-4.3-2.68-8.26-2.68-4.7 0-8.52 1.62-8.52 3.58 0 1.65 2.73 3.05 6.4 3.46-3.19-.45-5.47-1.73-5.47-3.24z"/><path id="t0v6u" d="M342.19 267.99c0-2.6 5.04-4.71 11.25-4.71s11.25 2.1 11.25 4.7-5.04 4.71-11.25 4.71-11.25-2.1-11.25-4.7z"/><path id="t0v6w" d="M342.19 268.06v-2.94h22.5v2.94z"/><path id="t0v6y" d="M342.19 265.15c0-2.6 5.04-4.7 11.25-4.7s11.25 2.1 11.25 4.7-5.04 4.71-11.25 4.71-11.25-2.1-11.25-4.7z"/><path id="t0v6A" d="M344.92 265.15c0-1.97 3.82-3.57 8.53-3.57 4.7 0 8.52 1.6 8.52 3.58 0 1.97-3.82 3.57-8.53 3.57-4.7 0-8.52-1.6-8.52-3.58z"/><path id="t0v6C" d="M345.85 265.38c0-1.88 3.67-3.42 8.15-3.42 3.56 0 6.58.94 7.7 2.3-.93-1.55-4.3-2.68-8.26-2.68-4.7 0-8.52 1.62-8.52 3.58 0 1.65 2.73 3.05 6.4 3.46-3.19-.49-5.47-1.77-5.47-3.24z"/><path id="t0v6E" d="M344.54 264.44c0-2.6 5.04-4.7 11.25-4.7s11.25 2.1 11.25 4.7-5.04 4.71-11.25 4.71-11.25-2.1-11.25-4.7z"/><path id="t0v6G" d="M344.54 264.52v-2.94h22.5v2.94z"/><path id="t0v6I" d="M344.54 261.58c0-2.6 5.04-4.7 11.25-4.7s11.25 2.1 11.25 4.7-5.04 4.71-11.25 4.71-11.25-2.1-11.25-4.7z"/><path id="t0v6K" d="M347.27 261.58c0-1.97 3.82-3.57 8.53-3.57 4.7 0 8.52 1.6 8.52 3.58 0 1.97-3.82 3.57-8.53 3.57-4.7 0-8.52-1.6-8.52-3.58z"/><path id="t0v6M" d="M348.16 261.81c0-1.88 3.67-3.42 8.15-3.42 3.56 0 6.58.94 7.7 2.3-.93-1.55-4.3-2.68-8.26-2.68-4.7 0-8.52 1.62-8.52 3.58 0 1.65 2.73 3.05 6.4 3.46-3.15-.45-5.47-1.73-5.47-3.24z"/><path id="t0v6O" d="M343.16 260.68c0-2.6 5.04-4.71 11.25-4.71s11.25 2.1 11.25 4.7-5.04 4.71-11.25 4.71-11.25-2.1-11.25-4.7z"/><path id="t0v6Q" d="M343.16 260.72v-2.94h22.5v2.94z"/><path id="t0v6S" d="M343.16 257.81c0-2.6 5.04-4.7 11.25-4.7s11.25 2.1 11.25 4.7-5.04 4.71-11.25 4.71-11.25-2.1-11.25-4.7z"/><path id="t0v6U" d="M345.89 257.81c0-1.97 3.82-3.57 8.53-3.57 4.7 0 8.52 1.6 8.52 3.58 0 1.97-3.82 3.57-8.53 3.57-4.7 0-8.52-1.6-8.52-3.58z"/><path id="t0v6W" d="M346.82 258.04c0-1.88 3.67-3.42 8.15-3.42 3.56 0 6.58.94 7.7 2.3-.93-1.55-4.3-2.68-8.26-2.68-4.7 0-8.52 1.62-8.52 3.58 0 1.65 2.73 3.05 6.4 3.46-3.19-.49-5.47-1.77-5.47-3.24z"/><path id="t0v6Y" d="M358.75 280.02c0-2.6 5.04-4.7 11.25-4.7s11.25 2.1 11.25 4.7-5.04 4.71-11.25 4.71-11.25-2.1-11.25-4.7z"/><path id="t0v6aa" d="M358.75 280.11v-2.94h22.5v2.94z"/><path id="t0v6ac" d="M358.75 277.17c0-2.6 5.04-4.71 11.25-4.71s11.25 2.1 11.25 4.7-5.04 4.71-11.25 4.71-11.25-2.1-11.25-4.7z"/><path id="t0v6ae" d="M361.48 277.17c0-1.98 3.82-3.58 8.53-3.58 4.7 0 8.52 1.6 8.52 3.58 0 1.97-3.82 3.57-8.53 3.57-4.7 0-8.52-1.6-8.52-3.58z"/><path id="t0v6ag" d="M362.37 277.4c0-1.89 3.67-3.43 8.15-3.43 3.56 0 6.58.94 7.7 2.3-.93-1.55-4.3-2.68-8.26-2.68-4.7 0-8.52 1.62-8.52 3.58 0 1.65 2.73 3.05 6.4 3.46-3.19-.49-5.47-1.73-5.47-3.24z"/><path id="t0v6ai" d="M359.23 276.3c0-2.6 5.04-4.7 11.25-4.7s11.25 2.1 11.25 4.7-5.04 4.71-11.25 4.71-11.25-2.1-11.25-4.7z"/><path id="t0v6ak" d="M359.23 276.38v-2.94h22.5v2.94z"/><path id="t0v6am" d="M359.23 273.44c0-2.6 5.04-4.7 11.25-4.7s11.25 2.1 11.25 4.7-5.04 4.71-11.25 4.71-11.25-2.1-11.25-4.7z"/><path id="t0v6ao" d="M361.96 273.44c0-1.97 3.82-3.57 8.53-3.57 4.7 0 8.52 1.6 8.52 3.58 0 1.97-3.82 3.57-8.53 3.57-4.7 0-8.52-1.6-8.52-3.58z"/><path id="t0v6aq" d="M362.86 273.67c0-1.88 3.67-3.42 8.15-3.42 3.56 0 6.58.94 7.7 2.3-.93-1.55-4.3-2.68-8.26-2.68-4.7 0-8.52 1.62-8.52 3.58 0 1.65 2.73 3.05 6.4 3.46-3.15-.49-5.47-1.73-5.47-3.24z"/><linearGradient id="t0v6b" x1="353.73" x2="354.52" y1="277.69" y2="268.93" gradientUnits="userSpaceOnUse"><stop offset="0" stop-color="#a19eb5"/><stop offset="1" stop-color="#4a4571"/></linearGradient><linearGradient id="t0v6d" x1="353.55" x2="354.56" y1="278.32" y2="267.09" gradientUnits="userSpaceOnUse"><stop offset="0" stop-color="#a19eb5"/><stop offset="1" stop-color="#4a4571"/></linearGradient><linearGradient id="t0v6f" x1="353.95" x2="353.86" y1="265.13" y2="280.78" gradientUnits="userSpaceOnUse"><stop offset="0" stop-color="#a19eb5"/><stop offset="1" stop-color="#4a4571"/></linearGradient><linearGradient id="t0v6h" x1="349.05" x2="365.23" y1="266.64" y2="287.49" gradientUnits="userSpaceOnUse"><stop offset="0" stop-color="#a19eb5"/><stop offset="1" stop-color="#4a4571"/></linearGradient><linearGradient id="t0v6j" x1="353.42" x2="336.3" y1="272.45" y2="256.7" gradientUnits="userSpaceOnUse"><stop offset="0" stop-color="#a19eb5"/><stop offset=".04" stop-color="#9895ae"/><stop offset=".19" stop-color="#7c7898"/><stop offset=".36" stop-color="#666187"/><stop offset=".53" stop-color="#56517a"/><stop offset=".73" stop-color="#4d4873"/><stop offset="1" stop-color="#4a4571"/></linearGradient><linearGradient id="t0v6l" x1="354.88" x2="355.68" y1="273.93" y2="265.17" gradientUnits="userSpaceOnUse"><stop offset="0" stop-color="#a19eb5"/><stop offset="1" stop-color="#4a4571"/></linearGradient><linearGradient id="t0v6n" x1="354.7" x2="355.72" y1="274.55" y2="263.32" gradientUnits="userSpaceOnUse"><stop offset="0" stop-color="#a19eb5"/><stop offset="1" stop-color="#4a4571"/></linearGradient><linearGradient id="t0v6p" x1="355.06" x2="355.06" y1="257.13" y2="273.65" gradientUnits="userSpaceOnUse"><stop offset="0" stop-color="#a19eb5"/><stop offset="1" stop-color="#4a4571"/></linearGradient><linearGradient id="t0v6r" x1="350.22" x2="366.4" y1="262.88" y2="283.73" gradientUnits="userSpaceOnUse"><stop offset="0" stop-color="#a19eb5"/><stop offset="1" stop-color="#4a4571"/></linearGradient><linearGradient id="t0v6t" x1="354.07" x2="345.91" y1="268.87" y2="266.79" gradientUnits="userSpaceOnUse"><stop offset="0" stop-color="#a19eb5"/><stop offset=".04" stop-color="#9895ae"/><stop offset=".19" stop-color="#7c7898"/><stop offset=".36" stop-color="#666187"/><stop offset=".53" stop-color="#56517a"/><stop offset=".73" stop-color="#4d4873"/><stop offset="1" stop-color="#4a4571"/></linearGradient><linearGradient id="t0v6v" x1="353.27" x2="354.06" y1="269.95" y2="261.19" gradientUnits="userSpaceOnUse"><stop offset="0" stop-color="#a19eb5"/><stop offset="1" stop-color="#4a4571"/></linearGradient><linearGradient id="t0v6x" x1="353.08" x2="354.1" y1="270.57" y2="259.34" gradientUnits="userSpaceOnUse"><stop offset="0" stop-color="#a19eb5"/><stop offset="1" stop-color="#4a4571"/></linearGradient><linearGradient id="t0v6z" x1="353.44" x2="353.44" y1="253.15" y2="269.67" gradientUnits="userSpaceOnUse"><stop offset="0" stop-color="#a19eb5"/><stop offset="1" stop-color="#4a4571"/></linearGradient><linearGradient id="t0v6B" x1="348.6" x2="364.78" y1="258.89" y2="279.74" gradientUnits="userSpaceOnUse"><stop offset="0" stop-color="#a19eb5"/><stop offset="1" stop-color="#4a4571"/></linearGradient><linearGradient id="t0v6D" x1="352.45" x2="344.3" y1="264.89" y2="262.81" gradientUnits="userSpaceOnUse"><stop offset="0" stop-color="#a19eb5"/><stop offset=".04" stop-color="#9895ae"/><stop offset=".19" stop-color="#7c7898"/><stop offset=".36" stop-color="#666187"/><stop offset=".53" stop-color="#56517a"/><stop offset=".73" stop-color="#4d4873"/><stop offset="1" stop-color="#4a4571"/></linearGradient><linearGradient id="t0v6F" x1="355.61" x2="356.4" y1="266.4" y2="257.64" gradientUnits="userSpaceOnUse"><stop offset="0" stop-color="#a19eb5"/><stop offset="1" stop-color="#4a4571"/></linearGradient><linearGradient id="t0v6H" x1="355.43" x2="356.44" y1="267.02" y2="255.79" gradientUnits="userSpaceOnUse"><stop offset="0" stop-color="#a19eb5"/><stop offset="1" stop-color="#4a4571"/></linearGradient><linearGradient id="t0v6J" x1="356.14" x2="355.67" y1="251.34" y2="264.82" gradientUnits="userSpaceOnUse"><stop offset="0" stop-color="#a19eb5"/><stop offset="1" stop-color="#4a4571"/></linearGradient><linearGradient id="t0v6L" x1="350.94" x2="367.12" y1="255.35" y2="276.2" gradientUnits="userSpaceOnUse"><stop offset="0" stop-color="#a19eb5"/><stop offset="1" stop-color="#4a4571"/></linearGradient><linearGradient id="t0v6N" x1="355.31" x2="338.18" y1="261.16" y2="245.41" gradientUnits="userSpaceOnUse"><stop offset="0" stop-color="#a19eb5"/><stop offset=".04" stop-color="#9895ae"/><stop offset=".19" stop-color="#7c7898"/><stop offset=".36" stop-color="#666187"/><stop offset=".53" stop-color="#56517a"/><stop offset=".73" stop-color="#4d4873"/><stop offset="1" stop-color="#4a4571"/></linearGradient><linearGradient id="t0v6P" x1="354.24" x2="355.03" y1="262.61" y2="253.85" gradientUnits="userSpaceOnUse"><stop offset="0" stop-color="#a19eb5"/><stop offset="1" stop-color="#4a4571"/></linearGradient><linearGradient id="t0v6R" x1="354.06" x2="355.07" y1="263.23" y2="252.01" gradientUnits="userSpaceOnUse"><stop offset="0" stop-color="#a19eb5"/><stop offset="1" stop-color="#4a4571"/></linearGradient><linearGradient id="t0v6T" x1="368.79" x2="332.68" y1="259.56" y2="255.14" gradientUnits="userSpaceOnUse"><stop offset="0" stop-color="#a19eb5"/><stop offset="1" stop-color="#4a4571"/></linearGradient><linearGradient id="t0v6V" x1="367.43" x2="342.17" y1="260.37" y2="255.37" gradientUnits="userSpaceOnUse"><stop offset="0" stop-color="#a19eb5"/><stop offset="1" stop-color="#4a4571"/></linearGradient><linearGradient id="t0v6X" x1="364.58" x2="347.45" y1="267.14" y2="251.39" gradientUnits="userSpaceOnUse"><stop offset="0" stop-color="#a19eb5"/><stop offset=".04" stop-color="#9895ae"/><stop offset=".19" stop-color="#7c7898"/><stop offset=".36" stop-color="#666187"/><stop offset=".53" stop-color="#56517a"/><stop offset=".73" stop-color="#4d4873"/><stop offset="1" stop-color="#4a4571"/></linearGradient><linearGradient id="t0v6Z" x1="369.81" x2="370.6" y1="281.96" y2="273.21" gradientUnits="userSpaceOnUse"><stop offset="0" stop-color="#a19eb5"/><stop offset="1" stop-color="#4a4571"/></linearGradient><linearGradient id="t0v6ab" x1="369.62" x2="370.64" y1="282.59" y2="271.37" gradientUnits="userSpaceOnUse"><stop offset="0" stop-color="#a19eb5"/><stop offset="1" stop-color="#4a4571"/></linearGradient><linearGradient id="t0v6ad" x1="370.34" x2="369.87" y1="266.9" y2="280.38" gradientUnits="userSpaceOnUse"><stop offset="0" stop-color="#a19eb5"/><stop offset="1" stop-color="#4a4571"/></linearGradient><linearGradient id="t0v6af" x1="365.14" x2="381.32" y1="270.91" y2="291.76" gradientUnits="userSpaceOnUse"><stop offset="0" stop-color="#a19eb5"/><stop offset="1" stop-color="#4a4571"/></linearGradient><linearGradient id="t0v6ah" x1="369.51" x2="352.38" y1="276.72" y2="260.97" gradientUnits="userSpaceOnUse"><stop offset="0" stop-color="#a19eb5"/><stop offset=".04" stop-color="#9895ae"/><stop offset=".19" stop-color="#7c7898"/><stop offset=".36" stop-color="#666187"/><stop offset=".53" stop-color="#56517a"/><stop offset=".73" stop-color="#4d4873"/><stop offset="1" stop-color="#4a4571"/></linearGradient><linearGradient id="t0v6aj" x1="370.3" x2="371.09" y1="278.24" y2="269.49" gradientUnits="userSpaceOnUse"><stop offset="0" stop-color="#a19eb5"/><stop offset="1" stop-color="#4a4571"/></linearGradient><linearGradient id="t0v6al" x1="370.12" x2="371.13" y1="278.86" y2="267.64" gradientUnits="userSpaceOnUse"><stop offset="0" stop-color="#a19eb5"/><stop offset="1" stop-color="#4a4571"/></linearGradient><linearGradient id="t0v6an" x1="384.85" x2="348.74" y1="275.2" y2="270.78" gradientUnits="userSpaceOnUse"><stop offset="0" stop-color="#a19eb5"/><stop offset="1" stop-color="#4a4571"/></linearGradient><linearGradient id="t0v6ap" x1="383.49" x2="358.23" y1="276.01" y2="271.01" gradientUnits="userSpaceOnUse"><stop offset="0" stop-color="#a19eb5"/><stop offset="1" stop-color="#4a4571"/></linearGradient><linearGradient id="t0v6ar" x1="380.64" x2="363.51" y1="282.78" y2="267.03" gradientUnits="userSpaceOnUse"><stop offset="0" stop-color="#a19eb5"/><stop offset=".04" stop-color="#9895ae"/><stop offset=".19" stop-color="#7c7898"/><stop offset=".36" stop-color="#666187"/><stop offset=".53" stop-color="#56517a"/><stop offset=".73" stop-color="#4d4873"/><stop offset="1" stop-color="#4a4571"/></linearGradient></defs><g><g transform="translate(-342 -253)"><g><g><g><use fill="url(#t0v6b)" xlink:href="#t0v6a"/></g><g><use fill="url(#t0v6d)" xlink:href="#t0v6c"/></g><g><use fill="url(#t0v6f)" xlink:href="#t0v6e"/></g><g><use fill="url(#t0v6h)" xlink:href="#t0v6g"/></g><g><use fill="url(#t0v6j)" xlink:href="#t0v6i"/></g></g><g><g><use fill="url(#t0v6l)" xlink:href="#t0v6k"/></g><g><use fill="url(#t0v6n)" xlink:href="#t0v6m"/></g><g><use fill="url(#t0v6p)" xlink:href="#t0v6o"/></g><g><use fill="url(#t0v6r)" xlink:href="#t0v6q"/></g><g><use fill="url(#t0v6t)" xlink:href="#t0v6s"/></g></g><g><g><use fill="url(#t0v6v)" xlink:href="#t0v6u"/></g><g><use fill="url(#t0v6x)" xlink:href="#t0v6w"/></g><g><use fill="url(#t0v6z)" xlink:href="#t0v6y"/></g><g><use fill="url(#t0v6B)" xlink:href="#t0v6A"/></g><g><use fill="url(#t0v6D)" xlink:href="#t0v6C"/></g></g><g><g><use fill="url(#t0v6F)" xlink:href="#t0v6E"/></g><g><use fill="url(#t0v6H)" xlink:href="#t0v6G"/></g><g><use fill="url(#t0v6J)" xlink:href="#t0v6I"/></g><g><use fill="url(#t0v6L)" xlink:href="#t0v6K"/></g><g><use fill="url(#t0v6N)" xlink:href="#t0v6M"/></g></g><g><g><use fill="url(#t0v6P)" xlink:href="#t0v6O"/></g><g><use fill="url(#t0v6R)" xlink:href="#t0v6Q"/></g><g><use fill="url(#t0v6T)" xlink:href="#t0v6S"/></g><g><use fill="url(#t0v6V)" xlink:href="#t0v6U"/></g><g><use fill="url(#t0v6X)" xlink:href="#t0v6W"/></g></g><g><g><use fill="url(#t0v6Z)" xlink:href="#t0v6Y"/></g><g><use fill="url(#t0v6ab)" xlink:href="#t0v6aa"/></g><g><use fill="url(#t0v6ad)" xlink:href="#t0v6ac"/></g><g><use fill="url(#t0v6af)" xlink:href="#t0v6ae"/></g><g><use fill="url(#t0v6ah)" xlink:href="#t0v6ag"/></g></g><g><g><use fill="url(#t0v6aj)" xlink:href="#t0v6ai"/></g><g><use fill="url(#t0v6al)" xlink:href="#t0v6ak"/></g><g><use fill="url(#t0v6an)" xlink:href="#t0v6am"/></g><g><use fill="url(#t0v6ap)" xlink:href="#t0v6ao"/></g><g><use fill="url(#t0v6ar)" xlink:href="#t0v6aq"/></g></g></g></g></g></svg>