<svg xmlns="http://www.w3.org/2000/svg" xmlns:xlink="http://www.w3.org/1999/xlink" width="16" height="21" viewBox="0 0 16 21"><defs><path id="mrx3a" d="M973.28 569.18c0-1.52-.85-1.31-2.56-.68-1.07.42-1.92.1-2.3 1.1-.1.27-.15.58-.15 1.06.05 1.73.96 3.05 2.77 2.36 1.39-.57 2.24-2.15 2.24-3.84zm2.18-9.24c-.42.16-.9.32-1.54.63-1.07.47-1.23 1.31-1.98 1.9-1.7 1.36-3.3 2.67-3.57 4.14l.05-.05a7.62 7.62 0 0 1 3.63-2.68c1.44-.53 2.72-.53 3.68.05.37.21 2.77 1.74 2.77 1.74s-1.22.73-1.22 1.73c0 2.1-.11 4.93-1.87 6.61-.96 1-6.56 3.36-6.56 3.36s-1.76-.94-2.88-1.78c-1.17-.9-1.76-2.58-1.76-4.62 0-3.15 1.17-6.2 2.99-8.56a16.6 16.6 0 0 1 6.56-4.93c.26-.11.48-.21.69-.32 1.07.42 3.47 1.26 3.47 1.26z"/><path id="mrx3b" d="M975.84 570.75c0-1.52-.86-2.57-2.56-1.94a4.27 4.27 0 0 0-2.35 2.36c-.1.26-.16.58-.16 1.05.06 1.73.96 3.04 2.77 2.36 1.44-.53 2.3-2.15 2.3-3.83zm2.19-9.24c-.43.16-.9.32-1.55.63-3.52 1.58-5.12 3.94-5.54 6.1l.05-.06a7.62 7.62 0 0 1 3.63-2.67c2.88-1.05 5.28.05 5.28 3.51 0 3.31-2.62 7.04-6.3 8.4-4.53 1.68-6.77-.84-6.77-4.83 0-3.15 1.17-6.2 2.99-8.56a16.6 16.6 0 0 1 6.56-4.93c.74-.32 1.22-.47 1.6-.63v3.04z"/><linearGradient id="mrx3c" x1="966.85" x2="979.89" y1="568.24" y2="568.24" gradientUnits="userSpaceOnUse"><stop offset="0" stop-color="#ebeaf5"/><stop offset="1" stop-color="#beb9de"/></linearGradient></defs><g><g transform="translate(-964 -557)"><g><use fill="#9f9bba" xlink:href="#mrx3a"/></g><g><use fill="url(#mrx3c)" xlink:href="#mrx3b"/></g></g></g></svg>