<svg xmlns="http://www.w3.org/2000/svg" xmlns:xlink="http://www.w3.org/1999/xlink" width="15" height="21" viewBox="0 0 15 21"><defs><path id="fgjva" d="M564.22 360.47v-2.33l2.06-2.72c3.5-4.54 5.22-7.04 5.27-8.97 0-1.36-.16-1.25-2-.57-.66.28-.83 3.24-.83 3.24s-2.22-.97-3.22-1.37l-1.06-2.32a13.3 13.3 0 0 1 5.28-3.7 5.28 5.28 0 0 1 4.28-.05c.5.17 2.72 1.14 2.72 1.14s-1.39 1.07-1.39 1.93c0 2.72-.28 5.67-2.55 8.68l-1.23 2.84-2-.91 5.84-2.33 3.44 1.36-3.22 1.76-8.17 5.74z"/><path id="fgjvb" d="M567.44 361.88v-2.32l2.06-2.73c3.5-4.54 5.22-7.04 5.27-8.97 0-1.36-.77-2.1-2.66-1.36a9.17 9.17 0 0 0-3.45 2.67l-1.05-2.33a13.3 13.3 0 0 1 5.27-3.69c3.62-1.42 5.62 0 5.62 3.01 0 2.73-1.95 5.68-4.28 8.69l-1.5 1.81v.06l6.05-2.33v3.18z"/><linearGradient id="fgjvc" x1="567.44" x2="578.83" y1="352.21" y2="352.21" gradientUnits="userSpaceOnUse"><stop offset="0" stop-color="#ebeaf5"/><stop offset="1" stop-color="#beb9de"/></linearGradient></defs><g><g transform="translate(-564 -341)"><g><use fill="#9f9bba" xlink:href="#fgjva"/></g><g><use fill="url(#fgjvc)" xlink:href="#fgjvb"/></g></g></g></svg>