<svg xmlns="http://www.w3.org/2000/svg" xmlns:xlink="http://www.w3.org/1999/xlink" width="18" height="21" viewBox="0 0 18 21"><defs><path id="clsea" d="M172.1 576.2v-4.26l-4.2 4.74-3.72-1.74v-2.7l6.78-13.44 4.56-1.74 4.26 1.56-3.66 8.7 2.16-.78v3.06l-2.16.78v4.26l-.3 3.3z"/><path id="clseb" d="M175.76 570.56v-3.96c0-1.08.06-2.22.12-3.36l-.12.06c-.6 1.38-1.02 2.58-1.68 3.96l-2.4 4.8v.06zm0 7.44v-4.26l-7.92 3v-2.7l6.78-13.44 5.1-1.92v10.5l2.16-.78v3l-2.16.78v4.26z"/><path id="clsed" d="M181.88 568.28l-2.16-.84v1.62z"/><linearGradient id="clsec" x1="167.83" x2="181.88" y1="568.28" y2="568.28" gradientUnits="userSpaceOnUse"><stop offset="0" stop-color="#ebeaf5"/><stop offset="1" stop-color="#beb9de"/></linearGradient></defs><g><g transform="translate(-164 -557)"><g><use fill="#9f9bba" xlink:href="#clsea"/></g><g><use fill="url(#clsec)" xlink:href="#clseb"/></g><g><use fill="#9f9bba" xlink:href="#clsed"/></g></g></g></svg>