<svg xmlns="http://www.w3.org/2000/svg" xmlns:xlink="http://www.w3.org/1999/xlink" width="97" height="143" viewBox="0 0 97 143"><defs><path id="5mwga" d="M1867.3 839.51s-53.95 31.2-67.49 89.27c18.95-49.95 57.7-74.17 71.65-81.96z"/><path id="5mwgc" d="M1863.78 833.53s-50.43 36.34-63.97 94.4c14.47-49.59 54.19-79.3 68.13-87.1z"/><path id="5mwge" d="M1871.5 846.86l-7.64-3.76v-9.93l7.88 2.66z"/><path id="5mwgf" d="M1883.42 817.83l-7.2 6.82-9.69-2.02 4.28 8.93-4.16 7.26 1.21 1.9 7.88-1.9 6.67 7.35 1.74-9.73 7.68-2.58-.45-2.5-6.9-3.68z"/><path id="5mwgg" d="M1883.22 821.1l-6.3 6.02-8.53-1.78 3.8 7.83-4.33 7.55 8.6-1.17 5.87 6.46 1.57-8.56 7.92-3.6-7.67-4.11z"/><path id="5mwgi" d="M1828.46 829.58s-33.06 30.68-33.3 73.84c5.33-38.35 28.81-61.6 37.42-69.36z"/><path id="5mwgk" d="M1825.02 825.9s-29.78 33.71-30.02 76.87c2.26-37.3 25.54-64.64 34.15-72.39z"/><path id="5mwgm" d="M1832.58 834.06l-5.98-1.42-1.62-7.02 5.78.6z"/><path id="5mwgn" d="M1836.34 811.65l-3.96 5.98-7.19.12 4.49 5.6-1.78 5.82 1.13 1.13 5.25-2.58 5.9 4.12-.32-7.15 5-3.03-.72-1.7-5.45-1.53z"/><path id="5mwgo" d="M1836.74 814.03l-3.52 5.25-6.26.08 3.92 4.92-1.86 6.02 5.9-2.18 5.17 3.6-.28-6.26 5.05-3.8-6.1-1.7z"/><path id="5mwgq" d="M1860.47 892.2s-40.1 20.71-51.85 62.26c15.4-35.5 44.25-51.64 54.6-56.81z"/><path id="5mwgs" d="M1858.12 887.75s-37.7 24.55-49.5 66.1c12.16-35.38 41.95-55.48 52.29-60.65z"/><path id="5mwgu" d="M1863.21 897.64l-5.37-2.94.36-7.23 5.42 1.94z"/><path id="5mwgv" d="M1872.83 877.06l-5.42 4.72-6.95-1.81 2.83 6.62-3.27 5.09.8 1.4 5.75-1.08 4.56 5.53 1.62-6.99 5.62-1.57-.25-1.82-4.85-2.94z"/><path id="5mwgw" d="M1872.59 879.44l-4.77 4.12-6.1-1.58 2.46 5.82-3.35 5.29 6.26-.53 4 4.85 1.42-6.14 5.86-2.3-5.38-3.27z"/><linearGradient id="5mwgb" x1="1839.06" x2="1831.54" y1="925.22" y2="842.78" gradientUnits="userSpaceOnUse"><stop offset="0" stop-color="#ffc036"/><stop offset="1" stop-color="#ff8d00"/></linearGradient><linearGradient id="5mwgd" x1="1868.56" x2="1820.59" y1="838.48" y2="890.98" gradientUnits="userSpaceOnUse"><stop offset="0" stop-color="#ffc036"/><stop offset="1" stop-color="#ff8d00"/></linearGradient><linearGradient id="5mwgh" x1="1892.93" x2="1864.11" y1="823.1" y2="843.71" gradientUnits="userSpaceOnUse"><stop offset="0" stop-color="#ffc036"/><stop offset="1" stop-color="#ff8d00"/></linearGradient><linearGradient id="5mwgj" x1="1822.26" x2="1803.72" y1="894.59" y2="837.59" gradientUnits="userSpaceOnUse"><stop offset="0" stop-color="#ffc036"/><stop offset="1" stop-color="#ff8d00"/></linearGradient><linearGradient id="5mwgl" x1="1829.17" x2="1803.73" y1="828.63" y2="873.37" gradientUnits="userSpaceOnUse"><stop offset="0" stop-color="#ffc036"/><stop offset="1" stop-color="#ff8d00"/></linearGradient><linearGradient id="5mwgp" x1="1843.91" x2="1826.87" y1="813.87" y2="833.04" gradientUnits="userSpaceOnUse"><stop offset="0" stop-color="#ffc036"/><stop offset="1" stop-color="#ff8d00"/></linearGradient><linearGradient id="5mwgr" x1="1837.1" x2="1834.48" y1="953.21" y2="893.34" gradientUnits="userSpaceOnUse"><stop offset="0" stop-color="#ffc036"/><stop offset="1" stop-color="#ff8d00"/></linearGradient><linearGradient id="5mwgt" x1="1861.4" x2="1824.91" y1="891.5" y2="927.82" gradientUnits="userSpaceOnUse"><stop offset="0" stop-color="#ffc036"/><stop offset="1" stop-color="#ff8d00"/></linearGradient><linearGradient id="5mwgx" x1="1879.55" x2="1858.01" y1="881.2" y2="895.12" gradientUnits="userSpaceOnUse"><stop offset="0" stop-color="#ffc036"/><stop offset="1" stop-color="#ff8d00"/></linearGradient></defs><g><g transform="translate(-1795 -811)"><g><use fill="url(#5mwgb)" xlink:href="#5mwga"/></g><g><use fill="url(#5mwgd)" xlink:href="#5mwgc"/></g><g><use fill="#1a1a3f" xlink:href="#5mwge"/></g><g><use fill="#ff8d00" xlink:href="#5mwgf"/></g><g><use fill="url(#5mwgh)" xlink:href="#5mwgg"/></g></g><g transform="translate(-1795 -811)"><g><use fill="url(#5mwgj)" xlink:href="#5mwgi"/></g><g><use fill="url(#5mwgl)" xlink:href="#5mwgk"/></g><g><use fill="#1a1a3f" xlink:href="#5mwgm"/></g><g><use fill="#ff8d00" xlink:href="#5mwgn"/></g><g><use fill="url(#5mwgp)" xlink:href="#5mwgo"/></g></g><g transform="translate(-1795 -811)"><g><use fill="url(#5mwgr)" xlink:href="#5mwgq"/></g><g><use fill="url(#5mwgt)" xlink:href="#5mwgs"/></g><g><use fill="#1a1a3f" xlink:href="#5mwgu"/></g><g><use fill="#ff8d00" xlink:href="#5mwgv"/></g><g><use fill="url(#5mwgx)" xlink:href="#5mwgw"/></g></g></g></svg>