<svg xmlns="http://www.w3.org/2000/svg" xmlns:xlink="http://www.w3.org/1999/xlink" width="16" height="16" viewBox="0 0 16 16"><defs><path id="nnmya" d="M1282.12 386a.78.78 0 0 1-.78.79h-2.55v2.53a.8.8 0 0 1-.23.56.8.8 0 0 1-.56.22.78.78 0 0 1-.54-.22.75.75 0 0 1-.25-.56v-2.53h-2.55a.78.78 0 0 1-.79-.79c0-.2.09-.39.23-.54a.75.75 0 0 1 .56-.25h2.55v-2.53c0-.21.08-.4.25-.56a.8.8 0 0 1 1.1 0 .8.8 0 0 1 .23.56v2.53h2.55c.2 0 .4.08.56.25.14.15.22.34.22.54m2.81-4.01A7.9 7.9 0 0 1 1286 386a7.9 7.9 0 0 1-3.99 6.93A7.89 7.89 0 0 1 1278 394a7.9 7.9 0 0 1-6.93-3.99A7.9 7.9 0 0 1 1270 386a7.9 7.9 0 0 1 3.99-6.93A7.9 7.9 0 0 1 1278 378a7.89 7.89 0 0 1 6.93 3.99m-1 6.5a6.36 6.36 0 0 0-1.4-7.03 6.52 6.52 0 0 0-4.53-1.89 6.33 6.33 0 0 0-4.54 1.9 6.36 6.36 0 0 0 0 9.08 6.44 6.44 0 0 0 10.46-2.05"/></defs><g><g transform="translate(-1270 -378)"><use fill="#737596" xlink:href="#nnmya"/></g></g></svg>