<svg xmlns="http://www.w3.org/2000/svg" xmlns:xlink="http://www.w3.org/1999/xlink" width="16" height="16" viewBox="0 0 16 16"><defs><path id="jygva" d="M1227.89 386.57a.77.77 0 0 1-.55.23h-6.68a.78.78 0 0 1-.79-.79c0-.21.09-.4.23-.55a.75.75 0 0 1 .56-.25h6.68c.2 0 .4.08.56.25a.79.79 0 0 1-.01 1.11zm3.04-4.58A7.9 7.9 0 0 1 1232 386a7.9 7.9 0 0 1-3.99 6.93A7.89 7.89 0 0 1 1224 394a7.9 7.9 0 0 1-6.93-3.99A7.9 7.9 0 0 1 1216 386a7.9 7.9 0 0 1 3.99-6.93A7.9 7.9 0 0 1 1224 378a7.89 7.89 0 0 1 6.93 3.99zm-1 6.5a6.36 6.36 0 0 0-1.4-7.03 6.52 6.52 0 0 0-4.53-1.89 6.33 6.33 0 0 0-4.54 1.9 6.36 6.36 0 0 0 0 9.08 6.44 6.44 0 0 0 10.46-2.05z"/></defs><g><g transform="translate(-1216 -378)"><use fill="#737596" xlink:href="#jygva"/></g></g></svg>