<svg xmlns="http://www.w3.org/2000/svg" xmlns:xlink="http://www.w3.org/1999/xlink" width="24" height="20" viewBox="0 0 24 20"><defs><path id="yon7a" d="M197.61 29.87c.36 0 .64-.55.64-1.23 0-.68-.28-1.23-.64-1.23-.35 0-.64.55-.64 1.23 0 .68.29 1.23.64 1.23zm-13.02-4.54c.5 0 .89.76.89 1.7s-.4 1.7-.89 1.7-.88-.76-.88-1.7.4-1.7.88-1.7zm0 11.7c.5 0 .89.77.89 1.7 0 .95-.4 1.7-.89 1.7s-.88-.75-.88-1.7c0-.93.4-1.7.88-1.7zm13.66.1c0-.68-.28-1.24-.64-1.24-.35 0-.64.56-.64 1.24 0 .68.29 1.24.64 1.24.36 0 .64-.56.64-1.24zm-7.34-8.4c.49 0 .88-.76.88-1.7s-.4-1.7-.88-1.7c-.5 0-.89.76-.89 1.7s.4 1.7.89 1.7zm.88 10c0-.93-.4-1.7-.88-1.7-.5 0-.89.77-.89 1.7 0 .95.4 1.7.89 1.7s.88-.75.88-1.7zm7.77-11.84v11.85c0 .88-.46 1.41-1.41 1.63l-8.97 2.16.02.01s-1.28.33-2 .45c-.41.07-.83-.18-.83-.18s.35-.02.6-.28c.24-.25.24-.63.24-.64V23.91c0-.5.38-.91.84-.91l10.2 2.46c.95.22 1.31.6 1.31 1.43zm-22.92.52c.36 0 .64.55.64 1.23 0 .68-.29 1.23-.64 1.23-.35 0-.64-.55-.64-1.23 0-.68.29-1.23.64-1.23zm0 8.48c.35 0 .64.56.64 1.24 0 .68-.29 1.24-.64 1.24-.35 0-.64-.56-.64-1.24 0-.68.28-1.24.64-1.24zm3.64-4.76c.41 0 .75.65.75 1.45 0 .8-.34 1.44-.75 1.44-.42 0-.76-.64-.76-1.44 0-.8.34-1.45.76-1.45z"/></defs><g><g transform="translate(-176 -23)"><g><use fill="#fff" xlink:href="#yon7a"/></g></g></g></svg>