<svg xmlns="http://www.w3.org/2000/svg" xmlns:xlink="http://www.w3.org/1999/xlink" width="50" height="43" viewBox="0 0 50 43"><defs><path id="hny8a" d="M1035.3 1364.85c0-8.15 6.54-14.75 14.6-14.75 8.07 0 14.61 6.6 14.61 14.75s-6.54 14.75-14.6 14.75c-8.07 0-14.61-6.6-14.61-14.75z"/><path id="hny8c" d="M1042.82 1359.35c0-3.98 3.46-7.2 7.72-7.2 4.27 0 7.73 3.22 7.73 7.2s-3.46 7.2-7.73 7.2c-4.26 0-7.72-3.22-7.72-7.2z"/><path id="hny8e" d="M1052.52 1379.25c-6.29-3.8-11.83-3.05-11.83-3.05s2.18 2.25 5.64 2.95c3.47.75 6.2.1 6.2.1z"/><path id="hny8g" d="M1036.04 1369.2s2.38-4.5.55-10c0 0-1.04 1.7-1.24 4.8-.2 3.1.7 5.2.7 5.2z"/><path id="hny8i" d="M1046.78 1360.7l.74-1.25s2.38 1.8 3.17.65c.8-1.15-1.83-1.75-1.83-1.75l.6-1.35s1.87.85 2.07-.1c.25-1-1.93-1-2.42-.95v-1.4s4.85-.45 4.4 2.65c-.2 1.55-1.83 1.3-1.83 1.3s1.68 1 1 2.45c-.55 1.45-3.23 1.9-5.9-.25z"/><path id="hny8k" d="M1053.22 1379.25s.6-12.35 11.29-14.35c-6.24 4.15-8.42 8.1-8.67 13.45-1.28.6-2.62.9-2.62.9z"/><path id="hny8l" d="M1055.79 1378.2c0-8.12 6.52-14.7 14.55-14.7 8.04 0 14.56 6.58 14.56 14.7s-6.52 14.7-14.55 14.7a14.63 14.63 0 0 1-14.56-14.7z"/><path id="hny8n" d="M1067.87 1376.4c0-4.5 3.21-8.15 7.18-8.15 3.97 0 7.18 3.65 7.18 8.15s-3.21 8.15-7.18 8.15c-3.97 0-7.18-3.65-7.18-8.15z"/><path id="hny8p" d="M1074.55 1377.15l.35-3.25 1.09 2.7zm4.66-.15l-.6-1.45s-.5.15-.89.35c-.54-1.5-1.19-3.2-1.73-4.05-1.14.45-2.62.9-2.62.9s-.4 4.35-.5 5.3c.25.8.5 1.5.5 1.5l3.06-1.4s.25.65.45 1.55c.84-.35 1.83-.8 1.83-.8s-.2-.6-.44-1.5z"/><path id="hny8q" d="M1059.9 1368s7.33-.9 11.19-4.5c0 0-2.72-.2-5.6.85-2.87 1-4.9 2.75-5.59 3.65z"/><path id="hny8s" d="M1065.59 1392.05s6.88-3.45 13.66-2.2c0 0-2.62 2.15-7.17 2.9-3.32.55-6.49-.7-6.49-.7z"/><path id="hny8u" d="M1060.15 1388.65c-.25-10-3.62-15.05-3.62-15.05s-1.48 3.95-.2 8.45c1.3 4.5 3.82 6.6 3.82 6.6z"/><linearGradient id="hny8b" x1="1039.83" x2="1065.23" y1="1353" y2="1382.92" gradientUnits="userSpaceOnUse"><stop offset="0" stop-color="#00c6e4"/><stop offset="1" stop-color="#0084f1"/></linearGradient><linearGradient id="hny8d" x1="1050.55" x2="1052.29" y1="1359.43" y2="1396.01" gradientUnits="userSpaceOnUse"><stop offset="0" stop-color="#ebeaf5"/><stop offset="1" stop-color="#beb9de"/></linearGradient><linearGradient id="hny8f" x1="1045.77" x2="1047.5" y1="1359.67" y2="1396.23" gradientUnits="userSpaceOnUse"><stop offset="0" stop-color="#ebeaf5"/><stop offset="1" stop-color="#beb9de"/></linearGradient><linearGradient id="hny8h" x1="1036.1" x2="1037.83" y1="1360.13" y2="1396.71" gradientUnits="userSpaceOnUse"><stop offset="0" stop-color="#ebeaf5"/><stop offset="1" stop-color="#beb9de"/></linearGradient><linearGradient id="hny8j" x1="1051.51" x2="1047.39" y1="1354.54" y2="1369.54" gradientUnits="userSpaceOnUse"><stop offset="0" stop-color="#00c6e4"/><stop offset="1" stop-color="#0084f1"/></linearGradient><linearGradient id="hny8m" x1="1066.86" x2="1073.3" y1="1363.91" y2="1390.08" gradientUnits="userSpaceOnUse"><stop offset="0" stop-color="#ffc036"/><stop offset="1" stop-color="#ff8d00"/></linearGradient><linearGradient id="hny8o" x1="1083.51" x2="1148.63" y1="1386.39" y2="1463.51" gradientUnits="userSpaceOnUse"><stop offset="0" stop-color="#ebeaf5"/><stop offset="1" stop-color="#beb9de"/></linearGradient><linearGradient id="hny8r" x1="1083.18" x2="1148.29" y1="1386.7" y2="1463.9" gradientUnits="userSpaceOnUse"><stop offset="0" stop-color="#ebeaf5"/><stop offset="1" stop-color="#beb9de"/></linearGradient><linearGradient id="hny8t" x1="1074.86" x2="1139.99" y1="1393.84" y2="1470.9" gradientUnits="userSpaceOnUse"><stop offset="0" stop-color="#ebeaf5"/><stop offset="1" stop-color="#beb9de"/></linearGradient><linearGradient id="hny8v" x1="1071.5" x2="1136.65" y1="1396.74" y2="1473.86" gradientUnits="userSpaceOnUse"><stop offset="0" stop-color="#ebeaf5"/><stop offset="1" stop-color="#beb9de"/></linearGradient></defs><g><g transform="translate(-1035 -1350)"><g><use fill="url(#hny8b)" xlink:href="#hny8a"/></g><g><use fill="url(#hny8d)" xlink:href="#hny8c"/></g><g><use fill="url(#hny8f)" xlink:href="#hny8e"/></g><g><use fill="url(#hny8h)" xlink:href="#hny8g"/></g><g><use fill="url(#hny8j)" xlink:href="#hny8i"/></g><g><use fill="#008cef" xlink:href="#hny8k"/></g><g><use fill="url(#hny8m)" xlink:href="#hny8l"/></g><g><use fill="url(#hny8o)" xlink:href="#hny8n"/></g><g><use fill="#ee7b00" xlink:href="#hny8p"/></g><g><use fill="url(#hny8r)" xlink:href="#hny8q"/></g><g><use fill="url(#hny8t)" xlink:href="#hny8s"/></g><g><use fill="url(#hny8v)" xlink:href="#hny8u"/></g></g></g></svg>