<svg xmlns="http://www.w3.org/2000/svg" xmlns:xlink="http://www.w3.org/1999/xlink" width="40" height="30" viewBox="0 0 40 30"><defs><path id="v1ona" d="M951.3 279.1l-9.13-3.69V261.2l17.72-2.18 9.38-1.3v14.22z"/><path id="v1onc" d="M942.17 262.15v.4l9.14 3.72 17.96-7.2v-.4l-17.96 7.16z"/><path id="v1ond" d="M942.17 263.45v.4l9.14 3.69 17.96-7.16v-.41l-17.96 7.16z"/><path id="v1one" d="M942.17 264.78v.4l9.14 3.72 17.96-7.2v-.4l-17.96 7.16z"/><path id="v1onf" d="M942.17 266.1v.45l9.14 3.68 17.96-7.16v-.44l-17.96 7.2z"/><path id="v1ong" d="M942.17 267.47v.4l9.14 3.69 17.96-7.16v-.41l-17.96 7.16z"/><path id="v1onh" d="M942.17 268.8v.4l9.14 3.72 17.96-7.2v-.4l-17.96 7.16z"/><path id="v1oni" d="M942.17 270.16v.41l9.14 3.68 17.96-7.16v-.44l-17.96 7.2z"/><path id="v1onj" d="M942.17 271.49v.4l9.14 3.69 17.96-7.16V268l-17.96 7.16z"/><path id="v1onk" d="M942.17 272.82v.44l9.14 3.68 17.96-7.2v-.4l-17.96 7.16z"/><path id="v1onl" d="M942.17 274.18v.4l9.14 3.69 17.96-7.16v-.41l-17.96 7.16z"/><path id="v1onm" d="M951.3 264.84l-9.13-3.71 17.72-7.06 9.38 3.58z"/><path id="v1ono" d="M963.04 274.56l-4.21 1.63v-14.38l4.2-1.64z"/><path id="v1onq" d="M951.24 259.36c0-1.1 2.16-1.98 4.83-1.98s4.83.88 4.83 1.98c0 1.09-2.16 1.97-4.83 1.97s-4.83-.88-4.83-1.97z"/><path id="v1onr" d="M960.66 256.9c0-.23.46-.41 1.03-.41.58 0 1.04.18 1.04.41 0 .23-.46.41-1.04.41-.57 0-1.03-.18-1.03-.41z"/><path id="v1ons" d="M948.9 261.91c0-.23.46-.41 1.03-.41.58 0 1.04.18 1.04.41 0 .23-.46.41-1.04.41-.57 0-1.03-.18-1.03-.41z"/><path id="v1ont" d="M958.9 261.8l-9.14-3.68 3.9-1.53 9.38 3.58z"/><path id="v1onv" d="M963.76 283.93l-9.14-3.68v-4.91l17.76-2.18 9.38-1.3v4.9z"/><path id="v1onx" d="M954.62 276.3v.44l9.14 3.68 18-7.2v-.4l-18 7.2z"/><path id="v1ony" d="M954.62 277.59v.4l9.14 3.69 18-7.16v-.41l-18 7.16z"/><path id="v1onz" d="M954.62 278.9v.4l9.14 3.68 18-7.16v-.44l-18 7.2z"/><path id="v1onA" d="M963.76 279l-9.14-3.69 17.76-7.09 9.38 3.61z"/><path id="v1onC" d="M975.48 279.3l-4.17 1.63v-4.97l4.17-1.64z"/><path id="v1onE" d="M963.69 273.5c0-1.1 2.16-1.98 4.83-1.98s4.83.88 4.83 1.98c0 1.09-2.16 1.97-4.83 1.97s-4.83-.88-4.83-1.98z"/><path id="v1onF" d="M973.14 271.08c0-.23.46-.41 1.03-.41.58 0 1.04.18 1.04.41 0 .23-.46.41-1.04.41-.57 0-1.03-.18-1.03-.41z"/><path id="v1onG" d="M961.38 276.09c0-.23.46-.41 1.03-.41.58 0 1.04.18 1.04.41 0 .23-.46.41-1.04.41-.57 0-1.03-.18-1.03-.41z"/><path id="v1onH" d="M971.34 275.99l-9.1-3.68 3.86-1.57 9.38 3.58z"/><linearGradient id="v1onb" x1="948.15" x2="972.78" y1="273.74" y2="250.38" gradientUnits="userSpaceOnUse"><stop offset="0" stop-color="#a19eb5"/><stop offset="1" stop-color="#4a4571"/></linearGradient><linearGradient id="v1onn" x1="938.8" x2="968.09" y1="244.57" y2="270.23" gradientUnits="userSpaceOnUse"><stop offset="0" stop-color="#a19eb5"/><stop offset="1" stop-color="#4a4571"/></linearGradient><linearGradient id="v1onp" x1="956.31" x2="984.18" y1="265.48" y2="281.75" gradientUnits="userSpaceOnUse"><stop offset="0" stop-color="#a19eb5"/><stop offset="1" stop-color="#4a4571"/></linearGradient><linearGradient id="v1onu" x1="950.74" x2="984.86" y1="255.84" y2="275.78" gradientUnits="userSpaceOnUse"><stop offset="0" stop-color="#a19eb5"/><stop offset="1" stop-color="#4a4571"/></linearGradient><linearGradient id="v1onw" x1="962.16" x2="981.78" y1="281.77" y2="263.17" gradientUnits="userSpaceOnUse"><stop offset="0" stop-color="#a19eb5"/><stop offset="1" stop-color="#4a4571"/></linearGradient><linearGradient id="v1onB" x1="951.27" x2="980.56" y1="258.73" y2="284.39" gradientUnits="userSpaceOnUse"><stop offset="0" stop-color="#a19eb5"/><stop offset="1" stop-color="#4a4571"/></linearGradient><linearGradient id="v1onD" x1="970.98" x2="985.54" y1="276.21" y2="284.71" gradientUnits="userSpaceOnUse"><stop offset="0" stop-color="#a19eb5"/><stop offset="1" stop-color="#4a4571"/></linearGradient><linearGradient id="v1onI" x1="963.2" x2="997.3" y1="270" y2="289.93" gradientUnits="userSpaceOnUse"><stop offset="0" stop-color="#a19eb5"/><stop offset="1" stop-color="#4a4571"/></linearGradient></defs><g><g transform="translate(-942 -254)"><g><g><g><use fill="url(#v1onb)" xlink:href="#v1ona"/></g><g opacity=".51"><use fill="#4a4571" xlink:href="#v1onc"/></g><g opacity=".51"><use fill="#4a4571" xlink:href="#v1ond"/></g><g opacity=".51"><use fill="#4a4571" xlink:href="#v1one"/></g><g opacity=".51"><use fill="#4a4571" xlink:href="#v1onf"/></g><g opacity=".51"><use fill="#4a4571" xlink:href="#v1ong"/></g><g opacity=".51"><use fill="#4a4571" xlink:href="#v1onh"/></g><g opacity=".51"><use fill="#4a4571" xlink:href="#v1oni"/></g><g opacity=".51"><use fill="#4a4571" xlink:href="#v1onj"/></g><g opacity=".51"><use fill="#4a4571" xlink:href="#v1onk"/></g><g opacity=".51"><use fill="#4a4571" xlink:href="#v1onl"/></g><g><use fill="url(#v1onn)" xlink:href="#v1onm"/></g><g><use fill="url(#v1onp)" xlink:href="#v1ono"/></g><g><use fill="#4a4571" xlink:href="#v1onq"/></g><g><use fill="#4a4571" xlink:href="#v1onr"/></g><g><use fill="#4a4571" xlink:href="#v1ons"/></g><g><use fill="url(#v1onu)" xlink:href="#v1ont"/></g></g><g><g><use fill="url(#v1onw)" xlink:href="#v1onv"/></g><g opacity=".51"><use fill="#4a4571" xlink:href="#v1onx"/></g><g opacity=".51"><use fill="#4a4571" xlink:href="#v1ony"/></g><g opacity=".51"><use fill="#4a4571" xlink:href="#v1onz"/></g><g><use fill="url(#v1onB)" xlink:href="#v1onA"/></g><g><use fill="url(#v1onD)" xlink:href="#v1onC"/></g><g><use fill="#4a4571" xlink:href="#v1onE"/></g><g><use fill="#4a4571" xlink:href="#v1onF"/></g><g><use fill="#4a4571" xlink:href="#v1onG"/></g><g><use fill="url(#v1onI)" xlink:href="#v1onH"/></g></g></g></g></g></svg>