<svg xmlns="http://www.w3.org/2000/svg" xmlns:xlink="http://www.w3.org/1999/xlink" width="64" height="54" viewBox="0 0 64 54"><defs><path id="hsrwa" d="M288.38 374.65a18.61 18.61 0 0 1 18.7-18.52c10.32 0 18.69 8.3 18.69 18.52a18.61 18.61 0 0 1-18.7 18.53c-10.32 0-18.69-8.3-18.69-18.53z"/><path id="hsrwc" d="M298.01 367.74c0-5 4.43-9.04 9.88-9.04 5.46 0 9.89 4.05 9.89 9.04 0 5-4.43 9.04-9.88 9.04-5.46 0-9.89-4.05-9.89-9.04z"/><path id="hsrwe" d="M310.43 392.74c-8.04-4.78-15.14-3.83-15.14-3.83s2.79 2.82 7.22 3.7c4.44.94 7.92.13 7.92.13z"/><path id="hsrwg" d="M289.33 380.1s3.05-5.64.7-12.55c0 0-1.33 2.13-1.58 6.03-.26 3.9.88 6.53.88 6.53z"/><path id="hsrwi" d="M303.08 369.44l.95-1.57s3.04 2.26 4.06.82c1.01-1.45-2.35-2.2-2.35-2.2l.76-1.7s2.41 1.07 2.66-.12c.32-1.26-2.47-1.26-3.1-1.2v-1.75s6.2-.57 5.64 3.33c-.26 1.94-2.35 1.63-2.35 1.63s2.16 1.25 1.27 3.08c-.7 1.82-4.12 2.38-7.54-.32z"/><path id="hsrwk" d="M311.32 392.73s.76-15.5 14.45-18.02c-7.99 5.21-10.77 10.17-11.1 16.9-1.64.74-3.35 1.12-3.35 1.12z"/><path id="hsrwl" d="M314.61 391.41c0-10.2 8.34-18.46 18.63-18.46a18.55 18.55 0 0 1 18.63 18.46c0 10.2-8.34 18.46-18.63 18.46a18.55 18.55 0 0 1-18.63-18.46z"/><path id="hsrwn" d="M330.08 389.15c0-5.65 4.11-10.23 9.19-10.23 5.08 0 9.19 4.58 9.19 10.23 0 5.66-4.11 10.24-9.19 10.24-5.08 0-9.19-4.58-9.19-10.23z"/><path id="hsrwp" d="M338.63 390.1l.45-4.09 1.4 3.4zm5.96-.2l-.76-1.81s-.63.18-1.14.44c-.7-1.89-1.52-4.02-2.22-5.09-1.46.57-3.36 1.13-3.36 1.13s-.5 5.46-.63 6.66c.32 1 .63 1.88.63 1.88l3.93-1.76s.32.82.57 1.95c1.08-.44 2.35-1 2.35-1s-.26-.76-.57-1.89z"/><path id="hsrwq" d="M319.87 378.6s9.38-1.13 14.32-5.65c0 0-3.48-.25-7.16 1.07-3.67 1.25-6.27 3.45-7.16 4.58z"/><path id="hsrws" d="M327.16 408.8s8.8-4.33 17.49-2.76c0 0-3.36 2.7-9.19 3.64-4.24.7-8.3-.87-8.3-.87z"/><path id="hsrwu" d="M320.2 404.54c-.33-12.56-4.63-18.9-4.63-18.9s-1.9 4.96-.26 10.61c1.65 5.65 4.88 8.29 4.88 8.29z"/><linearGradient id="hsrwb" x1="294.18" x2="326.71" y1="359.77" y2="397.35" gradientUnits="userSpaceOnUse"><stop offset="0" stop-color="#00c6e4"/><stop offset="1" stop-color="#0084f1"/></linearGradient><linearGradient id="hsrwd" x1="307.91" x2="310.12" y1="367.84" y2="413.77" gradientUnits="userSpaceOnUse"><stop offset="0" stop-color="#ebeaf5"/><stop offset="1" stop-color="#beb9de"/></linearGradient><linearGradient id="hsrwf" x1="301.79" x2="304.01" y1="368.15" y2="414.05" gradientUnits="userSpaceOnUse"><stop offset="0" stop-color="#ebeaf5"/><stop offset="1" stop-color="#beb9de"/></linearGradient><linearGradient id="hsrwh" x1="289.41" x2="291.63" y1="368.71" y2="414.66" gradientUnits="userSpaceOnUse"><stop offset="0" stop-color="#ebeaf5"/><stop offset="1" stop-color="#beb9de"/></linearGradient><linearGradient id="hsrwj" x1="309.13" x2="303.86" y1="361.7" y2="380.54" gradientUnits="userSpaceOnUse"><stop offset="0" stop-color="#00c6e4"/><stop offset="1" stop-color="#0084f1"/></linearGradient><linearGradient id="hsrwm" x1="328.78" x2="337.02" y1="373.47" y2="406.33" gradientUnits="userSpaceOnUse"><stop offset="0" stop-color="#ffc036"/><stop offset="1" stop-color="#ff8d00"/></linearGradient><linearGradient id="hsrwo" x1="350.1" x2="433.44" y1="401.7" y2="498.55" gradientUnits="userSpaceOnUse"><stop offset="0" stop-color="#ebeaf5"/><stop offset="1" stop-color="#beb9de"/></linearGradient><linearGradient id="hsrwr" x1="349.66" x2="432.98" y1="402.05" y2="498.9" gradientUnits="userSpaceOnUse"><stop offset="0" stop-color="#ebeaf5"/><stop offset="1" stop-color="#beb9de"/></linearGradient><linearGradient id="hsrwt" x1="339.02" x2="422.35" y1="411.05" y2="507.9" gradientUnits="userSpaceOnUse"><stop offset="0" stop-color="#ebeaf5"/><stop offset="1" stop-color="#beb9de"/></linearGradient><linearGradient id="hsrwv" x1="334.7" x2="418.01" y1="414.7" y2="511.55" gradientUnits="userSpaceOnUse"><stop offset="0" stop-color="#ebeaf5"/><stop offset="1" stop-color="#beb9de"/></linearGradient></defs><g><g transform="translate(-288 -356)"><g><g><use fill="url(#hsrwb)" xlink:href="#hsrwa"/></g><g><use fill="url(#hsrwd)" xlink:href="#hsrwc"/></g><g><use fill="url(#hsrwf)" xlink:href="#hsrwe"/></g><g><use fill="url(#hsrwh)" xlink:href="#hsrwg"/></g><g><use fill="url(#hsrwj)" xlink:href="#hsrwi"/></g><g><use fill="#008cef" xlink:href="#hsrwk"/></g><g><use fill="url(#hsrwm)" xlink:href="#hsrwl"/></g><g><use fill="url(#hsrwo)" xlink:href="#hsrwn"/></g><g><use fill="#e47600" xlink:href="#hsrwp"/></g><g><use fill="url(#hsrwr)" xlink:href="#hsrwq"/></g><g><use fill="url(#hsrwt)" xlink:href="#hsrws"/></g><g><use fill="url(#hsrwv)" xlink:href="#hsrwu"/></g></g></g></g></svg>