<svg xmlns="http://www.w3.org/2000/svg" xmlns:xlink="http://www.w3.org/1999/xlink" width="59" height="64" viewBox="0 0 59 64"><defs><path id="dqx0a" d="M693.29 373.56v30.13l27.53 10.8 27.4-10.87v-30.06z"/><path id="dqx0c" d="M736.56 408.21v-29.54l-4 1.87v29.35z"/><path id="dqx0d" d="M704.64 408.08v-29.54l4 1.81v29.41z"/><path id="dqx0e" d="M749.74 367.61v6.01l-28.91 11.77-29.24-11.77v-6.01"/><path id="dqx0g" d="M738.6 378.15v-5.95l-4.07 1.62v6z"/><path id="dqx0h" d="M703 378.15v-5.95l4 1.62v6z"/><path id="dqx0i" d="M691.59 367.61l29.24 11.77 28.9-11.77-28.97-11.96z"/><path id="dqx0k" d="M738.6 372.2l-4.07 1.62-28.78-11.77 4-1.68z"/><path id="dqx0l" d="M703.06 372.2l4 1.68 28.78-12.02-4.07-1.62z"/><path id="dqx0m" d="M715.84 367.87s-1.7-6.27-4.46-10.28c-1.18-1.75-2.88-3.04-4.2-3.36-4.38-1.04-2.94 5.04-.97 7.43 2.81 3.36 9.63 6.2 9.63 6.2z"/><path id="dqx0o" d="M722.73 364.83s-4.26-12.28-8.65-13.31c-4.4-1.04-2.5 5.17-.99 7.1 1.51 1.95 9.64 6.21 9.64 6.21z"/><path id="dqx0p" d="M705.55 354.17l6.82-2.65 10.36 13.32-6.89 2.97-3.28-7.3c-.06.06-2.22-6.4-7.01-6.34z"/><path id="dqx0q" d="M723.19 363.87c1.57-.71 6.1-2.52 7.28-3.1a5.18 5.18 0 0 1 4.2-.26c4.38 1.48 5.63 7.76 2.61 9.37l-6.35 3.23s2.62-3.16 1.7-3.55c-.07-1.36-3.08-4.79-9.44-5.69z"/><path id="dqx0r" d="M716.37 368.59s6.88-6.99 12.06-5.24c5.18 1.75 5.97 10.67.66 10.21-4.4-.32-12.72-4.97-12.72-4.97z"/><path id="dqx0t" d="M720.17 368.45s4.4-3.68 7.21-2.78c2.89.97 3.28 5.89.4 5.63-2.43-.13-7.61-2.85-7.61-2.85z"/><path id="dqx0u" d="M713.16 364.7s-2.3-6.78-4.72-7.36c-2.42-.58-1.57 2.71-.46 4 1.51 1.82 5.18 3.37 5.18 3.37z"/><linearGradient id="dqx0b" x1="693.43" x2="744.57" y1="409.14" y2="370.68" gradientUnits="userSpaceOnUse"><stop offset="0" stop-color="#ffc036"/><stop offset="1" stop-color="#ff8d00"/></linearGradient><linearGradient id="dqx0f" x1="699.55" x2="761.83" y1="371.58" y2="380.14" gradientUnits="userSpaceOnUse"><stop offset="0" stop-color="#ffc036"/><stop offset="1" stop-color="#ff8d00"/></linearGradient><linearGradient id="dqx0j" x1="691.57" x2="749.77" y1="367.53" y2="367.53" gradientUnits="userSpaceOnUse"><stop offset="0" stop-color="#ffc036"/><stop offset="1" stop-color="#ff8d00"/></linearGradient><linearGradient id="dqx0n" x1="704.28" x2="715.82" y1="360.97" y2="360.97" gradientUnits="userSpaceOnUse"><stop offset="0" stop-color="#ffc036"/><stop offset="1" stop-color="#ff8d00"/></linearGradient><linearGradient id="dqx0s" x1="731.58" x2="711.54" y1="367.31" y2="372.78" gradientUnits="userSpaceOnUse"><stop offset="0" stop-color="#ffc036"/><stop offset="1" stop-color="#ff8d00"/></linearGradient></defs><g><g transform="translate(-691 -351)"><g><g><use fill="url(#dqx0b)" xlink:href="#dqx0a"/></g><g><use fill="#ee7b00" xlink:href="#dqx0c"/></g><g><use fill="#ee7b00" xlink:href="#dqx0d"/></g><g><use fill="url(#dqx0f)" xlink:href="#dqx0e"/></g><g><use fill="#ee7b00" xlink:href="#dqx0g"/></g><g><use fill="#ee7b00" xlink:href="#dqx0h"/></g><g><use fill="url(#dqx0j)" xlink:href="#dqx0i"/></g><g><use fill="#ee7b00" xlink:href="#dqx0k"/></g><g><use fill="#ee7b00" xlink:href="#dqx0l"/></g><g><use fill="url(#dqx0n)" xlink:href="#dqx0m"/></g><g><use fill="#ee7b00" xlink:href="#dqx0o"/></g><g><use fill="#ee7b00" xlink:href="#dqx0p"/></g><g><use fill="#ee7b00" xlink:href="#dqx0q"/></g><g><use fill="url(#dqx0s)" xlink:href="#dqx0r"/></g><g><use fill="#ee7b00" xlink:href="#dqx0t"/></g><g><use fill="#ee7b00" xlink:href="#dqx0u"/></g></g></g></g></svg>