<svg xmlns="http://www.w3.org/2000/svg" xmlns:xlink="http://www.w3.org/1999/xlink" width="61" height="64" viewBox="0 0 61 64"><defs><path id="m299a" d="M720.1 601.56L697.5 611c-1.11.4-2.27-.4-2.27-1.57v-23.34c0-1.28.75-2.5 1.97-2.96l22.6-9.43c1.1-.47 2.27.35 2.27 1.51v23.34c0 1.34-.82 2.5-1.98 3.02zm-29.87-16.06v30.31c0 .99.58 1.69 1.28 2.15 1.8 1.28 2.84 2.27 3.6 1.98l25.85-13.15a7.54 7.54 0 0 0 4.65-6.92l1.45-30.66s-1.91-1.22-2.55-1.69a2.5 2.5 0 0 0-2.33-.23l-27.3 11.28a7.45 7.45 0 0 0-4.65 6.93z"/><path id="m299c" d="M693.25 587.42v30.32c0 1.74 1.8 2.96 3.43 2.26l27.3-11.28a7.54 7.54 0 0 0 4.65-6.93v-30.25c0-1.75-1.8-2.97-3.43-2.27l-27.3 11.29a7.32 7.32 0 0 0-4.65 6.86z"/><path id="m299e" d="M704.99 605.23v-2.56l2.32-3.09c3.95-5.12 5.87-7.97 5.93-10.12 0-1.46-.87-2.27-2.96-1.46-1.57.64-2.9 1.98-3.9 3.09l-1.22-2.56a16.53 16.53 0 0 1 5.93-4.25c4.12-1.63 6.33-.17 6.33 3.14 0 3.03-2.2 6.34-4.82 9.78l-1.68 2.1v.05l6.97-2.8v3.5z"/><path id="m299g" d="M712.31 595.98v30.31c0 .99.58 1.69 1.28 2.15 1.8 1.28 2.84 2.27 3.6 1.98l25.85-13.15a7.54 7.54 0 0 0 4.65-6.92l1.45-30.66s-1.91-1.22-2.55-1.69a2.5 2.5 0 0 0-2.33-.23l-27.3 11.28a7.45 7.45 0 0 0-4.65 6.93z"/><path id="m299i" d="M715.33 597.9v30.3c0 1.75 1.8 2.97 3.43 2.27l27.3-11.28a7.54 7.54 0 0 0 4.65-6.93v-30.25c0-1.75-1.8-2.97-3.43-2.27l-27.3 11.29a7.32 7.32 0 0 0-4.65 6.86z"/><path id="m299k" d="M733.05 601.97l-3.37 3.08-.64-3.84 4.59-4.19 3.37-1.51v17.28l-3.9 1.75v-12.57z"/><linearGradient id="m299b" x1="717.65" x2="696.38" y1="563.17" y2="627.42" gradientUnits="userSpaceOnUse"><stop offset="0" stop-color="#00c6e4"/><stop offset="1" stop-color="#0084f1"/></linearGradient><linearGradient id="m299d" x1="703.77" x2="730.34" y1="582.28" y2="628.29" gradientUnits="userSpaceOnUse"><stop offset="0" stop-color="#00c6e4"/><stop offset="1" stop-color="#0084f1"/></linearGradient><linearGradient id="m299f" x1="711.44" x2="711.44" y1="640.94" y2="586.57" gradientUnits="userSpaceOnUse"><stop offset="0" stop-color="#00c6e4"/><stop offset="1" stop-color="#0084f1"/></linearGradient><linearGradient id="m299h" x1="696.78" x2="758.07" y1="566.92" y2="632.95" gradientUnits="userSpaceOnUse"><stop offset="0" stop-color="#ffc036"/><stop offset="1" stop-color="#ff8d00"/></linearGradient><linearGradient id="m299j" x1="725.85" x2="752.42" y1="592.75" y2="638.77" gradientUnits="userSpaceOnUse"><stop offset="0" stop-color="#ffc036"/><stop offset="1" stop-color="#ff8d00"/></linearGradient></defs><g><g transform="translate(-690 -567)"><g><g><use fill="url(#m299b)" xlink:href="#m299a"/></g><g><use fill="url(#m299d)" xlink:href="#m299c"/></g><g><use fill="url(#m299f)" xlink:href="#m299e"/></g><g><use fill="url(#m299h)" xlink:href="#m299g"/></g><g><use fill="url(#m299j)" xlink:href="#m299i"/></g><g><use fill="#e47600" xlink:href="#m299k"/></g></g></g></g></svg>