<svg xmlns="http://www.w3.org/2000/svg" xmlns:xlink="http://www.w3.org/1999/xlink" width="32" height="28" viewBox="0 0 32 28"><defs><path id="ndd7a" d="M733.34 1211.61c.49 0 .87-.77.87-1.72 0-.94-.38-1.71-.87-1.71-.48 0-.87.76-.87 1.71s.4 1.72.87 1.72zm-17.67-6.35c.67 0 1.2 1.07 1.2 2.38 0 1.31-.53 2.38-1.2 2.38-.67 0-1.2-1.07-1.2-2.38 0-1.32.53-2.38 1.2-2.38zm0 16.4c.67 0 1.2 1.06 1.2 2.38 0 1.32-.53 2.39-1.2 2.39-.67 0-1.2-1.07-1.2-2.39s.53-2.39 1.2-2.39zm18.54.12c0-.96-.38-1.73-.87-1.73-.48 0-.87.78-.87 1.73 0 .94.4 1.72.87 1.72.49 0 .87-.77.87-1.72zm-9.97-11.75c.66 0 1.2-1.07 1.2-2.39s-.54-2.39-1.2-2.39c-.67 0-1.2 1.07-1.2 2.4 0 1.3.53 2.38 1.2 2.38zm1.2 14.01c0-1.32-.54-2.39-1.2-2.39-.67 0-1.2 1.07-1.2 2.39s.53 2.39 1.2 2.39c.66 0 1.2-1.07 1.2-2.39zm10.56-16.6v16.6c0 1.23-.63 1.97-1.92 2.28l-12.18 3.03h.02s-1.74.47-2.7.63c-.58.1-1.15-.24-1.15-.24s.49-.04.82-.4c.33-.34.33-.88.33-.89v-25.17c0-.7.51-1.28 1.14-1.28l13.86 3.45c1.28.3 1.78.83 1.78 2zm-31.13.73c.48 0 .87.78.87 1.73s-.4 1.72-.87 1.72c-.48 0-.87-.77-.87-1.72s.39-1.73.87-1.73zm0 11.88c.48 0 .87.78.87 1.73 0 .94-.4 1.72-.87 1.72-.48 0-.87-.78-.87-1.72 0-.96.38-1.73.87-1.73zm4.94-6.66c.57 0 1.03.9 1.03 2.01 0 1.12-.46 2.02-1.03 2.02-.57 0-1.03-.9-1.03-2.02 0-1.11.46-2.01 1.03-2.01z"/></defs><g><g transform="translate(-704 -1202)"><use fill="#0e0e30" xlink:href="#ndd7a"/></g></g></svg>