<svg xmlns="http://www.w3.org/2000/svg" xmlns:xlink="http://www.w3.org/1999/xlink" width="16" height="16" viewBox="0 0 16 16"><defs><path id="3jf6a" d="M675.18 258.22a1.4 1.4 0 1 0 0-2.79 1.4 1.4 0 0 0 0 2.79zm7.65 0a1.4 1.4 0 1 0 0-2.78 1.4 1.4 0 0 0 0 2.78zm-3.83-3.6a1.4 1.4 0 1 0 0-2.78 1.4 1.4 0 0 0 0 2.78zm-3.82-4.04a1.4 1.4 0 1 0 0-2.8 1.4 1.4 0 0 0 0 2.8zm7.65 0a1.4 1.4 0 1 0 0-2.8 1.4 1.4 0 0 0 0 2.8zm-10.44-3.21c0-.54.44-.98.98-.98h11.27c.53 0 .97.44.97.98v11.27c0 .53-.44.97-.97.97h-11.27a.97.97 0 0 1-.98-.97zm.98-2.37a2.37 2.37 0 0 0-2.37 2.37v11.27c0 1.3 1.06 2.36 2.37 2.36h11.26c1.3 0 2.37-1.06 2.37-2.37v-11.26c0-1.3-1.06-2.37-2.37-2.37z"/></defs><g><g transform="translate(-671 -245)"><use fill="#737596" xlink:href="#3jf6a"/></g></g></svg>