<svg xmlns="http://www.w3.org/2000/svg" xmlns:xlink="http://www.w3.org/1999/xlink" viewBox="-8 -2 48 42" width="50" height="42">
  <defs>
    <path id="b" d="M707.2 759.26l-10.04-4.14v-15.96l19.52-2.45 10.31-1.45v15.96z"/>
    <path id="c" d="M697.16 740.25v.48l10.04 4.14 19.8-8.08v-.44l-19.8 8.04z"/>
    <path id="d" d="M697.16 741.69v.44l10.04 4.14 19.8-8.04v-.48l-19.8 8.08z"/>
    <path id="e" d="M697.16 743.18v.48l10.04 4.14 19.8-8.04v-.48l-19.8 8.04z"/>
    <path id="f" d="M697.16 744.71v.44l10.04 4.14 19.8-8.04v-.48l-19.8 8.08z"/>
    <path id="g" d="M697.16 746.2v.48l10.04 4.14 19.8-8.04v-.48l-19.8 8.04z"/>
    <path id="h" d="M697.16 747.73v.44l10.04 4.14 19.8-8.04v-.48l-19.8 8.08z"/>
    <path id="i" d="M697.16 749.21v.48l10.04 4.14 19.8-8.04v-.48l-19.8 8.04z"/>
    <path id="j" d="M697.16 750.74v.44l10.04 4.14 19.8-8.04v-.48l-19.8 8.08z"/>
    <path id="k" d="M697.16 752.23v.48l10.04 4.14 19.8-8.04v-.48l-19.8 8.04z"/>
    <path id="l" d="M697.16 753.76v.44l10.04 4.14 19.8-8.04v-.48l-19.8 8.08z"/>
    <path id="n" d="M707.2 743.26l-10.04-4.14 19.52-7.96 10.31 4.02z"/>
    <path id="p" d="M720.1 754.2l-4.62 1.85v-16.2l4.62-1.85z"/>
    <path id="q" d="M707.16 737.11c0-1.24 2.37-2.25 5.3-2.25 2.92 0 5.29 1 5.29 2.25 0 1.24-2.37 2.25-5.3 2.25-2.92 0-5.29-1-5.29-2.25z"/>
    <path id="r" d="M717.51 734.33c0-.27.5-.48 1.11-.48.62 0 1.12.21 1.12.48s-.5.48-1.11.48c-.62 0-1.12-.21-1.12-.48z"/>
    <path id="s" d="M704.61 739.96c0-.27.5-.48 1.11-.48.62 0 1.12.21 1.12.48s-.5.48-1.11.48c-.62 0-1.12-.21-1.12-.48z"/>
    <path id="u" d="M715.56 739.89l-10.04-4.14 4.26-1.77 10.32 4.06z"/>
    <path id="w" d="M719.86 753.96c0-2.7 5.19-4.87 11.59-4.87 6.4 0 11.59 2.18 11.59 4.87 0 2.68-5.19 4.86-11.59 4.86-6.4 0-11.59-2.18-11.59-4.87z"/>
    <path id="y" d="M719.86 754.08v-3.06h23.22v3.06z"/>
    <path id="A" d="M719.86 751.02c0-2.68 5.19-4.86 11.59-4.86 6.4 0 11.59 2.18 11.59 4.87 0 2.68-5.19 4.86-11.59 4.86-6.4 0-11.59-2.18-11.59-4.87z"/>
    <path id="C" d="M722.65 751.02c0-2.04 3.94-3.7 8.8-3.7 4.87 0 8.81 1.66 8.81 3.7s-3.94 3.7-8.8 3.7c-4.87 0-8.81-1.66-8.81-3.7z"/>
    <path id="E" d="M723.6 751.26c0-1.97 3.79-3.54 8.41-3.54 3.66 0 6.81 1 7.97 2.37-1-1.6-4.42-2.77-8.53-2.77-4.86 0-8.8 1.65-8.8 3.7 0 1.73 2.79 3.18 6.61 3.58-3.3-.49-5.65-1.81-5.65-3.34z"/>
    <path id="G" d="M720.38 750.1c0-2.7 5.19-4.87 11.59-4.87 6.4 0 11.59 2.18 11.59 4.87 0 2.68-5.19 4.86-11.59 4.86-6.4 0-11.59-2.18-11.59-4.87z"/>
    <path id="I" d="M720.38 750.22v-3.06h23.22v3.06z"/>
    <path id="K" d="M720.38 747.16c0-2.68 5.19-4.86 11.59-4.86 6.4 0 11.59 2.18 11.59 4.87 0 2.68-5.19 4.86-11.59 4.86-6.4 0-11.59-2.18-11.59-4.87z"/>
    <path id="M" d="M723.17 747.16c0-2.04 3.94-3.7 8.8-3.7 4.87 0 8.81 1.66 8.81 3.7s-3.94 3.7-8.8 3.7c-4.87 0-8.81-1.66-8.81-3.7z"/>
    <path id="O" d="M724.13 747.4c0-1.97 3.78-3.54 8.4-3.54 3.66 0 6.81 1 7.97 2.37-1-1.6-4.42-2.77-8.53-2.77-4.86 0-8.8 1.65-8.8 3.7 0 1.73 2.79 3.18 6.61 3.58-3.3-.49-5.65-1.81-5.65-3.34z"/>
    <path id="Q" d="M719.42 746c0-2.7 5.19-4.87 11.59-4.87 6.4 0 11.59 2.18 11.59 4.87 0 2.68-5.19 4.86-11.59 4.86-6.4 0-11.59-2.18-11.59-4.87z"/>
    <path id="S" d="M719.38 746.08v-3.06h23.22v3.06z"/>
    <path id="U" d="M719.42 743.02c0-2.68 5.19-4.86 11.59-4.86 6.4 0 11.59 2.18 11.59 4.87 0 2.68-5.19 4.86-11.59 4.86-6.4 0-11.59-2.18-11.59-4.87z"/>
    <path id="W" d="M722.21 743.02c0-2.04 3.94-3.7 8.8-3.7 4.87 0 8.81 1.66 8.81 3.7s-3.94 3.7-8.8 3.7c-4.87 0-8.81-1.66-8.81-3.7z"/>
    <path id="Y" d="M723.17 743.26c0-1.97 3.78-3.54 8.4-3.54 3.66 0 6.81 1 7.97 2.37-1-1.6-4.42-2.77-8.53-2.77-4.86 0-8.8 1.65-8.8 3.7 0 1.73 2.79 3.18 6.61 3.58-3.3-.49-5.65-1.81-5.65-3.34z"/>
    <path id="aa" d="M719.7 740.45c0-2.7 5.19-4.87 11.59-4.87 6.4 0 11.59 2.18 11.59 4.87 0 2.68-5.19 4.86-11.59 4.86-6.4 0-11.59-2.18-11.59-4.86z"/>
    <path id="ac" d="M719.7 740.53v-3.06h23.22v3.06z"/>
    <path id="ae" d="M719.7 737.48c0-2.7 5.19-4.87 11.59-4.87 6.4 0 11.59 2.18 11.59 4.87 0 2.68-5.19 4.86-11.59 4.86-6.4 0-11.59-2.18-11.59-4.87z"/>
    <path id="ag" d="M722.49 737.47c0-2.04 3.94-3.7 8.8-3.7 4.87 0 8.81 1.66 8.81 3.7s-3.94 3.7-8.8 3.7c-4.87 0-8.81-1.66-8.81-3.7z"/>
    <path id="ai" d="M723.45 737.71c0-1.97 3.78-3.54 8.4-3.54 3.66 0 6.81 1 7.97 2.37-1-1.6-4.42-2.77-8.53-2.77-4.86 0-8.8 1.65-8.8 3.7 0 1.73 2.79 3.18 6.61 3.58-3.3-.49-5.65-1.81-5.65-3.34z"/>
    <path id="ak" d="M725.84 766.74l8.17-.72-2.83-7.72z"/>
    <path id="am" d="M725.83 766.75l-3.58-6.76 1.35-2.33 7.57.64z"/>
    <path id="ao" d="M731.17 758.3l.4-7.16 2.43 14.88z"/>
    <path id="aq" d="M719.62 769.92l6.21-3.18 8.17-.72z"/>
    <path id="as" d="M723.61 757.65l.36-5.46 7.6-1.05-.4 7.16z"/>
    <path id="au" d="M723.97 752.2l-1.16-.77 3.78-3.38 4.98 3.1z"/>
    <path id="aw" d="M722.85 751.43l-4.62 2.41 2.27-2.77 6.1-3.02z"/>
    <path id="ay" d="M717.31 762.28l2.31 7.64 6.21-3.18-3.58-6.75z"/>
    <path id="aA" d="M714.72 766.66l4.9 3.26-2.31-7.64-.88-.48z"/>
    <path id="aC" d="M716.43 761.8l.16-5.55-1.63 3.5-.24 6.91z"/>
    <path id="aE" d="M718.23 753.83l-1.64 2.41s-.2 5.51-.15 5.55c.04.04.91.53.91.53l4.94-2.34 1.31-2.33.36-5.43-1.11-.76z"/>
    <linearGradient id="a" x1="703.74" x2="730.83" y1="753.25" y2="727.02" gradientUnits="userSpaceOnUse">
      <stop offset="0" stop-color="#00e0b5"/>
      <stop offset="1" stop-color="#00d5df"/>
    </linearGradient>
    <linearGradient id="m" x1="697.17" x2="726.99" y1="737.2" y2="737.2" gradientUnits="userSpaceOnUse">
      <stop offset="0" stop-color="#00e0b5"/>
      <stop offset="1" stop-color="#00d5df"/>
    </linearGradient>
    <linearGradient id="o" x1="712.72" x2="743.34" y1="743.99" y2="762.25" gradientUnits="userSpaceOnUse">
      <stop offset="0" stop-color="#ebeaf5"/>
      <stop offset="1" stop-color="#beb9de"/>
    </linearGradient>
    <linearGradient id="t" x1="706.58" x2="744.1" y1="733.17" y2="755.54" gradientUnits="userSpaceOnUse">
      <stop offset="0" stop-color="#ebeaf5"/>
      <stop offset="1" stop-color="#beb9de"/>
    </linearGradient>
    <linearGradient id="v" x1="731.27" x2="732.09" y1="755.98" y2="746.93" gradientUnits="userSpaceOnUse">
      <stop offset="0" stop-color="#ffc036"/>
      <stop offset="1" stop-color="#ff8d00"/>
    </linearGradient>
    <linearGradient id="x" x1="731.08" x2="732.13" y1="756.63" y2="745.02" gradientUnits="userSpaceOnUse">
      <stop offset="0" stop-color="#ffc036"/>
      <stop offset="1" stop-color="#ff8d00"/>
    </linearGradient>
    <linearGradient id="z" x1="731.82" x2="731.34" y1="740.41" y2="754.35" gradientUnits="userSpaceOnUse">
      <stop offset="0" stop-color="#ffc036"/>
      <stop offset="1" stop-color="#ff8d00"/>
    </linearGradient>
    <linearGradient id="B" x1="726.46" x2="743.15" y1="744.55" y2="766.12" gradientUnits="userSpaceOnUse">
      <stop offset="0" stop-color="#a19eb5"/>
      <stop offset="1" stop-color="#4a4571"/>
    </linearGradient>
    <linearGradient id="D" x1="730.97" x2="713.3" y1="750.56" y2="734.27" gradientUnits="userSpaceOnUse">
      <stop offset="0" stop-color="#a19eb5"/>
      <stop offset=".04" stop-color="#9895ae"/>
      <stop offset=".19" stop-color="#7c7898"/>
      <stop offset=".36" stop-color="#666187"/>
      <stop offset=".53" stop-color="#56517a"/>
      <stop offset=".73" stop-color="#4d4873"/>
      <stop offset="1" stop-color="#4a4571"/>
    </linearGradient>
    <linearGradient id="F" x1="731.79" x2="732.61" y1="752.13" y2="743.07" gradientUnits="userSpaceOnUse">
      <stop offset="0" stop-color="#ffc036"/>
      <stop offset="1" stop-color="#ff8d00"/>
    </linearGradient>
    <linearGradient id="H" x1="731.6" x2="732.65" y1="752.77" y2="741.16" gradientUnits="userSpaceOnUse">
      <stop offset="0" stop-color="#ffc036"/>
      <stop offset="1" stop-color="#ff8d00"/>
    </linearGradient>
    <linearGradient id="J" x1="720.99" x2="754.2" y1="743.88" y2="753.81" gradientUnits="userSpaceOnUse">
      <stop offset="0" stop-color="#ffc036"/>
      <stop offset="1" stop-color="#ff8d00"/>
    </linearGradient>
    <linearGradient id="L" x1="726.06" x2="741.87" y1="743.21" y2="753.77" gradientUnits="userSpaceOnUse">
      <stop offset="0" stop-color="#ffc036"/>
      <stop offset="1" stop-color="#ff8d00"/>
    </linearGradient>
    <linearGradient id="N" x1="742.44" x2="724.78" y1="756.82" y2="740.52" gradientUnits="userSpaceOnUse">
      <stop offset="0" stop-color="#ffc036"/>
      <stop offset="1" stop-color="#ff8d00"/>
    </linearGradient>
    <linearGradient id="P" x1="730.83" x2="731.64" y1="747.99" y2="738.94" gradientUnits="userSpaceOnUse">
      <stop offset="0" stop-color="#ffc036"/>
      <stop offset="1" stop-color="#ff8d00"/>
    </linearGradient>
    <linearGradient id="R" x1="730.64" x2="731.69" y1="748.64" y2="737.03" gradientUnits="userSpaceOnUse">
      <stop offset="0" stop-color="#ffc036"/>
      <stop offset="1" stop-color="#ff8d00"/>
    </linearGradient>
    <linearGradient id="T" x1="720.02" x2="753.25" y1="739.74" y2="749.67" gradientUnits="userSpaceOnUse">
      <stop offset="0" stop-color="#ffc036"/>
      <stop offset="1" stop-color="#ff8d00"/>
    </linearGradient>
    <linearGradient id="V" x1="725.1" x2="740.92" y1="739.07" y2="749.64" gradientUnits="userSpaceOnUse">
      <stop offset="0" stop-color="#ffc036"/>
      <stop offset="1" stop-color="#ff8d00"/>
    </linearGradient>
    <linearGradient id="X" x1="741.49" x2="723.81" y1="752.68" y2="736.39" gradientUnits="userSpaceOnUse">
      <stop offset="0" stop-color="#ffc036"/>
      <stop offset="1" stop-color="#ff8d00"/>
    </linearGradient>
    <linearGradient id="Z" x1="731.11" x2="731.93" y1="742.44" y2="733.39" gradientUnits="userSpaceOnUse">
      <stop offset="0" stop-color="#ffc036"/>
      <stop offset="1" stop-color="#ff8d00"/>
    </linearGradient>
    <linearGradient id="ab" x1="730.92" x2="731.97" y1="743.09" y2="731.48" gradientUnits="userSpaceOnUse">
      <stop offset="0" stop-color="#ffc036"/>
      <stop offset="1" stop-color="#ff8d00"/>
    </linearGradient>
    <linearGradient id="ad" x1="720.31" x2="753.52" y1="734.19" y2="744.12" gradientUnits="userSpaceOnUse">
      <stop offset="0" stop-color="#ffc036"/>
      <stop offset="1" stop-color="#ff8d00"/>
    </linearGradient>
    <linearGradient id="af" x1="725.39" x2="741.21" y1="733.52" y2="744.09" gradientUnits="userSpaceOnUse">
      <stop offset="0" stop-color="#ffc036"/>
      <stop offset="1" stop-color="#ff8d00"/>
    </linearGradient>
    <linearGradient id="ah" x1="741.78" x2="724.1" y1="747.13" y2="730.84" gradientUnits="userSpaceOnUse">
      <stop offset="0" stop-color="#ffc036"/>
      <stop offset="1" stop-color="#ff8d00"/>
    </linearGradient>
    <linearGradient id="aj" x1="725.83" x2="734" y1="762.51" y2="762.51" gradientUnits="userSpaceOnUse">
      <stop offset="0" stop-color="#00c6e4"/>
      <stop offset="1" stop-color="#0084f1"/>
    </linearGradient>
    <linearGradient id="al" x1="714.86" x2="729.66" y1="750.79" y2="763.51" gradientUnits="userSpaceOnUse">
      <stop offset="0" stop-color="#00c6e4"/>
      <stop offset="1" stop-color="#0084f1"/>
    </linearGradient>
    <linearGradient id="an" x1="731.18" x2="734" y1="758.57" y2="758.57" gradientUnits="userSpaceOnUse">
      <stop offset="0" stop-color="#00c6e4"/>
      <stop offset="1" stop-color="#0084f1"/>
    </linearGradient>
    <linearGradient id="ap" x1="719.61" x2="734" y1="767.96" y2="767.96" gradientUnits="userSpaceOnUse">
      <stop offset="0" stop-color="#00c6e4"/>
      <stop offset="1" stop-color="#0084f1"/>
    </linearGradient>
    <linearGradient id="ar" x1="714.15" x2="747.31" y1="744.15" y2="769.45" gradientUnits="userSpaceOnUse">
      <stop offset="0" stop-color="#00c6e4"/>
      <stop offset="1" stop-color="#0084f1"/>
    </linearGradient>
    <linearGradient id="at" x1="726.98" x2="728.8" y1="752.12" y2="744.52" gradientUnits="userSpaceOnUse">
      <stop offset="0" stop-color="#00c6e4"/>
      <stop offset="1" stop-color="#0084f1"/>
    </linearGradient>
    <linearGradient id="av" x1="724.7" x2="721.62" y1="745.19" y2="752.93" gradientUnits="userSpaceOnUse">
      <stop offset="0" stop-color="#00c6e4"/>
      <stop offset="1" stop-color="#0084f1"/>
    </linearGradient>
    <linearGradient id="ax" x1="721.54" x2="725.12" y1="764.19" y2="791.55" gradientUnits="userSpaceOnUse">
      <stop offset="0" stop-color="#00c6e4"/>
      <stop offset="1" stop-color="#0084f1"/>
    </linearGradient>
    <linearGradient id="az" x1="719.47" x2="713.67" y1="762.45" y2="775.98" gradientUnits="userSpaceOnUse">
      <stop offset="0" stop-color="#00c6e4"/>
      <stop offset="1" stop-color="#0084f1"/>
    </linearGradient>
    <linearGradient id="aB" x1="711.6" x2="716.39" y1="751.61" y2="763.24" gradientUnits="userSpaceOnUse">
      <stop offset="0" stop-color="#00c6e4"/>
      <stop offset="1" stop-color="#0084f1"/>
    </linearGradient>
    <linearGradient id="aD" x1="713.57" x2="735.69" y1="767.61" y2="731.71" gradientUnits="userSpaceOnUse">
      <stop offset="0" stop-color="#00c6e4"/>
      <stop offset="1" stop-color="#0084f1"/>
    </linearGradient>
  </defs>
  <use fill="url(#a)" transform="translate(-704 -733)" xlink:href="#b"/>
  <use fill="#00afb5" transform="translate(-704 -733)" xlink:href="#c"/>
  <use fill="#00afb5" transform="translate(-704 -733)" xlink:href="#d"/>
  <use fill="#00afb5" transform="translate(-704 -733)" xlink:href="#e"/>
  <use fill="#00afb5" transform="translate(-704 -733)" xlink:href="#f"/>
  <use fill="#00afb5" transform="translate(-704 -733)" xlink:href="#g"/>
  <use fill="#00afb5" transform="translate(-704 -733)" xlink:href="#h"/>
  <use fill="#00afb5" transform="translate(-704 -733)" xlink:href="#i"/>
  <use fill="#00afb5" transform="translate(-704 -733)" xlink:href="#j"/>
  <use fill="#00afb5" transform="translate(-704 -733)" xlink:href="#k"/>
  <use fill="#00afb5" transform="translate(-704 -733)" xlink:href="#l"/>
  <use fill="url(#m)" transform="translate(-704 -733)" xlink:href="#n"/>
  <use fill="url(#o)" transform="translate(-704 -733)" xlink:href="#p"/>
  <use fill="#00afb5" transform="translate(-704 -733)" xlink:href="#q"/>
  <use fill="#00afb5" transform="translate(-704 -733)" xlink:href="#r"/>
  <use fill="#00afb5" transform="translate(-704 -733)" xlink:href="#s"/>
  <use fill="url(#t)" transform="translate(-704 -733)" xlink:href="#u"/>
  <g>
    <use fill="url(#v)" transform="translate(-704 -733)" xlink:href="#w"/>
    <use fill="url(#x)" transform="translate(-704 -733)" xlink:href="#y"/>
    <use fill="url(#z)" transform="translate(-704 -733)" xlink:href="#A"/>
    <use fill="url(#B)" transform="translate(-704 -733)" xlink:href="#C"/>
    <use fill="url(#D)" transform="translate(-704 -733)" xlink:href="#E"/>
  </g>
  <g>
    <use fill="url(#F)" transform="translate(-704 -733)" xlink:href="#G"/>
    <use fill="url(#H)" transform="translate(-704 -733)" xlink:href="#I"/>
    <use fill="url(#J)" transform="translate(-704 -733)" xlink:href="#K"/>
    <use fill="url(#L)" transform="translate(-704 -733)" xlink:href="#M"/>
    <use fill="url(#N)" transform="translate(-704 -733)" xlink:href="#O"/>
  </g>
  <g>
    <use fill="url(#P)" transform="translate(-704 -733)" xlink:href="#Q"/>
    <use fill="url(#R)" transform="translate(-704 -733)" xlink:href="#S"/>
    <use fill="url(#T)" transform="translate(-704 -733)" xlink:href="#U"/>
    <use fill="url(#V)" transform="translate(-704 -733)" xlink:href="#W"/>
    <use fill="url(#X)" transform="translate(-704 -733)" xlink:href="#Y"/>
  </g>
  <g>
    <use fill="url(#Z)" transform="translate(-704 -733)" xlink:href="#aa"/>
    <use fill="url(#ab)" transform="translate(-704 -733)" xlink:href="#ac"/>
    <use fill="url(#ad)" transform="translate(-704 -733)" xlink:href="#ae"/>
    <use fill="url(#af)" transform="translate(-704 -733)" xlink:href="#ag"/>
    <use fill="url(#ah)" transform="translate(-704 -733)" xlink:href="#ai"/>
  </g>
  <g transform="translate(-704 -733)">
    <use fill="url(#aj)" xlink:href="#ak"/>
  </g>
  <g transform="translate(-704 -733)">
    <use fill="url(#al)" xlink:href="#am"/>
  </g>
  <g transform="translate(-704 -733)">
    <use fill="url(#an)" xlink:href="#ao"/>
  </g>
  <g transform="translate(-704 -733)">
    <use fill="url(#ap)" xlink:href="#aq"/>
  </g>
  <g transform="translate(-704 -733)">
    <use fill="url(#ar)" xlink:href="#as"/>
  </g>
  <g transform="translate(-704 -733)">
    <use fill="url(#at)" xlink:href="#au"/>
  </g>
  <g transform="translate(-704 -733)">
    <use fill="url(#av)" xlink:href="#aw"/>
  </g>
  <g transform="translate(-704 -733)">
    <use fill="url(#ax)" xlink:href="#ay"/>
  </g>
  <g transform="translate(-704 -733)">
    <use fill="url(#az)" xlink:href="#aA"/>
  </g>
  <g transform="translate(-704 -733)">
    <use fill="url(#aB)" xlink:href="#aC"/>
  </g>
  <g transform="translate(-704 -733)">
    <use fill="url(#aD)" xlink:href="#aE"/>
  </g>
</svg>