<svg xmlns="http://www.w3.org/2000/svg" xmlns:xlink="http://www.w3.org/1999/xlink" width="30" height="30" viewBox="0 0 30 30"><defs><path id="yfk3a" d="M1071 649a15 15 0 1 1 30 0 15 15 0 0 1-30 0z"/><path id="yfk3b" d="M1090.71 652.3a1 1 0 0 1 0 1.41c-.2.2-.45.3-.7.3-.27 0-.52-.1-.72-.3l-3.29-3.29-3.29 3.3c-.2.18-.45.28-.7.28-.27 0-.52-.1-.72-.29a1 1 0 0 1 0-1.42l3.3-3.29-3.3-3.29a1 1 0 0 1 0-1.42 1 1 0 0 1 1.42 0l3.3 3.3 3.28-3.3a1 1 0 0 1 1.42 0 1 1 0 0 1 0 1.42l-3.3 3.3z"/></defs><g><g transform="translate(-1071 -634)"><g><use fill="#fff" fill-opacity=".05" xlink:href="#yfk3a"/></g><g><g><use fill="#737596" xlink:href="#yfk3b"/></g></g></g></g></svg>