<svg xmlns="http://www.w3.org/2000/svg" xmlns:xlink="http://www.w3.org/1999/xlink" width="15" height="15" viewBox="0 0 15 15"><defs><path id="lz35a" d="M563.5 416c2.07 0 3.83.73 5.3 2.2a7.22 7.22 0 0 1 2.2 5.3c0 2.07-.73 3.83-2.2 5.3a7.22 7.22 0 0 1-5.3 2.2 7.22 7.22 0 0 1-5.3-2.2 7.22 7.22 0 0 1-2.2-5.3c0-2.07.73-3.83 2.2-5.3a7.22 7.22 0 0 1 5.3-2.2zm-1.51 11.27l6.77-6.76-1.06-1.1-5.71 5.71-2.68-2.68-1.06 1.06z"/><radialGradient id="lz35b" cx="558.41" cy="419.93" r="12.49" gradientUnits="userSpaceOnUse"><stop offset="0" stop-color="#46ddb2"/><stop offset="1" stop-color="#36d2dc"/></radialGradient></defs><g><g transform="translate(-556 -416)"><use fill="url(#lz35b)" xlink:href="#lz35a"/></g></g></svg>