<svg xmlns:xlink="http://www.w3.org/1999/xlink" width="18" height="16" viewBox="0 0 18 16">
  <defs>
    <path id="a" d="M1280.93 2310.43l3.05.9.96 3.62.01.03a1.4 1.4 0 0 0 2.33.57l1.65-1.58 4 3.11.02.02c.27.2.59.3.91.3.74 0 1.38-.52 1.53-1.24l2.58-12.33a1.51 1.51 0 0 0-2.04-1.73l-15.1 5.9c-.53.2-.85.69-.83 1.25.02.56.39 1.03.93 1.18zm15.54-6.94h.04v.04l-2.57 12.34c-.01.05-.07.06-.08.06 0 0-.02 0-.03-.02l-4.5-3.5a.74.74 0 0 0-.96.06l-.54.51-.18-.89a.68.68 0 0 1 .23-.66l6.98-5.8c.17-.15-.03-.41-.22-.3l-8.2 5.02c-.2.12-.3.34-.26.57l.7 2.97-.55.52-1.03-3.85a.74.74 0 0 0-.5-.52l-2.92-.86z"/>
  </defs>
  <use fill="#fff" transform="translate(-1280 -2302)" xlink:href="#a"/>
</svg>
