<svg xmlns="http://www.w3.org/2000/svg" xmlns:xlink="http://www.w3.org/1999/xlink" width="35" height="38" viewBox="0 0 35 38"><defs><path id="3jkha" d="M176 559v-20h20v20zm17.62-9.06v-1.68c0-.33-.25-.6-.58-.63l-.75-.07a6.38 6.38 0 0 0-.74-1.8l.39-.47a.63.63 0 0 0-.04-.85l-1.19-1.2a.63.63 0 0 0-.85-.03l-.48.4a6.4 6.4 0 0 0-1.74-.74l-.07-.76a.63.63 0 0 0-.63-.58h-1.68c-.33 0-.6.25-.63.58l-.07.74a6.4 6.4 0 0 0-1.81.74l-.45-.37a.63.63 0 0 0-.85.04l-1.2 1.19a.63.63 0 0 0-.03.85l.36.44c-.34.55-.6 1.17-.76 1.82l-.71.07a.63.63 0 0 0-.58.63v1.68c0 .33.25.6.58.63l.71.06c.16.66.42 1.27.76 1.83l-.36.44c-.21.25-.2.62.04.85l1.19 1.2c.23.22.6.24.85.03l.45-.38a6.4 6.4 0 0 0 1.77.73l.07.75c.02.33.3.58.63.58h1.68c.33 0 .6-.25.63-.58l.07-.75a6.39 6.39 0 0 0 1.8-.75l.46.39c.25.2.62.2.85-.04l1.2-1.2c.22-.22.24-.6.03-.84l-.39-.47c.34-.54.59-1.14.74-1.78l.75-.07c.33-.03.58-.3.58-.63z"/><path id="3jkhb" d="M179.16 536.65c.8-.97 1-1.72 1.1-2.39.12-.77-.06-1.41-.52-1.64.48-.37.5-1.03.5-1.03.14-2.24.02-2.85-.33-3.7-.95-2.3-2.73-2.1-5.5-3.04-2.33-.79-3.25-1.33-3.72-1.86-.12-.14-.3-.11-.38.05-.46.8-.24 2.14-.24 2.14s-1.74.23-3.1 1.92c-1.05 1.3-.3 4.18-.3 4.18s1.95-2.04 5.04-2.48c0 0-.58 1.04-.49 2.36.01.23.28.36.46.23a3.44 3.44 0 0 1 2.06-.63c1.67 0 2.09.49 3.3.49.97 0 2.23-.7 3.16 0"/><path id="3jkhc" d="M167.76 536.8c-.8-.98-1-1.73-1.1-2.4-.12-.77.06-1.41.52-1.64-.49-.37-.5-1.48-.5-1.48"/><path id="3jkhd" d="M167.76 536.79c.15.51.64 3.13 1.48 4.6.68 1.4-.16 2.33-1.03 2.68-1.5.6-4.62.86-5.96 2.61-1.35 1.76 1.53 2.07 3.27 2.35 1.25.21 4.83.38 8.01.36"/><path id="3jkhe" d="M169.24 541.4a5 5 0 0 0 4.3 2.3"/><path id="3jkhf" d="M177.83 541.4a4.5 4.5 0 0 1-1.51 1.5"/><path id="3jkhg" d="M193.62 549.94v-1.68c0-.33-.25-.6-.58-.63l-.75-.07a6.38 6.38 0 0 0-.74-1.8l.39-.47a.63.63 0 0 0-.04-.85l-1.19-1.2a.63.63 0 0 0-.85-.03l-.48.4a6.4 6.4 0 0 0-1.74-.74l-.07-.76a.63.63 0 0 0-.63-.58h-1.68c-.33 0-.6.25-.63.58l-.07.74a6.4 6.4 0 0 0-1.81.74l-.45-.37a.63.63 0 0 0-.85.04l-1.2 1.19a.63.63 0 0 0-.03.85l.36.44c-.34.55-.6 1.17-.76 1.82l-.71.07a.63.63 0 0 0-.58.63v1.68c0 .33.25.6.58.63l.71.06c.16.66.42 1.27.76 1.83l-.36.44c-.21.25-.2.62.04.85l1.19 1.2c.23.22.6.24.85.03l.45-.38a6.4 6.4 0 0 0 1.77.73l.07.75c.02.33.3.58.63.58h1.68c.33 0 .6-.25.63-.58l.07-.75a6.39 6.39 0 0 0 1.8-.75l.46.39c.25.2.62.2.85-.04l1.2-1.2c.22-.22.24-.6.03-.84l-.39-.47c.34-.54.59-1.14.74-1.78l.75-.07c.33-.03.58-.3.58-.63z"/><path id="3jkhi" d="M184.04 549.12a2.08 2.08 0 1 1 4.15 0 2.08 2.08 0 0 1-4.15 0z"/><clipPath id="3jkhh"><use fill="#fff" xlink:href="#3jkha"/></clipPath></defs><g><g transform="translate(-161 -522)"><g><g><use fill="#fff" fill-opacity="0" stroke="#737596" stroke-linecap="round" stroke-linejoin="round" stroke-miterlimit="50" stroke-width="1.8" xlink:href="#3jkhb"/></g><g><use fill="#fff" fill-opacity="0" stroke="#737596" stroke-linecap="round" stroke-linejoin="round" stroke-miterlimit="50" stroke-width="1.8" xlink:href="#3jkhc"/></g><g><use fill="#fff" fill-opacity="0" stroke="#737596" stroke-linecap="round" stroke-linejoin="round" stroke-miterlimit="50" stroke-width="1.8" xlink:href="#3jkhd"/></g><g><use fill="#fff" fill-opacity="0" stroke="#737596" stroke-linecap="round" stroke-linejoin="round" stroke-miterlimit="50" stroke-width="1.8" xlink:href="#3jkhe"/></g><g><use fill="#fff" fill-opacity="0" stroke="#737596" stroke-linecap="round" stroke-linejoin="round" stroke-miterlimit="50" stroke-width="1.8" xlink:href="#3jkhf"/></g></g><g><g><use fill="#1a1a3f" xlink:href="#3jkhg"/><use fill="#fff" fill-opacity="0" stroke="#1a1a3f" stroke-linecap="round" stroke-linejoin="round" stroke-miterlimit="50" stroke-width="4" clip-path="url(&quot;#3jkhh&quot;)" xlink:href="#3jkhg"/><use fill="#fff" fill-opacity="0" stroke="#737596" stroke-linecap="round" stroke-linejoin="round" stroke-miterlimit="50" stroke-width="1.8" xlink:href="#3jkhg"/></g><g><use fill="#fff" fill-opacity="0" stroke="#737596" stroke-linecap="round" stroke-linejoin="round" stroke-miterlimit="50" stroke-width="1.8" xlink:href="#3jkhi"/></g></g></g></g></svg>