<svg xmlns="http://www.w3.org/2000/svg" xmlns:xlink="http://www.w3.org/1999/xlink" width="40" height="32" viewBox="0 0 40 32"><defs><path id="cleya" d="M342.64 275.74c0-2.6 5.04-4.71 11.25-4.71s11.25 2.1 11.25 4.7-5.04 4.71-11.25 4.71-11.25-2.1-11.25-4.7z"/><path id="cleyc" d="M342.64 275.82v-2.94h22.5v2.94z"/><path id="cleye" d="M342.64 272.88c0-2.6 5.04-4.71 11.25-4.71s11.25 2.1 11.25 4.7-5.04 4.71-11.25 4.71-11.25-2.1-11.25-4.7z"/><path id="cleyg" d="M345.36 272.88c0-1.98 3.82-3.58 8.53-3.58 4.7 0 8.52 1.6 8.52 3.58 0 1.97-3.82 3.57-8.53 3.57-4.7 0-8.52-1.6-8.52-3.58z"/><path id="cleyi" d="M346.3 273.1c0-1.88 3.66-3.42 8.14-3.42 3.56 0 6.58.94 7.7 2.3-.93-1.55-4.3-2.68-8.26-2.68-4.7 0-8.52 1.62-8.52 3.58 0 1.65 2.73 3.05 6.4 3.46-3.19-.45-5.47-1.73-5.47-3.24z"/><path id="cleyk" d="M343.83 271.98c0-2.6 5.04-4.71 11.25-4.71s11.25 2.1 11.25 4.7-5.04 4.71-11.25 4.71-11.25-2.1-11.25-4.7z"/><path id="cleym" d="M343.83 272.05v-2.94h22.5v2.94z"/><path id="cleyo" d="M343.83 269.12c0-2.6 5.04-4.71 11.25-4.71s11.25 2.1 11.25 4.7-5.04 4.71-11.25 4.71-11.25-2.1-11.25-4.7z"/><path id="cleyq" d="M346.56 269.12c0-1.98 3.82-3.58 8.53-3.58 4.7 0 8.52 1.6 8.52 3.58 0 1.97-3.82 3.57-8.53 3.57-4.7 0-8.52-1.6-8.52-3.58z"/><path id="cleys" d="M347.45 269.34c0-1.88 3.67-3.42 8.15-3.42 3.56 0 6.58.94 7.7 2.3-.93-1.55-4.3-2.68-8.26-2.68-4.7 0-8.52 1.62-8.52 3.58 0 1.65 2.73 3.05 6.4 3.46-3.19-.45-5.47-1.73-5.47-3.24z"/><path id="cleyu" d="M342.19 267.99c0-2.6 5.04-4.71 11.25-4.71s11.25 2.1 11.25 4.7-5.04 4.71-11.25 4.71-11.25-2.1-11.25-4.7z"/><path id="cleyw" d="M342.19 268.06v-2.94h22.5v2.94z"/><path id="cleyy" d="M342.19 265.15c0-2.6 5.04-4.7 11.25-4.7s11.25 2.1 11.25 4.7-5.04 4.71-11.25 4.71-11.25-2.1-11.25-4.7z"/><path id="cleyA" d="M344.92 265.15c0-1.97 3.82-3.57 8.53-3.57 4.7 0 8.52 1.6 8.52 3.58 0 1.97-3.82 3.57-8.53 3.57-4.7 0-8.52-1.6-8.52-3.58z"/><path id="cleyC" d="M345.85 265.38c0-1.88 3.67-3.42 8.15-3.42 3.56 0 6.58.94 7.7 2.3-.93-1.55-4.3-2.68-8.26-2.68-4.7 0-8.52 1.62-8.52 3.58 0 1.65 2.73 3.05 6.4 3.46-3.19-.49-5.47-1.77-5.47-3.24z"/><path id="cleyE" d="M344.54 264.44c0-2.6 5.04-4.7 11.25-4.7s11.25 2.1 11.25 4.7-5.04 4.71-11.25 4.71-11.25-2.1-11.25-4.7z"/><path id="cleyG" d="M344.54 264.52v-2.94h22.5v2.94z"/><path id="cleyI" d="M344.54 261.58c0-2.6 5.04-4.7 11.25-4.7s11.25 2.1 11.25 4.7-5.04 4.71-11.25 4.71-11.25-2.1-11.25-4.7z"/><path id="cleyK" d="M347.27 261.58c0-1.97 3.82-3.57 8.53-3.57 4.7 0 8.52 1.6 8.52 3.58 0 1.97-3.82 3.57-8.53 3.57-4.7 0-8.52-1.6-8.52-3.58z"/><path id="cleyM" d="M348.16 261.81c0-1.88 3.67-3.42 8.15-3.42 3.56 0 6.58.94 7.7 2.3-.93-1.55-4.3-2.68-8.26-2.68-4.7 0-8.52 1.62-8.52 3.58 0 1.65 2.73 3.05 6.4 3.46-3.15-.45-5.47-1.73-5.47-3.24z"/><path id="cleyO" d="M343.16 260.68c0-2.6 5.04-4.71 11.25-4.71s11.25 2.1 11.25 4.7-5.04 4.71-11.25 4.71-11.25-2.1-11.25-4.7z"/><path id="cleyQ" d="M343.16 260.72v-2.94h22.5v2.94z"/><path id="cleyS" d="M343.16 257.81c0-2.6 5.04-4.7 11.25-4.7s11.25 2.1 11.25 4.7-5.04 4.71-11.25 4.71-11.25-2.1-11.25-4.7z"/><path id="cleyU" d="M345.89 257.81c0-1.97 3.82-3.57 8.53-3.57 4.7 0 8.52 1.6 8.52 3.58 0 1.97-3.82 3.57-8.53 3.57-4.7 0-8.52-1.6-8.52-3.58z"/><path id="cleyW" d="M346.82 258.04c0-1.88 3.67-3.42 8.15-3.42 3.56 0 6.58.94 7.7 2.3-.93-1.55-4.3-2.68-8.26-2.68-4.7 0-8.52 1.62-8.52 3.58 0 1.65 2.73 3.05 6.4 3.46-3.19-.49-5.47-1.77-5.47-3.24z"/><path id="cleyY" d="M358.75 280.02c0-2.6 5.04-4.7 11.25-4.7s11.25 2.1 11.25 4.7-5.04 4.71-11.25 4.71-11.25-2.1-11.25-4.7z"/><path id="cleyaa" d="M358.75 280.11v-2.94h22.5v2.94z"/><path id="cleyac" d="M358.75 277.17c0-2.6 5.04-4.71 11.25-4.71s11.25 2.1 11.25 4.7-5.04 4.71-11.25 4.71-11.25-2.1-11.25-4.7z"/><path id="cleyae" d="M361.48 277.17c0-1.98 3.82-3.58 8.53-3.58 4.7 0 8.52 1.6 8.52 3.58 0 1.97-3.82 3.57-8.53 3.57-4.7 0-8.52-1.6-8.52-3.58z"/><path id="cleyag" d="M362.37 277.4c0-1.89 3.67-3.43 8.15-3.43 3.56 0 6.58.94 7.7 2.3-.93-1.55-4.3-2.68-8.26-2.68-4.7 0-8.52 1.62-8.52 3.58 0 1.65 2.73 3.05 6.4 3.46-3.19-.49-5.47-1.73-5.47-3.24z"/><path id="cleyai" d="M359.23 276.3c0-2.6 5.04-4.7 11.25-4.7s11.25 2.1 11.25 4.7-5.04 4.71-11.25 4.71-11.25-2.1-11.25-4.7z"/><path id="cleyak" d="M359.23 276.38v-2.94h22.5v2.94z"/><path id="cleyam" d="M359.23 273.44c0-2.6 5.04-4.7 11.25-4.7s11.25 2.1 11.25 4.7-5.04 4.71-11.25 4.71-11.25-2.1-11.25-4.7z"/><path id="cleyao" d="M361.96 273.44c0-1.97 3.82-3.57 8.53-3.57 4.7 0 8.52 1.6 8.52 3.58 0 1.97-3.82 3.57-8.53 3.57-4.7 0-8.52-1.6-8.52-3.58z"/><path id="cleyaq" d="M362.86 273.67c0-1.88 3.67-3.42 8.15-3.42 3.56 0 6.58.94 7.7 2.3-.93-1.55-4.3-2.68-8.26-2.68-4.7 0-8.52 1.62-8.52 3.58 0 1.65 2.73 3.05 6.4 3.46-3.15-.49-5.47-1.73-5.47-3.24z"/><linearGradient id="cleyb" x1="353.73" x2="354.52" y1="277.69" y2="268.93" gradientUnits="userSpaceOnUse"><stop offset="0" stop-color="#a19eb5"/><stop offset="1" stop-color="#4a4571"/></linearGradient><linearGradient id="cleyd" x1="353.55" x2="354.56" y1="278.32" y2="267.09" gradientUnits="userSpaceOnUse"><stop offset="0" stop-color="#a19eb5"/><stop offset="1" stop-color="#4a4571"/></linearGradient><linearGradient id="cleyf" x1="353.95" x2="353.86" y1="265.13" y2="280.78" gradientUnits="userSpaceOnUse"><stop offset="0" stop-color="#a19eb5"/><stop offset="1" stop-color="#4a4571"/></linearGradient><linearGradient id="cleyh" x1="349.05" x2="365.23" y1="266.64" y2="287.49" gradientUnits="userSpaceOnUse"><stop offset="0" stop-color="#a19eb5"/><stop offset="1" stop-color="#4a4571"/></linearGradient><linearGradient id="cleyj" x1="353.42" x2="336.3" y1="272.45" y2="256.7" gradientUnits="userSpaceOnUse"><stop offset="0" stop-color="#a19eb5"/><stop offset=".04" stop-color="#9895ae"/><stop offset=".19" stop-color="#7c7898"/><stop offset=".36" stop-color="#666187"/><stop offset=".53" stop-color="#56517a"/><stop offset=".73" stop-color="#4d4873"/><stop offset="1" stop-color="#4a4571"/></linearGradient><linearGradient id="cleyl" x1="354.88" x2="355.68" y1="273.93" y2="265.17" gradientUnits="userSpaceOnUse"><stop offset="0" stop-color="#a19eb5"/><stop offset="1" stop-color="#4a4571"/></linearGradient><linearGradient id="cleyn" x1="354.7" x2="355.72" y1="274.55" y2="263.32" gradientUnits="userSpaceOnUse"><stop offset="0" stop-color="#a19eb5"/><stop offset="1" stop-color="#4a4571"/></linearGradient><linearGradient id="cleyp" x1="355.06" x2="355.06" y1="257.13" y2="273.65" gradientUnits="userSpaceOnUse"><stop offset="0" stop-color="#a19eb5"/><stop offset="1" stop-color="#4a4571"/></linearGradient><linearGradient id="cleyr" x1="350.22" x2="366.4" y1="262.88" y2="283.73" gradientUnits="userSpaceOnUse"><stop offset="0" stop-color="#a19eb5"/><stop offset="1" stop-color="#4a4571"/></linearGradient><linearGradient id="cleyt" x1="354.07" x2="345.91" y1="268.87" y2="266.79" gradientUnits="userSpaceOnUse"><stop offset="0" stop-color="#a19eb5"/><stop offset=".04" stop-color="#9895ae"/><stop offset=".19" stop-color="#7c7898"/><stop offset=".36" stop-color="#666187"/><stop offset=".53" stop-color="#56517a"/><stop offset=".73" stop-color="#4d4873"/><stop offset="1" stop-color="#4a4571"/></linearGradient><linearGradient id="cleyv" x1="353.27" x2="354.06" y1="269.95" y2="261.19" gradientUnits="userSpaceOnUse"><stop offset="0" stop-color="#a19eb5"/><stop offset="1" stop-color="#4a4571"/></linearGradient><linearGradient id="cleyx" x1="353.08" x2="354.1" y1="270.57" y2="259.34" gradientUnits="userSpaceOnUse"><stop offset="0" stop-color="#a19eb5"/><stop offset="1" stop-color="#4a4571"/></linearGradient><linearGradient id="cleyz" x1="353.44" x2="353.44" y1="253.15" y2="269.67" gradientUnits="userSpaceOnUse"><stop offset="0" stop-color="#a19eb5"/><stop offset="1" stop-color="#4a4571"/></linearGradient><linearGradient id="cleyB" x1="348.6" x2="364.78" y1="258.89" y2="279.74" gradientUnits="userSpaceOnUse"><stop offset="0" stop-color="#a19eb5"/><stop offset="1" stop-color="#4a4571"/></linearGradient><linearGradient id="cleyD" x1="352.45" x2="344.3" y1="264.89" y2="262.81" gradientUnits="userSpaceOnUse"><stop offset="0" stop-color="#a19eb5"/><stop offset=".04" stop-color="#9895ae"/><stop offset=".19" stop-color="#7c7898"/><stop offset=".36" stop-color="#666187"/><stop offset=".53" stop-color="#56517a"/><stop offset=".73" stop-color="#4d4873"/><stop offset="1" stop-color="#4a4571"/></linearGradient><linearGradient id="cleyF" x1="355.61" x2="356.4" y1="266.4" y2="257.64" gradientUnits="userSpaceOnUse"><stop offset="0" stop-color="#a19eb5"/><stop offset="1" stop-color="#4a4571"/></linearGradient><linearGradient id="cleyH" x1="355.43" x2="356.44" y1="267.02" y2="255.79" gradientUnits="userSpaceOnUse"><stop offset="0" stop-color="#a19eb5"/><stop offset="1" stop-color="#4a4571"/></linearGradient><linearGradient id="cleyJ" x1="356.14" x2="355.67" y1="251.34" y2="264.82" gradientUnits="userSpaceOnUse"><stop offset="0" stop-color="#a19eb5"/><stop offset="1" stop-color="#4a4571"/></linearGradient><linearGradient id="cleyL" x1="350.94" x2="367.12" y1="255.35" y2="276.2" gradientUnits="userSpaceOnUse"><stop offset="0" stop-color="#a19eb5"/><stop offset="1" stop-color="#4a4571"/></linearGradient><linearGradient id="cleyN" x1="355.31" x2="338.18" y1="261.16" y2="245.41" gradientUnits="userSpaceOnUse"><stop offset="0" stop-color="#a19eb5"/><stop offset=".04" stop-color="#9895ae"/><stop offset=".19" stop-color="#7c7898"/><stop offset=".36" stop-color="#666187"/><stop offset=".53" stop-color="#56517a"/><stop offset=".73" stop-color="#4d4873"/><stop offset="1" stop-color="#4a4571"/></linearGradient><linearGradient id="cleyP" x1="354.24" x2="355.03" y1="262.61" y2="253.85" gradientUnits="userSpaceOnUse"><stop offset="0" stop-color="#a19eb5"/><stop offset="1" stop-color="#4a4571"/></linearGradient><linearGradient id="cleyR" x1="354.06" x2="355.07" y1="263.23" y2="252.01" gradientUnits="userSpaceOnUse"><stop offset="0" stop-color="#a19eb5"/><stop offset="1" stop-color="#4a4571"/></linearGradient><linearGradient id="cleyT" x1="368.79" x2="332.68" y1="259.56" y2="255.14" gradientUnits="userSpaceOnUse"><stop offset="0" stop-color="#a19eb5"/><stop offset="1" stop-color="#4a4571"/></linearGradient><linearGradient id="cleyV" x1="367.43" x2="342.17" y1="260.37" y2="255.37" gradientUnits="userSpaceOnUse"><stop offset="0" stop-color="#a19eb5"/><stop offset="1" stop-color="#4a4571"/></linearGradient><linearGradient id="cleyX" x1="364.58" x2="347.45" y1="267.14" y2="251.39" gradientUnits="userSpaceOnUse"><stop offset="0" stop-color="#a19eb5"/><stop offset=".04" stop-color="#9895ae"/><stop offset=".19" stop-color="#7c7898"/><stop offset=".36" stop-color="#666187"/><stop offset=".53" stop-color="#56517a"/><stop offset=".73" stop-color="#4d4873"/><stop offset="1" stop-color="#4a4571"/></linearGradient><linearGradient id="cleyZ" x1="369.81" x2="370.6" y1="281.96" y2="273.21" gradientUnits="userSpaceOnUse"><stop offset="0" stop-color="#a19eb5"/><stop offset="1" stop-color="#4a4571"/></linearGradient><linearGradient id="cleyab" x1="369.62" x2="370.64" y1="282.59" y2="271.37" gradientUnits="userSpaceOnUse"><stop offset="0" stop-color="#a19eb5"/><stop offset="1" stop-color="#4a4571"/></linearGradient><linearGradient id="cleyad" x1="370.34" x2="369.87" y1="266.9" y2="280.38" gradientUnits="userSpaceOnUse"><stop offset="0" stop-color="#a19eb5"/><stop offset="1" stop-color="#4a4571"/></linearGradient><linearGradient id="cleyaf" x1="365.14" x2="381.32" y1="270.91" y2="291.76" gradientUnits="userSpaceOnUse"><stop offset="0" stop-color="#a19eb5"/><stop offset="1" stop-color="#4a4571"/></linearGradient><linearGradient id="cleyah" x1="369.51" x2="352.38" y1="276.72" y2="260.97" gradientUnits="userSpaceOnUse"><stop offset="0" stop-color="#a19eb5"/><stop offset=".04" stop-color="#9895ae"/><stop offset=".19" stop-color="#7c7898"/><stop offset=".36" stop-color="#666187"/><stop offset=".53" stop-color="#56517a"/><stop offset=".73" stop-color="#4d4873"/><stop offset="1" stop-color="#4a4571"/></linearGradient><linearGradient id="cleyaj" x1="370.3" x2="371.09" y1="278.24" y2="269.49" gradientUnits="userSpaceOnUse"><stop offset="0" stop-color="#a19eb5"/><stop offset="1" stop-color="#4a4571"/></linearGradient><linearGradient id="cleyal" x1="370.12" x2="371.13" y1="278.86" y2="267.64" gradientUnits="userSpaceOnUse"><stop offset="0" stop-color="#a19eb5"/><stop offset="1" stop-color="#4a4571"/></linearGradient><linearGradient id="cleyan" x1="384.85" x2="348.74" y1="275.2" y2="270.78" gradientUnits="userSpaceOnUse"><stop offset="0" stop-color="#a19eb5"/><stop offset="1" stop-color="#4a4571"/></linearGradient><linearGradient id="cleyap" x1="383.49" x2="358.23" y1="276.01" y2="271.01" gradientUnits="userSpaceOnUse"><stop offset="0" stop-color="#a19eb5"/><stop offset="1" stop-color="#4a4571"/></linearGradient><linearGradient id="cleyar" x1="380.64" x2="363.51" y1="282.78" y2="267.03" gradientUnits="userSpaceOnUse"><stop offset="0" stop-color="#a19eb5"/><stop offset=".04" stop-color="#9895ae"/><stop offset=".19" stop-color="#7c7898"/><stop offset=".36" stop-color="#666187"/><stop offset=".53" stop-color="#56517a"/><stop offset=".73" stop-color="#4d4873"/><stop offset="1" stop-color="#4a4571"/></linearGradient></defs><g><g transform="translate(-342 -253)"><g><g><g><use fill="url(#cleyb)" xlink:href="#cleya"/></g><g><use fill="url(#cleyd)" xlink:href="#cleyc"/></g><g><use fill="url(#cleyf)" xlink:href="#cleye"/></g><g><use fill="url(#cleyh)" xlink:href="#cleyg"/></g><g><use fill="url(#cleyj)" xlink:href="#cleyi"/></g></g><g><g><use fill="url(#cleyl)" xlink:href="#cleyk"/></g><g><use fill="url(#cleyn)" xlink:href="#cleym"/></g><g><use fill="url(#cleyp)" xlink:href="#cleyo"/></g><g><use fill="url(#cleyr)" xlink:href="#cleyq"/></g><g><use fill="url(#cleyt)" xlink:href="#cleys"/></g></g><g><g><use fill="url(#cleyv)" xlink:href="#cleyu"/></g><g><use fill="url(#cleyx)" xlink:href="#cleyw"/></g><g><use fill="url(#cleyz)" xlink:href="#cleyy"/></g><g><use fill="url(#cleyB)" xlink:href="#cleyA"/></g><g><use fill="url(#cleyD)" xlink:href="#cleyC"/></g></g><g><g><use fill="url(#cleyF)" xlink:href="#cleyE"/></g><g><use fill="url(#cleyH)" xlink:href="#cleyG"/></g><g><use fill="url(#cleyJ)" xlink:href="#cleyI"/></g><g><use fill="url(#cleyL)" xlink:href="#cleyK"/></g><g><use fill="url(#cleyN)" xlink:href="#cleyM"/></g></g><g><g><use fill="url(#cleyP)" xlink:href="#cleyO"/></g><g><use fill="url(#cleyR)" xlink:href="#cleyQ"/></g><g><use fill="url(#cleyT)" xlink:href="#cleyS"/></g><g><use fill="url(#cleyV)" xlink:href="#cleyU"/></g><g><use fill="url(#cleyX)" xlink:href="#cleyW"/></g></g><g><g><use fill="url(#cleyZ)" xlink:href="#cleyY"/></g><g><use fill="url(#cleyab)" xlink:href="#cleyaa"/></g><g><use fill="url(#cleyad)" xlink:href="#cleyac"/></g><g><use fill="url(#cleyaf)" xlink:href="#cleyae"/></g><g><use fill="url(#cleyah)" xlink:href="#cleyag"/></g></g><g><g><use fill="url(#cleyaj)" xlink:href="#cleyai"/></g><g><use fill="url(#cleyal)" xlink:href="#cleyak"/></g><g><use fill="url(#cleyan)" xlink:href="#cleyam"/></g><g><use fill="url(#cleyap)" xlink:href="#cleyao"/></g><g><use fill="url(#cleyar)" xlink:href="#cleyaq"/></g></g></g></g></g></svg>