<svg xmlns="http://www.w3.org/2000/svg" xmlns:xlink="http://www.w3.org/1999/xlink" width="15" height="21" viewBox="0 0 15 21"><defs><path id="1jmoa" d="M575.17 560.53l-5.95 2.3-.36 2.62c.36-.15.36-.3.72-.46 1.56-.56 3.1-.82 4.25-.41.05 0 2.94 1.08 2.94 1.08s-.98.4-.98 2.2c0 1.33-.15 3.07-1.14 4.4-1.19 1.7-3.41 2.87-5.79 3.8-.67.25-1.6 1.84-1.6 1.84s-2.18-.77-2.9-1.08l.67-3.07c.73.05 2.17-.05 3.67-.57 1.56-.56 3.21-1.94 3.21-3.63 0-1.49-.46-2-3.1-1.18-.26.1-.73 2.25-.73 2.25s-1.55-.56-2.9-1.07l1.1-8.76 8.89-3.33 2.9 1.08z"/><path id="1jmob" d="M578.07 561.61l-6.26 2.3-.36 2.62c.36-.15.62-.3 1.03-.46 1.56-.56 3.1-.82 4.25-.41 1.19.36 1.96 1.38 1.96 3.28 0 2.97-2.59 6.55-6.93 8.2-1.97.71-3.62.91-4.5.76l.67-3.07c.73.05 2.17-.05 3.67-.57 1.56-.56 3.21-1.94 3.21-3.63 0-1.64-1.3-2.15-4.55-.98-.88.31-1.5.62-2.17.98l1.08-8.76 8.9-3.33z"/><linearGradient id="1jmoc" x1="568.4" x2="578.62" y1="559.92" y2="579.64" gradientUnits="userSpaceOnUse"><stop offset="0" stop-color="#ebeaf5"/><stop offset="1" stop-color="#beb9de"/></linearGradient></defs><g><g transform="translate(-564 -557)"><g><use fill="#9f9bba" xlink:href="#1jmoa"/></g><g><use fill="url(#1jmoc)" xlink:href="#1jmob"/></g></g></g></svg>