<svg xmlns="http://www.w3.org/2000/svg" xmlns:xlink="http://www.w3.org/1999/xlink" width="16" height="21" viewBox="0 0 16 21"><defs><path id="knaqa" d="M965.2 356.8c.74.11 2.34.17 4-.44 2.11-.77 3.14-2.16 3.14-3.37 0-1.66-1.83.83-1.83.83l-3.31-1.33v-2.82l1.54-.55c1.37-.5 3.09-1.66 3.09-3.04 0-1-.12-.72-1.83-.05-.69.27-1.03 2.92-1.03 2.92s-2.4-.93-3.31-1.32l-.8-2.54a16.5 16.5 0 0 1 5.37-3.2c2.06-.78 3.66-.73 4.63-.17.28.16 2.91 1.16 2.91 1.16s-1.77.44-1.77 1.1c0 1.77 1.54 2.99-.63 4.48l-.28.6c2.05-.38 1.48.5 1.48 2.71 0 2.99-1.66 6.47-6.06 8.07-.91.33-2.8 1.66-2.8 1.66l-3.31-1.33z"/><path id="knaqb" d="M968.51 358.14c.74.1 2.34.16 4-.45 2.11-.77 3.14-2.15 3.14-3.37 0-1.65-1.71-1.77-3.48-1.1l-1.66.6v-2.81l1.54-.56c1.37-.5 3.09-1.65 3.09-3.03 0-1-.86-1.44-2.57-.83a11.3 11.3 0 0 0-3.6 2.32l-.8-2.54a16.5 16.5 0 0 1 5.37-3.21c3.71-1.33 5.77-.22 5.77 2.1 0 1.77-1.03 3.54-3.14 5.03v.05c2.05-.38 3.77.5 3.77 2.71 0 2.99-2.69 6.08-7.09 7.68-2.23.83-4.11.94-5.14.67z"/><linearGradient id="knaqc" x1="967.69" x2="979.89" y1="352.04" y2="352.04" gradientUnits="userSpaceOnUse"><stop offset="0" stop-color="#ebeaf5"/><stop offset="1" stop-color="#beb9de"/></linearGradient></defs><g><g transform="translate(-964 -341)"><g><use fill="#9f9bba" xlink:href="#knaqa"/></g><g><use fill="url(#knaqc)" xlink:href="#knaqb"/></g></g></g></svg>