<svg xmlns="http://www.w3.org/2000/svg" xmlns:xlink="http://www.w3.org/1999/xlink" width="14" height="16" viewBox="0 0 14 16"><defs><path id="cm3da" d="M687 1048.97a6.95 6.95 0 0 1-2.05 4.97 6.9 6.9 0 0 1-7.68 1.5 6.83 6.83 0 0 1-3.72-3.74 6.97 6.97 0 0 1 0-5.47 6.85 6.85 0 0 1 3.73-3.74c.68-.3 1.4-.47 2.12-.53l-.62-.63a.75.75 0 0 1-.23-.55c0-.21.08-.4.23-.55.3-.3.81-.31 1.12 0l2.03 2.04a.77.77 0 0 1 0 1.13l-2.03 2.06a.8.8 0 0 1-1.13 0 .83.83 0 0 1-.22-.57c0-.2.08-.4.24-.55l.8-.81a5.26 5.26 0 0 0-3.43 1.58 5.5 5.5 0 0 0 0 7.72 5.5 5.5 0 0 0 7.69 0 5.39 5.39 0 0 0 1.5-4.73.82.82 0 0 1 .14-.59c.13-.17.3-.29.52-.32.2-.04.4.01.57.13.19.12.3.3.32.52.07.36.1.74.1 1.13"/></defs><g><g transform="translate(-673 -1040)"><use fill="#737596" xlink:href="#cm3da"/></g></g></svg>