<svg xmlns="http://www.w3.org/2000/svg" xmlns:xlink="http://www.w3.org/1999/xlink" width="97" height="143" viewBox="0 0 97 143"><defs><path id="e97sa" d="M2141.55 839.51s53.95 31.2 67.49 89.27c-18.96-49.95-57.7-74.17-71.65-81.96z"/><path id="e97sc" d="M2145.07 833.53s50.43 36.34 63.97 94.4c-14.47-49.59-54.19-79.3-68.13-87.1z"/><path id="e97se" d="M2137.35 846.86l7.64-3.76v-9.93l-7.88 2.54z"/><path id="e97sf" d="M2125.43 817.83l7.19 6.82 9.7-2.02-4.29 8.93 4.17 7.26-1.22 1.9-7.88-1.9-6.66 7.35-1.74-9.73-7.68-2.58.44-2.5 6.91-3.68z"/><path id="e97sg" d="M2125.63 821.1l6.3 6.02 8.53-1.78-3.8 7.83 4.32 7.55-8.6-1.17-5.86 6.46-1.58-8.56-7.92-3.6 7.68-4.11z"/><path id="e97si" d="M2180.38 829.58s33.06 30.68 33.3 73.84c-5.38-38.31-28.85-61.57-37.42-69.32z"/><path id="e97sk" d="M2183.82 825.9s29.78 33.71 30.03 76.87c-2.27-37.3-25.54-64.64-34.15-72.39z"/><path id="e97sm" d="M2176.26 834.06l5.98-1.42 1.62-7.02-6.02.69z"/><path id="e97sn" d="M2172.5 811.65l3.97 5.98 7.19.12-4.49 5.6 1.78 5.82-1.13 1.13-5.25-2.58-5.9 4.12.32-7.15-5.01-3.03.73-1.7 5.45-1.53z"/><path id="e97so" d="M2172.1 814.03l3.48 5.25 6.3.08-3.92 4.92 1.86 6.02-5.9-2.18-5.17 3.6.28-6.26-5.05-3.8 6.1-1.7z"/><path id="e97sq" d="M2147.62 892.2s40.08 20.71 51.84 62.26c-15.43-35.5-44.29-51.64-54.63-56.81z"/><path id="e97ss" d="M2149.92 887.75s37.7 24.55 49.5 66.1c-12.16-35.38-41.9-55.48-52.25-60.65z"/><path id="e97su" d="M2144.83 897.64l5.37-2.94-.32-7.23-5.62 2.22z"/><path id="e97sv" d="M2135.2 877.06l5.42 4.72 6.95-1.81-2.79 6.62 3.24 5.09-.77 1.4-5.78-1.08-4.57 5.53-1.61-6.99-5.62-1.57.24-1.82 4.85-2.94z"/><path id="e97sw" d="M2135.45 879.44l4.77 4.12 6.1-1.58-2.47 5.82 3.4 5.29-6.3-.53-4 4.85-1.42-6.14-5.86-2.3 5.41-3.27z"/><linearGradient id="e97sb" x1="2169.78" x2="2177.31" y1="925.22" y2="842.78" gradientUnits="userSpaceOnUse"><stop offset="0" stop-color="#ffc036"/><stop offset="1" stop-color="#ff8d00"/></linearGradient><linearGradient id="e97sd" x1="2140.29" x2="2188.26" y1="838.48" y2="890.98" gradientUnits="userSpaceOnUse"><stop offset="0" stop-color="#ffc036"/><stop offset="1" stop-color="#ff8d00"/></linearGradient><linearGradient id="e97sh" x1="2115.93" x2="2144.76" y1="823.09" y2="843.7" gradientUnits="userSpaceOnUse"><stop offset="0" stop-color="#ffc036"/><stop offset="1" stop-color="#ff8d00"/></linearGradient><linearGradient id="e97sj" x1="2186.59" x2="2205.12" y1="894.58" y2="837.59" gradientUnits="userSpaceOnUse"><stop offset="0" stop-color="#ffc036"/><stop offset="1" stop-color="#ff8d00"/></linearGradient><linearGradient id="e97sl" x1="2179.69" x2="2205.13" y1="828.63" y2="873.37" gradientUnits="userSpaceOnUse"><stop offset="0" stop-color="#ffc036"/><stop offset="1" stop-color="#ff8d00"/></linearGradient><linearGradient id="e97sp" x1="2164.93" x2="2181.96" y1="813.88" y2="833.05" gradientUnits="userSpaceOnUse"><stop offset="0" stop-color="#ffc036"/><stop offset="1" stop-color="#ff8d00"/></linearGradient><linearGradient id="e97sr" x1="2170.96" x2="2173.57" y1="953.21" y2="893.34" gradientUnits="userSpaceOnUse"><stop offset="0" stop-color="#ffc036"/><stop offset="1" stop-color="#ff8d00"/></linearGradient><linearGradient id="e97st" x1="2146.66" x2="2183.14" y1="891.5" y2="927.82" gradientUnits="userSpaceOnUse"><stop offset="0" stop-color="#ffc036"/><stop offset="1" stop-color="#ff8d00"/></linearGradient><linearGradient id="e97sx" x1="2128.49" x2="2150.04" y1="881.2" y2="895.11" gradientUnits="userSpaceOnUse"><stop offset="0" stop-color="#ffc036"/><stop offset="1" stop-color="#ff8d00"/></linearGradient></defs><g><g transform="translate(-2117 -811)"><g><use fill="url(#e97sb)" xlink:href="#e97sa"/></g><g><use fill="url(#e97sd)" xlink:href="#e97sc"/></g><g><use fill="#1a1a3f" xlink:href="#e97se"/></g><g><use fill="#ff8d00" xlink:href="#e97sf"/></g><g><use fill="url(#e97sh)" xlink:href="#e97sg"/></g></g><g transform="translate(-2117 -811)"><g><use fill="url(#e97sj)" xlink:href="#e97si"/></g><g><use fill="url(#e97sl)" xlink:href="#e97sk"/></g><g><use fill="#1a1a3f" xlink:href="#e97sm"/></g><g><use fill="#ff8d00" xlink:href="#e97sn"/></g><g><use fill="url(#e97sp)" xlink:href="#e97so"/></g></g><g transform="translate(-2117 -811)"><g><use fill="url(#e97sr)" xlink:href="#e97sq"/></g><g><use fill="url(#e97st)" xlink:href="#e97ss"/></g><g><use fill="#1a1a3f" xlink:href="#e97su"/></g><g><use fill="#ff8d00" xlink:href="#e97sv"/></g><g><use fill="url(#e97sx)" xlink:href="#e97sw"/></g></g></g></svg>