<svg xmlns="http://www.w3.org/2000/svg" xmlns:xlink="http://www.w3.org/1999/xlink" width="15" height="28" viewBox="0 0 15 28"><defs><path id="6a7ha" d="M62.84 795.74c-.18-1.1 0-2.2.5-3.16a5.04 5.04 0 0 1 1.01 5.99 4.98 4.98 0 0 1-1.5-2.83zm4.43 2.75c1-.48 2.1-.61 3.17-.39a5.02 5.02 0 0 1-5.47 2.61c.5-.97 1.3-1.74 2.3-2.22zm-2.24 7.87a4.98 4.98 0 0 1 2.36-2.17 5.02 5.02 0 0 1-2.92 5.31 4.96 4.96 0 0 1 .56-3.14zm-1.92 10.51a4.97 4.97 0 0 1-2.92-1.31 5.02 5.02 0 0 1 6.03.6c-.93.57-2.01.82-3.11.71zm-2.86-6.99a4.97 4.97 0 0 1-1.84-2.61h.08c2.2 0 4.17 1.47 4.8 3.59a4.98 4.98 0 0 1-3.04-.98zm2.3-5.64a5.02 5.02 0 0 1-3.24-5.12 4.97 4.97 0 0 1 3.24 5.12zm3.43-2.16a6.29 6.29 0 0 0 5.93-4.18.63.63 0 0 0-.39-.8 6.24 6.24 0 0 0-4.77.23c.38-.5.8-.98 1.26-1.44a.63.63 0 1 0-.9-.9c-.33.33-.64.67-.93 1.02a6.27 6.27 0 0 0-2.63-4.9.63.63 0 0 0-.88.16 6.24 6.24 0 0 0 1.18 8.53c-.21.48-.4.97-.55 1.47a6.24 6.24 0 0 0-4.37-3.58.63.63 0 0 0-.75.48 6.29 6.29 0 0 0 4.4 7.41c-.01.67.01 1.35.09 2.01a6.24 6.24 0 0 0-5.13-1.52.63.63 0 0 0-.53.73 6.24 6.24 0 0 0 6.83 5.3c.26.6.56 1.19.9 1.76a6.28 6.28 0 0 0-5.9 1.11.63.63 0 0 0-.1.9 6.24 6.24 0 0 0 8.48 1.15c.71.7 1.5 1.33 2.32 1.87a.63.63 0 0 0 .88-.17c.2-.3.11-.69-.18-.88a14.34 14.34 0 0 1-5.55-7.06 6.29 6.29 0 0 0 3.76-7.61.63.63 0 0 0-.79-.43 6.24 6.24 0 0 0-3.74 3l-.07.15c0-1.35.2-2.7.58-4 .52.13 1.04.2 1.55.2z"/></defs><g><g transform="translate(-57 -791)"><use fill="#fff" fill-opacity=".4" xlink:href="#6a7ha"/></g></g></svg>