<svg xmlns="http://www.w3.org/2000/svg" xmlns:xlink="http://www.w3.org/1999/xlink" width="15" height="28" viewBox="0 0 15 28"><defs><path id="e1rha" d="M458.1 795.74c.19-1.1 0-2.2-.5-3.16a5.04 5.04 0 0 0-1 5.99 4.98 4.98 0 0 0 1.5-2.83zm-4.42 2.75c-1-.48-2.11-.61-3.18-.39a5.02 5.02 0 0 0 5.47 2.61 4.97 4.97 0 0 0-2.3-2.22zm2.23 7.87a4.98 4.98 0 0 0-2.36-2.17 5.02 5.02 0 0 0 2.92 5.31 4.96 4.96 0 0 0-.56-3.14zm1.93 10.51a4.97 4.97 0 0 0 2.91-1.31 5.02 5.02 0 0 0-6.03.6c.93.57 2.01.82 3.12.71zm2.86-6.99a4.97 4.97 0 0 0 1.84-2.61h-.09a5.02 5.02 0 0 0-4.8 3.59 4.98 4.98 0 0 0 3.05-.98zm-2.31-5.64a5.02 5.02 0 0 0 3.24-5.12 4.97 4.97 0 0 0-3.24 5.12zm-3.43-2.16a6.29 6.29 0 0 1-5.92-4.18.63.63 0 0 1 .38-.8 6.24 6.24 0 0 1 4.78.23c-.38-.5-.8-.98-1.26-1.44a.63.63 0 1 1 .9-.9c.32.33.63.67.92 1.02a6.27 6.27 0 0 1 2.63-4.9c.29-.2.68-.13.89.16a6.24 6.24 0 0 1-1.18 8.53c.2.48.39.97.55 1.47a6.24 6.24 0 0 1 4.37-3.58.63.63 0 0 1 .75.48 6.29 6.29 0 0 1-4.4 7.41c0 .67-.02 1.35-.1 2.01.16-.13.3-.25.47-.37 1.35-1 3-1.4 4.67-1.15.34.06.58.38.53.73a6.24 6.24 0 0 1-6.84 5.3c-.25.6-.55 1.19-.9 1.76a6.28 6.28 0 0 1 5.91 1.11c.27.22.31.62.09.9a6.24 6.24 0 0 1-8.48 1.15c-.7.7-1.49 1.33-2.32 1.87a.63.63 0 0 1-.87-.17.63.63 0 0 1 .18-.88 14.34 14.34 0 0 0 5.55-7.06 6.29 6.29 0 0 1-3.77-7.61c.1-.34.45-.53.79-.43a6.24 6.24 0 0 1 3.75 3l.07.15c0-1.35-.2-2.7-.59-4-.52.13-1.04.2-1.55.2z"/></defs><g><g transform="translate(-449 -791)"><use fill="#fff" fill-opacity=".4" xlink:href="#e1rha"/></g></g></svg>