<svg xmlns="http://www.w3.org/2000/svg" xmlns:xlink="http://www.w3.org/1999/xlink" width="40" height="28" viewBox="0 0 40 28"><defs><path id="vxdha" d="M1263.28 264.89c0-1.28 1.04-2.8 2.32-3.37v-4.73a1.63 1.63 0 0 0-2.26-1.52l-19.8 8.17a2.35 2.35 0 0 0-1.44 2.16v4.99c1.28-.57 2.32 0 2.32 1.32 0 1.28-1.04 2.8-2.32 3.37v3.68a1.63 1.63 0 0 0 2.25 1.51l19.77-8.16a2.35 2.35 0 0 0 1.44-2.16l-.54-3.47c-1.24.54-1.74-.51-1.74-1.8z"/><path id="vxdhc" d="M1266.7 258.04l-2.11-.85v-1.92l2.12.84z"/><path id="vxdhe" d="M1244.25 271.47l-2.12-.88v-1.89l2.12.84z"/><path id="vxdhg" d="M1245.23 281.28l-2.12-.85v-1.92l2.12.84z"/><path id="vxdhi" d="M1267.69 268.9l-3.03-1.18v-1.92l3.03 1.21z"/><path id="vxdhk" d="M1265.36 265.73c0-1.28 1.04-2.8 2.32-3.37v-4.73a1.63 1.63 0 0 0-2.25-1.52l-19.76 8.17a2.35 2.35 0 0 0-1.45 2.16v4.99c1.28-.57 2.32 0 2.32 1.32 0 1.28-1.04 2.8-2.32 3.37v3.68a1.63 1.63 0 0 0 2.25 1.51l19.77-8.16a2.35 2.35 0 0 0 1.44-2.16v-3.95c-1.28.54-2.32-.03-2.32-1.31z"/><path id="vxdhm" d="M1264.6 265.9c0-1.08.46-2.87 2-3.81v-3.65c0-.6-.63-1.04-1.17-.8l-19.12 7.86c-.44.16-.71.6-.71 1.07v3.51c1.24 0 2.25.81 2.25 2.36 0 2.16-1.17 3.61-2.25 4.09v2.43c0 .6.64 1.04 1.18.8l19.09-7.99c.44-.17.7-.6.7-1.08v-2.4c-1.5-.26-1.98-1.31-1.98-2.39z"/><path id="vxdhn" d="M1256.69 265.56l.74 1.28 1.58-.27c.26-.03.43.27.26.48l-1.24 1.58.34 1.8c.03.2-.14.4-.37.33l-1.65-.37-1.48 1.25c-.2.16-.54 0-.47-.27l.27-1.7-1.24-.77c-.2-.13-.17-.44.03-.5l1.85-.85.8-1.92c.14-.24.44-.27.58-.07z"/><path id="vxdho" d="M1274.43 273.22l7.37.24-6.93-8.13-7.36-.24z"/><path id="vxdhq" d="M1274.44 273.22l-6.69 9.14 7.36.4 6.69-9.3z"/><path id="vxdhs" d="M1267.75 282.36l6.69-9.14-6.93-8.13-6.72 9.14z"/><path id="vxdhu" d="M1269.53 273.55c0-.5.35-.91.78-.91.42 0 .77.4.77.91 0 .5-.35.91-.77.91-.43 0-.78-.4-.78-.91z"/><path id="vxdhv" d="M1263.65 273.89c0-.5.35-.91.78-.91.42 0 .77.4.77.91 0 .5-.35.91-.77.91-.43 0-.78-.4-.78-.91z"/><path id="vxdhw" d="M1274.6 269.69c-.45-.27-.73-.62-.63-.8.1-.17.55-.1 1 .15.46.27.74.62.64.8-.1.17-.55.1-1-.15z"/><path id="vxdhx" d="M1274.94 275.92c-.33.4-.87.7-1.17.7-.3 0-.27-.33.06-.7.34-.37.88-.71 1.18-.71.3 0 .27.3-.07.7z"/><path id="vxdhy" d="M1275.44 277.94c-.33.4-.87.7-1.17.7-.3 0-.27-.33.06-.7.34-.4.88-.71 1.18-.71.3 0 .3.3-.07.7z"/><path id="vxdhz" d="M1275.71 280.07c-.33.4-.87.7-1.17.7-.3 0-.27-.33.06-.7.34-.37.88-.71 1.18-.71.3 0 .27.3-.07.7z"/><linearGradient id="vxdhb" x1="1282.99" x2="1226.83" y1="241.66" y2="292.17" gradientUnits="userSpaceOnUse"><stop offset="0" stop-color="#a19eb5"/><stop offset="1" stop-color="#4a4571"/></linearGradient><linearGradient id="vxdhd" x1="1282.7" x2="1226.5" y1="241.31" y2="291.88" gradientUnits="userSpaceOnUse"><stop offset="0" stop-color="#a19eb5"/><stop offset="1" stop-color="#4a4571"/></linearGradient><linearGradient id="vxdhf" x1="1279.36" x2="1223.15" y1="237.52" y2="288.1" gradientUnits="userSpaceOnUse"><stop offset="0" stop-color="#a19eb5"/><stop offset="1" stop-color="#4a4571"/></linearGradient><linearGradient id="vxdhh" x1="1284.66" x2="1228.46" y1="243.44" y2="294.02" gradientUnits="userSpaceOnUse"><stop offset="0" stop-color="#a19eb5"/><stop offset="1" stop-color="#4a4571"/></linearGradient><linearGradient id="vxdhj" x1="1314.29" x2="1247.54" y1="224.21" y2="284.09" gradientUnits="userSpaceOnUse"><stop offset="0" stop-color="#a19eb5"/><stop offset="1" stop-color="#4a4571"/></linearGradient><linearGradient id="vxdhl" x1="1244.22" x2="1267.69" y1="268.69" y2="268.69" gradientUnits="userSpaceOnUse"><stop offset="0" stop-color="#a19eb5"/><stop offset="1" stop-color="#4a4571"/></linearGradient><linearGradient id="vxdhp" x1="1269.84" x2="1286.19" y1="265.02" y2="279.47" gradientUnits="userSpaceOnUse"><stop offset="0" stop-color="#a19eb5"/><stop offset="1" stop-color="#4a4571"/></linearGradient><linearGradient id="vxdhr" x1="1264.55" x2="1283.7" y1="264.21" y2="289.87" gradientUnits="userSpaceOnUse"><stop offset="0" stop-color="#a19eb5"/><stop offset="1" stop-color="#4a4571"/></linearGradient><linearGradient id="vxdht" x1="1245.27" x2="1282.82" y1="270.07" y2="276.21" gradientUnits="userSpaceOnUse"><stop offset="0" stop-color="#a19eb5"/><stop offset="1" stop-color="#4a4571"/></linearGradient></defs><g><g transform="translate(-1242 -255)"><g><g><g><use fill="url(#vxdhb)" xlink:href="#vxdha"/></g><g><use fill="url(#vxdhd)" xlink:href="#vxdhc"/></g><g><use fill="url(#vxdhf)" xlink:href="#vxdhe"/></g><g><use fill="url(#vxdhh)" xlink:href="#vxdhg"/></g><g><use fill="url(#vxdhj)" xlink:href="#vxdhi"/></g><g><use fill="url(#vxdhl)" xlink:href="#vxdhk"/></g><g><use fill="#fff" fill-opacity="0" stroke="#4a4571" stroke-miterlimit="50" stroke-width=".59" xlink:href="#vxdhm"/></g></g><g><use fill="#4a4571" xlink:href="#vxdhn"/></g><g><g><use fill="url(#vxdhp)" xlink:href="#vxdho"/></g><g><g><use fill="url(#vxdhr)" xlink:href="#vxdhq"/></g><g><use fill="url(#vxdht)" xlink:href="#vxdhs"/></g><g><use fill="#4a4571" xlink:href="#vxdhu"/></g><g><use fill="#4a4571" xlink:href="#vxdhv"/></g><g><use fill="#4a4571" xlink:href="#vxdhw"/></g><g><use fill="#4a4571" xlink:href="#vxdhx"/></g><g><use fill="#4a4571" xlink:href="#vxdhy"/></g><g><use fill="#4a4571" xlink:href="#vxdhz"/></g></g></g></g></g></g></svg>