<svg xmlns="http://www.w3.org/2000/svg" xmlns:xlink="http://www.w3.org/1999/xlink" width="45" height="72" viewBox="0 0 45 72"><defs><path id="mf90a" d="M430.69 485.48c0-6.28 9.87-11.37 22.04-11.37s22.04 5.1 22.04 11.37c0 6.28-9.87 11.37-22.04 11.37s-22.04-5.1-22.04-11.37z"/><path id="mf90c" d="M430.69 485.48v-2.88h44.08v2.88z"/><path id="mf90e" d="M430.69 482.6c0-6.28 9.87-11.37 22.04-11.37s22.04 5.1 22.04 11.37c0 6.28-9.87 11.37-22.04 11.37s-22.04-5.1-22.04-11.37z"/><path id="mf90g" d="M463.33 468.65s-2.14-3.71-7.93-5.53c-.38-.08-.61-.46-.61-.84 0-.37.23-.68.6-.75 1.6-.53 6.26-2.28 8.02-5.91 2.13-4.48 3.5-8.19 3.5-8.19H438.7s1.38 3.71 3.51 8.19c1.76 3.63 6.4 5.38 8.01 5.9.38.08.61.46.61.76 0 .38-.23.69-.61.84-5.8 1.82-7.93 5.53-7.93 5.53s-6.56 11.37-6.56 13.95c-.46 7.5 17.08 7.58 17.08 7.58s17.55-.16 17.09-7.58c-.08-2.58-6.56-13.95-6.56-13.95z"/><path id="mf90i" d="M430.69 438.94c0-5.94 9.87-10.76 22.04-10.76s22.04 4.82 22.04 10.76c0 5.94-9.87 10.76-22.04 10.76s-22.04-4.82-22.04-10.76z"/><path id="mf90k" d="M430.69 438.95v-2.73h44.08v2.73z"/><path id="mf90m" d="M430.69 436.21c0-5.94 9.87-10.76 22.04-10.76s22.04 4.82 22.04 10.76c0 5.94-9.87 10.76-22.04 10.76s-22.04-4.82-22.04-10.76z"/><path id="mf90o" d="M463.33 482.22c0 2.42-4.73 4.32-10.53 4.32-5.8 0-10.6-1.9-10.6-4.32 0-1.74 4.96-4.93 8.47-7.43 1.3-.9 2.82-.9 4.11 0 3.67 2.65 8.55 5.76 8.55 7.43z"/><path id="mf90q" d="M451.05 470.4c0-.92.75-1.67 1.68-1.67.93 0 1.68.75 1.68 1.66 0 .92-.75 1.67-1.68 1.67-.93 0-1.68-.75-1.68-1.67z"/><path id="mf90s" d="M451.74 465.77c0-.54.44-.98.99-.98s.99.44.99.98c0 .55-.44.99-.99.99a.99.99 0 0 1-.99-.98z"/><linearGradient id="mf90b" x1="483.41" x2="392.85" y1="480.86" y2="494.61" gradientUnits="userSpaceOnUse"><stop offset="0" stop-color="#ffc036"/><stop offset="1" stop-color="#ff8d00"/></linearGradient><linearGradient id="mf90d" x1="483.62" x2="392.44" y1="479.38" y2="493.22" gradientUnits="userSpaceOnUse"><stop offset="0" stop-color="#ffc036"/><stop offset="1" stop-color="#ff8d00"/></linearGradient><linearGradient id="mf90f" x1="430.72" x2="474.79" y1="482.61" y2="482.61" gradientUnits="userSpaceOnUse"><stop offset="0" stop-color="#ffc036"/><stop offset="1" stop-color="#ff8d00"/></linearGradient><linearGradient id="mf90h" x1="452.79" x2="452.79" y1="444.86" y2="503.06" gradientUnits="userSpaceOnUse"><stop offset="0" stop-color="#00c6e4"/><stop offset="1" stop-color="#0084f1"/></linearGradient><linearGradient id="mf90j" x1="488.03" x2="430.82" y1="430.68" y2="444.14" gradientUnits="userSpaceOnUse"><stop offset="0" stop-color="#ffc036"/><stop offset="1" stop-color="#ff8d00"/></linearGradient><linearGradient id="mf90l" x1="488.31" x2="430.64" y1="429.25" y2="442.82" gradientUnits="userSpaceOnUse"><stop offset="0" stop-color="#ffc036"/><stop offset="1" stop-color="#ff8d00"/></linearGradient><linearGradient id="mf90n" x1="443.27" x2="556.54" y1="435.64" y2="442.87" gradientUnits="userSpaceOnUse"><stop offset="0" stop-color="#ffc036"/><stop offset="1" stop-color="#ff8d00"/></linearGradient><linearGradient id="mf90p" x1="446.02" x2="477.49" y1="467.81" y2="535.65" gradientUnits="userSpaceOnUse"><stop offset="0" stop-color="#ffc036"/><stop offset="1" stop-color="#ff8d00"/></linearGradient><linearGradient id="mf90r" x1="450.59" x2="482.09" y1="465.72" y2="533.66" gradientUnits="userSpaceOnUse"><stop offset="0" stop-color="#ffc036"/><stop offset="1" stop-color="#ff8d00"/></linearGradient><linearGradient id="mf90t" x1="452.36" x2="483.77" y1="464.92" y2="532.73" gradientUnits="userSpaceOnUse"><stop offset="0" stop-color="#ffc036"/><stop offset="1" stop-color="#ff8d00"/></linearGradient></defs><g><g transform="translate(-430 -425)"><g><use fill="url(#mf90b)" xlink:href="#mf90a"/></g><g><use fill="url(#mf90d)" xlink:href="#mf90c"/></g><g><use fill="url(#mf90f)" xlink:href="#mf90e"/></g><g><use fill="url(#mf90h)" xlink:href="#mf90g"/></g><g><use fill="url(#mf90j)" xlink:href="#mf90i"/></g><g><use fill="url(#mf90l)" xlink:href="#mf90k"/></g><g><use fill="url(#mf90n)" xlink:href="#mf90m"/></g><g><use fill="url(#mf90p)" xlink:href="#mf90o"/></g><g><use fill="url(#mf90r)" xlink:href="#mf90q"/></g><g><use fill="url(#mf90t)" xlink:href="#mf90s"/></g></g></g></svg>