<svg xmlns="http://www.w3.org/2000/svg" xmlns:xlink="http://www.w3.org/1999/xlink" width="20" height="17" viewBox="0 0 20 17"><defs><path id="7sj9a" d="M1189.37 2302a4.88 4.88 0 0 1 2.97.98c.23-.07.46-.15.68-.24.22-.09.43-.2.62-.33a1.53 1.53 0 0 1 .63-.16 1.32 1.32 0 0 1 .8.28c.2.15.33.35.4.6.07.23.08.48.01.73.16.1.28.24.38.43a1.22 1.22 0 0 1 .08 1c-.05.12-.1.24-.19.34-.2.32-.44.6-.7.88-.26.28-.53.54-.82.78a11.35 11.35 0 0 1-3.1 7.55 11.18 11.18 0 0 1-8.36 3.45 12.4 12.4 0 0 1-3.23-.44c-.52-.15-1.03-.33-1.52-.55-.5-.21-.97-.47-1.43-.77a1.14 1.14 0 0 1-.51-.63c-.1-.28-.1-.56-.01-.83.09-.25.24-.45.46-.6.23-.17.47-.24.73-.24h.07a6.4 6.4 0 0 0 2.14-.1 4.77 4.77 0 0 1-1.45-2.13c-.03-.1-.04-.21-.05-.32 0-.11 0-.22.03-.32a4.8 4.8 0 0 1-1.29-3.23v-.04c0-.15.03-.3.08-.45.05-.14.13-.27.23-.39a4.92 4.92 0 0 1-.29-1.62 5.23 5.23 0 0 1 .66-2.4 1.24 1.24 0 0 1 .98-.59.07.07 0 0 1 .05-.02h.05a1.24 1.24 0 0 1 .96.45 8.75 8.75 0 0 0 5.15 3.03 4.9 4.9 0 0 1 3.05-3.79c.55-.2 1.12-.31 1.74-.31zm0 1.25c-1 0-1.84.34-2.54 1.02a3.29 3.29 0 0 0-.96 3.26 10.3 10.3 0 0 1-4.15-1.1 10.11 10.11 0 0 1-3.25-2.56 3.49 3.49 0 0 0-.49 1.76c0 .6.15 1.16.44 1.66.3.51.68.92 1.16 1.23a3.11 3.11 0 0 1-1.62-.43v.04a3.49 3.49 0 0 0 2.87 3.42 4.37 4.37 0 0 1-.94.14 2.92 2.92 0 0 1-.68-.08c.23.69.66 1.26 1.27 1.72.61.45 1.3.69 2.09.7a7.37 7.37 0 0 1-5.31 1.45 10.42 10.42 0 0 0 5.5 1.56 10.07 10.07 0 0 0 7.59-3.22 9.85 9.85 0 0 0 1.97-3.2c.44-1.18.66-2.34.66-3.48v-.24c0-.08 0-.15-.02-.21a7.48 7.48 0 0 0 1.8-1.82 6.82 6.82 0 0 1-2.05.55 3.45 3.45 0 0 0 1.56-1.92 7.2 7.2 0 0 1-2.27.84 3.8 3.8 0 0 0-2.63-1.09z"/></defs><g><g transform="translate(-1176 -2302)"><use fill="#fff" xlink:href="#7sj9a"/></g></g></svg>