<svg id="Слой_1" data-name="Слой 1" xmlns="http://www.w3.org/2000/svg" xmlns:xlink="http://www.w3.org/1999/xlink" viewBox="0 0 39.92 39.96"><defs><style>.cls-1{fill:url(#radial-gradient);}.cls-2{fill:#9b469f;}.cls-3{fill:#fff;}.cls-4{fill:url(#linear-gradient);}</style><radialGradient id="radial-gradient" cx="13.32" cy="8.19" r="31.03" gradientUnits="userSpaceOnUse"><stop offset="0" stop-color="#faac0c"/><stop offset="1" stop-color="#b350a5"/></radialGradient><linearGradient id="linear-gradient" x1="14.84" y1="19.35" x2="18.6" y2="31.76" xlink:href="#radial-gradient"/></defs><title>Шар5</title><circle class="cls-1" cx="19.88" cy="19.93" r="19.88"/><ellipse class="cls-2" cx="13.8" cy="20.47" rx="9.96" ry="10.6"/><ellipse class="cls-3" cx="13.8" cy="19.42" rx="9.96" ry="10.6"/><path class="cls-3" d="M13.81,6.43s7.27.89,13.13-2.18a21.85,21.85,0,0,0-7.07.14A25.42,25.42,0,0,0,13.81,6.43Z" transform="translate(-3.72 -4.02)"/><path class="cls-3" d="M20,43.54a31.74,31.74,0,0,1,12.39-1.65,20.49,20.49,0,0,1-6.78,2A21.67,21.67,0,0,1,20,43.54Z" transform="translate(-3.72 -4.02)"/><path class="cls-3" d="M42.85,28.52a21.22,21.22,0,0,1-3.3-7.85,19.35,19.35,0,0,1,.06-8.27S45.78,19.47,42.85,28.52Z" transform="translate(-3.72 -4.02)"/><path class="cls-4" d="M12.54,19.83s.57,4.33.76,5.49c1.48-.57,4.11-1.65,4.66-.11s-2.79,2.5-4.35,2.47c.08.7.16,2,.16,2s7.63.07,6.89-4.78c-.67-4.36-5.76-2.32-5.76-2.32l-.14-1.19,4.34-1.13-.4-2Z" transform="translate(-3.72 -4.02)"/></svg>