<?xml version="1.0" standalone="no"?>
<!DOCTYPE svg PUBLIC "-//W3C//DTD SVG 20010904//EN"
 "http://www.w3.org/TR/2001/REC-SVG-20010904/DTD/svg10.dtd">
<svg version="1.0" xmlns="http://www.w3.org/2000/svg"
 width="700.000000pt" height="700.000000pt" viewBox="0 0 700.000000 700.000000"
 preserveAspectRatio="xMidYMid meet">
<metadata>
Created by potrace 1.11, written by Peter Selinger 2001-2013
</metadata>
<g transform="translate(0.000000,700.000000) scale(0.100000,-0.100000)"
fill="#000000" stroke="none">
<path d="M3258 6985 c-1 -1 -37 -5 -79 -9 -143 -11 -303 -35 -464 -70 -211
-45 -489 -142 -731 -255 -72 -34 -141 -61 -153 -61 -13 0 -21 -5 -19 -12 3 -7
-33 -34 -81 -61 -47 -27 -120 -72 -161 -100 -73 -48 -300 -215 -310 -227 -3
-3 -44 -41 -92 -83 -165 -146 -340 -336 -472 -512 -63 -84 -146 -203 -146
-209 0 -3 -13 -24 -29 -48 -113 -171 -244 -450 -346 -738 -25 -72 -90 -313
-100 -375 -3 -16 -12 -64 -20 -105 -8 -41 -18 -97 -21 -125 -3 -27 -8 -63 -10
-80 -25 -195 -25 -669 0 -815 3 -14 7 -47 11 -75 33 -277 142 -658 270 -940
37 -84 122 -253 135 -270 5 -5 20 -32 35 -60 78 -141 259 -393 386 -537 347
-391 740 -680 1229 -901 191 -87 572 -203 760 -232 25 -4 54 -9 65 -11 11 -2
40 -7 65 -10 25 -3 52 -8 61 -9 9 -2 52 -6 95 -10 43 -4 90 -8 104 -11 35 -6
423 -5 490 1 148 13 180 17 245 26 253 34 627 135 826 222 19 8 66 28 105 46
39 17 79 31 89 31 10 0 16 3 12 6 -5 5 116 75 193 111 112 52 407 261 574 405
80 69 289 278 348 348 65 78 150 184 168 210 8 12 31 44 50 70 299 414 537
1017 595 1505 3 28 8 61 11 74 26 121 25 714 -1 851 -2 10 -6 41 -10 71 -4 30
-8 56 -10 59 -2 3 -6 28 -9 55 -9 67 -41 208 -78 335 -118 416 -303 789 -566
1139 -52 69 -103 135 -113 146 -10 11 -44 49 -76 85 -290 323 -635 588 -1028
788 -217 110 -537 230 -715 267 -8 2 -53 12 -100 24 -47 11 -109 23 -137 27
-29 3 -51 9 -49 13 2 3 -21 7 -52 8 -32 1 -109 8 -172 15 -98 12 -561 23 -572
13z"/>
</g>
</svg>
